<svg version="1.1" viewBox="0.0 0.0 960.0 540.0" fill="none" stroke="none" stroke-linecap="square" stroke-miterlimit="10" xmlns:xlink="http://www.w3.org/1999/xlink" xmlns="http://www.w3.org/2000/svg"><clipPath id="g1ae6714c8ad_0_0.0"><path d="m0 0l960.0 0l0 540.0l-960.0 0l0 -540.0z" clip-rule="nonzero"/></clipPath><g clip-path="url(#g1ae6714c8ad_0_0.0)"><path fill="#212121" d="m0 0l960.0 0l0 540.0l-960.0 0z" fill-rule="evenodd"/><path fill="#000000" fill-opacity="0.0" d="m101.70079 156.8819l756.5984 0l0 226.2362l-756.5984 0z" fill-rule="evenodd"/><path fill="#adadad" d="m113.997665 206.84189l0 -30.53125l10.515625 0q3.5625 0 5.4375 0.4375q2.625 0.59375 4.46875 2.1875q2.421875 2.03125 3.609375 5.21875q1.203125 3.171875 1.203125 7.25q0 3.484375 -0.8125 6.171875q-0.8125 2.6875 -2.078125 4.453125q-1.265625 1.75 -2.78125 2.765625q-1.515625 1.0 -3.65625 1.53125q-2.125 0.515625 -4.890625 0.515625l-11.015625 0zm4.03125 -3.609375l6.515625 0q3.03125 0 4.75 -0.5625q1.71875 -0.5625 2.734375 -1.578125q1.4375 -1.4375 2.234375 -3.859375q0.8125 -2.421875 0.8125 -5.890625q0 -4.78125 -1.578125 -7.359375q-1.578125 -2.578125 -3.828125 -3.453125q-1.625 -0.625 -5.21875 -0.625l-6.421875 0l0 23.328125zm40.726852 0.875q-2.09375 1.78125 -4.015625 2.515625q-1.921875 0.71875 -4.125 0.71875q-3.65625 0 -5.609375 -1.78125q-1.953125 -1.78125 -1.953125 -4.546875q0 -1.625 0.734375 -2.96875q0.734375 -1.34375 1.9375 -2.15625q1.203125 -0.8125 2.703125 -1.234375q1.09375 -0.28125 3.328125 -0.5625q4.53125 -0.53125 6.6875 -1.28125q0.015625 -0.78125 0.015625 -0.984375q0 -2.296875 -1.0625 -3.234375q-1.4375 -1.265625 -4.265625 -1.265625q-2.640625 0 -3.90625 0.9375q-1.265625 0.921875 -1.859375 3.265625l-3.671875 -0.5q0.5 -2.34375 1.640625 -3.796875q1.15625 -1.453125 3.3125 -2.234375q2.171875 -0.78125 5.015625 -0.78125q2.84375 0 4.609375 0.671875q1.765625 0.671875 2.59375 1.6875q0.84375 1.0 1.171875 2.546875q0.1875 0.953125 0.1875 3.453125l0 5.0q0 5.21875 0.234375 6.609375q0.25 1.390625 0.953125 2.65625l-3.90625 0q-0.59375 -1.171875 -0.75 -2.734375zm-0.3125 -8.359375q-2.046875 0.828125 -6.125 1.40625q-2.3125 0.328125 -3.28125 0.75q-0.953125 0.421875 -1.46875 1.21875q-0.515625 0.796875 -0.515625 1.78125q0 1.5 1.125 2.5q1.140625 1.0 3.328125 1.0q2.15625 0 3.84375 -0.9375q1.6875 -0.953125 2.484375 -2.609375q0.609375 -1.265625 0.609375 -3.75l0 -1.359375zm17.785873 7.734375l0.53125 3.3125q-1.578125 0.34375 -2.828125 0.34375q-2.03125 0 -3.15625 -0.640625q-1.125 -0.65625 -1.59375 -1.703125q-0.453125 -1.0625 -0.453125 -4.4375l0 -12.71875l-2.75 0l0 -2.921875l2.75 0l0 -5.46875l3.734375 -2.25l0 7.71875l3.765625 0l0 2.921875l-3.765625 0l0 12.9375q0 1.59375 0.1875 2.0625q0.203125 0.453125 0.640625 0.734375q0.453125 0.265625 1.296875 0.265625q0.625 0 1.640625 -0.15625zm18.101273 0.625q-2.09375 1.78125 -4.015625 2.515625q-1.921875 0.71875 -4.125 0.71875q-3.65625 0 -5.609375 -1.78125q-1.953125 -1.78125 -1.953125 -4.546875q0 -1.625 0.734375 -2.96875q0.734375 -1.34375 1.9375 -2.15625q1.203125 -0.8125 2.703125 -1.234375q1.09375 -0.28125 3.328125 -0.5625q4.53125 -0.53125 6.6875 -1.28125q0.015625 -0.78125 0.015625 -0.984375q0 -2.296875 -1.0625 -3.234375q-1.4375 -1.265625 -4.265625 -1.265625q-2.640625 0 -3.90625 0.9375q-1.265625 0.921875 -1.859375 3.265625l-3.671875 -0.5q0.5 -2.34375 1.640625 -3.796875q1.15625 -1.453125 3.3125 -2.234375q2.171875 -0.78125 5.015625 -0.78125q2.84375 0 4.609375 0.671875q1.765625 0.671875 2.59375 1.6875q0.84375 1.0 1.171875 2.546875q0.1875 0.953125 0.1875 3.453125l0 5.0q0 5.21875 0.234375 6.609375q0.25 1.390625 0.953125 2.65625l-3.90625 0q-0.59375 -1.171875 -0.75 -2.734375zm-0.3125 -8.359375q-2.046875 0.828125 -6.125 1.40625q-2.3125 0.328125 -3.28125 0.75q-0.953125 0.421875 -1.46875 1.21875q-0.515625 0.796875 -0.515625 1.78125q0 1.5 1.125 2.5q1.140625 1.0 3.328125 1.0q2.15625 0 3.84375 -0.9375q1.6875 -0.953125 2.484375 -2.609375q0.609375 -1.265625 0.609375 -3.75l0 -1.359375zm36.59027 3.96875l3.875 0.484375q-0.921875 3.390625 -3.40625 5.265625q-2.46875 1.875 -6.328125 1.875q-4.84375 0 -7.6875 -2.984375q-2.84375 -3.0 -2.84375 -8.390625q0 -5.578125 2.875 -8.65625q2.875 -3.09375 7.453125 -3.09375q4.4375 0 7.25 3.03125q2.8125 3.015625 2.8125 8.5q0 0.328125 -0.015625 0.984375l-16.5 0q0.203125 3.65625 2.0625 5.59375q1.859375 1.9375 4.625 1.9375q2.0625 0 3.515625 -1.078125q1.453125 -1.09375 2.3125 -3.46875zm-12.3125 -6.0625l12.359375 0q-0.25 -2.78125 -1.421875 -4.1875q-1.796875 -2.15625 -4.640625 -2.15625q-2.578125 0 -4.34375 1.734375q-1.765625 1.71875 -1.953125 4.609375zm20.895248 13.1875l0 -22.125l3.375 0l0 3.15625q2.4375 -3.65625 7.03125 -3.65625q2.0 0 3.671875 0.71875q1.6875 0.71875 2.515625 1.890625q0.84373474 1.171875 1.1718597 2.765625q0.203125 1.046875 0.203125 3.65625l0 13.59375l-3.7499847 0l0 -13.453125q0 -2.296875 -0.4375 -3.421875q-0.4375 -1.140625 -1.546875 -1.8125q-1.109375 -0.6875 -2.609375 -0.6875q-2.390625 0 -4.140625 1.53125q-1.734375 1.515625 -1.734375 5.765625l0 12.078125l-3.75 0zm23.035873 1.828125l3.640625 0.546875q0.234375 1.6875 1.28125 2.453125q1.390625 1.046875 3.796875 1.046875q2.609375 0 4.015625 -1.046875q1.421875 -1.03125 1.921875 -2.90625q0.296875 -1.15625 0.28125 -4.8125q-2.46875 2.890625 -6.125 2.890625q-4.5625 0 -7.0625 -3.28125q-2.5 -3.296875 -2.5 -7.90625q0 -3.15625 1.140625 -5.828125q1.15625 -2.6875 3.328125 -4.140625q2.171875 -1.46875 5.109375 -1.46875q3.921875 0 6.453125 3.171875l0 -2.671875l3.46875 0l0 19.125q0 5.171875 -1.0625 7.328125q-1.046875 2.15625 -3.328125 3.40625q-2.28125 1.25 -5.609375 1.25q-3.953125 0 -6.390625 -1.78125q-2.4375 -1.78125 -2.359375 -5.375zm3.109375 -13.28125q0 4.34375 1.71875 6.34375q1.734375 2.0 4.328125 2.0q2.59375 0 4.34375 -1.984375q1.75 -1.984375 1.75 -6.234375q0 -4.0625 -1.8125 -6.125q-1.796875 -2.0625 -4.34375 -2.0625q-2.484375 0 -4.234375 2.03125q-1.75 2.03125 -1.75 6.03125zm21.317108 -14.765625l0 -4.3125l3.75 0l0 4.3125l-3.75 0zm0 26.21875l0 -22.125l3.75 0l0 22.125l-3.75 0zm9.461243 0l0 -22.125l3.375 0l0 3.15625q2.4375 -3.65625 7.03125 -3.65625q2.0 0 3.671875 0.71875q1.6875 0.71875 2.515625 1.890625q0.84375 1.171875 1.171875 2.765625q0.203125 1.046875 0.203125 3.65625l0 13.59375l-3.75 0l0 -13.453125q0 -2.296875 -0.4375 -3.421875q-0.4375 -1.140625 -1.546875 -1.8125q-1.109375 -0.6875 -2.609375 -0.6875q-2.390625 0 -4.140625 1.53125q-1.734375 1.515625 -1.734375 5.765625l0 12.078125l-3.75 0zm38.863983 -7.125l3.875 0.484375q-0.921875 3.390625 -3.40625 5.265625q-2.46875 1.875 -6.328125 1.875q-4.84375 0 -7.6875 -2.984375q-2.84375 -3.0 -2.84375 -8.390625q0 -5.578125 2.875 -8.65625q2.875 -3.09375 7.453125 -3.09375q4.4375 0 7.25 3.03125q2.8125 3.015625 2.8125 8.5q0 0.328125 -0.015625 0.984375l-16.5 0q0.203125 3.65625 2.0625 5.59375q1.859375 1.9375 4.625 1.9375q2.0625 0 3.515625 -1.078125q1.453125 -1.09375 2.3125 -3.46875zm-12.3125 -6.0625l12.359375 0q-0.25 -2.78125 -1.421875 -4.1875q-1.796875 -2.15625 -4.640625 -2.15625q-2.578125 0 -4.34375 1.734375q-1.765625 1.71875 -1.953125 4.609375zm36.03586 6.0625l3.875 0.484375q-0.921875 3.390625 -3.40625 5.265625q-2.4687195 1.875 -6.3280945 1.875q-4.84375 0 -7.6875 -2.984375q-2.84375 -3.0 -2.84375 -8.390625q0 -5.578125 2.875 -8.65625q2.875 -3.09375 7.453125 -3.09375q4.4375 0 7.2499695 3.03125q2.8125 3.015625 2.8125 8.5q0 0.328125 -0.015625 0.984375l-16.49997 0q0.203125 3.65625 2.0625 5.59375q1.859375 1.9375 4.625 1.9375q2.0625 0 3.515625 -1.078125q1.4530945 -1.09375 2.3124695 -3.46875zm-12.3124695 -6.0625l12.3593445 0q-0.25 -2.78125 -1.4218445 -4.1875q-1.796875 -2.15625 -4.640625 -2.15625q-2.578125 0 -4.34375 1.734375q-1.765625 1.71875 -1.953125 4.609375zm20.848358 13.1875l0 -22.125l3.375 0l0 3.359375q1.296875 -2.359375 2.390625 -3.109375q1.09375 -0.75 2.40625 -0.75q1.890625 0 3.84375 1.21875l-1.28125 3.46875q-1.375 -0.8125 -2.75 -0.8125q-1.234375 0 -2.21875 0.75q-0.96875 0.734375 -1.390625 2.046875q-0.625 2.0 -0.625 4.375l0 11.578125l-3.75 0zm14.2673645 -26.21875l0 -4.3125l3.75 0l0 4.3125l-3.75 0zm0 26.21875l0 -22.125l3.75 0l0 22.125l-3.75 0zm9.461212 0l0 -22.125l3.375 0l0 3.15625q2.4375 -3.65625 7.03125 -3.65625q2.0 0 3.671875 0.71875q1.6875 0.71875 2.515625 1.890625q0.84375 1.171875 1.171875 2.765625q0.203125 1.046875 0.203125 3.65625l0 13.59375l-3.75 0l0 -13.453125q0 -2.296875 -0.4375 -3.421875q-0.4375 -1.140625 -1.546875 -1.8125q-1.109375 -0.6875 -2.609375 -0.6875q-2.390625 0 -4.140625 1.53125q-1.734375 1.515625 -1.734375 5.765625l0 12.078125l-3.75 0zm23.035889 1.828125l3.640625 0.546875q0.234375 1.6875 1.28125 2.453125q1.390625 1.046875 3.796875 1.046875q2.609375 0 4.015625 -1.046875q1.421875 -1.03125 1.921875 -2.90625q0.296875 -1.15625 0.28125 -4.8125q-2.46875 2.890625 -6.125 2.890625q-4.5625 0 -7.0625 -3.28125q-2.5 -3.296875 -2.5 -7.90625q0 -3.15625 1.140625 -5.828125q1.15625 -2.6875 3.328125 -4.140625q2.171875 -1.46875 5.109375 -1.46875q3.921875 0 6.453125 3.171875l0 -2.671875l3.46875 0l0 19.125q0 5.171875 -1.0625 7.328125q-1.046875 2.15625 -3.328125 3.40625q-2.28125 1.25 -5.609375 1.25q-3.953125 0 -6.390625 -1.78125q-2.4375 -1.78125 -2.359375 -5.375zm3.109375 -13.28125q0 4.34375 1.71875 6.34375q1.734375 2.0 4.328125 2.0q2.59375 0 4.34375 -1.984375q1.75 -1.984375 1.75 -6.234375q0 -4.0625 -1.8125 -6.125q-1.796875 -2.0625 -4.34375 -2.0625q-2.484375 0 -4.234375 2.03125q-1.75 2.03125 -1.75 6.03125zm33.168396 -14.765625l0 -4.3125l3.75 0l0 4.3125l-3.75 0zm0 26.21875l0 -22.125l3.75 0l0 22.125l-3.75 0zm7.9612427 -6.609375l3.703125 -0.578125q0.3125 2.234375 1.734375 3.421875q1.4375 1.1875 4.0 1.1875q2.578125 0 3.828125 -1.046875q1.25 -1.0625 1.25 -2.484375q0 -1.265625 -1.109375 -2.0q-0.765625 -0.5 -3.828125 -1.265625q-4.125 -1.046875 -5.71875 -1.796875q-1.59375 -0.765625 -2.421875 -2.109375q-0.8125 -1.34375 -0.8125 -2.96875q0 -1.46875 0.671875 -2.734375q0.6875 -1.265625 1.84375 -2.09375q0.875 -0.640625 2.390625 -1.09375q1.515625 -0.453125 3.234375 -0.453125q2.609375 0 4.578125 0.75q1.96875 0.75 2.90625 2.03125q0.9375 1.28125 1.28125 3.4375l-3.65625 0.5q-0.25 -1.71875 -1.453125 -2.671875q-1.203125 -0.953125 -3.375 -0.953125q-2.59375 0 -3.703125 0.859375q-1.09375 0.84375 -1.09375 1.984375q0 0.734375 0.453125 1.3125q0.46875 0.609375 1.4375 1.0q0.5625 0.21875 3.3125 0.96875q3.984375 1.0625 5.546875 1.734375q1.578125 0.671875 2.46875 1.96875q0.90625 1.28125 0.90625 3.203125q0 1.875 -1.09375 3.53125q-1.09375 1.65625 -3.15625 2.5625q-2.0625 0.90625 -4.671875 0.90625q-4.3125 0 -6.578125 -1.78125q-2.25 -1.796875 -2.875 -5.328125zm42.866882 3.25l0.53125 3.3125q-1.578125 0.34375 -2.828125 0.34375q-2.03125 0 -3.15625 -0.640625q-1.125 -0.65625 -1.59375 -1.703125q-0.453125 -1.0625 -0.453125 -4.4375l0 -12.71875l-2.75 0l0 -2.921875l2.75 0l0 -5.46875l3.734375 -2.25l0 7.71875l3.765625 0l0 2.921875l-3.765625 0l0 12.9375q0 1.59375 0.1875 2.0625q0.203125 0.453125 0.640625 0.734375q0.453125 0.265625 1.296875 0.265625q0.625 0 1.640625 -0.15625zm3.6637573 3.359375l0 -30.53125l3.75 0l0 10.953125q2.625 -3.046875 6.6250305 -3.046875q2.453125 0 4.265625 0.96875q1.8125 0.96875 2.59375 2.6875q0.78125 1.703125 0.78125 4.953125l0 14.015625l-3.75 0l0 -14.015625q0 -2.8125 -1.21875 -4.09375q-1.21875 -1.28125 -3.453125 -1.28125q-1.65625 0 -3.1250305 0.875q-1.46875 0.859375 -2.09375 2.34375q-0.625 1.46875 -0.625 4.078125l0 12.09375l-3.75 0zm38.864044 -7.125l3.875 0.484375q-0.921875 3.390625 -3.40625 5.265625q-2.46875 1.875 -6.328125 1.875q-4.84375 0 -7.6875 -2.984375q-2.84375 -3.0 -2.84375 -8.390625q0 -5.578125 2.875 -8.65625q2.875 -3.09375 7.453125 -3.09375q4.4375 0 7.25 3.03125q2.8125 3.015625 2.8125 8.5q0 0.328125 -0.015625 0.984375l-16.5 0q0.203125 3.65625 2.0625 5.59375q1.859375 1.9375 4.625 1.9375q2.0625 0 3.515625 -1.078125q1.453125 -1.09375 2.3125 -3.46875zm-12.3125 -6.0625l12.359375 0q-0.25 -2.78125 -1.421875 -4.1875q-1.796875 -2.15625 -4.640625 -2.15625q-2.578125 0 -4.34375 1.734375q-1.765625 1.71875 -1.953125 4.609375zm32.74652 21.671875l0 -30.609375l3.421875 0l0 2.875q1.203125 -1.6875 2.71875 -2.53125q1.53125 -0.84375 3.6875 -0.84375q2.828125 0 5.0 1.46875q2.171875 1.453125 3.265625 4.109375q1.109375 2.65625 1.109375 5.828125q0 3.390625 -1.21875 6.109375q-1.21875 2.71875 -3.546875 4.171875q-2.3125 1.4375 -4.875 1.4375q-1.875 0 -3.375 -0.78125q-1.484375 -0.796875 -2.4375 -2.015625l0 10.78125l-3.75 0zm3.390625 -19.421875q0 4.265625 1.734375 6.3125q1.734375 2.046875 4.1875 2.046875q2.5 0 4.28125 -2.109375q1.78125 -2.125 1.78125 -6.5625q0 -4.21875 -1.75 -6.328125q-1.734375 -2.109375 -4.15625 -2.109375q-2.390625 0 -4.234375 2.25q-1.84375 2.234375 -1.84375 6.5zm20.285889 10.9375l0 -22.125l3.375 0l0 3.359375q1.296875 -2.359375 2.390625 -3.109375q1.09375 -0.75 2.40625 -0.75q1.890625 0 3.84375 1.21875l-1.28125 3.46875q-1.375 -0.8125 -2.75 -0.8125q-1.234375 0 -2.21875 0.75q-0.96875 0.734375 -1.390625 2.046875q-0.625 2.0 -0.625 4.375l0 11.578125l-3.75 0zm28.689209 -2.734375q-2.09375 1.78125 -4.015625 2.515625q-1.921875 0.71875 -4.125 0.71875q-3.65625 0 -5.609375 -1.78125q-1.953125 -1.78125 -1.953125 -4.546875q0 -1.625 0.734375 -2.96875q0.734375 -1.34375 1.9375 -2.15625q1.203125 -0.8125 2.703125 -1.234375q1.09375 -0.28125 3.328125 -0.5625q4.53125 -0.53125 6.6875 -1.28125q0.015625 -0.78125 0.015625 -0.984375q0 -2.296875 -1.0625 -3.234375q-1.4375 -1.265625 -4.265625 -1.265625q-2.640625 0 -3.90625 0.9375q-1.265625 0.921875 -1.859375 3.265625l-3.671875 -0.5q0.5 -2.34375 1.640625 -3.796875q1.15625 -1.453125 3.3125 -2.234375q2.171875 -0.78125 5.015625 -0.78125q2.84375 0 4.609375 0.671875q1.765625 0.671875 2.59375 1.6875q0.84375 1.0 1.171875 2.546875q0.1875 0.953125 0.1875 3.453125l0 5.0q0 5.21875 0.234375 6.609375q0.25 1.390625 0.953125 2.65625l-3.90625 0q-0.59375 -1.171875 -0.75 -2.734375zm-0.3125 -8.359375q-2.046875 0.828125 -6.125 1.40625q-2.3125 0.328125 -3.28125 0.75q-0.953125 0.421875 -1.46875 1.21875q-0.515625 0.796875 -0.515625 1.78125q0 1.5 1.125 2.5q1.140625 1.0 3.328125 1.0q2.15625 0 3.84375 -0.9375q1.6875 -0.953125 2.484375 -2.609375q0.609375 -1.265625 0.609375 -3.75l0 -1.359375zm24.035889 2.984375l3.6875 0.484375q-0.609375 3.8125 -3.109375 5.96875q-2.484375 2.15625 -6.109375 2.15625q-4.53125 0 -7.296875 -2.96875q-2.75 -2.96875 -2.75 -8.5q0 -3.59375 1.1875 -6.28125q1.1875 -2.6875 3.609375 -4.03125q2.421875 -1.34375 5.28125 -1.34375q3.59375 0 5.890625 1.828125q2.296875 1.828125 2.9375 5.171875l-3.640625 0.5625q-0.53125 -2.21875 -1.859375 -3.34375q-1.3125 -1.125 -3.1875 -1.125q-2.828125 0 -4.609375 2.03125q-1.765625 2.03125 -1.765625 6.421875q0 4.453125 1.703125 6.484375q1.71875 2.015625 4.46875 2.015625q2.203125 0 3.671875 -1.359375q1.484375 -1.359375 1.890625 -4.171875zm15.078125 4.75l0.53125 3.3125q-1.578125 0.34375 -2.828125 0.34375q-2.03125 0 -3.15625 -0.640625q-1.125 -0.65625 -1.59375 -1.703125q-0.453125 -1.0625 -0.453125 -4.4375l0 -12.71875l-2.75 0l0 -2.921875l2.75 0l0 -5.46875l3.734375 -2.25l0 7.71875l3.765625 0l0 2.921875l-3.765625 0l0 12.9375q0 1.59375 0.1875 2.0625q0.203125 0.453125 0.640625 0.734375q0.453125 0.265625 1.296875 0.265625q0.625 0 1.640625 -0.15625zm3.6793823 -22.859375l0 -4.3125l3.75 0l0 4.3125l-3.75 0zm0 26.21875l0 -22.125l3.75 0l0 22.125l-3.75 0zm23.898743 -8.109375l3.6875 0.484375q-0.609375 3.8125 -3.109375 5.96875q-2.484375 2.15625 -6.109375 2.15625q-4.53125 0 -7.296875 -2.96875q-2.75 -2.96875 -2.75 -8.5q0 -3.59375 1.1875 -6.28125q1.1875 -2.6875 3.609375 -4.03125q2.421875 -1.34375 5.28125 -1.34375q3.59375 0 5.890625 1.828125q2.296875 1.828125 2.9375 5.171875l-3.640625 0.5625q-0.53125 -2.21875 -1.859375 -3.34375q-1.3125 -1.125 -3.1875 -1.125q-2.828125 0 -4.609375 2.03125q-1.765625 2.03125 -1.765625 6.421875q0 4.453125 1.703125 6.484375q1.71875 2.015625 4.46875 2.015625q2.203125 0 3.671875 -1.359375q1.484375 -1.359375 1.890625 -4.171875zm22.03125 0.984375l3.875 0.484375q-0.921875 3.390625 -3.40625 5.265625q-2.46875 1.875 -6.328125 1.875q-4.84375 0 -7.6875 -2.984375q-2.84375 -3.0 -2.84375 -8.390625q0 -5.578125 2.875 -8.65625q2.875 -3.09375 7.453125 -3.09375q4.4375 0 7.25 3.03125q2.8125 3.015625 2.8125 8.5q0 0.328125 -0.015625 0.984375l-16.5 0q0.203125 3.65625 2.0625 5.59375q1.859375 1.9375 4.625 1.9375q2.0625 0 3.515625 -1.078125q1.453125 -1.09375 2.3125 -3.46875zm-12.3125 -6.0625l12.359375 0q-0.25 -2.78125 -1.421875 -4.1875q-1.796875 -2.15625 -4.640625 -2.15625q-2.578125 0 -4.34375 1.734375q-1.765625 1.71875 -1.953125 4.609375zm31.355896 2.125q0 -6.140625 3.40625 -9.09375q2.859375 -2.46875 6.953125 -2.46875q4.5625 0 7.453125 3.0q2.90625 2.984375 2.90625 8.25q0 4.265625 -1.28125 6.71875q-1.28125 2.453125 -3.734375 3.8125q-2.4375 1.34375 -5.34375 1.34375q-4.640625 0 -7.5 -2.96875q-2.859375 -2.984375 -2.859375 -8.59375zm3.84375 0q0 4.25 1.859375 6.375q1.859375 2.109375 4.65625 2.109375q2.796875 0 4.640625 -2.125q1.859375 -2.125 1.859375 -6.484375q0 -4.09375 -1.859375 -6.203125q-1.859375 -2.125 -4.640625 -2.125q-2.796875 0 -4.65625 2.109375q-1.859375 2.09375 -1.859375 6.34375zm22.160889 11.0625l0 -19.203125l-3.3125 0l0 -2.921875l3.3125 0l0 -2.34375q0 -2.234375 0.40625 -3.3125q0.53125 -1.46875 1.890625 -2.375q1.375 -0.90625 3.828125 -0.90625q1.578125 0 3.5 0.375l-0.5625 3.28125q-1.171875 -0.21875 -2.203125 -0.21875q-1.703125 0 -2.421875 0.734375q-0.703125 0.734375 -0.703125 2.734375l0 2.03125l4.3125 0l0 2.921875l-4.3125 0l0 19.203125l-3.734375 0z" fill-rule="nonzero"/><path fill="#4dd0e1" d="m127.85704 258.0419l0 -2.7968903q-2.09375 3.2968903 -6.1875 3.2968903q-2.640625 0 -4.859375 -1.453125q-2.21875 -1.4687653 -3.4375 -4.0781403q-1.21875 -2.609375 -1.21875 -6.0q0 -3.3125 1.109375 -6.015625q1.109375 -2.703125 3.3125 -4.140625q2.203125 -1.4375 4.9375 -1.4375q2.0 0 3.5625 0.84375q1.5625 0.84375 2.53125 2.203125l0 -10.953125l3.734375 0l0 30.531265l-3.484375 0zm-11.84375 -11.031265q0 4.234375 1.78125 6.34375q1.796875 2.109375 4.234375 2.109375q2.453125 0 4.171875 -2.015625q1.71875 -2.015625 1.71875 -6.125q0 -4.546875 -1.75 -6.671875q-1.75 -2.125 -4.3125 -2.125q-2.484375 0 -4.171875 2.046875q-1.671875 2.03125 -1.671875 6.4375zm36.364 3.90625l3.875 0.484375q-0.921875 3.390625 -3.40625 5.2656403q-2.46875 1.875 -6.328125 1.875q-4.84375 0 -7.6875 -2.9843903q-2.84375 -3.0 -2.84375 -8.390625q0 -5.578125 2.875 -8.65625q2.875 -3.09375 7.453125 -3.09375q4.4375 0 7.25 3.03125q2.8125 3.015625 2.8125 8.5q0 0.328125 -0.015625 0.984375l-16.5 0q0.203125 3.65625 2.0625 5.59375q1.859375 1.9375 4.625 1.9375q2.0625 0 3.515625 -1.078125q1.453125 -1.09375 2.3125 -3.46875zm-12.3125 -6.0625l12.359375 0q-0.25 -2.78125 -1.421875 -4.1875q-1.796875 -2.15625 -4.640625 -2.15625q-2.578125 0 -4.34375 1.734375q-1.765625 1.71875 -1.953125 4.609375zm19.395248 6.578125l3.703125 -0.578125q0.3125 2.234375 1.734375 3.421875q1.4375 1.1875 4.0 1.1875q2.578125 0 3.828125 -1.046875q1.25 -1.0625 1.25 -2.484375q0 -1.265625 -1.109375 -2.0q-0.765625 -0.5 -3.828125 -1.265625q-4.125 -1.046875 -5.71875 -1.796875q-1.59375 -0.765625 -2.421875 -2.109375q-0.8125 -1.34375 -0.8125 -2.96875q0 -1.46875 0.671875 -2.734375q0.6875 -1.265625 1.84375 -2.09375q0.875 -0.640625 2.390625 -1.09375q1.515625 -0.453125 3.234375 -0.453125q2.609375 0 4.578125 0.75q1.96875 0.75 2.90625 2.03125q0.9375 1.28125 1.28125 3.4375l-3.65625 0.5q-0.25 -1.71875 -1.453125 -2.671875q-1.203125 -0.953125 -3.375 -0.953125q-2.59375 0 -3.703125 0.859375q-1.09375 0.84375 -1.09375 1.984375q0 0.734375 0.453125 1.3125q0.46875 0.609375 1.4375 1.0q0.5625 0.21875 3.3125 0.96875q3.984375 1.0625 5.546875 1.734375q1.578125 0.671875 2.46875 1.96875q0.90625 1.28125 0.90625 3.203125q0 1.875 -1.09375 3.53125q-1.09375 1.6562653 -3.15625 2.5625153q-2.0625 0.90625 -4.671875 0.90625q-4.3125 0 -6.578125 -1.78125q-2.25 -1.7968903 -2.875 -5.3281403zm22.84375 -19.609375l0 -4.3125l3.75 0l0 4.3125l-3.75 0zm0 26.218765l0 -22.125015l3.75 0l0 22.125015l-3.75 0zm8.773727 1.828125l3.640625 0.546875q0.234375 1.6875 1.28125 2.453125q1.390625 1.046875 3.796875 1.046875q2.609375 0 4.015625 -1.046875q1.421875 -1.03125 1.921875 -2.90625q0.296875 -1.15625 0.28125 -4.8125153q-2.46875 2.8906403 -6.125 2.8906403q-4.5625 0 -7.0625 -3.2812653q-2.5 -3.296875 -2.5 -7.90625q0 -3.15625 1.140625 -5.828125q1.15625 -2.6875 3.328125 -4.140625q2.171875 -1.46875 5.109375 -1.46875q3.921875 0 6.453125 3.171875l0 -2.671875l3.46875 0l0 19.125q0 5.1718903 -1.0625 7.3281403q-1.046875 2.15625 -3.328125 3.40625q-2.28125 1.25 -5.609375 1.25q-3.953125 0 -6.390625 -1.78125q-2.4375 -1.78125 -2.359375 -5.375zm3.109375 -13.281265q0 4.34375 1.71875 6.34375q1.734375 2.0 4.328125 2.0q2.59375 0 4.34375 -1.984375q1.75 -1.984375 1.75 -6.234375q0 -4.0625 -1.8125 -6.125q-1.796875 -2.0625 -4.34375 -2.0625q-2.484375 0 -4.234375 2.03125q-1.75 2.03125 -1.75 6.03125zm21.301498 11.45314l0 -22.125015l3.375 0l0 3.15625q2.4375 -3.65625 7.03125 -3.65625q2.0 0 3.671875 0.71875q1.6875 0.71875 2.515625 1.890625q0.84375 1.171875 1.171875 2.765625q0.203125 1.046875 0.203125 3.65625l0 13.593765l-3.75 0l0 -13.45314q0 -2.296875 -0.4375 -3.421875q-0.4375 -1.140625 -1.546875 -1.8125q-1.109375 -0.6875 -2.609375 -0.6875q-2.390625 0 -4.140625 1.53125q-1.734375 1.515625 -1.734375 5.765625l0 12.07814l-3.75 0zm23.738998 -26.218765l0 -4.3125l3.75 0l0 4.3125l-3.75 0zm0 26.218765l0 -22.125015l3.75 0l0 22.125015l-3.75 0zm9.461227 0l0 -22.125015l3.375 0l0 3.15625q2.4375 -3.65625 7.0312347 -3.65625q2.0 0 3.671875 0.71875q1.6875 0.71875 2.515625 1.890625q0.84375 1.171875 1.171875 2.765625q0.203125 1.046875 0.203125 3.65625l0 13.593765l-3.75 0l0 -13.45314q0 -2.296875 -0.4375 -3.421875q-0.4375 -1.140625 -1.546875 -1.8125q-1.109375 -0.6875 -2.609375 -0.6875q-2.3906097 0 -4.1406097 1.53125q-1.734375 1.515625 -1.734375 5.765625l0 12.07814l-3.75 0zm23.035873 1.828125l3.640625 0.546875q0.234375 1.6875 1.28125 2.453125q1.390625 1.046875 3.796875 1.046875q2.609375 0 4.015625 -1.046875q1.421875 -1.03125 1.921875 -2.90625q0.296875 -1.15625 0.28125 -4.8125153q-2.46875 2.8906403 -6.125 2.8906403q-4.5625 0 -7.0625 -3.2812653q-2.5 -3.296875 -2.5 -7.90625q0 -3.15625 1.140625 -5.828125q1.15625 -2.6875 3.328125 -4.140625q2.171875 -1.46875 5.109375 -1.46875q3.921875 0 6.453125 3.171875l0 -2.671875l3.46875 0l0 19.125q0 5.1718903 -1.0625 7.3281403q-1.046875 2.15625 -3.328125 3.40625q-2.28125 1.25 -5.609375 1.25q-3.953125 0 -6.390625 -1.78125q-2.4375 -1.78125 -2.359375 -5.375zm3.109375 -13.281265q0 4.34375 1.71875 6.34375q1.734375 2.0 4.328125 2.0q2.59375 0 4.34375 -1.984375q1.75 -1.984375 1.75 -6.234375q0 -4.0625 -1.8125 -6.125q-1.796875 -2.0625 -4.34375 -2.0625q-2.484375 0 -4.234375 2.03125q-1.75 2.03125 -1.75 6.03125z" fill-rule="nonzero"/><path fill="#adadad" d="m322.42413 255.30751q-2.09375 1.7812653 -4.015625 2.5156403q-1.921875 0.71875 -4.125 0.71875q-3.65625 0 -5.609375 -1.78125q-1.953125 -1.7812653 -1.953125 -4.5468903q0 -1.625 0.734375 -2.96875q0.734375 -1.34375 1.9375 -2.15625q1.203125 -0.8125 2.703125 -1.234375q1.09375 -0.28125 3.328125 -0.5625q4.53125 -0.53125 6.6875 -1.28125q0.015625 -0.78125 0.015625 -0.984375q0 -2.296875 -1.0625 -3.234375q-1.4375 -1.265625 -4.265625 -1.265625q-2.640625 0 -3.90625 0.9375q-1.265625 0.921875 -1.859375 3.265625l-3.671875 -0.5q0.5 -2.34375 1.640625 -3.796875q1.15625 -1.453125 3.3125 -2.234375q2.171875 -0.78125 5.015625 -0.78125q2.84375 0 4.609375 0.671875q1.765625 0.671875 2.59375 1.6875q0.84375 1.0 1.171875 2.546875q0.1875 0.953125 0.1875 3.453125l0 5.0q0 5.21875 0.234375 6.609375q0.25 1.3906403 0.953125 2.6562653l-3.90625 0q-0.59375 -1.171875 -0.75 -2.7343903zm-0.3125 -8.359375q-2.046875 0.828125 -6.125 1.40625q-2.3125 0.328125 -3.28125 0.75q-0.953125 0.421875 -1.46875 1.21875q-0.515625 0.796875 -0.515625 1.78125q0 1.5 1.125 2.5q1.140625 1.0 3.328125 1.0q2.15625 0 3.84375 -0.9375q1.6875 -0.953125 2.484375 -2.609375q0.609375 -1.265625 0.609375 -3.75l0 -1.359375zm9.598358 11.093765l0 -22.125015l3.375 0l0 3.15625q2.4375 -3.65625 7.03125 -3.65625q2.0 0 3.671875 0.71875q1.6875 0.71875 2.515625 1.890625q0.84375 1.171875 1.171875 2.765625q0.203125 1.046875 0.203125 3.65625l0 13.593765l-3.75 0l0 -13.45314q0 -2.296875 -0.4375 -3.421875q-0.4375 -1.140625 -1.546875 -1.8125q-1.109375 -0.6875 -2.609375 -0.6875q-2.390625 0 -4.140625 1.53125q-1.734375 1.515625 -1.734375 5.765625l0 12.07814l-3.75 0zm38.06714 0l0 -2.7968903q-2.09375 3.2968903 -6.1875 3.2968903q-2.640625 0 -4.859375 -1.453125q-2.21875 -1.4687653 -3.4375 -4.0781403q-1.21875 -2.609375 -1.21875 -6.0q0 -3.3125 1.109375 -6.015625q1.109375 -2.703125 3.3125 -4.140625q2.203125 -1.4375 4.9375 -1.4375q2.0 0 3.5625 0.84375q1.5625 0.84375 2.53125 2.203125l0 -10.953125l3.734375 0l0 30.531265l-3.484375 0zm-11.84375 -11.031265q0 4.234375 1.78125 6.34375q1.796875 2.109375 4.234375 2.109375q2.453125 0 4.171875 -2.015625q1.71875 -2.015625 1.71875 -6.125q0 -4.546875 -1.75 -6.671875q-1.75 -2.125 -4.3125 -2.125q-2.484375 0 -4.171875 2.046875q-1.671875 2.03125 -1.671875 6.4375z" fill-rule="nonzero"/><path fill="#4dd0e1" d="m394.46115 258.0419l-3.46875 0l0 -30.531265l3.75 0l0 10.890625q2.375 -2.984375 6.046875 -2.984375q2.046875 0 3.859375 0.828125q1.828125 0.828125 3.0 2.3125q1.1875 1.484375 1.84375 3.59375q0.671875 2.109375 0.671875 4.5q0 5.6875 -2.8125 8.796875q-2.8125 3.0937653 -6.75 3.0937653q-3.90625 0 -6.140625 -3.2656403l0 2.7656403zm-0.03125 -11.218765q0 3.96875 1.078125 5.734375q1.765625 2.90625 4.78125 2.90625q2.46875 0 4.25 -2.140625q1.796875 -2.140625 1.796875 -6.359375q0 -4.328125 -1.71875 -6.390625q-1.71875 -2.0625 -4.15625 -2.0625q-2.453125 0 -4.25 2.140625q-1.78125 2.125 -1.78125 6.171875zm34.801514 11.218765l0 -3.2500153q-2.59375 3.7500153 -7.015625 3.7500153q-1.96875 0 -3.671875 -0.75q-1.6875 -0.75 -2.515625 -1.8750153q-0.8125 -1.140625 -1.15625 -2.796875q-0.21875 -1.09375 -0.21875 -3.5l0 -13.703125l3.75 0l0 12.265625q0 2.9375 0.21875 3.96875q0.359375 1.46875 1.5 2.3125q1.15625 0.84375 2.828125 0.84375q1.6875 0 3.171875 -0.859375q1.484375 -0.859375 2.09375 -2.34375q0.609375 -1.5 0.609375 -4.328125l0 -11.859375l3.75 0l0 22.125015l-3.34375 0zm9.238983 -26.218765l0 -4.3125l3.75 0l0 4.3125l-3.75 0zm0 26.218765l0 -22.125015l3.75 0l0 22.125015l-3.75 0zm9.383087 0l0 -30.531265l3.75 0l0 30.531265l-3.75 0zm23.898743 0l0 -2.7968903q-2.09375 3.2968903 -6.1875 3.2968903q-2.640625 0 -4.859375 -1.453125q-2.21875 -1.4687653 -3.4375 -4.0781403q-1.21875 -2.609375 -1.21875 -6.0q0 -3.3125 1.109375 -6.015625q1.109375 -2.703125 3.3125 -4.140625q2.203125 -1.4375 4.9375 -1.4375q2.0 0 3.5625 0.84375q1.5625 0.84375 2.53125 2.203125l0 -10.953125l3.734375 0l0 30.531265l-3.484375 0zm-11.84375 -11.031265q0 4.234375 1.78125 6.34375q1.796875 2.109375 4.234375 2.109375q2.453125 0 4.171875 -2.015625q1.71875 -2.015625 1.71875 -6.125q0 -4.546875 -1.75 -6.671875q-1.75 -2.125 -4.3125 -2.125q-2.484375 0 -4.171875 2.046875q-1.671875 2.03125 -1.671875 6.4375zm21.239014 -15.1875l0 -4.3125l3.75 0l0 4.3125l-3.75 0zm0 26.218765l0 -22.125015l3.75 0l0 22.125015l-3.75 0zm9.461212 0l0 -22.125015l3.375 0l0 3.15625q2.4375 -3.65625 7.03125 -3.65625q2.0 0 3.671875 0.71875q1.6875 0.71875 2.515625 1.890625q0.84375 1.171875 1.171875 2.765625q0.203125 1.046875 0.203125 3.65625l0 13.593765l-3.75 0l0 -13.45314q0 -2.296875 -0.4375 -3.421875q-0.4375 -1.140625 -1.546875 -1.8125q-1.109375 -0.6875 -2.609375 -0.6875q-2.390625 0 -4.140625 1.53125q-1.734375 1.515625 -1.734375 5.765625l0 12.07814l-3.75 0zm23.035889 1.828125l3.640625 0.546875q0.234375 1.6875 1.28125 2.453125q1.390625 1.046875 3.796875 1.046875q2.609375 0 4.015625 -1.046875q1.421875 -1.03125 1.921875 -2.90625q0.296875 -1.15625 0.28125 -4.8125153q-2.46875 2.8906403 -6.125 2.8906403q-4.5625 0 -7.0625 -3.2812653q-2.5 -3.296875 -2.5 -7.90625q0 -3.15625 1.140625 -5.828125q1.15625 -2.6875 3.328125 -4.140625q2.171875 -1.46875 5.109375 -1.46875q3.921875 0 6.453125 3.171875l0 -2.671875l3.46875 0l0 19.125q0 5.1718903 -1.0625 7.3281403q-1.046875 2.15625 -3.328125 3.40625q-2.28125 1.25 -5.609375 1.25q-3.953125 0 -6.390625 -1.78125q-2.4375 -1.78125 -2.359375 -5.375zm3.109375 -13.281265q0 4.34375 1.71875 6.34375q1.734375 2.0 4.328125 2.0q2.59375 0 4.34375 -1.984375q1.75 -1.984375 1.75 -6.234375q0 -4.0625 -1.8125 -6.125q-1.796875 -2.0625 -4.34375 -2.0625q-2.484375 0 -4.234375 2.03125q-1.75 2.03125 -1.75 6.03125z" fill-rule="nonzero"/><path fill="#adadad" d="m548.40674 251.43251l3.703125 -0.578125q0.3125 2.234375 1.734375 3.421875q1.4375 1.1875 4.0 1.1875q2.578125 0 3.828125 -1.046875q1.25 -1.0625 1.25 -2.484375q0 -1.265625 -1.109375 -2.0q-0.765625 -0.5 -3.828125 -1.265625q-4.125 -1.046875 -5.71875 -1.796875q-1.59375 -0.765625 -2.421875 -2.109375q-0.8125 -1.34375 -0.8125 -2.96875q0 -1.46875 0.671875 -2.734375q0.6875 -1.265625 1.84375 -2.09375q0.875 -0.640625 2.390625 -1.09375q1.515625 -0.453125 3.234375 -0.453125q2.609375 0 4.578125 0.75q1.96875 0.75 2.90625 2.03125q0.9375 1.28125 1.28125 3.4375l-3.65625 0.5q-0.25 -1.71875 -1.453125 -2.671875q-1.203125 -0.953125 -3.375 -0.953125q-2.59375 0 -3.703125 0.859375q-1.09375 0.84375 -1.09375 1.984375q0 0.734375 0.453125 1.3125q0.46875 0.609375 1.4375 1.0q0.5625 0.21875 3.3125 0.96875q3.984375 1.0625 5.546875 1.734375q1.578125 0.671875 2.46875 1.96875q0.90625 1.28125 0.90625 3.203125q0 1.875 -1.09375 3.53125q-1.09375 1.6562653 -3.15625 2.5625153q-2.0625 0.90625 -4.671875 0.90625q-4.3125 0 -6.578125 -1.78125q-2.25 -1.7968903 -2.875 -5.3281403zm22.65625 15.125015l-0.40625 -3.515625q1.21875 0.328125 2.140625 0.328125q1.25 0 2.0 -0.421875q0.75 -0.40625 1.234375 -1.15625q0.34375 -0.5625 1.140625 -2.796875q0.109375 -0.3125 0.328125 -0.90625l-8.390625 -22.17189l4.046875 0l4.59375 12.8125q0.90625 2.4375 1.609375 5.125q0.640625 -2.578125 1.53125 -5.046875l4.734375 -12.890625l3.75 0l-8.421875 22.500015q-1.34375 3.640625 -2.09375 5.015625q-1.0 1.859375 -2.296875 2.71875q-1.28125 0.875 -3.078125 0.875q-1.078125 0 -2.421875 -0.46875zm20.0 -15.125015l3.703125 -0.578125q0.3125 2.234375 1.734375 3.421875q1.4375 1.1875 4.0 1.1875q2.578125 0 3.828125 -1.046875q1.25 -1.0625 1.25 -2.484375q0 -1.265625 -1.109375 -2.0q-0.765625 -0.5 -3.828125 -1.265625q-4.125 -1.046875 -5.71875 -1.796875q-1.59375 -0.765625 -2.421875 -2.109375q-0.8125 -1.34375 -0.8125 -2.96875q0 -1.46875 0.671875 -2.734375q0.6875 -1.265625 1.84375 -2.09375q0.875 -0.640625 2.390625 -1.09375q1.515625 -0.453125 3.234375 -0.453125q2.609375 0 4.578125 0.75q1.96875 0.75 2.90625 2.03125q0.9375 1.28125 1.28125 3.4375l-3.65625 0.5q-0.25 -1.71875 -1.453125 -2.671875q-1.203125 -0.953125 -3.375 -0.953125q-2.59375 0 -3.703125 0.859375q-1.09375 0.84375 -1.09375 1.984375q0 0.734375 0.453125 1.3125q0.46875 0.609375 1.4375 1.0q0.5625 0.21875 3.3125 0.96875q3.984375 1.0625 5.546875 1.734375q1.578125 0.671875 2.46875 1.96875q0.90625 1.28125 0.90625 3.203125q0 1.875 -1.09375 3.53125q-1.09375 1.6562653 -3.15625 2.5625153q-2.0625 0.90625 -4.671875 0.90625q-4.3125 0 -6.578125 -1.78125q-2.25 -1.7968903 -2.875 -5.3281403zm31.015625 3.25l0.53125 3.3125153q-1.578125 0.34375 -2.828125 0.34375q-2.03125 0 -3.15625 -0.640625q-1.125 -0.65625 -1.59375 -1.7031403q-0.453125 -1.0625 -0.453125 -4.4375l0 -12.71875l-2.75 0l0 -2.921875l2.75 0l0 -5.46875l3.734375 -2.25l0 7.71875l3.765625 0l0 2.921875l-3.765625 0l0 12.9375q0 1.59375 0.1875 2.0625q0.203125 0.453125 0.640625 0.734375q0.453125 0.265625 1.296875 0.265625q0.625 0 1.640625 -0.15625zm18.804443 -3.765625l3.875 0.484375q-0.921875 3.390625 -3.40625 5.2656403q-2.46875 1.875 -6.328125 1.875q-4.84375 0 -7.6875 -2.9843903q-2.84375 -3.0 -2.84375 -8.390625q0 -5.578125 2.875 -8.65625q2.875 -3.09375 7.453125 -3.09375q4.4375 0 7.25 3.03125q2.8125 3.015625 2.8125 8.5q0 0.328125 -0.015625 0.984375l-16.5 0q0.203125 3.65625 2.0625 5.59375q1.859375 1.9375 4.625 1.9375q2.0625 0 3.515625 -1.078125q1.453125 -1.09375 2.3125 -3.46875zm-12.3125 -6.0625l12.359375 0q-0.25 -2.78125 -1.421875 -4.1875q-1.796875 -2.15625 -4.640625 -2.15625q-2.578125 0 -4.34375 1.734375q-1.765625 1.71875 -1.953125 4.609375zm20.895203 13.187515l0 -22.125015l3.359375 0l0 3.109375q1.03125 -1.625 2.765625 -2.609375q1.734375 -1.0 3.9375 -1.0q2.453125 0 4.015625 1.03125q1.578125 1.015625 2.234375 2.84375q2.625 -3.875 6.828125 -3.875q3.296875 0 5.0625 1.828125q1.765625 1.828125 1.765625 5.609375l0 15.187515l-3.71875 0l0 -13.937515q0 -2.25 -0.375 -3.234375q-0.359375 -0.984375 -1.328125 -1.59375q-0.953125 -0.609375 -2.234375 -0.609375q-2.34375 0 -3.890625 1.5625q-1.53125 1.546875 -1.53125 4.96875l0 12.843765l-3.75 0l0 -14.375015q0 -2.5 -0.921875 -3.75q-0.90625 -1.25 -3.0 -1.25q-1.578125 0 -2.921875 0.84375q-1.34375 0.828125 -1.953125 2.4375q-0.59375 1.59375 -0.59375 4.625l0 11.468765l-3.75 0zm34.03302 -6.6093903l3.703125 -0.578125q0.3125 2.234375 1.734375 3.421875q1.4375 1.1875 4.0 1.1875q2.578125 0 3.828125 -1.046875q1.25 -1.0625 1.25 -2.484375q0 -1.265625 -1.109375 -2.0q-0.765625 -0.5 -3.828125 -1.265625q-4.125 -1.046875 -5.71875 -1.796875q-1.59375 -0.765625 -2.421875 -2.109375q-0.8125 -1.34375 -0.8125 -2.96875q0 -1.46875 0.671875 -2.734375q0.6875 -1.265625 1.84375 -2.09375q0.875 -0.640625 2.390625 -1.09375q1.515625 -0.453125 3.234375 -0.453125q2.609375 0 4.578125 0.75q1.96875 0.75 2.90625 2.03125q0.9375 1.28125 1.28125 3.4375l-3.65625 0.5q-0.25 -1.71875 -1.453125 -2.671875q-1.203125 -0.953125 -3.375 -0.953125q-2.59375 0 -3.703125 0.859375q-1.09375 0.84375 -1.09375 1.984375q0 0.734375 0.453125 1.3125q0.46875 0.609375 1.4375 1.0q0.5625 0.21875 3.3125 0.96875q3.984375 1.0625 5.546875 1.734375q1.578125 0.671875 2.46875 1.96875q0.90625 1.28125 0.90625 3.203125q0 1.875 -1.09375 3.53125q-1.09375 1.6562653 -3.15625 2.5625153q-2.0625 0.90625 -4.671875 0.90625q-4.3125 0 -6.578125 -1.78125q-2.25 -1.7968903 -2.875 -5.3281403zm35.570007 6.6093903l0 -19.20314l-3.3125 0l0 -2.921875l3.3125 0l0 -2.34375q0 -2.234375 0.40625 -3.3125q0.53125 -1.46875 1.890625 -2.375q1.375 -0.90625 3.828125 -0.90625q1.578125 0 3.5 0.375l-0.5625 3.28125q-1.171875 -0.21875 -2.203125 -0.21875q-1.703125 0 -2.421875 0.734375q-0.703125 0.734375 -0.703125 2.734375l0 2.03125l4.3125 0l0 2.921875l-4.3125 0l0 19.20314l-3.734375 0zm9.570007 -11.062515q0 -6.140625 3.40625 -9.09375q2.859375 -2.46875 6.953125 -2.46875q4.5625 0 7.453125 3.0q2.90625 2.984375 2.90625 8.25q0 4.265625 -1.28125 6.71875q-1.28125 2.453125 -3.734375 3.8125153q-2.4375 1.34375 -5.34375 1.34375q-4.640625 0 -7.5 -2.9687653q-2.859375 -2.984375 -2.859375 -8.59375zm3.84375 0q0 4.25 1.859375 6.375q1.859375 2.109375 4.65625 2.109375q2.796875 0 4.640625 -2.125q1.859375 -2.125 1.859375 -6.484375q0 -4.09375 -1.859375 -6.203125q-1.859375 -2.125 -4.640625 -2.125q-2.796875 0 -4.65625 2.109375q-1.859375 2.09375 -1.859375 6.34375zm21.223389 11.062515l0 -22.125015l3.375 0l0 3.359375q1.296875 -2.359375 2.390625 -3.109375q1.09375 -0.75 2.40625 -0.75q1.890625 0 3.84375 1.21875l-1.28125 3.46875q-1.375 -0.8125 -2.75 -0.8125q-1.234375 0 -2.21875 0.75q-0.96875 0.734375 -1.390625 2.046875q-0.625 2.0 -0.625 4.375l0 11.57814l-3.75 0z" fill-rule="nonzero"/><path fill="#ffab40" d="m127.95079 301.1325l3.6875 0.484375q-0.609375 3.8125 -3.109375 5.96875q-2.484375 2.15625 -6.109375 2.15625q-4.53125 0 -7.296875 -2.96875q-2.75 -2.96875 -2.75 -8.5q0 -3.59375 1.1875 -6.28125q1.1875 -2.6875 3.609375 -4.03125q2.421875 -1.34375 5.28125 -1.34375q3.59375 0 5.890625 1.828125q2.296875 1.828125 2.9375 5.171875l-3.640625 0.5625q-0.53125 -2.21875 -1.859375 -3.34375q-1.3125 -1.125 -3.1875 -1.125q-2.828125 0 -4.609375 2.03125q-1.765625 2.03125 -1.765625 6.421875q0 4.453125 1.703125 6.484375q1.71875 2.015625 4.46875 2.015625q2.203125 0 3.671875 -1.359375q1.484375 -1.359375 1.890625 -4.171875zm5.5 -2.953125q0 -6.140625 3.40625 -9.09375q2.859375 -2.46875 6.953125 -2.46875q4.5625 0 7.453125 3.0q2.90625 2.984375 2.90625 8.25q0 4.265625 -1.28125 6.71875q-1.28125 2.453125 -3.734375 3.8125q-2.4375 1.34375 -5.34375 1.34375q-4.640625 0 -7.5 -2.96875q-2.859375 -2.984375 -2.859375 -8.59375zm3.84375 0q0 4.25 1.859375 6.375q1.859375 2.109375 4.65625 2.109375q2.796875 0 4.640625 -2.125q1.859375 -2.125 1.859375 -6.484375q0 -4.09375 -1.859375 -6.203125q-1.859375 -2.125 -4.640625 -2.125q-2.796875 0 -4.65625 2.109375q-1.859375 2.09375 -1.859375 6.34375zm21.192123 11.0625l0 -30.53125l3.75 0l0 30.53125l-3.75 0zm9.476852 0l0 -30.53125l3.75 0l0 30.53125l-3.75 0zm24.695602 -7.125l3.875 0.484375q-0.921875 3.390625 -3.40625 5.265625q-2.46875 1.875 -6.328125 1.875q-4.84375 0 -7.6875 -2.984375q-2.84375 -3.0 -2.84375 -8.390625q0 -5.578125 2.875 -8.65625q2.875 -3.09375 7.453125 -3.09375q4.4375 0 7.25 3.03125q2.8125 3.015625 2.8125 8.5q0 0.328125 -0.015625 0.984375l-16.5 0q0.203125 3.65625 2.0625 5.59375q1.859375 1.9375 4.625 1.9375q2.0625 0 3.515625 -1.078125q1.453125 -1.09375 2.3125 -3.46875zm-12.3125 -6.0625l12.359375 0q-0.25 -2.78125 -1.421875 -4.1875q-1.796875 -2.15625 -4.640625 -2.15625q-2.578125 0 -4.34375 1.734375q-1.765625 1.71875 -1.953125 4.609375zm35.33275 5.078125l3.6875 0.484375q-0.609375 3.8125 -3.109375 5.96875q-2.484375 2.15625 -6.109375 2.15625q-4.53125 0 -7.296875 -2.96875q-2.75 -2.96875 -2.75 -8.5q0 -3.59375 1.1875 -6.28125q1.1875 -2.6875 3.609375 -4.03125q2.421875 -1.34375 5.28125 -1.34375q3.59375 0 5.890625 1.828125q2.296875 1.828125 2.9375 5.171875l-3.640625 0.5625q-0.53125 -2.21875 -1.859375 -3.34375q-1.3125 -1.125 -3.1875 -1.125q-2.828125 0 -4.609375 2.03125q-1.765625 2.03125 -1.765625 6.421875q0 4.453125 1.703125 6.484375q1.71875 2.015625 4.46875 2.015625q2.203125 0 3.671875 -1.359375q1.484375 -1.359375 1.890625 -4.171875zm15.078125 4.75l0.53125 3.3125q-1.578125 0.34375 -2.828125 0.34375q-2.03125 0 -3.15625 -0.640625q-1.125 -0.65625 -1.59375 -1.703125q-0.453125 -1.0625 -0.453125 -4.4375l0 -12.71875l-2.75 0l0 -2.921875l2.75 0l0 -5.46875l3.734375 -2.25l0 7.71875l3.765625 0l0 2.921875l-3.765625 0l0 12.9375q0 1.59375 0.1875 2.0625q0.203125 0.453125 0.640625 0.734375q0.453125 0.265625 1.296875 0.265625q0.625 0 1.640625 -0.15625zm3.6793976 -22.859375l0 -4.3125l3.75 0l0 4.3125l-3.75 0zm0 26.21875l0 -22.125l3.75 0l0 22.125l-3.75 0zm9.461227 0l0 -22.125l3.375 0l0 3.15625q2.4375 -3.65625 7.03125 -3.65625q1.9999847 0 3.6718597 0.71875q1.6875 0.71875 2.515625 1.890625q0.84375 1.171875 1.171875 2.765625q0.203125 1.046875 0.203125 3.65625l0 13.59375l-3.75 0l0 -13.453125q0 -2.296875 -0.4375 -3.421875q-0.4375 -1.140625 -1.546875 -1.8125q-1.1093597 -0.6875 -2.6093597 -0.6875q-2.390625 0 -4.140625 1.53125q-1.734375 1.515625 -1.734375 5.765625l0 12.078125l-3.75 0zm23.035873 1.828125l3.640625 0.546875q0.234375 1.6875 1.28125 2.453125q1.390625 1.046875 3.796875 1.046875q2.609375 0 4.015625 -1.046875q1.421875 -1.03125 1.921875 -2.90625q0.296875 -1.15625 0.28125 -4.8125q-2.46875 2.890625 -6.125 2.890625q-4.5625 0 -7.0625 -3.28125q-2.5 -3.296875 -2.5 -7.90625q0 -3.15625 1.140625 -5.828125q1.15625 -2.6875 3.328125 -4.140625q2.171875 -1.46875 5.109375 -1.46875q3.921875 0 6.453125 3.171875l0 -2.671875l3.46875 0l0 19.125q0 5.171875 -1.0625 7.328125q-1.046875 2.15625 -3.328125 3.40625q-2.28125 1.25 -5.609375 1.25q-3.953125 0 -6.390625 -1.78125q-2.4375 -1.78125 -2.359375 -5.375zm3.109375 -13.28125q0 4.34375 1.71875 6.34375q1.734375 2.0 4.328125 2.0q2.59375 0 4.34375 -1.984375q1.75 -1.984375 1.75 -6.234375q0 -4.0625 -1.8125 -6.125q-1.796875 -2.0625 -4.34375 -2.0625q-2.484375 0 -4.234375 2.03125q-1.75 2.03125 -1.75 6.03125z" fill-rule="nonzero"/><path fill="#adadad" d="m292.32922 309.24188l0 -4.265625l4.265625 0l0 4.265625q0 2.359375 -0.84375 3.796875q-0.828125 1.453125 -2.640625 2.25l-1.03125 -1.609375q1.1875 -0.515625 1.75 -1.53125q0.5625 -1.015625 0.625 -2.90625l-2.125 0z" fill-rule="nonzero"/><path fill="#ffab40" d="m313.5474 302.6325l3.703125 -0.578125q0.3125 2.234375 1.734375 3.421875q1.4375 1.1875 4.0 1.1875q2.578125 0 3.828125 -1.046875q1.25 -1.0625 1.25 -2.484375q0 -1.265625 -1.109375 -2.0q-0.765625 -0.5 -3.828125 -1.265625q-4.125 -1.046875 -5.71875 -1.796875q-1.59375 -0.765625 -2.421875 -2.109375q-0.8125 -1.34375 -0.8125 -2.96875q0 -1.46875 0.671875 -2.734375q0.6875 -1.265625 1.84375 -2.09375q0.875 -0.640625 2.390625 -1.09375q1.515625 -0.453125 3.234375 -0.453125q2.609375 0 4.578125 0.75q1.96875 0.75 2.90625 2.03125q0.9375 1.28125 1.28125 3.4375l-3.65625 0.5q-0.25 -1.71875 -1.453125 -2.671875q-1.203125 -0.953125 -3.375 -0.953125q-2.59375 0 -3.703125 0.859375q-1.09375 0.84375 -1.09375 1.984375q0 0.734375 0.453125 1.3125q0.46875 0.609375 1.4375 1.0q0.5625 0.21875 3.3125 0.96875q3.984375 1.0625 5.546875 1.734375q1.578125 0.671875 2.46875 1.96875q0.90625 1.28125 0.90625 3.203125q0 1.875 -1.09375 3.53125q-1.09375 1.65625 -3.15625 2.5625q-2.0625 0.90625 -4.671875 0.90625q-4.3125 0 -6.578125 -1.78125q-2.25 -1.796875 -2.875 -5.328125zm31.015625 3.25l0.53125 3.3125q-1.578125 0.34375 -2.828125 0.34375q-2.03125 0 -3.15625 -0.640625q-1.125 -0.65625 -1.59375 -1.703125q-0.453125 -1.0625 -0.453125 -4.4375l0 -12.71875l-2.75 0l0 -2.921875l2.75 0l0 -5.46875l3.734375 -2.25l0 7.71875l3.765625 0l0 2.921875l-3.765625 0l0 12.9375q0 1.59375 0.1875 2.0625q0.203125 0.453125 0.640625 0.734375q0.453125 0.265625 1.296875 0.265625q0.625 0 1.640625 -0.15625zm2.2731628 -7.703125q0 -6.140625 3.40625 -9.09375q2.859375 -2.46875 6.953125 -2.46875q4.5624695 0 7.4530945 3.0q2.90625 2.984375 2.90625 8.25q0 4.265625 -1.28125 6.71875q-1.28125 2.453125 -3.734375 3.8125q-2.4375 1.34375 -5.3437195 1.34375q-4.640625 0 -7.5 -2.96875q-2.859375 -2.984375 -2.859375 -8.59375zm3.84375 0q0 4.25 1.859375 6.375q1.859375 2.109375 4.65625 2.109375q2.7968445 0 4.6405945 -2.125q1.859375 -2.125 1.859375 -6.484375q0 -4.09375 -1.859375 -6.203125q-1.859375 -2.125 -4.6405945 -2.125q-2.796875 0 -4.65625 2.109375q-1.859375 2.09375 -1.859375 6.34375zm21.223358 11.0625l0 -22.125l3.375 0l0 3.359375q1.296875 -2.359375 2.390625 -3.109375q1.09375 -0.75 2.40625 -0.75q1.890625 0 3.84375 1.21875l-1.28125 3.46875q-1.375 -0.8125 -2.75 -0.8125q-1.234375 0 -2.21875 0.75q-0.96875 0.734375 -1.390625 2.046875q-0.625 2.0 -0.625 4.375l0 11.578125l-3.75 0zm14.2673645 -26.21875l0 -4.3125l3.75 0l0 4.3125l-3.75 0zm0 26.21875l0 -22.125l3.75 0l0 22.125l-3.75 0zm9.461212 0l0 -22.125l3.375 0l0 3.15625q2.4375 -3.65625 7.03125 -3.65625q2.0 0 3.671875 0.71875q1.6875 0.71875 2.515625 1.890625q0.84375 1.171875 1.171875 2.765625q0.203125 1.046875 0.203125 3.65625l0 13.59375l-3.75 0l0 -13.453125q0 -2.296875 -0.4375 -3.421875q-0.4375 -1.140625 -1.546875 -1.8125q-1.109375 -0.6875 -2.609375 -0.6875q-2.390625 0 -4.140625 1.53125q-1.734375 1.515625 -1.734375 5.765625l0 12.078125l-3.75 0zm23.035889 1.828125l3.640625 0.546875q0.234375 1.6875 1.28125 2.453125q1.390625 1.046875 3.796875 1.046875q2.609375 0 4.015625 -1.046875q1.421875 -1.03125 1.921875 -2.90625q0.296875 -1.15625 0.28125 -4.8125q-2.46875 2.890625 -6.125 2.890625q-4.5625 0 -7.0625 -3.28125q-2.5 -3.296875 -2.5 -7.90625q0 -3.15625 1.140625 -5.828125q1.15625 -2.6875 3.328125 -4.140625q2.171875 -1.46875 5.109375 -1.46875q3.921875 0 6.453125 3.171875l0 -2.671875l3.46875 0l0 19.125q0 5.171875 -1.0625 7.328125q-1.046875 2.15625 -3.328125 3.40625q-2.28125 1.25 -5.609375 1.25q-3.953125 0 -6.390625 -1.78125q-2.4375 -1.78125 -2.359375 -5.375zm3.109375 -13.28125q0 4.34375 1.71875 6.34375q1.734375 2.0 4.328125 2.0q2.59375 0 4.34375 -1.984375q1.75 -1.984375 1.75 -6.234375q0 -4.0625 -1.8125 -6.125q-1.796875 -2.0625 -4.34375 -2.0625q-2.484375 0 -4.234375 2.03125q-1.75 2.03125 -1.75 6.03125z" fill-rule="nonzero"/><path fill="#adadad" d="m444.06302 309.24188l0 -4.265625l4.265625 0l0 4.265625q0 2.359375 -0.84375 3.796875q-0.828125 1.453125 -2.640625 2.25l-1.03125 -1.609375q1.1875 -0.515625 1.75 -1.53125q0.5625 -1.015625 0.625 -2.90625l-2.125 0zm37.15567 -2.734375q-2.09375 1.78125 -4.015625 2.515625q-1.921875 0.71875 -4.125 0.71875q-3.65625 0 -5.609375 -1.78125q-1.953125 -1.78125 -1.953125 -4.546875q0 -1.625 0.734375 -2.96875q0.734375 -1.34375 1.9375 -2.15625q1.203125 -0.8125 2.703125 -1.234375q1.09375 -0.28125 3.328125 -0.5625q4.53125 -0.53125 6.6875 -1.28125q0.015625 -0.78125 0.015625 -0.984375q0 -2.296875 -1.0625 -3.234375q-1.4375 -1.265625 -4.265625 -1.265625q-2.640625 0 -3.90625 0.9375q-1.265625 0.921875 -1.859375 3.265625l-3.671875 -0.5q0.5 -2.34375 1.640625 -3.796875q1.15625 -1.453125 3.3125 -2.234375q2.171875 -0.78125 5.015625 -0.78125q2.84375 0 4.609375 0.671875q1.765625 0.671875 2.59375 1.6875q0.84375 1.0 1.171875 2.546875q0.1875 0.953125 0.1875 3.453125l0 5.0q0 5.21875 0.234375 6.609375q0.25 1.390625 0.953125 2.65625l-3.90625 0q-0.59375 -1.171875 -0.75 -2.734375zm-0.3125 -8.359375q-2.046875 0.828125 -6.125 1.40625q-2.3125 0.328125 -3.28125 0.75q-0.953125 0.421875 -1.46875 1.21875q-0.515625 0.796875 -0.515625 1.78125q0 1.5 1.125 2.5q1.140625 1.0 3.328125 1.0q2.15625 0 3.84375 -0.9375q1.6875 -0.953125 2.484375 -2.609375q0.609375 -1.265625 0.609375 -3.75l0 -1.359375zm9.598358 11.09375l0 -22.125l3.375 0l0 3.15625q2.4375 -3.65625 7.03125 -3.65625q2.0 0 3.671875 0.71875q1.6875 0.71875 2.515625 1.890625q0.84375 1.171875 1.171875 2.765625q0.203125 1.046875 0.203125 3.65625l0 13.59375l-3.75 0l0 -13.453125q0 -2.296875 -0.4375 -3.421875q-0.4375 -1.140625 -1.546875 -1.8125q-1.109375 -0.6875 -2.609375 -0.6875q-2.390625 0 -4.140625 1.53125q-1.734375 1.515625 -1.734375 5.765625l0 12.078125l-3.75 0zm38.06717 0l0 -2.796875q-2.09375 3.296875 -6.1875 3.296875q-2.640625 0 -4.859375 -1.453125q-2.21875 -1.46875 -3.4375 -4.078125q-1.21875 -2.609375 -1.21875 -6.0q0 -3.3125 1.109375 -6.015625q1.109375 -2.703125 3.3125 -4.140625q2.203125 -1.4375 4.9375 -1.4375q2.0 0 3.5625 0.84375q1.5625 0.84375 2.53125 2.203125l0 -10.953125l3.734375 0l0 30.53125l-3.484375 0zm-11.84375 -11.03125q0 4.234375 1.78125 6.34375q1.796875 2.109375 4.234375 2.109375q2.453125 0 4.171875 -2.015625q1.71875 -2.015625 1.71875 -6.125q0 -4.546875 -1.75 -6.671875q-1.75 -2.125 -4.3125 -2.125q-2.484375 0 -4.171875 2.046875q-1.671875 2.03125 -1.671875 6.4375z" fill-rule="nonzero"/><path fill="#ffab40" d="m557.9901 305.8825l0.53125 3.3125q-1.578125 0.34375 -2.828125 0.34375q-2.03125 0 -3.15625 -0.640625q-1.125 -0.65625 -1.59375 -1.703125q-0.453125 -1.0625 -0.453125 -4.4375l0 -12.71875l-2.75 0l0 -2.921875l2.75 0l0 -5.46875l3.734375 -2.25l0 7.71875l3.765625 0l0 2.921875l-3.765625 0l0 12.9375q0 1.59375 0.1875 2.0625q0.203125 0.453125 0.640625 0.734375q0.453125 0.265625 1.296875 0.265625q0.625 0 1.640625 -0.15625zm3.6168823 3.359375l0 -22.125l3.375 0l0 3.359375q1.296875 -2.359375 2.390625 -3.109375q1.09375 -0.75 2.40625 -0.75q1.890625 0 3.84375 1.21875l-1.28125 3.46875q-1.375 -0.8125 -2.75 -0.8125q-1.234375 0 -2.21875 0.75q-0.96875 0.734375 -1.390625 2.046875q-0.625 2.0 -0.625 4.375l0 11.578125l-3.75 0zm28.68927 -2.734375q-2.09375 1.78125 -4.015625 2.515625q-1.921875 0.71875 -4.125 0.71875q-3.65625 0 -5.609375 -1.78125q-1.953125 -1.78125 -1.953125 -4.546875q0 -1.625 0.734375 -2.96875q0.734375 -1.34375 1.9375 -2.15625q1.203125 -0.8125 2.703125 -1.234375q1.09375 -0.28125 3.328125 -0.5625q4.53125 -0.53125 6.6875 -1.28125q0.015625 -0.78125 0.015625 -0.984375q0 -2.296875 -1.0625 -3.234375q-1.4375 -1.265625 -4.265625 -1.265625q-2.640625 0 -3.90625 0.9375q-1.265625 0.921875 -1.859375 3.265625l-3.671875 -0.5q0.5 -2.34375 1.640625 -3.796875q1.15625 -1.453125 3.3125 -2.234375q2.171875 -0.78125 5.015625 -0.78125q2.84375 0 4.609375 0.671875q1.765625 0.671875 2.59375 1.6875q0.84375 1.0 1.171875 2.546875q0.1875 0.953125 0.1875 3.453125l0 5.0q0 5.21875 0.234375 6.609375q0.25 1.390625 0.953125 2.65625l-3.90625 0q-0.59375 -1.171875 -0.75 -2.734375zm-0.3125 -8.359375q-2.046875 0.828125 -6.125 1.40625q-2.3125 0.328125 -3.28125 0.75q-0.953125 0.421875 -1.46875 1.21875q-0.515625 0.796875 -0.515625 1.78125q0 1.5 1.125 2.5q1.140625 1.0 3.328125 1.0q2.15625 0 3.84375 -0.9375q1.6875 -0.953125 2.484375 -2.609375q0.609375 -1.265625 0.609375 -3.75l0 -1.359375zm9.598328 11.09375l0 -22.125l3.375 0l0 3.15625q2.4375 -3.65625 7.03125 -3.65625q2.0 0 3.671875 0.71875q1.687561 0.71875 2.515686 1.890625q0.84375 1.171875 1.171875 2.765625q0.203125 1.046875 0.203125 3.65625l0 13.59375l-3.75 0l0 -13.453125q0 -2.296875 -0.43756104 -3.421875q-0.4375 -1.140625 -1.546875 -1.8125q-1.109375 -0.6875 -2.609375 -0.6875q-2.390625 0 -4.140625 1.53125q-1.734375 1.515625 -1.734375 5.765625l0 12.078125l-3.75 0zm22.223389 -6.609375l3.703125 -0.578125q0.3125 2.234375 1.734375 3.421875q1.4375 1.1875 4.0 1.1875q2.578125 0 3.828125 -1.046875q1.25 -1.0625 1.25 -2.484375q0 -1.265625 -1.109375 -2.0q-0.765625 -0.5 -3.828125 -1.265625q-4.125 -1.046875 -5.71875 -1.796875q-1.59375 -0.765625 -2.421875 -2.109375q-0.8125 -1.34375 -0.8125 -2.96875q0 -1.46875 0.671875 -2.734375q0.6875 -1.265625 1.84375 -2.09375q0.875 -0.640625 2.390625 -1.09375q1.515625 -0.453125 3.234375 -0.453125q2.609375 0 4.578125 0.75q1.96875 0.75 2.90625 2.03125q0.9375 1.28125 1.28125 3.4375l-3.65625 0.5q-0.25 -1.71875 -1.453125 -2.671875q-1.203125 -0.953125 -3.375 -0.953125q-2.59375 0 -3.703125 0.859375q-1.09375 0.84375 -1.09375 1.984375q0 0.734375 0.453125 1.3125q0.46875 0.609375 1.4375 1.0q0.5625 0.21875 3.3125 0.96875q3.984375 1.0625 5.546875 1.734375q1.578125 0.671875 2.46875 1.96875q0.90625 1.28125 0.90625 3.203125q0 1.875 -1.09375 3.53125q-1.09375 1.65625 -3.15625 2.5625q-2.0625 0.90625 -4.671875 0.90625q-4.3125 0 -6.578125 -1.78125q-2.25 -1.796875 -2.875 -5.328125zm23.71875 6.609375l0 -19.203125l-3.3125 0l0 -2.921875l3.3125 0l0 -2.34375q0 -2.234375 0.40625 -3.3125q0.53125 -1.46875 1.890625 -2.375q1.375 -0.90625 3.828125 -0.90625q1.578125 0 3.5 0.375l-0.5625 3.28125q-1.171875 -0.21875 -2.203125 -0.21875q-1.703125 0 -2.421875 0.734375q-0.703125 0.734375 -0.703125 2.734375l0 2.03125l4.3125 0l0 2.921875l-4.3125 0l0 19.203125l-3.734375 0zm9.570007 -11.0625q0 -6.140625 3.40625 -9.09375q2.859375 -2.46875 6.953125 -2.46875q4.5625 0 7.453125 3.0q2.90625 2.984375 2.90625 8.25q0 4.265625 -1.28125 6.71875q-1.28125 2.453125 -3.734375 3.8125q-2.4375 1.34375 -5.34375 1.34375q-4.640625 0 -7.5 -2.96875q-2.859375 -2.984375 -2.859375 -8.59375zm3.84375 0q0 4.25 1.859375 6.375q1.859375 2.109375 4.65625 2.109375q2.796875 0 4.640625 -2.125q1.859375 -2.125 1.859375 -6.484375q0 -4.09375 -1.859375 -6.203125q-1.859375 -2.125 -4.640625 -2.125q-2.796875 0 -4.65625 2.109375q-1.859375 2.09375 -1.859375 6.34375zm21.223389 11.0625l0 -22.125l3.375 0l0 3.359375q1.296875 -2.359375 2.390625 -3.109375q1.09375 -0.75 2.40625 -0.75q1.890625 0 3.84375 1.21875l-1.28125 3.46875q-1.375 -0.8125 -2.75 -0.8125q-1.234375 0 -2.21875 0.75q-0.96875 0.734375 -1.390625 2.046875q-0.625 2.0 -0.625 4.375l0 11.578125l-3.75 0zm14.25177 0l0 -22.125l3.359375 0l0 3.109375q1.03125 -1.625 2.765625 -2.609375q1.734375 -1.0 3.9375 -1.0q2.453125 0 4.015625 1.03125q1.578125 1.015625 2.234375 2.84375q2.625 -3.875 6.828125 -3.875q3.296875 0 5.0625 1.828125q1.765625 1.828125 1.765625 5.609375l0 15.1875l-3.71875 0l0 -13.9375q0 -2.25 -0.375 -3.234375q-0.359375 -0.984375 -1.328125 -1.59375q-0.953125 -0.609375 -2.234375 -0.609375q-2.34375 0 -3.890625 1.5625q-1.53125 1.546875 -1.53125 4.96875l0 12.84375l-3.75 0l0 -14.375q0 -2.5 -0.921875 -3.75q-0.90625 -1.25 -3.0 -1.25q-1.578125 0 -2.921875 0.84375q-1.34375 0.828125 -1.953125 2.4375q-0.59375 1.59375 -0.59375 4.625l0 11.46875l-3.75 0zm35.548584 -26.21875l0 -4.3125l3.75 0l0 4.3125l-3.75 0zm0 26.21875l0 -22.125l3.75 0l0 22.125l-3.75 0zm9.461243 0l0 -22.125l3.375 0l0 3.15625q2.4375 -3.65625 7.03125 -3.65625q2.0 0 3.671875 0.71875q1.6875 0.71875 2.515625 1.890625q0.84375 1.171875 1.171875 2.765625q0.203125 1.046875 0.203125 3.65625l0 13.59375l-3.75 0l0 -13.453125q0 -2.296875 -0.4375 -3.421875q-0.4375 -1.140625 -1.546875 -1.8125q-1.109375 -0.6875 -2.609375 -0.6875q-2.390625 0 -4.140625 1.53125q-1.734375 1.515625 -1.734375 5.765625l0 12.078125l-3.75 0zm23.035889 1.828125l3.640625 0.546875q0.234375 1.6875 1.28125 2.453125q1.390625 1.046875 3.796875 1.046875q2.609375 0 4.015625 -1.046875q1.421875 -1.03125 1.921875 -2.90625q0.296875 -1.15625 0.28125 -4.8125q-2.46875 2.890625 -6.125 2.890625q-4.5625 0 -7.0625 -3.28125q-2.5 -3.296875 -2.5 -7.90625q0 -3.15625 1.140625 -5.828125q1.15625 -2.6875 3.328125 -4.140625q2.171875 -1.46875 5.109375 -1.46875q3.921875 0 6.453125 3.171875l0 -2.671875l3.46875 0l0 19.125q0 5.171875 -1.0625 7.328125q-1.046875 2.15625 -3.328125 3.40625q-2.28125 1.25 -5.609375 1.25q-3.953125 0 -6.390625 -1.78125q-2.4375 -1.78125 -2.359375 -5.375zm3.109375 -13.28125q0 4.34375 1.71875 6.34375q1.734375 2.0 4.328125 2.0q2.59375 0 4.34375 -1.984375q1.75 -1.984375 1.75 -6.234375q0 -4.0625 -1.8125 -6.125q-1.796875 -2.0625 -4.34375 -2.0625q-2.484375 0 -4.234375 2.03125q-1.75 2.03125 -1.75 6.03125z" fill-rule="nonzero"/><path fill="#adadad" d="m127.85704 360.44186l0 -2.796875q-2.09375 3.296875 -6.1875 3.296875q-2.640625 0 -4.859375 -1.453125q-2.21875 -1.46875 -3.4375 -4.078125q-1.21875 -2.609375 -1.21875 -6.0q0 -3.3125 1.109375 -6.015625q1.109375 -2.703125 3.3125 -4.140625q2.203125 -1.4375 4.9375 -1.4375q2.0 0 3.5625 0.84375q1.5625 0.84375 2.53125 2.203125l0 -10.953125l3.734375 0l0 30.53125l-3.484375 0zm-11.84375 -11.03125q0 4.234375 1.78125 6.34375q1.796875 2.109375 4.234375 2.109375q2.453125 0 4.171875 -2.015625q1.71875 -2.015625 1.71875 -6.125q0 -4.546875 -1.75 -6.671875q-1.75 -2.125 -4.3125 -2.125q-2.484375 0 -4.171875 2.046875q-1.671875 2.03125 -1.671875 6.4375zm35.660873 8.296875q-2.09375 1.78125 -4.015625 2.515625q-1.921875 0.71875 -4.125 0.71875q-3.65625 0 -5.609375 -1.78125q-1.953125 -1.78125 -1.953125 -4.546875q0 -1.625 0.734375 -2.96875q0.734375 -1.34375 1.9375 -2.15625q1.203125 -0.8125 2.703125 -1.234375q1.09375 -0.28125 3.328125 -0.5625q4.53125 -0.53125 6.6875 -1.28125q0.015625 -0.78125 0.015625 -0.984375q0 -2.296875 -1.0625 -3.234375q-1.4375 -1.265625 -4.265625 -1.265625q-2.640625 0 -3.90625 0.9375q-1.265625 0.921875 -1.859375 3.265625l-3.671875 -0.5q0.5 -2.34375 1.640625 -3.796875q1.15625 -1.453125 3.3125 -2.234375q2.171875 -0.78125 5.015625 -0.78125q2.84375 0 4.609375 0.671875q1.765625 0.671875 2.59375 1.6875q0.84375 1.0 1.171875 2.546875q0.1875 0.953125 0.1875 3.453125l0 5.0q0 5.21875 0.234375 6.609375q0.25 1.390625 0.953125 2.65625l-3.90625 0q-0.59375 -1.171875 -0.75 -2.734375zm-0.3125 -8.359375q-2.046875 0.828125 -6.125 1.40625q-2.3125 0.328125 -3.28125 0.75q-0.953125 0.421875 -1.46875 1.21875q-0.515625 0.796875 -0.515625 1.78125q0 1.5 1.125 2.5q1.140625 1.0 3.328125 1.0q2.15625 0 3.84375 -0.9375q1.6875 -0.953125 2.484375 -2.609375q0.609375 -1.265625 0.609375 -3.75l0 -1.359375zm17.785873 7.734375l0.53125 3.3125q-1.578125 0.34375 -2.828125 0.34375q-2.03125 0 -3.15625 -0.640625q-1.125 -0.65625 -1.59375 -1.703125q-0.453125 -1.0625 -0.453125 -4.4375l0 -12.71875l-2.75 0l0 -2.921875l2.75 0l0 -5.46875l3.734375 -2.25l0 7.71875l3.765625 0l0 2.921875l-3.765625 0l0 12.9375q0 1.59375 0.1875 2.0625q0.203125 0.453125 0.640625 0.734375q0.453125 0.265625 1.296875 0.265625q0.625 0 1.640625 -0.15625zm18.101273 0.625q-2.09375 1.78125 -4.015625 2.515625q-1.921875 0.71875 -4.125 0.71875q-3.65625 0 -5.609375 -1.78125q-1.953125 -1.78125 -1.953125 -4.546875q0 -1.625 0.734375 -2.96875q0.734375 -1.34375 1.9375 -2.15625q1.203125 -0.8125 2.703125 -1.234375q1.09375 -0.28125 3.328125 -0.5625q4.53125 -0.53125 6.6875 -1.28125q0.015625 -0.78125 0.015625 -0.984375q0 -2.296875 -1.0625 -3.234375q-1.4375 -1.265625 -4.265625 -1.265625q-2.640625 0 -3.90625 0.9375q-1.265625 0.921875 -1.859375 3.265625l-3.671875 -0.5q0.5 -2.34375 1.640625 -3.796875q1.15625 -1.453125 3.3125 -2.234375q2.171875 -0.78125 5.015625 -0.78125q2.84375 0 4.609375 0.671875q1.765625 0.671875 2.59375 1.6875q0.84375 1.0 1.171875 2.546875q0.1875 0.953125 0.1875 3.453125l0 5.0q0 5.21875 0.234375 6.609375q0.25 1.390625 0.953125 2.65625l-3.90625 0q-0.59375 -1.171875 -0.75 -2.734375zm-0.3125 -8.359375q-2.046875 0.828125 -6.125 1.40625q-2.3125 0.328125 -3.28125 0.75q-0.953125 0.421875 -1.46875 1.21875q-0.515625 0.796875 -0.515625 1.78125q0 1.5 1.125 2.5q1.140625 1.0 3.328125 1.0q2.15625 0 3.84375 -0.9375q1.6875 -0.953125 2.484375 -2.609375q0.609375 -1.265625 0.609375 -3.75l0 -1.359375z" fill-rule="nonzero"/><path fill="#4dd0e1" d="m222.82346 357.7075q-2.09375 1.78125 -4.015625 2.515625q-1.921875 0.71875 -4.125 0.71875q-3.65625 0 -5.609375 -1.78125q-1.953125 -1.78125 -1.953125 -4.546875q0 -1.625 0.734375 -2.96875q0.734375 -1.34375 1.9375 -2.15625q1.203125 -0.8125 2.703125 -1.234375q1.09375 -0.28125 3.328125 -0.5625q4.53125 -0.53125 6.6875 -1.28125q0.015625 -0.78125 0.015625 -0.984375q0 -2.296875 -1.0625 -3.234375q-1.4375 -1.265625 -4.265625 -1.265625q-2.640625 0 -3.90625 0.9375q-1.265625 0.921875 -1.859375 3.265625l-3.671875 -0.5q0.5 -2.34375 1.640625 -3.796875q1.15625 -1.453125 3.3125 -2.234375q2.171875 -0.78125 5.015625 -0.78125q2.84375 0 4.609375 0.671875q1.765625 0.671875 2.59375 1.6875q0.84375 1.0 1.171875 2.546875q0.1875 0.953125 0.1875 3.453125l0 5.0q0 5.21875 0.234375 6.609375q0.25 1.390625 0.953125 2.65625l-3.90625 0q-0.59375 -1.171875 -0.75 -2.734375zm-0.3125 -8.359375q-2.046875 0.828125 -6.125 1.40625q-2.3125 0.328125 -3.28125 0.75q-0.953125 0.421875 -1.46875 1.21875q-0.515625 0.796875 -0.515625 1.78125q0 1.5 1.125 2.5q1.140625 1.0 3.328125 1.0q2.15625 0 3.84375 -0.9375q1.6875 -0.953125 2.484375 -2.609375q0.609375 -1.265625 0.609375 -3.75l0 -1.359375zm17.785873 7.734375l0.53125 3.3125q-1.578125 0.34375 -2.828125 0.34375q-2.03125 0 -3.15625 -0.640625q-1.125 -0.65625 -1.59375 -1.703125q-0.453125 -1.0625 -0.453125 -4.4375l0 -12.71875l-2.75 0l0 -2.921875l2.75 0l0 -5.46875l3.734375 -2.25l0 7.71875l3.765625 0l0 2.921875l-3.765625 0l0 12.9375q0 1.59375 0.1875 2.0625q0.203125 0.453125 0.640625 0.734375q0.453125 0.265625 1.296875 0.265625q0.625 0 1.640625 -0.15625zm14.015045 -3.25l3.7031097 -0.578125q0.3125 2.234375 1.734375 3.421875q1.4375 1.1875 4.0 1.1875q2.578125 0 3.828125 -1.046875q1.25 -1.0625 1.25 -2.484375q0 -1.265625 -1.109375 -2.0q-0.765625 -0.5 -3.828125 -1.265625q-4.125 -1.046875 -5.71875 -1.796875q-1.59375 -0.765625 -2.4218597 -2.109375q-0.8125 -1.34375 -0.8125 -2.96875q0 -1.46875 0.671875 -2.734375q0.68748474 -1.265625 1.8437347 -2.09375q0.875 -0.640625 2.390625 -1.09375q1.515625 -0.453125 3.234375 -0.453125q2.609375 0 4.578125 0.75q1.96875 0.75 2.90625 2.03125q0.9375 1.28125 1.28125 3.4375l-3.65625 0.5q-0.25 -1.71875 -1.453125 -2.671875q-1.203125 -0.953125 -3.375 -0.953125q-2.59375 0 -3.703125 0.859375q-1.09375 0.84375 -1.09375 1.984375q0 0.734375 0.453125 1.3125q0.46875 0.609375 1.4375 1.0q0.5625 0.21875 3.3125 0.96875q3.984375 1.0625 5.546875 1.734375q1.578125 0.671875 2.46875 1.96875q0.90625 1.28125 0.90625 3.203125q0 1.875 -1.09375 3.53125q-1.09375 1.65625 -3.15625 2.5625q-2.0625 0.90625 -4.671875 0.90625q-4.3125 0 -6.578125 -1.78125q-2.2499847 -1.796875 -2.8749847 -5.328125zm37.26561 -1.5l3.6875 0.484375q-0.609375 3.8125 -3.109375 5.96875q-2.484375 2.15625 -6.109375 2.15625q-4.53125 0 -7.296875 -2.96875q-2.75 -2.96875 -2.75 -8.5q0 -3.59375 1.1875 -6.28125q1.1875 -2.6875 3.609375 -4.03125q2.421875 -1.34375 5.28125 -1.34375q3.59375 0 5.890625 1.828125q2.296875 1.828125 2.9375 5.171875l-3.640625 0.5625q-0.53125 -2.21875 -1.859375 -3.34375q-1.3125 -1.125 -3.1875 -1.125q-2.828125 0 -4.609375 2.03125q-1.765625 2.03125 -1.765625 6.421875q0 4.453125 1.703125 6.484375q1.71875 2.015625 4.46875 2.015625q2.203125 0 3.671875 -1.359375q1.484375 -1.359375 1.890625 -4.171875zm21.328125 5.375q-2.09375 1.78125 -4.015625 2.515625q-1.921875 0.71875 -4.125 0.71875q-3.65625 0 -5.609375 -1.78125q-1.953125 -1.78125 -1.953125 -4.546875q0 -1.625 0.734375 -2.96875q0.734375 -1.34375 1.9375 -2.15625q1.203125 -0.8125 2.703125 -1.234375q1.09375 -0.28125 3.328125 -0.5625q4.53125 -0.53125 6.6875 -1.28125q0.015625 -0.78125 0.015625 -0.984375q0 -2.296875 -1.0625 -3.234375q-1.4375 -1.265625 -4.265625 -1.265625q-2.640625 0 -3.90625 0.9375q-1.265625 0.921875 -1.859375 3.265625l-3.671875 -0.5q0.5 -2.34375 1.640625 -3.796875q1.15625 -1.453125 3.3125 -2.234375q2.171875 -0.78125 5.015625 -0.78125q2.84375 0 4.609375 0.671875q1.765625 0.671875 2.59375 1.6875q0.84375 1.0 1.171875 2.546875q0.1875 0.953125 0.1875 3.453125l0 5.0q0 5.21875 0.234375 6.609375q0.25 1.390625 0.953125 2.65625l-3.90625 0q-0.59375 -1.171875 -0.75 -2.734375zm-0.3125 -8.359375q-2.046875 0.828125 -6.125 1.40625q-2.3125 0.328125 -3.28125 0.75q-0.953125 0.421875 -1.46875 1.21875q-0.515625 0.796875 -0.515625 1.78125q0 1.5 1.125 2.5q1.140625 1.0 3.328125 1.0q2.15625 0 3.84375 -0.9375q1.6875 -0.953125 2.484375 -2.609375q0.609375 -1.265625 0.609375 -3.75l0 -1.359375zm9.520264 11.09375l0 -30.53125l3.75 0l0 30.53125l-3.75 0zm24.695587 -7.125l3.875 0.484375q-0.921875 3.390625 -3.40625 5.265625q-2.46875 1.875 -6.328125 1.875q-4.84375 0 -7.6875 -2.984375q-2.84375 -3.0 -2.84375 -8.390625q0 -5.578125 2.875 -8.65625q2.875 -3.09375 7.453125 -3.09375q4.4375 0 7.25 3.03125q2.8125 3.015625 2.8125 8.5q0 0.328125 -0.015625 0.984375l-16.5 0q0.203125 3.65625 2.0625 5.59375q1.859375 1.9375 4.625 1.9375q2.0625 0 3.515625 -1.078125q1.453125 -1.09375 2.3125 -3.46875zm-12.3125 -6.0625l12.359375 0q-0.25 -2.78125 -1.421875 -4.1875q-1.796875 -2.15625 -4.640625 -2.15625q-2.578125 0 -4.34375 1.734375q-1.765625 1.71875 -1.953125 4.609375z" fill-rule="nonzero"/></g></svg>