<?xml version="1.0" encoding="UTF-8"?>
<svg viewBox="0 0 1095 913" xmlns="http://www.w3.org/2000/svg">
 <g fill-rule="evenodd">
  <path d="m537 378h2l-4 10q-5 10-9 18-6 7-6 7v-1q0-1-1-2h-1v-3h-1v-2l1-1v-1q0-1 6-11l5-9h1v-1h2l2-2q1-2 3-2z" fill="#90a7cb" stroke="#90a7cb"/>
  <path d="m562 638l3-4h1v1h1v1h3q2 0 2-1 1-1 1 0 1 0 1 0v5q0 3 0 4v2l-1 1v1q-1 0-1 0v1l-3 7q-3 6-5 8t-1 4q1 3 1 4 0 0 1 1v1l-1 1q0 1-1 1-1-1-1-1h-2q-2 1-3 1-1 1-1 2v2h-1v1h-1v1h-1v1h-1v1h-2v-1h-1v-1l1-1v-6q0-6 1-13l1-6t1-1v-1q1 0 1-1v-1q1 0 1-1h1v-3h1v-1h1v-2l1-1q1-1 3-6z" fill="#424a72" stroke="#424a72"/>
  <path d="m538 493l-7-6h1l2 1h2l1 1h2v1h1v1l4 4q4 3 8 6 4 2 7 5 3 2 3 3h-2q-1 1-1 1h-1v1l-1 1v1h-1v-1h-1v-1h-1v-1h-2q-1 0-1-2 0-1-1-1-1-1-4-4-2-4-8-10z" fill="#515260" stroke="#515260"/>
  <path d="m680 742l-1-1h3q4 1 6 0h2q0 1 0 1v1q-2 1-2 1v1h-6v-1h-1q-1 0-1-2z" fill="#e3e0a9" stroke="#e3e0a9"/>
  <path d="m536 296h1q-1 1-1 2v1l1 1v2q-1 1-4 4-4 2-11 3l-6 1h-3t1-3l1-2v-1h1t1 0h4q3 0 4-1h1t1-1q1 0 1 0v-1l4-2q3-3 4-3z" fill="#89a1bb" stroke="#89a1bb"/>
  <path d="m321 212v-1h1l1 1 7 4q7 4 7 5v1q1 2 2 4 1 1 1 2v2l3 1q3 2 2 3 0 2 1 2t2 2q2 2 3 2t2 2 2 3 2 2l1 1 1 1 1 1 1 1h1v3h-2l-2-1-1-1h-2v-1q-1 0-1 0v-1h-3v1h1v1h-2t-4-2q-3 0-4 0v1q-1-1-1-1h-1t0-1q-1-1-3-3-3-3-8-8l-6-6q-1-1-1-1v-1t-1 0q-1-1-1-1v-1t-1 0v-1h-1v-1h3v-1q-1 0-2-3-2-3-3-3h-1v-1l1-1v-1h2v1t1 0q0 1 0-1l1-2h-1l1-1h1v-1zm23 36q-1 0 0-1 2 0 2 1t-1 1q0-1-1-1z" fill="#cfbaa6" stroke="#cfbaa6"/>
  <path d="m520 476l2 3q2 3 4 3 3 0 4 2 0 2 0 3h1l7 6q6 6 8 10 3 3 4 4 1 0 1 1 0 2 1 2h2v1h1v1h1v1h1l1 1q0 1 1 2l1 1v1t1 1l1 1v2h1v1h1v1h-1l1 1v1h-1v1h-1v-1h-3v-1q-1 0-1-1t-3-1q-3 1-11 2l-7 2 1 4q0 5-1 5-1 1 0 4 0 2 2 3t1 2q-2 1-2 3-1 3 1 4 3 2 3 4 0 1 3 1t3 1v2h-1q-1 1-1 2v1h1v1h-1v1h-1v-1q-1 0-2 0-2-1-2 0 1 2 0 4t-5 2-5 0q-1-1-3-2h-2v-1h-1v-1q0-1-1-1t-1-1q0-2-1-2t-4-3q-4-2-5-5-2-4-3-6 0-2-1-4-1-3-1-20v-18l1-4q1-3 3-8 4-6 4-9t-1-3-1-1v-1h-1v-1h-1v-2h2q3 1 4 0t2-1z" fill="#656f8c" stroke="#656f8c"/>
  <path d="m471 479l1 1v1q1 1 2 2v4q-1 5-2 10t-2 6h-1v3h-2q-2 0-2-1-1 0-1-3v-2h-1l1-1v-1h1v1h1v-6l1-3q1-2 2-7t2-4z" fill="#3780a6" stroke="#3780a6"/>
  <path d="m712 283h1v1q0 1 5 2 4 0 6 0 2-1 4-4 2-2 2-3l3 1q3 2 4 2 1 1 1 2 1 2 2 2h1l-1 1v3q0 2-3 4t-4 4l-1 2h1l-2 1-2 1h-3v1q-1 1-2 1t-3 3q-2 2-7 3l-5 2h-1v1q-1 1-1 1-1 0-3 5t-6 11q-2 5-5 6l-3 1h-2q-1-1-4-1-3-2-6-1t-7 3q-4 4-7 4-4 1-4 0l-1-1v-1q0-1-2-1h-2v-1l-1-1v-1h-3v-1h1v-1t0-2v-1h1v-1h1v-1h1v-1h1v-1h1v-1l1-2q1-2 2-3 1 0 2-3 1-2 4-4t6-6q4-4 10-10 7-4 10-6t8-6q5-6 6-6 0 0 1 0v-1h2q1 0 2 2 1 1 1 2z" fill="#f8e62b" stroke="#f8e62b"/>
  <path d="m708 313v2h2q2-1 2 0t-3 10-9 11l-5 3h-1q-1-1-2-1l-2-1 3-1q3-1 5-6 4-6 6-11t3-5 1-1z" fill="#d4a740" stroke="#d4a740"/>
  <path d="m581 556h3q2 0 3 0h1v2q-1 2 0 2 2-1 1 1t-1 3q0 2 1 2v6h-1t0-1q-1-1-5 4l-4 4q-1 0-1 1h-1q-1 0-1 0v1t-1 1v1h-1t-1 1q-1 0-1 0v1t-1 1h-1v1h-1v1h-2v1h-1v1h-2v-1h-1v-1h1v-1l1-1v-2h1v-1h1v-1h1q2 0 5-3t3-5v-1t1-1l2-1q1-1 2-1v-1q1 0 1 0v-1l1-1 1-1v-1l-1-1v-2h-3q-3 0-4 1h-2v-1h-1l1-1q1 0 2-2l1-2h1q2-1 3-1z" fill="#121216" stroke="#121216"/>
  <path d="m459 461l1-3h1v7l1 7v2h-1v1h1v3q-1 0-2 0h-2v1h-1v-3l1-3v-5q0-4 1-7z" fill="#44758b" stroke="#44758b"/>
  <path d="m341 412h1t0 1h1l-5 5q-5 4-5 5h-1v1h-1v1h-1v1h-1v1h-1v1h-1v1q-1 0-2 1-1 0-1-2t4-5q2-3 7-7l5-3q1-1 1-1z" fill="#b58f74" stroke="#b58f74"/>
  <path d="m716 265h2v1q0 2-1 2t-1 1v2h-1q-1 1-5 4l-3 4h-1q0 1 0 1-1 0-6 6-5 4-8 6t-10 6q-6 6-10 10-3 4-6 6t-4 4q-1 3-2 3-1 1-2 3l-1 2v1h-1v1h-1v1h-1v1h-1v1h-1v-1h-1v-1h-1v1l-1-2v-4h1v-1l1-1q1-2 1-2t1-6 4-8l2-2 5-4q4-3 9-8 4-4 11-8t8-4q0-1 1-2 1 0 1 0v-1l8-5q8-6 10-6t4-1z" fill="#f5eb9a" stroke="#f5eb9a"/>
  <path d="m620 286h1q-1 1-3 6l-3 4v1h-1v2l-1 1-1 1v2l-1 1v1l-4 8q-4 9-4 9h-2q-2 0-3 2-1 0-2-1v-2l1-1 1-1 7-12q8-13 9-13 0-1 1-2v-1q1 0 1-1 0 0 1 0v-1l1-1q1-2 2-2z" fill="#7d7b42" stroke="#7d7b42"/>
  <path d="m577 523q0 1 1 1 0 0 0 1h1l1 4q2 4 3 4t1 2q1 1 4 2 3 0 3 1l1 2-1 1q-1 1-1 1v-2q0-1-2-1l-2-1-1 1q-1 1-3 1h-3t-1 0h-2q0-1-1-2 1 0 1-1 2-1 2-4 2-3 0-5l-1-2q-1-1-1-1v-1q0-1 1-1z" fill="#352a2d" stroke="#352a2d"/>
  <path d="m508 306l4-1h3l-1 2q-1 3-1 3v2h-2v-1h-2v-1q-1 0-1 0 0-1-1-1v-1q-1 0-1 0v-1h1v-1q1 0 1 0z" fill="#aabcd1" stroke="#aabcd1"/>
  <path d="m196 302h4q3 0 12 1h8l4 1q5 1 5 2v1h-9q-8-1-13-1l-5-1h-1q-1-1-5-1l-3-1h1q2-1 2-1z" fill="#98817b" stroke="#98817b"/>
  <path d="m384 388l-3-2h7q3 0 4 1h9v1q0 2-7 2t-10-2z" fill="#314b64" stroke="#314b64"/>
  <path d="m529 702l-2-7h1l1 1q1 2 1 3v1l1 1 1 1v2h1v1q0 1 1 1l1 4q1 3 2 4 0 0 1 1v1q0 1 1 2v1h-1q0-1-3-1-3-2-5-2l-2-1v-1q0-1 1-2 0-2 1-2t-1-8z" fill="#2a323e" stroke="#2a323e"/>
  <path d="m465 599v1h-1q-1 0-3-3-1-2-3-3-2 0-2 1t-1 1h-1v-1q0-1 3-7l3-5 1-2q1-2 1 7 0 8 2 9 0 1 1 2z" fill="#6f7795" stroke="#6f7795"/>
  <path d="m337 328h7q7 0 8 1h4l2 1-1 1v1h-1q-1 0-1 1h-5q0-1-1-1t-7-2l-5-1v-1z" fill="#5a6778" stroke="#5a6778"/>
  <path d="m570 681l-1-1h1q1 0 4 6 4 6 4 6v1q0 1-1 1t-1-1-4-5q-4-3-4-4v-1h1q1-1 1-2z" fill="#6f768e" stroke="#6f768e"/>
  <path d="m434 360l2 1q1 1 2 1h1l3 3q2 3 2 4v1q-1 0-4 1h-10q-8-1-11-1l-3-1v-1h1v-1l3-1q4 0 7-1l3-1h2v-1l1-1 1-1v-1z" fill="#c3aaa7" stroke="#c3aaa7"/>
  <path d="m589 222l1-3 4 9q4 9 4 8 0-2 2-2 2 1 2 2t1 2q1 0 2 1t3 1q2-2 7 0t6 2 4-1 5-3q1-2 2-4t2-3q2-1 1-2 0-1 1-1t1-2q0-1 3-2t3 0 3 1 3 1 7 1q6 1 7 0t2-1h1l2-1 1-1h3l1 1h1v1h-1l-1 1-2 1h-2l-1 1q-1 1-6 3l-5 3h-1v1h-2v1h-1v1q-1 0-10 8l-10 8q-1 0-1 1h-1q0 1 0 1-1 0-8 6l-8 6t-2 1l-1 1h-1t-2 2-8 6l-6 3h-1l-1-1h-6v-3h-1v-21q1-12 1-18v-5t1-2q0-2 1-2t1-1q-1-2 0-6z" fill="#cddbe3" stroke="#cddbe3"/>
  <path d="m585 278v-1h1v3h6l1 1h1q0 1-10 4l-9 3h-1t0-2v-3q1-3 2-1 0 1 1 1v1l1-1q2 0 2-1 0-2 2-2 3 0 3-2z" fill="#7e9db4" stroke="#7e9db4"/>
  <path d="m832 296l9 1q9 1 11 1h3l2 1 2 1h1t-6 0h-7q-1 0-8-2l-7-1v-1z" fill="#4e4622" stroke="#4e4622"/>
  <path d="m456 527v-2h1q0 1 1 1l3 6q3 5 3 6l1 4q1 3 2 6l1 3v1t-1 1v1h-1q-2 0-4-2t-2 0l-1 2q-1 0-1-2v-2l-1-2q-1-1-2-10l-1-9t2-2z" fill="#5d7f96" stroke="#5d7f96"/>
  <path d="m322 379h1v1h1l-1 1-1 1h2v1h-1v1h-2v1h-3q-3 1-7 2l-4 2q-1 0-1 1h-1q-1 0-8 3l-7 3q0-1-1 0h-7v2h-3l-1 1v-1h-1v-1h1v-1l1-2v-1h1v-1h2l19-6q19-6 21-7z" fill="#b9c6cf" stroke="#b9c6cf"/>
  <path d="m494 594l2-2t0 1h1q0 1 1 1l1 2q1 1 1 1v1h1q1 1 1 2 0 0 0 1h1q0 1 1 1l3 6q3 7 5 10 0 2 1 4v1l-1-1t-1 3q0 3-1 3-2 1-2 1v1h-1l1 2q2 1 1 2t0 5 0 7l-1 2v1h1v1h1v4l-1-2-1-1v-1h-1l-1-1h-1v-1q-1-2-1-3l-1-1v-2l1-2v-4q0-3-2-8l-2-5v-1h-1v-1h-1v-2h-1v-1h-1v-1q0-1-1-2l-1-1q0-1-1-1v-1q-1 0-1 0v-1q0-1-1-3v-2l-1-2v-1l1-3q1-2 1-4 0-1 2-2zm13 44q1 0 1 0-1 0-1 0z" fill="#7d8ca9" stroke="#7d8ca9"/>
  <path d="m363 318h13q3 0 6 1h3v1q-1 0-2 1t-7 1h-16v-2h-2q-1 0 2-1t3-1z" fill="#678398" stroke="#678398"/>
  <path d="m490 304h1l5 1q5 1 6 3 1 0 3 1h2v1h-2q-3 1-2 2 1 2 3 2 2 1 3 1v1h2q2 0 2-1-1-1-3-2t-2-2v-1h1q1 0 1 1h1v1h2l4 2q4 2 9 3l5 1h1l-1 1h-1v3h-2l-2 1q-3 1-4 1l-2 1-1-1h-2v1h-1v1h-4q-4 0-5-1l-1-1q-1 0-4-1l-4-1t0-1-1-1h-1t0-2-5-3q-4-1-4 0v1q-1 0-1-1v-1l-1-1v-1h-2l-1-1v-3l3 1q3 0 3-2 1-3 2-3z" fill="#6986a1" stroke="#6986a1"/>
  <path d="m388 253l-4-1h-2q-2-1-1-4 1-2 3-1t5 4q2 3-1 2z" fill="#869db0" stroke="#869db0"/>
  <path d="m415 395h1l2 1q2 2 2 4 0 1 0 1v1h-4q-4 0-4 2l-1 1h-1q-2 1-2 1-1 0-7 0t-5 0l2-1v-2l2-1q3-2 3-2h1l2-1q2-1 4-2l3-1h1q1 0 1-1z" fill="#9e6852" stroke="#9e6852"/>
  <path d="m468 552v-1h2q1 0 2 1 0 0 1 0t0 3-2 6q-1 2-2 3 0 2 0 2h-1v2q0 1 1 2v1h-1q-1-1-2-2 0-1-1-1t-1 2l-1 1v-2q-1-2-1-3l-1-2-3 8q-4 7-4 8v2h-1v1h-1v2l-1 1-1 1v-1h-1v-1l1-1v-2l1-2 1-1v-1q0-1 4-10l3-9h1q2-1 3 0h1v-1q0-1 2-2l1-2v-1q1-1 1-1z" fill="#1d2735" stroke="#1d2735"/>
  <path d="m466 554h1l-1 2q-2 1-2 2v1h-1q-1-1-3 0h-1v-5l1-2q0-2 2 0t4 2z" fill="#445a6f" stroke="#445a6f"/>
  <path d="m554 305l3-1h3q0 1-6 5-6 5-12 7l-6 4h-2l-2 1h-2v-2h1l1-1h1v-1h1v-2l4-1q5-1 6-2 0-2 1-2t2-2q1-1 1-2 0 0 1 0v-1h5z" fill="#567b96" stroke="#567b96"/>
  <path d="m250 434h1l-1 2q0 2 0 4t0 2q1 0 2-1h1l-3 4q-4 4-4 4v1h-2l-1 1q-1 1-1 1t-1 0v1h-1q-1 1-1 1-1 0-2 1l-1 1h-2l-1 1h-4v-1l1-1v-2h-1v-1l1-1v-1h2v-1h1q0-1 2-2l2-2h1q0-1 4-4l4-4h2q0-1 0-1 1 0 1-1h1v-1z" fill="#d7c3ae" stroke="#d7c3ae"/>
  <path d="m688 390h1v1q-1 1-9 10l-9 9h-1l6-7q6-7 6-7l2-2q1-2 2-2 0 0 0-1h1q0-1 1-1z" fill="#d5c3bd" stroke="#d5c3bd"/>
  <path d="m565 474l5 4q4 4 4 4h1t1 1v1l3 3q3 3 3 4h1q0 1 1 2 2 1 2 0t-1-3l-1-2 2 1q1 1 2 1l2 3q2 3 4 7 0 4 1 5l1 1 1 1 1 1t0 1h1v1q0 1-1 1l-1 1h-1v3l1 1v1h2v1h-2v1h-1v1h-5v-1h-1v-1l-1-1q-1-1-3-7-4-5-13-15l-9-11h-1v-4l1-4v-1l1-1z" fill="#b8b96a" stroke="#b8b96a"/>
  <path d="m404 304h4q4 0 4 1h-13l-1 4q0 3-1 4l-1 1h2q0 1-1 1h-1q-1 1-2 2 0 1-1 1h-1v-1q0-1-1-2l-1-1v-2t-1 0v-2h3q2-1 3-2 0-1 1-2 2 0 2-1t2-1q1 0 1-1l1-1t1 1q0 1 1 1z" fill="#967e77" stroke="#967e77"/>
  <path d="m279 393v1l-1 2v1h-1v1h1v1h-2q-1 1-6 5l-6 4h-1q-1 0-5 2l-5 2h-3l-2 1h-1v-1h-1l-1-1h-1v-3h1l1-1 1-1h2l15-7q14-6 15-6z" fill="#bfcdd8" stroke="#bfcdd8"/>
  <path d="m586 232v6q0 6-1 18v12h-1v-41l1 2q1 2 1 3z" fill="#88a1b5" stroke="#88a1b5"/>
  <path d="m606 559v-2h1q1 1 1 1l2 5q2 5 3 6 1 2 2 5 0 2-1 2t-1 2q-1 3-1 5-2 2-2 3v1h-1v1h-1v2l-4 5q-3 5-3 5h-1t0-3 0-3q-1 0-2 1-2 2-3 3h-3v-4h2v-1h1v-1h1v-1h1q0-1 1-2l1-1q1 0 1 0v-1t3-3l2-3q1 0 1-1 0 0 1 0v-1q0-1 1-2l2-2-1-1q-1-1-1-4-1-2-3-2l-2 1h-2v-1l1-2v-1l1-1q1-2 1-2v-1h1q1 0 1-2z" fill="#16171c" stroke="#16171c"/>
  <path d="m602 369l5 3q5 4 7 10t3 12q1 5 0 7v3q1 1 1 1l-1 37q-1 38-1 40v1l-1 2v2l-5 9q-5 8-5 9-1 0-1 0v1h-3v1l-1 1v1h-1v-1h-1l-1-1-1-1-1-1q-1-1-1-5-2-4-4-7l-2-3v-1q0-1-2-3 0-1-1-6-1-4-2-4t-1-2q0-1 0-3-2-2-2-21v-20q0-2 3-15l3-13v-4l1-2q1-2 1-7v-5l1 1 1 1v-1h1v1h1v-2l1-1 1-1 1-6q1-5 4-6 3 0 3-1z" fill="#e3e27d" stroke="#e3e27d"/>
  <path d="m434 289h1l5 3q4 3 4 4 0 0 1 1t2 1v1l1 2q2 3 9 5 7 3 7 4v1h-1q-1-1-3-1-3 0-6 0t-3 2v2h2l1 1 2 1h-6v2h-3l-1-1q-1-1-4-3l-4-2q0-1-6-8l-6-6v-1h-1v-1h-2v-1h-1v-2l1-1v-1h2l2 1h1t2 1l2 1h4-1v-1h-1v-1l-1-1-1-1v-1q-1-1 0-1t2 1z" fill="#7c94ad" stroke="#7c94ad"/>
  <path d="m506 507l1-1h1v18q0 17 1 20 1 2 1 4 1 2 3 6 1 3 5 5 3 3 4 3t1 2q0 1 1 1t1 1v3h-2q-2 0-2-1t-7 2-7 4q-1 1-2-2l-2-2v-1h-1v1h-2v2h1q1 1-1 2t-2 1v1l1 1q0 1-2 1h-2v1h-1v1t-1-1-1 1q-2 2-6 3l-4 1v-1q0-1-3-7l-3-6v-2h-1l-1-1h-1v1q1 1 1 2v2t-1-1q0-1-1-1h-2v1h-1v-1h-1v-1h-1v-1l1-1v-1h1t0-2q1-1 2-3 1-3 2-6t0-3-1 0q-1-1-2-1h-1v-2h1q2-1 3-1t1-3q1-2 0-2-2 0-2-1v-2q1 0 2-1 2-1 2-2 1-1 2-1t2-2 3-3 1-2q0-1 1-1t4-3 3-6v-3h3q2 0 3 1v1h1v1h1v1h1v1h1v-2l1-5v-5h1l2-1h-1l1-1z" fill="#364a6c" stroke="#364a6c"/>
  <path d="m560 675h2q0 1 0 1h1l2 3q3 3 3 3v1q0 1 0 1h1l3 5q4 5 5 5t1-1l2 1q2 2 2 3v1h1t1-2l2-2h2v2h-2v4q0 4 1 6t-1 2q-2 1-3 4-1 2-2 3-1 0-3 3-1 2-4 6-4 2-8 3-5 1-7-1t-3-2v-1h-1v-1h-1v-1l-1 2-1 2v-1t-1 0v-2q-1-3-2-10l-2-6v-2q1-2 1-4v-3q1-1 4-9l4-8v-2q0-1 1-2 1 0 3-1z" fill="#969bb5" stroke="#969bb5"/>
  <path d="m542 726v-3l2 3q2 2 2 2l2 4q2 5 3 6v3q-1 1-3-2l-2-3t0-1v-1t-1 0v-2q-1-1-1-2t-1-1-1-3z" fill="#313847" stroke="#313847"/>
  <path d="m396 315h1q0 1 11 1h15v1q0 1-10 2l-10 1h-2v3h-1l-1 1h-1q-1 0-4-2h-3l-2-1q-2-1-1-1v-1q1-1 2-1h2t1 0v-1l1-1q1 0 2-1z" fill="#737372" stroke="#737372"/>
  <path d="m770 301v2h-1v1q-1 0-12 10l-11 11q-1 1-4 3l-2 2v1h-1v1h-1v-3h1v-1h1v-1h1v-1h1v-1h1v-1l11-10q10-12 12-12 3 0 4-1z" fill="#7a5b40" stroke="#7a5b40"/>
  <path d="m575 599h2v1h1v2q0 1 1 1 0 1 1 1l1 2q1 1 1 2v1l6 7q4 8 5 8v1h-1q0 1 0 1h1q1 0 1 0v1t-2 1h-2t0-1q1-1 0-1v-2h-1v1h-1v-1t-4-6l-3-5v-1q-1 0-1 0 0-1-1-2-1-2-2-4-2-1-3-4 0-3 1-3z" fill="#32394b" stroke="#32394b"/>
  <path d="m384 339l-1-1h1q1 0 2 1l2 1q3 0 4 1l1 1h1v1q0 1 1 1 1 1 1 1 0 1 0 1h-9q-2 0-4-2-3-2 0-3 2-1 1-2z" fill="#845140" stroke="#845140"/>
  <path d="m326 330v-2h4q3 0 5 1h2l5 1q6 2 7 2t1 1h-5l-5 1h-1q-1 0-3 1h-9v-1q-1 0-1-1l-1-1q1 0 1-2z" fill="#775047" stroke="#775047"/>
  <path d="m612 290v-1h2q1 1 2 0h1v1q-1 1-2 3-2 1-10 14l-7 12-1 1-1 1v-1q0-1-1-1 0-1-1 1-2 2-3 2h-1v-3h1v-1h1v-2l8-11q8-11 9-11v-1h1v-1l1-1q1-1 1-1z" fill="#8ba093" stroke="#8ba093"/>
  <path d="m413 305l5 1q4 0 4 1h1l1 1t3 1h3q0 1 0 1t-2 2l-2 1h-17q0-1-4-1h-4v-1h1v-1h3l2-1 2-1h-1q-1 0-1-1t3-1 3-1z" fill="#cebdb5" stroke="#cebdb5"/>
  <path d="m457 508h1v2q1 2 2 2l-1 6q-1 7-1 8-1 0-1-1h-1v2q-2 2-2 2v-19l2-1q1-1 1-1z" fill="#5d8aa2" stroke="#5d8aa2"/>
  <path d="m478 333l3 1q3 0 8 0h11v4h-4v1h1q0 1-1 1h-6q-3 0-6 1-4 0-4-1v-1h-9v-1l5-1q4-1 3-2t-1-2z" fill="#2f3f60" stroke="#2f3f60"/>
  <path d="m632 470l3-7v1q0 1 1 1 1 1 1 1l-2 6q-2 6-2 6h-1t0 1q-1 1-2 0v-2q0-1 2-7z" fill="#9f6a42" stroke="#9f6a42"/>
  <path d="m290 396l-1 1q-1 1 0 1v1q-1 0-8 4l-8 5h-2q-2 0-3 1 0 0-1 1h-1q-1 0-2 1-2 1-1-1l1-2 6-4q5-4 6-5h2l1-1h3v-2h4q4 0 4 0z" fill="#92aabe" stroke="#92aabe"/>
  <path d="m380 402h2t-2 1l-2 1h-2q-1 0-4 1l-2 1h-8q-2 0-2-1h-1v-1h1q2 0 1-1l-1-1t1-1h1l8-1q8 0 8 1t2 1z" fill="#9b6c58" stroke="#9b6c58"/>
  <path d="m708 229h1l7 1q6 0 10 0h5l10 4q10 4 19 9t10 6l1 1h1v1h1v1h1v1h1v1h1v1h-2l-2-1h-2q-3 0-8 1l-4 2h-1v1h-1v1h-4q-3 1-6 1l-3 1h-2q-2 1-3 1-1 2-4 2l-4 1h-4q-4-1-5-1h-3q-3 0-4-1-2-1-9 3l-7 2-1 1-1 1q-1 0-1 1h-1q-2-1-4 0h-2q-1-1-2 0 0 1-6 3l-7 2h-1v-1h-1v-1h1v-1l1-1q1-2-1-3l-1-1t-1-1q-2-1-2-3t2-4q1-3 2-3t2-1q0-2 2-4l1-3q1 0 1-1l3-2q3-2 3-3t8-6q7-5 10-7 4 0 6-1z" fill="#965220" stroke="#965220"/>
  <path d="m642 462v3l-5 15q-5 14-5 15v1t-1-2-1-2l-1 1v-4h1v-1q0-1 2-6l1-4t2-6l2-6 1-2q1-2 2-2t2 0z" fill="#935839" stroke="#935839"/>
  <path d="m500 645v1h2q1 0 1-1v-1l1 1q0 1 1 3v1h1l1 1h1v1l1 1 1 2v1q0 1 1 2v1l-2-1q-1-1 3 11 6 11 6 11 2 0 2 0v1q1 0 2 1h1v2h-1l-1-1h-1v3h-1v1h2v2h-8v-1q-1-1-2-3-1-3-7-13-6-9-9-11l-3-2v-3h1v1l1 1h1q2-1 3 0h2v-3h-2q-2 0-2-1l-1-1v-2q0-1 1-1t2-2v-2l1-1q1 0 1 1z" fill="#535b77" stroke="#535b77"/>
  <path d="m596 638h1t1 1l11 15q11 16 12 16v1h1v2h1v1h1v1h1v1h1v2h-1l-1-1-1-1h-1l-1-1h-1v-1h-1l-1-1v-1q0-1-12-16l-10-15h-1q0-1-2-4l-2-3h1t2 2 2 2z" fill="#a2a6b5" stroke="#a2a6b5"/>
  <path d="m439 610l3-7 2 1q2 2 2 6 0 5-1 6t-1 1-1-1-3 1l-2 2t-1-1l-1-1v-1t3-6z" fill="#666972" stroke="#666972"/>
  <path d="m380 338h3l1 1q1 1-1 2-3 1 0 3 2 2 4 2h3q1 1 1 2v1q0 1-2 1t-7-3l-5-2v-1l1-1v-1h-1l-3-1q-3-1-3-1h1l3-1q3-1 5-1z" fill="#c49c8a" stroke="#c49c8a"/>
  <path d="m263 408h1v1q0 1 1 1t2-1h1v1q0 1 2 1 2-1 4-1h1l-1 1-1 1h8t-3 1l-2 1h-2q-1 0-16 7l-16 7h-2l-1 1-1 1h-2v2t-1 1l-1 1h-2l-1 1-1 1h-1l-1-1v-1h-2v-3h-1v-1h1v-1l1-1h1l1-1q1-1 8-5 7-5 7-6t2-2l1-1h1l2-1h3l5-2q4-2 5-2zm3 3t1 0q0 1-1 1 0 0 0-1z" fill="#7c90a3" stroke="#7c90a3"/>
  <path d="m480 234v1h1v1h2l1 3q0 3 0 3 0-1-1-1v-1h-2q-1 0-2-2l-1-1-1-2q-1-1 1-1t2 0z" fill="#637f96" stroke="#637f96"/>
  <path d="m233 309v-1l1 1q2 1 6 1h5l2 1q2 1 4 1h2l3 1q3 1 4 1h2l4 2q4 2 6 2h1l1 1q0 1-1 1h-1q-1 0-2 1-2 0-3 1l-1 1h-6q-6-1-12-1t-10-2q-3-1-3-2 1-1 0-2h-1l1-1 1-1h-2q-1 0-2-2t0-2 1-1z" fill="#c09f93" stroke="#c09f93"/>
  <path d="m482 425h1v1q0 1-1 1-1 1-1 1h1v4h1v-1h1v5q0 1-4 5-3 5-4 3l-1-2q-1-1-1 0-1 0-2-2v-2q0-1 1-4l1-2 2-3q3-3 4-3t2-1z" fill="#66b3cd" stroke="#66b3cd"/>
  <path d="m497 339h3l2 1t1 1v1t-5 1q-4 1-4-1v-2h2q1 0 1-1z" fill="#263d68" stroke="#263d68"/>
  <path d="m568 536v-3t1 1v1q0 1 1 1l2 2q1 2 2 2h2l1-2q1-1 2-1t1 1q-1 2-1 2l-1 2q-2 2-2 3h-1q0 1-1 1h-1q-1 0-3-4t-2-6z" fill="#7e6279" stroke="#7e6279"/>
  <path d="m289 399h6v2q0 1-7 3l-7 4h-3l-1 1-1 1h-2q-2 0-5 1l-3 1v-1q0-1 1-1h1t0-1q1-1 3-1h2l8-5q7-4 8-4z" fill="#67839b" stroke="#67839b"/>
  <path d="m641 446l4-10v1l1 1v1h1v-1h2l-1 3q-1 3-1 3l-2 6q-1 6-2 8l-1 2v2q-1 0-2 0t-2 2l-1 2t-1-1q-1 0-1-1v-3l1-2v-1q0-2 5-12z" fill="#995733" stroke="#995733"/>
  <path d="m336 391h1l-1 1t4 0 6-1h3v1h-1l2 1q2 1 3 1h1l-1 1-1 1h-1q-1 0-3 1l-1 1h-2v1l-1 1v1h-6q-7 1-8 1h-10l1-1h1v-2h1v-1h1v-2h1v-1l5-2q5-1 6-2z" fill="#7f97b1" stroke="#7f97b1"/>
  <path d="m399 314h1l4-1h13l2 1q1 1 1 1 0 1 0 1h-12q-11 0-11-1 1 0 1-1h1z" fill="#4c4439" stroke="#4c4439"/>
  <path d="m332 342h3l3 1h3v1h8q8 0 17 0 10-1 9 0 0 1 1 1h1l5 2q5 3 7 3t2-1l5 1q5 0 6 0 0 0 1-1h1l8 2q8 3 9 3h1t0 1h1l1 1q2 0 3 1l1 1h3l1 1 1 1h1v1l-1 1-1 1v1h-2l-3 1q-3 1-7 1l-3 1h-1q-1-1-6-1t-6 1l-2 1h-2q-2 0-14 0h-11v1h-1q-1 1-10 1l-8 1v-2h-1v-1h-1v-2h-1l-1-1-1-1h-1q-1 0-4-2-2-2-10-4-7-2-14-6l-8-2-1-1-1-1h6v-1h-1v-1h-1l-1-1-1-1h-1v-1h1l2 1 4-1q3-1 6-1 4 0 6 0z" fill="#e9d7c8" stroke="#e9d7c8"/>
  <path d="m496 650v2q0 2 2 2h2v3h-2q-1-1-3 0h-1l-1-1v-2q1 0 1-1l1-1q1-1 1-2z" fill="#2d3248" stroke="#2d3248"/>
  <path d="m384 296v-1l1 1q1 0 2 0v1h1v1h1l1 1q1 0 1-1 1-1 1-1 0 1 0 1h1l4 2q3 2 4 2v1q0 1-1 1-2 0-2 1t-2 1q-1 1-1 2-1 1-3 2h-3v2q1 0 1 0v2h-1q-1 0-1-2l-1-2h-2v-2l1-1q0-1 1-1h1v-1h1v-1h1v-3h-1v-1h-1v-1t-2-1-2-2z" fill="#bba097" stroke="#bba097"/>
  <path d="m509 657l2 1 4 8q5 9 5 11v2t-2 0-6-11q-4-12-3-11z" fill="#334051" stroke="#334051"/>
  <path d="m354 216v4q0 3-1 5l-1 2v1l1 1q1 1 1 1h1v1h1v2h1v1h1v1l1 1v1h-2v-1l-1-1v-1h-2v-1h-1v-1h-1l-1-1q-1-1-4-3-3-3-6-5l-4-2q0-1-7-5l-7-4-1-1h-1v2h-1l-1 1h1l-1 2q0 2 0 1-1 0-1 0v-1h-2v1l-1 1v1h1q1 0 3 3 1 3 2 3v1h-3v1h1v1h2v1h1v2h-1l-1-1h-1v-1h-1v-1l-11-6q-11-7-14-10t-4-8q-1-4-1-5 1-1-4-2-6-1-8-2t-4-4q-1-3-6-11-5-10-6-12-2-2-1-3 1 0 1-3 1-4 4-7 4-3 8-2 5 1 8 1 2 1 2 2t8 5q8 3 14 9 7 4 8 5 2 0 2 1t7 4q7 4 10 7t6 7q3 3 7 10 2 6 6 9t4 3zm-63-8t0-1q1 0 1 1 0 0-1 0z" fill="#cfd7da" stroke="#cfd7da"/>
  <path d="m401 343h1q0 1 1 1h1v2q0 2 0 2v1h-1q-1 1-1 1-1 0-6 0l-5-1v-1q0-1-1-2h-1 7l2-1q2-1 3-2z" fill="#b58b77" stroke="#b58b77"/>
  <path d="m422 295h1v1h2v1h1v1l6 6q6 7 6 8h-1q-1 0-3-2l-3-1v-1h-1l-1-1q-1-1-3-2l-1-1q-1-1-4-4l-3-3v-1h-2v-1h-1v-1q-1 0-2-2l-1-2h2q1 0 4 3 2 3 3 3t1-1z" fill="#37393f" stroke="#37393f"/>
  <path d="m466 569h1q0 1 1 1 0 0 0 1h1v3q1 3 2 4 1 0 1-2 0-3 1-3h1v6q0 5-1 5-1 1-1 0t-1-1h-1v-1q0-1-2-5t-4-5h-1v-1l1-1q0-2 1-2t1 1z" fill="#141a29" stroke="#141a29"/>
  <path d="m401 276l-2-3 3 1q2 0 5 3t3 3v1t-2 1l-2 2t-2-2-3-6z" fill="#444e59" stroke="#444e59"/>
  <path d="m499 588l4-2 1 1q1 1 2 0 1 0 1 1-1 1-1 2v1l-2 3q-2 4 0 6 0 2 0 2-1 0-1-1h-1q0-1 0-1 0-1-1-2h-1v-1t-1-1l-1-2q0-1-1-1v-1q-1 0-1 0 0-1 0-2t3-2z" fill="#394362" stroke="#394362"/>
  <path d="m471 394l9 1q9 1 9 1h-1t0 1h-2q-2 0-2 3-1 3-4 4l-4 1q0-1-2-2l-1-2q1 0 1-2l1-2q0-1-1-1h-2q-1 0-1-1v-1z" fill="#465383" stroke="#465383"/>
  <path d="m500 460h1v2l1 2v2q1 1 5 4 3 3 4 4l1 2v3h1v1h1v1q0 1 1 1t1 3-4 9q-2 5-3 8l-1 4h-1l-1 1-1 1h1l-2 1h-1v-1h-1v-2q0-3-2-6t-8-17l-5-14v-1q-1-1-1-4v-3l1-1q1 0 2-1 0-1 5-2 4-1 5 1t1 2z" fill="#2b5677" stroke="#2b5677"/>
  <path d="m374 369h4l2 1h1l2 1q2 0 2 1 1 1 1 1 0 1-1 1t-1 1-2 1h-1l-1 1-1 1h-1l-1 1-1 1h-1l1 1 1 1q-1 0-2 1l-2 1h-2l-1 1-2 1h-7q-3 0-11 2l-8 2h-3l-1 1v-1h-3v-1h1v-1h1l1-1 2-1 7-5q7-4 8-5 1 0 1-1t-1-2v-1h1t0-1l8-1q9 0 10-1z" fill="#677481" stroke="#677481"/>
  <path d="m448 349h1l5 1q4 2 5 2h1q1 0 2 1 0 1 0 1h1t1 1v1h1l1 1 1 1h2q2 2 3 2l2 1q1 1 1 1h-1v2q0 1-4 1h-5v-1q-1 0-6-4l-5-3v-1t-1 0h-1v-1h-1v-1h-1q-1 0-2-1l-1-1q-1-1-1-1v-1q1 0 2-1z" fill="#8599bf" stroke="#8599bf"/>
  <path d="m674 749l-4 4q-3 5-10 9-8 4-12 6-3 2-2 4 0 3 1 5v2h-1q-1-1-4-1t-14 6q-10 8-10 9-1 1-4 3l-4 2v1h-1v1h-1l-1 1-1 1h-1l-1 1h-1v-1l1-1v-1h2v-1h1v-1h1v-1h1v-1l7-7q7-7 14-12 8-4 8-5t3-2q3-2 3-3t1-1 1-1 1-1 1-1 8-3 13-7q5-4 5-4z" fill="#efecc8" stroke="#efecc8"/>
  <path d="m451 409h2l2 1q2 0 3 1 0 1 2 1 1 0 2 1l2 3q2 2 4 0 1-2 2-2 2 0 2-1v-1h3v1h1v1q0 1 0 2v4l-3 6q-3 5-3 5v1h-1v1h-1v2l-1 1q-1 1-2 2l-1 1v-1q0-1-1-1 0 1-1-1-1 0-2-1 0-1-3-1t-7-2q-3 0-12-1-9 0-9 1t-2 1h-2v-1l1-1v-1h-2v-1h1v-1h-1v-1q0-1 0-1 1 0 1-3 1-3-2-3l-3-1v-2h-1v-1h-1v-1h2l3 1h2q2 0 3 2t6 2q6-2 10-6t6-4q1 0 1-1z" fill="#e5d2c6" stroke="#e5d2c6"/>
  <path d="m279 317l8 2q8 1 9 2h1v1q1 0 1 0v1q0 1 0 1h-19l-7-1h-6l1-1q1-1 3-1 1-1 2-1h1q1 0 1-1l-1-1h3q3 0 3-1z" fill="#8e6d64" stroke="#8e6d64"/>
  <path d="m600 554l1-3 2 2q3 2 3 3v1q0 1 0 1h1q-1 1-1 2t-1 1h-3q-1 1-2 1h-1v-1h-1v-2q0-1 0-1t2-4z" fill="#7a8096" stroke="#7a8096"/>
  <path d="m498 323v-1l4 1q3 1 4 1v1q0 1-1 1 0 0-3-1-4-1-4-2z" fill="#516e8a" stroke="#516e8a"/>
  <path d="m596 320v2l-3 8q-3 9-5 18 0 9 0 16 0 8 0 12v13q0 5-1 7l-1 2v4l-1-1v-1h-2v-3q-1-3-1-3-1 0-2-2 0-1-1 0 0 1-1 1t-2-4-2-4-2 1q0 2-2 1l-1-1h-1v-2q0-2 6-24 4-21 10-30l6-10h1q1 0 3-1 1-1 1 0 1 0 1 1z" fill="#a6c7bf" stroke="#a6c7bf"/>
  <path d="m447 385l-3-3h9l1 1 2 1h1q1 0 1 1h1l5 4q4 5 5 5h1t0 1h1q0 1 1 1 0 0 2 1h1l-1 2q0 2-1 2h-1q0 1-1 1h-1q-1 0-6-4-5-2-10-3l-4-1t-2-1l-2-1t2-2v-1h1v-1h1t-3-3z" fill="#8196be" stroke="#8196be"/>
  <path d="m398 309l1-4h14q0 1-3 1t-3 1 1 1h1l-2 1-2 1h-3v1h-1v1h4q4 0 4 1h-5l-4 1h-4l1-1q1-1 1-4z" fill="#bda59e" stroke="#bda59e"/>
  <path d="m792 273l-3-7h1q1 0 1 1l4 9q5 10 5 11v1h-2q-1 0-4 2-2 0-4 2l-2 2q-1 0-1 1h-1q0-1 0-1-1 0-2-1l-2-2 2-2q3-3 6-3 4 0 5 1h1v-3q0-4-4-11z" fill="#8b6d53" stroke="#8b6d53"/>
  <path d="m609 574l1 1-2 2q-1 1-1 2h-1q0 1 0 1 0 1-1 1t-1-3-1-4l-2-2t1-2l1-1 2-1q2 0 3 2 0 3 1 4z" fill="#8b90a4" stroke="#8b90a4"/>
  <path d="m221 302l23 2q24 1 24 0 0 0 1 0l1 1q0 1-1 2-1 0-1 1t-1 1q-1 1-1 1h-1v1h1v1h1v1h-1q-2-1-3-1h-2q-1 0-7-2l-6-1q-1-1-10-1l-9-1v-1q0-1-5-2l-4-1q1-1 1-1z" fill="#94a6b5" stroke="#94a6b5"/>
  <path d="m306 389h1l-1 2q-2 1-3 2t-1 1l-1 1v1h-2l-1 1q-1 0-1 1v2h-1t0 1h-1v-2h-6v-1q-1 0 0-1v-1h1l8-3q7-3 8-4z" fill="#7e98af" stroke="#7e98af"/>
  <path d="m469 433v-1h2q1 0 2 0h1l-1 2q-1 3-1 4v1l-4 5q-4 6-4 9-2 3-2 4v1h-2v-2q0-1 1-4l1-3v-2q0-2 1-5l1-3 1-1q1-1 2-2l1-1t0-1v-1h1z" fill="#446b74" stroke="#446b74"/>
  <path d="m262 313v-1h1q1 0 3 1h2l1 1 5 1q4 1 4 2h1q0 1-3 1h-4q-2 0-6-2l-4-2v-1z" fill="#806965" stroke="#806965"/>
  <path d="m530 366v-1 4q0 4 1 4h1v1t-1 2l-1 2v2l-1 2v1l-5 9q-6 10-6 11v1l-1 1v1h-1t-2-1q-1 0-2-1v-2t1-1l1-1v-1h1v-1h1v-2q0-1 3-5t6-15l4-10q1 0 1 0z" fill="#39487d" stroke="#39487d"/>
  <path d="m464 220h1v-1h1l-1 3q0 4 0 4h1l2 1h1q0 1 1 1t0 1q-1 0-1 1l1 1v1h1q1 1 2 2l-1 1q0 1-1 1-1 1 2 4 2 4 7 5 4 2 6 3 1 0 1-1v-1 8q1 7 1 10 1 2 0 2-2 0 1 4 3 3 3 4v1h1v1h1v2h-7v1h-1v1h1l1 1 1 1h1v1h1v1h1v2h-2v-2h-1l-1-1q-1-1-2-1l-1-2h-1v-1h-1v-1h-3v2h1v1h1v1l1 1q1 2-2 2t-3 1 1 2v2h-2v1h1v1h-6t-2-4q-3-4-5-4-2-1-2-2l-1-1v1q0 1-1 1t-1 1q0 2-1 2t-5-3l-5-3v-2h-4v-1q0-1 1-1h1v-1q-1 0-3-1-2-2-2-4 2-2-4-4l-5-1h1v-1h-1v-1h-1v-1h-2v-1t-1 0q0-1-2-4-2-4-1-4 2-1 2-1-1 0 0-4 0-3 6-6 7-3 6-6-1-2 0-2 2 0 2-2v-1l2 1q3 0 5 0h2q-1 0-2-2-1-1 0-2 1 0 3-2l1-1 4-1q3 0 4-2 1-1 1-1v-1h2z" fill="#9cb4c6" stroke="#9cb4c6"/>
  <path d="m244 430h1v1q0 1-1 1 0 0-1 0v1h-1l-4 3q-4 2-5 3t-1 2h1q0 1-7 5-8 4-14 6l-6 2h-6l-2 1h-1v-1h1l1-1 1-1h1v-1h1l1-1h1l1-1q1-1 13-7l11-6h1l1-1 1-1h2l1-1q1-1 1-1h3l1-1h1l1-1q2 0 2 0z" fill="#c0a194" stroke="#c0a194"/>
  <path d="m560 483h3v1h1l9 11q9 10 13 15 2 6 3 7l1 1v1h1v1h5v-1h1v-1h2v-1l3 1q3 1 4 2 0 2 0 2l2 2q0 3 1 3v-1h2v2h-1q-1 0-1 1l-2 2q-1 2-1 4t-1 2v1h-3q-1 0-5 2l-3 2h-1v1h-1l-1 1-1 1h-3v-1l1-1v-1h2t1-1l1-1-1-1-1-1h-2q-3 0-4 0t0-2q0-3-1-3t-3-4l-1-4v-1q-1 0-1 0 0-1-1-1v-1q-1 0-4-4l-4-5v-1l-1-1v-1h-1t-5-8q-6-7-9-9l-3-3h-1v-1h-1v-1h-1v-1h-1v-1h-1v-1l7-1q6 0 8-1z" fill="#8c8566" stroke="#8c8566"/>
  <path d="m381 381l2-1h5t4 1h3v1h-4l-1 1-1 1h3l1 1h1v2h-2q-1-1-4-1h-3t-3 0-10 0l-6 1h-1l-1-1h4l2-1 1-1h2l2-1q1-1 2-1h2l2-1z" fill="#94a7bd" stroke="#94a7bd"/>
  <path d="m525 724l1-2v1q0 1 1 1t1 1v1l-1 3q-1 3-1 5v1l-1 1-1 1v3l-1 1-1 1v1-14l1-1v-2q1-1 1-1 0 1 1-1z" fill="#a2a6b3" stroke="#a2a6b3"/>
  <path d="m718 264h2t-1 1h-3q-2 1-4 1t-10 6l-8 5v-1q0-1 0-2v-1q0-1 1-1v-1q1 0 1-1l1-1 1-1 7-2q7-4 9-3 1 1 4 1z" fill="#cea562" stroke="#cea562"/>
  <path d="m378 335l-9-2 9 1q10 0 17 3t7 3h-2q-3 0-8-1l-4-1h-1q-1 0-9-3z" fill="#3e5870" stroke="#3e5870"/>
  <path d="m674 600h1q1 0 1 0v1q0 1 0 1h1l13 12q13 12 12 13 0 1 0 3 0 1-1 2-1 0-3 4-1 4-4 6-2 1-3 2 0 1-5 5-5 5-7 7t-3 2q-2 0-2 1-1 1-8 1t-14 4q-8 4-9 5-1 0 0 1 0 1-3 0-2 0-3 1 0 1-1 1-2 1-2 2v2t-2-2l-2-2v-1h-1v-1h-4v-1h-1v1t-7-10l-7-11v-1q0-1-1-2 0-1 1-1t1-1l-1-1v-1l-1-1-1-1t0-1l-1-1h2v-2q0-2 1-2t1 1q1 1 2 0t7-5q6-2 8-3 3-1 10-3t10-5q4-3 14-9 9-6 9-6h1v-1l1-1q1-1 1-2z" fill="#adafad" stroke="#adafad"/>
  <path d="m449 394h1l4 1q5 1 10 3 5 4 6 4v4q0 3 1 4 0 0-3-1l-3-1t-7-4l-8-4h-2l-2-1q-2-1-2-1h2q2-1 2-2 0-2 1-2z" fill="#37455d" stroke="#37455d"/>
  <path d="m334 405h19v1h-1q-1 0-1 1h-1q-1 1-4 1l-3 1q-1 0-1-1t-6-2h-6t4-1z" fill="#714a3b" stroke="#714a3b"/>
  <path d="m505 310h3t0 1h1l2 3q2 2 0 2h-2v-1q-1 0-3-1-2 0-3-2-1-1 2-2z" fill="#4c6782" stroke="#4c6782"/>
  <path d="m473 568v-1h1l1 1h1v2l3 6q3 6 3 7v1l4-1q4-1 6-3 0-2 1-1t1 1v1h1v1h1v1h1v1h3q3 0 3 0h1l1 1 1 1h-3l-4 2q-3 1-4 2 0 1 1 2 2 0 2 1v1h-2q-3 0-4 2 0 2-1 4l-1 3v1l1 2v1h-1v-1h-2v-2l-1-1-1-1v-1q0-1-3-3l-2-3v-1q-1 0-1 0 0-1-1-1v-1q-1-2-1-2l-1-1v-3q-1-2-1-7l-2-5v-4q0-1-1-2z" fill="#455273" stroke="#455273"/>
  <path d="m523 569h3v5l1 1h1v2q1 2 0 2-1 1-1 1h-1q-1 0-6 0-4 0-5 1-1 2-5 6l-4 4v-1q0-1 1-2 0-1-1-1-1 1-2 0l-1-1h3l-1-1-1-1h-1t-3 0h-3v-1h-1v-1h-1v-1h-1v-2h1v-1h2q2 0 2-1l-1-1v-1l-1-1v-1h3q2-1 1-1h-1v-2h2v-1h1v1l2 2q1 3 2 2 0-1 7-4t7-2 2 1z" fill="#3b4666" stroke="#3b4666"/>
  <path d="m388 338l4 1q5 1 8 1h4q1 0 2 1l1 1h2l2 1h2v1h-2q-2 0-5 0h-2t-1-1h-2q-1 1-3 2l-2 1t0-1-1-1q-1 0-1-1v-1h-1l-1-1q-1-1-4-1l-2-1h1q1-1 1-1z" fill="#4b322d" stroke="#4b322d"/>
  <path d="m602 538h2v1h1v1h1l2 1q1 1 2 0h1v1q-1 0-2 1l-1 1v4q1 3 2 4 0 0 0 3t-1 3h-2q-1-1-1-1v-1q0-1-3-3l-2-2h-1q0-1 0-1t-3-2l-3-2v-1h-1v-1h-1v-1h1v-1h1l3-2q4-2 5-2z" fill="#2f2824" stroke="#2f2824"/>
  <path d="m361 386h3l1 1h1q0 1-8 2l-7 1-1 1h-4q-2 1-6 1t-4 0l1-1h1l1-1h3l8-2q8-2 11-2z" fill="#95a8bd" stroke="#95a8bd"/>
  <path d="m514 690l-1-2h1l2 2q2 2 3 1t1-2v-1h1l2 3q2 3 3 4h1l2 5q1 5 2 8 0 4-1 4-2 1-2 2v1q-1-1-4-3-4-2-6-10l-2-7v-2h-1q0-1-1-3z" fill="#6c738e" stroke="#6c738e"/>
  <path d="m248 309l6 1q6 2 7 2h1v2h-2q-1 0-4-1l-3-1h-2q-2 0-4-1l-2-1h1q2 0 2-1z" fill="#8c7169" stroke="#8c7169"/>
  <path d="m716 274h7t1 1l-1 3q-1 4-1 4h-5q-1 0-1-1h-1v-1q-1 0-1 0v-3q0-3 2-3z" fill="#2c2b1b" stroke="#2c2b1b"/>
  <path d="m412 372l2-1 2 1q3 2 3 4 0 1-1 1-1 1-1 1h-1t-1-1l-1-1v-1q0-1-1-1 0 0-1-1-2-1 0-1z" fill="#4b5060" stroke="#4b5060"/>
  <path d="m545 564v2h2q2 1 3 6 2 5 2 6 0 0 0 1h1v1h1v3h-1l-1-1h-1v-1q-1 0-1 0 0-1-2 1-3 2-2 3 0 1-3 1t-5-2-7-3l-4-1t1-1q1 0 0-2v-2h-1l-1-1v-5h-1v-2h1v1h2q2 1 3 2 1 0 5 0t5-2 0-4q0-1 2 0 1 0 2 0z" fill="#485073" stroke="#485073"/>
  <path d="m342 252l4 2q5 2 6 3h1l1 1q2 0 2 1h1l3 2q2 1 4 2h6l2 1q1 1 1 2-1 2-1 3v1q-1 0-1 1h-1q0 1 0 1v2h-1v1h1v2q1 1 3 3 1 2 2 3 0 1 4 5 3 3 4 4 1 0 1 2v1q0 1 0 1h1l1 2q2 1 2 1v1h1v1h1v3h-1v1h-1v1h-2v3l-1-1h-1l-1-1q-1-1-3-2l-3-1t-3-2h-7l-1-1h-1v-1h7v-1h-1v-1h3v-1h-1v-1h-2v-1h-1q0-1 0-2-1-1-2-1t-1-2q-1-1-4-5t-4-4-6-6-8-11l-3-4q0-1-1-4l-1-2 1-1q1-1 1-1z" fill="#e7dbd0" stroke="#e7dbd0"/>
  <path d="m338 401h6v1h2t-4 2l-4 1h-4q-4 1-4 1t-2 0l-1 1v-1t1-1 1-2v-1h1q1 0 8-1z" fill="#47586f" stroke="#47586f"/>
  <path d="m500 402v-1l2 1q3 0 4 1 0 1 3 1t3-1v-1 2q1 1 2 1 2 1 2 1h1v1h1v3l-3 4q-3 4-3 4t-7 6l-6 6h-4l-1-1h-1v-2h-3v-2h1v-1h1v-1q0-1 4-6 3-5 4-8l1-3v-2q-1-1-1-2z" fill="#436697" stroke="#436697"/>
  <path d="m741 261h2q0 1 1 1v1h-1v1h1v2h3l3 2q2 2 2 4 0 3 2 4t2 2-1 2q-1 1-2 1h-1v-1t-1 0q-1-1-1-2t-4-4l-4-2q-1 0-4-2l-4-2-1-1-1-1h-2v-1l3-1q3 0 2-1 0-1 2-1 1 0 2 0 0 0 2-1z" fill="#c4834d" stroke="#c4834d"/>
  <path d="m202 306v-1l5 1q5 0 13 1h8v1h-8q-7 0-10 1h-4q0-1-2-1-1 0-2-2z" fill="#c7b0a9" stroke="#c7b0a9"/>
  <path d="m586 633l2-1h1q1 0 1 1t1 1l2 3q2 3 2 4h1l10 15q12 15 12 16v1l1 1h1v2h-3q-1 0-3 0-1 1-1 2-1 1-2 2-2 0-2 1t-1 1-10 6l-10 6t-1 0v1h-1q-1 1-2 2l-2 1v-1q0-1-2-3l-2-1v-1t-4-6l-4-5v-1t-1 0v-1q-1-1-2-3l-2-2v-1q-1-1-1-1 0-1-1-4-1-2 1-4t5-8l3-7q1-1 1-1h1q1 0 4-5t4-5 2-2q0-2 2-3z" fill="#8f95b0" stroke="#8f95b0"/>
  <path d="m205 437l1-1h8l-3 2q-3 2-3 3t-2 1q-1 0-1 2l-1 1v1l-1 2v2l-1 1h-1v1h-1t0-2 0-2q0-2 0-3 0-2-1-2-1 1-2 0t-2-1h-2 1t2-1l1-1h3l1-1 1-1h2l1-1z" fill="#a1b3c2" stroke="#a1b3c2"/>
  <path d="m0 456v-456h1095v913h-1095v-457zm354-240v1l5 3q5 4 5 4h1q1 0 1 0v1t1 1h10q10 0 13-2 2 0 2-1h1v-1h1v-3h1v-1h1v-1l-2-3q-1-2-2-2t-1-2-1-2-2-2q0-2 0-3t4-5q4-3 4-6 2-4 2-12 0-7 2-10 2-2 3-4 0-1 3-2 3-2 6-2 3-2 8 0 4 1 5 2 1 2 7 4t15 9q9 6 10 7l3 2q3 1 3 2t5 4q6 4 25 20t19 17h2l1 1h1v-1l1-1v-1h1l1-1h4q4 0 9-1 4-1 6-5 2-3 3-9t2-7q0-2 5-3 4-1 7-3t3-6q1-4 2-4t4-4q2-5 3-5 0-1 0-1h5q4 1 4 2t2 2q2 0 6 8t5 10 1 10v9l4 9q4 9 4 8 0-2 2-2 2 1 2 2t1 2q1 0 2 1t3 1q2-2 7 0t6 2 4-1 5-3q1-2 2-4t2-3q2-1 1-2 0-1 1-1t1-2q0-1 3-2t3 0 3 1 3 1 7 1q6 1 7 0t2-1h1l2-1 1-1h3l1 1h1l8-2q7-1 8-2h4l3-1h13q12 0 14 1h2l10 3q10 2 21 8t11 7 1 1q1 0 1 0v1l4 3q4 4 8 8 2 3 3 4l1 1v2h1v1h1v2h1v2h1q0 1 1 2v1l4 9q5 10 5 11v2q0 1 8 1 7 0 8 1h1l9 1q10 0 19 2t12 2h3v1h1l3 1q4 0 4 1l4 1q4 0 6 1h1l15 5q16 4 16 5h1l21 8q21 9 22 9h1l1 1 1 1h2v1h1v1h1v1h1v2h-1v1h-1l-4-1-3-1h-1q-2 0-20-8l-19-6-1-1h-2q-1-1-1-1h-2q-2 0-12-3l-10-2h-1q-1-1-9-2l-8-1-1-1h-3q-1-1-9-1l-8-2h-3q-2 0-13-1l-12-1h-5q-5 0-11-1h-10l-4 1h-4t-1 1h-1v1t-5 2q-4 2-15 11l-10 9q0 1-1 1v1q-1 0-1 0 0 1-1 1v1q-1 0-1 0 0 1-1 1v1q-1 0-1 0v1h-1v1q-1 0-6 5l-6 5q-1 1-5 5l-5 4v1q-1 0-1 0 0 1-1 1v1q-1 0-1 0 0 1-1 1v1q-1 0-1 0 0 1-1 1v1q-1 0-1 0 0 1-3 2l-2 2q-1 1-1 1v1t-1 0q-1 1-1 1v1q0 1-1 1h-1v1t-1 0v1q-1 1-7 7l-6 6v1h-1v1h-1v1h-1v1q-1 1-1 1v1h-1q-1 1-8 10l-8 8q-1 1-5 6l-4 4-6 12q-6 13-6 13l-4 10q-4 10-4 10l-5 15q-5 14-5 15v1l-4 8q-3 8-3 9l-5 8q-4 9-4 9l-2 4q-2 3-3 5v2l7 4q8 5 8 5t1 0v1l8 5q9 5 9 6l8 4q7 5 7 6t8 6q7 6 9 7 1 1 2 2 0 0 1 1 1 0 1 0v1l5 3q5 4 7 6t2 2v1t1 1q1 0 1 0v1t1 1l2 2q3 1 3 2 0 0 1 0v1l4 3q5 4 5 4v1l5 4q5 4 5 5 0 0 1 0v1l9 8q10 9 13 12t4 3v2q1 0 1 0v1t1 1l5 6q4 7 7 12 3 6 3 8v6h-1v-1h-1v-1t-1 1-2-1l-1-2-1 2q-1 2-1 3t-12 5q-11 4-16 5l-4 1v4q0 6-3 6t-4 3q-2 3-9 7t-12 10q-4 6-3 8t2 2v1q1 0 1 1v2l1 1v1h-2v-2h-1q-1 0-3 2h-2l-1 1h-10q-2 1-4 1-2 1-2 2v1l-2 3q-2 2-3 3h-1q0 1 0 1h-1t-1 1l-4 3q-3 2-6 4-4 2-8 4-3 2-2 4 0 3 1 5v2h-1q-1-1-4-1t-14 6q-10 8-10 9-1 1-4 3l-4 2v1h-1v1h-1l-2 1h-1q0 1-1 1 0 0 0 1h-1q-1 0-5 2-5 3-11 3t-13-1h-7v3q0 4-4 6-3 2-6 3-2 1-5 1t-3 0h-6v-1h-1v-1h-1v-1h-1v-1h-1v-1q-1 0-4-1t-3-2-3-3q-3-1-8-7-5-5-7-12t-8-7q-6-1-8-3t-3-2q-2-1-2-2-1-1-2-2-1 0-2-3t-7-3q-7 0-8-1 0-1-7-5-6-5-7-7-2-2-5-9-3-8-4-16-1-7 1-12l1-5v-1l1-2v-4h-2v1t-8-1q-8 0-12-3-5-3-7-5-1-3-3-10-2-8-1-22l2-14v-1l1-1v-3l1-2 1-2v-1q0-1 1-2v-2q1-1 5-11l4-10v-1t3-6l3-7v-3h1v-1h1v-3l1-2 1-1v-1q0-1 2-4l1-2q1-1 1-1v-3l1-2 1-1v-1q0-1 4-10l3-9v-5q-1 0-1-2v-2l-1-2q-1-1-2-10l-1-9v-26q0-7 1-13l1-5v-3q0-3 1-3v-3l1-3v-5q0-4 1-7l1-3v-2q0-1 1-4l1-3v-2q0-2 1-5l1-3v-1q0-1-1-1 0 1-1-1-1 0-2-1 0-1-3-1t-7-2q-3 0-12-1-9 0-9 1t-2 1h-2v1h-2q-2 0-2-1t-9-1q-10 0-12 1t-4 2q-2 0-3-1-1 0-1 1t-4 2q-5 1-5 0t-7-1q-8 0-9 1-1 2-8 3-6 2-7-1-1-2-6-2-6-1-7 1t-3 3-8 1h-6l-1-1h-1v-2l-1-1h-2q-2 0-4 2-2 0-7 2-4 2-8 4-5 3-5 2 0-2-3-1l-2 1h-1v1h-1v1h-6v-1q0-1-5-1t-17 2l-13 2h-3t0 1h-1q0 1-1 1h-1q-1 0-2 1l-1 1h-2l-1 1h-1q0 1-1 1t-4 0-7 3l-4 2t-3 1-3 0-12 0h-15l-7 4q-7 4-8 5l-8 7q-8 6-12 8-3 2-4 2l-4 3q-3 3-10 3h-6 1l1-1 1-1h-5v-3h1v-1h1v-2q0-1 1-1 0-1 7-5 6-5 15-10l9-4q0-1 1-1h1q0-1 13-9 13-9 13-10t4-4l5-2h2t1-1l1-1h1v-1h1v-1h1v-1h1v-1h1v-1l1-1v-1h1q1-1 4-3t16-10 16-10l4-2h1l1-1 1-1h2l15-7q14-6 15-6h1v-1h2l19-6q19-6 21-7h2l1-1 10-2q10-2 13-3l2-1h5l1-1v-2h-1v-1h-1v-2h-1l-1-1-1-1h-1q-1 0-4-2-2-2-10-4-7-2-14-6l-8-2-1-1-1-1h6v-1h-1v-1h-1v-1h-1v-1h-2v-1h-4q-4-1-5-1 0 0-8-2-7-2-7-3t-3-2l-4-1h-8l-2-1q-1-1-2-1 0 0-16-1-15-1-28-3-12-2-20-6-7-4-7-4 0-2-2-2-2-1-2-2t-3-1l-4-1h-4l-2-1-1-1h-1q-1 0-9-2l-8-2-1-1q-1-1-4-1-2-1-2-2v-1h-2q-2-1-6-1-4-2-13-4t-18-4l-9-2h-2v-1h1v-1h-2v-1l-1-1v-1h-1v-1h-1 3l25 3q26 3 28 5 3 0 4 1h4l4-1h22q21 0 35-1t30 2 35 4q20 1 29 3t14 3l5 1 11-1q11-1 11-1 1 0 2-1h1v-1h7v-1h-1v-1h3v-1h-1v-1h-2v-1h-1q0-1 0-2-1-1-2-1t-1-2q-1-1-4-5t-4-4-6-6-8-11l-3-4q0-1-1-4l-1-2q-1 0-7-8l-6-8q-1 0-2-3l-2-3h-1t0-1q-1-1-1-1h-1t0-1h-1l-1-1-11-6q-11-7-14-10t-4-8q-1-4-1-5 1-1-4-2-6-1-8-2t-4-4q-1-3-6-11-5-10-6-12-2-2-1-3 1 0 1-3 1-4 4-7 4-3 8-2 5 1 8 1 2 1 2 2t8 5q8 3 14 9 7 4 8 5 2 0 2 1t7 4q7 4 10 7t6 7q3 3 7 10 2 6 6 9t4 3z" fill="#fefefd" stroke="#fefefd"/>
  <path d="m354 340h17t3 1l3 1h1v1l-1 1v1h-1q-1 0-1-1 1-1-9 0-9 0-17 0h-8v-1l5-1q6 0 7-1t1-1z" fill="#d7b4a9" stroke="#d7b4a9"/>
  <path d="m521 682h1t0 1h1l2 5q3 6 3 6v1h-2q-1-1-3-4l-2-3h-1v1q0 1-1 1 0 0-2 1h-2v-1q-1 0-1 0v-5h2v1q0 1 2 1 1 0 1-1l1-1v-1q0-2 1-2z" fill="#333d4f" stroke="#333d4f"/>
  <path d="m472 660v3l1 1v2l-6 11q-5 11-6 13l-1 2v2l-1 1-1 1v2h2l-2 3q-2 3-2 3v1l-1 1-1 2v-2h-2v1t-8-1q-8 0-12-3-5-3-7-5-1-3-3-10-2-8-1-22l2-14h1v-1h1v-1h1v-3l1-1 1-1 2-1q2-2 2-1t2 0q3-1 11 1 8 4 16 8t8 5 1 1q2 0 2 2z" fill="#d3d3c5" stroke="#d3d3c5"/>
  <path d="m350 252h1v1h1v1h-1v1h1v1t1 0v1h-1q-1-1-6-3l-4-2v-2t-1 0h-1t0-1h1q1 0 2-1 0-1 2 0 1 0 1 1t2 2 2 1z" fill="#b99e8b" stroke="#b99e8b"/>
  <path d="m273 420h5q3 0 4 1v1t1 0l2 1h2q0 1-5 1h-11q-6 0-5-1l2-2h2l2-1h1z" fill="#b28275" stroke="#b28275"/>
  <path d="m560 509h2q1 1 1 1h1v1l1 1 1 1v1h2q1 0 1-1l5 5q4 5 5 6v1h-1q0 1 0 1h-2t0-1l-2-1q-2 0-2 4 0 5 1 7 1 3 1 3h1q1 1 1 2h-2q-1 0-2-2l-2-2q0-1-1-1v-1q-1-1-1-1v-1q0-2-2-4l-2-3v-2h-1v-1h-1v-2l-1-1q-1-1-1-1v-1l-1-1q-1-1-1-2l-1-1v-1l1-1v-1h1t1-1z" fill="#513e4a" stroke="#513e4a"/>
  <path d="m512 622l1 1 5 10q6 11 8 12 1 2 2 2t1 2q0 3 1 3 2 0 2 2 0 3 0 5v2l1 3v16q1 14 1 16v3l1 1 1 1v5h-2v-1h-1v-1h-1v-2l-1-1-1-1v-1q0-1-1-3l-1-1v-1t-3-6l-2-5v-1q-1 0-1 0 0-1-1-2l-1-1v-2q0-2-5-11l-4-8v-1q-1-1-1-2v-5h-1v-1h-1v-1l1-2q1-3-1-4-1-1 0-4 0-3 1-4t-1-2l-1-2h1v-1t2-1q1 0 1-3 1-3 1-3zm-3 17q1 0 1 0 0 1 0 1-1 0-1-1z" fill="#8cacc5" stroke="#8cacc5"/>
  <path d="m240 410l4-2h1q1 1 1 2v2h1v1l-1 1q-2 1-2 2t-7 6q-7 4-8 5l-1 1h-1l-1 1t-1 1l-5 3q-5 3-6 3h-8l-1 1-1 1h-2l-1 1-1 1h-2v-1h1v-1h1v-1h1v-1h1v-1l1-1v-1h1q1-1 4-3t16-10 16-10z" fill="#c0cfd9" stroke="#c0cfd9"/>
  <path d="m549 272l3 3q4 3 6 3 3 0 6 2t3 2h1v3h1v1h1l1 1h1v-3q1 0 2 1v1q0 2 0 2h1l-1 1v1h-1v1h-1v2l-1 1-1 1v1l-1 1v1h-1q-1 0-4 3l-4 3h-3l-3 1h-3v-1h1v-1l1-1q1-2 1-3 2-1 1-4l-1-3h1q1 0-1-1-1-1-4-5l-2-5h-1v-1h-1v-2l1-1 1-1v-1h-1v-1l1-1q0-1 1-1z" fill="#7293ab" stroke="#7293ab"/>
  <path d="m360 245l2-1h1v1h1v-1h2l2 1q2 1 3 2v3q1 1 2 2 1 2 0 2-1 1 1 2 1 0 1 1t-1 1q0 1-1 2 0 0-1 1t-2 1h-2v1h-1q0-1-5-2l-5-2h-1q0-1-2-1l-1-1v-1q-1 0-1 0v-1h-1v-1h1v-1h-1v-1h1v-1h-1v-1h3v1t1 0v1h2l1 1 2 1h2v-3h-1l-1-1-1-1-1-1v-3h2z" fill="#ad897b" stroke="#ad897b"/>
  <path d="m393 395h4v1q-1 0-3 1l-2 1h-2q-2 0-4 2l-1 1q-1 0-2 1h-3q-2 0-2-1t-8-1l-8 1v-1h1l1-1 2-1 12-1q11-1 15-2z" fill="#4f2b25" stroke="#4f2b25"/>
  <path d="m830 297h2l7 1q7 2 8 2h1v2h-1v1h-1v1h-3l1 1 1 1h-2q-2 0-13-1l-12-1 2-1h3v-1l1-1v-1h6l-1-1q-1 0-1-1t2-1z" fill="#29251c" stroke="#29251c"/>
  <path d="m620 504h2l-2 4q-1 4-1 5v1q-1 0-2 0l-1 1v-2l1-2q1-2 1-4t2-3z" fill="#956f3e" stroke="#956f3e"/>
  <path d="m297 428h1l-6 7q-5 7-6 7 0 0-1 0v1h-1q-1-1 1-4l2-4 1 1t2-1q2-2 2-2 1-1 1-1 1-1 1-1v-1t1 0q1-1 1-1 0-1 1-1z" fill="#c79e98" stroke="#c79e98"/>
  <path d="m540 482h1q1 0 1 0v1l1 1q1 0 1 1h1v1h1v1h1v1h1v1h1v1h1l3 3q3 2 9 9 5 8 5 8h1v1l1 1v4h-2v-1l-1-1v-1l-1-1-1-1v-1h-1t-1-1q0-1-3-3-3-3-7-5-4-3-8-6l-4-4v-1h-1v-1h-1v-1h-1v-1h1v-1h2v-3q0-1 0-1z" fill="#2b2e33" stroke="#2b2e33"/>
  <path d="m861 298v-1l3 1q4 0 4 1v1q0 2-2 2h-3v1h1v1l1 1 1 1-1 1h-1v2h-1q-1-1-9-1l-8-2h-1l-1-1-1-1h3v-1h1v-1h1v-2h6q6 0 6 0v-2h1z" fill="#302e23" stroke="#302e23"/>
  <path d="m435 377h1l4 1q4 1 7 2 2 2 2 2h-6q-1 0-1-2-1-1-4-2h-4t1-1z" fill="#7a89a9" stroke="#7a89a9"/>
  <path d="m365 406h5t-2 3q-2 2-3 4-1 1-6 2l-5 1h-1t-2 1h-2v-1q1 0 1-2l1-1 3-2q4-1 4-2v-1q0-1 4-1 3-1 3-1z" fill="#d6b497" stroke="#d6b497"/>
  <path d="m233 441h1q2 1 2 1t-1 0v1q-1 0-1 1l-7 4q-7 5-7 6t-2 2-2 2v1l1 1v1h-1v2t-3 1-3 0-12 0h-15l1-1 1-1h2l1-1 1-1h1v-1h1v-1q1 0 3-2l3-1h1l2-1h6l6-2q6-2 14-6 7-4 7-5z" fill="#e0ccbf" stroke="#e0ccbf"/>
  <path d="m102 284h3l25 3q26 3 28 5 3 0 4 1h1v1h1v1h-2q-1 0 0 3 2 2 2 2v1h-10q-2-1-6-1-4-2-13-4t-18-4l-9-2h-2v-1h1v-1h-2v-1l-1-1v-1h-1v-1h-1z" fill="#d0d9de" stroke="#d0d9de"/>
  <path d="m428 379l2-1h8q3 1 4 2 0 2 1 2h1l3 3q3 3 3 3h-1v1h-1v1q-2 2-2 2h-4q-5 0-16-2l-10-1q0-1-8-1l-7-1h-7v-2h-1l-1-1h-3l1-1 1-1h4v-1h17q7-1 7-1h3q3 0 6-1z" fill="#aac3da" stroke="#aac3da"/>
  <path d="m559 525v1h3v1l1-1q1-2 1-2l2 3q2 3 2 5v2q-1 1 0 1h1q1 0 1 1l-1 1q-1 1 1 5t3 4h1v4h2v1l-1 1h-1v1h-1v-1q-1 0-1-1t-2-1h-2v1q1 1 2 2 1 0 1 1v1l-3 2q-3 1-5 2-1 0-1 1 0 2 2 2 1 0 1 1h-1q-1 0-1 1l-1 2v-1h-1v-1h-1l-1 1h-1v-1q0-1-3-3-2-2-2-1t-1 1-1-1-1-2h-2q0-1-3-1t-3-1q0-2-3-4-2-1-1-4 0-2 2-3 1-1-1-2t-2-3q-1-3 0-4 1 0 1-5l-1-4 7-2q8-1 11-2 3 0 3 1t1 1z" fill="#5e5270" stroke="#5e5270"/>
  <path d="m607 531l2-2 1 2q0 2 2 1 2-2 3-2h1l-2 4q-2 3-2 6 0 2 5 4 5 3 7 4 2 2 2 2t0 1h1q0 1-1 1-2 0-4-2t-8-4l-6-2h-1q-1 0-1-2v-2h-1v-1h-1v-1h1v-1q1 0 1-2t1-4z" fill="#573d30" stroke="#573d30"/>
  <path d="m507 458l1-4v1h1v1h1l1 1 1 1h4q3 0 4 0l-3 5q-3 5-2 7 0 2 2 4 3 1 3 2-1 0-2 1t-4 0h-2v-1l-1-2q-1-1-4-4-4-3-5-4v-2l-1-2v-2h1v2h2q2 0 3-4z" fill="#427591" stroke="#427591"/>
  <path d="m316 416l2-2v2q0 2 1 2h1l-2 2q-1 2-2 2h-1v1h-1v1h-1v1q-1 0-1 1h-1q-1 0 0-2l1-2v-1q0-1 1-1v-1q1 0 3-3z" fill="#be9e78" stroke="#be9e78"/>
  <path d="m482 360h5-1v1h-1v1h-1t-4 2q-3 2-8 2h-5v-1h3q4 0 4-1v-2h1t-1-1l-2-1h3q3 0 7 0zm-1 1q0-1 0-1 1 0 1 0 0 1-1 1z" fill="#3a4c7e" stroke="#3a4c7e"/>
  <path d="m532 452h3l5 2q6 3 9 6 3 4 5 4 1 2 2 2 0 0 0 1h2q0 1 0 1h1l1 2q2 1 2 1v1q1 0 1 1h1v1h1l-1 1v1l-1 4v3h-3q-2 1-8 1l-7 1h-1q0-1-1-1l-1-1v-1t-1 0q-1-1-6-6-6-6-9-10l-2-5h-1v-1h-1v-1h1v-1h1l1-1q1 0 1-1v-1q0-1 0-1h2q2 0 2 0v-1q0-1 2-1z" fill="#759fa4" stroke="#759fa4"/>
  <path d="m418 396l-2-1h1l1 1h4q4 0 7 0t5 1h3q0 1 0 1 1 0-3 2l-2 2h-1t0 1h-3q-2-1-5-1h-3v-1t0-1q0-2-2-4z" fill="#784b3b" stroke="#784b3b"/>
  <path d="m462 478v4q0 4 0 8v10l-1 5q-1 5-1 6v1q-1 0-2-2v-2h-1v-12q-1-11-1-11v-3q0-3 1-3h1v-1h2q1 0 2 0z" fill="#5891ad" stroke="#5891ad"/>
  <path d="m444 617l-1 3q-1 4-2 4-1-1-1-2 0-2-1-2l-1-1 2-2q2-2 3-1t1 1z" fill="#989ba6" stroke="#989ba6"/>
  <path d="m653 237v-1h1l1 5q0 5 0 5v2q-1 1-3 4-2 2-4 2-1 0-3 3-1 2-4 4l-2 2v-1q-1-2-3 0l-2 2h-3l-1 1h-2v2h-2v-2l1-1 1-1v-1h1v-1h1l1-1q2-1 2-2t1-2q2 0 1-1 0-1-1 0h-1v-1q-1 0-1 0l10-8q9-7 9-8t1-1h1z" fill="#68847f" stroke="#68847f"/>
  <path d="m286 411v1h10q9 0 12-1h2q0 1-6 3l-5 2q-1 0-1 0v1h-1q-1 1-2 1l-1 1h-2q-2-1-4-1t-4 2l-2 1q-1-1-4-1h-6l-2 1h-2v-1h-1v-1h1v-1h2l1-1 1-1h2l1-1q1-1 1-1l2-1q3-1 3-1h2q3-1 3-1z" fill="#a57066" stroke="#a57066"/>
  <path d="m554 652q0 1-1 2t-1 2l-1 6q-1 7-1 13v6l-1 1q-1 0-1 8v10q0 2-1 4v6q-1 4-1 5v1h-1q-1 0-2-1l-1-1v-2q0-3-2-8t-2-22l-1-16v-1l1-1v-1l1 2q1 2 3 2 1 0 4-6 3-5 4-6 1 0 2-2 0-2 1-2 1 1 1 1z" fill="#9fafce" stroke="#9fafce"/>
  <path d="m622 566v-2h4l1 1 1 1h1v1h1l20 15q20 15 21 15v1h1v1h1v1h1v1h1v1l-1 1v-1h-1v1h-1v1h-1t-9 6q-10 6-14 9-3 3-10 5t-10 3q-2 1-8 3-6 4-7 5t-3 1q-1 0-1 1v1h-2v-1q-1-1-12-17t-14-17q-2-1-1 0v1h-1q-1 0-1-2v-4h-1v-1h-1v-1l-1-2-1-2v-1h1q0-1 0-1h1t0-1l2-1q2-2 2-2h7v-1h1v-1h1v-1h1v-1h1l1-1v1h1v2l-1 1v1l-2 2q-2 2-2 4 0 3 0 3v1h2v3h1v1h6q4 0 4 0t3-5l4-5v3h2l2-1h2v-1h1v-1h1v-1h1v-1h1t2-4 2-10v-8z" fill="#858ba0" stroke="#858ba0"/>
  <path d="m352 406l1-1h1v1q0 1 2 2 1 0 2 1 0 1-4 2l-3 2q0-1-1-1t0-1q0-1 0-1v-2t1 0v-2q1 0 1 0z" fill="#a3795d" stroke="#a3795d"/>
  <path d="m317 326h3l3 1q3 1 3 1v2q0 2-1 2 0 0-3-1l-2-1h-1q-1 0-3-1l-2-1 1-1q1-1 2-1z" fill="#835e4f" stroke="#835e4f"/>
  <path d="m376 404h5v1h-1v3h2l4 2q5 1 6 4 1 4 4 5 2 1 5-1t3-2h4v-2h4q5 0 6 1v1h1l1 1q2 0 2 1t2 2q2 0 1 3 0 3-1 3 0 0 0 1v1h1v1h-1v1h2v1l-1 1v2h-2q-2 0-2-1t-9-1q-10 0-12 1t-4 2q-2 0-3-1-1 0-1 1t-4 2q-5 1-5 0t-7-1q-8 0-9 1-1 2-8 3-6 2-7-1-1-2-6-2-6-1-7 1t-3 3-8 1h-6l-1-1h-1v-2l-1-1h3v-2h1v-2q1 0 2-2l2-2h1t0-1q1-1 2-2l2-1v-1h1v-1h2v2q-1 2-1 3v1h2v-1h1v-1h1t6-6l5-5h2q2-1 2-1h1l5-1q5-1 6-2 1-2 3-4 2-3 2-3l2-1q3-1 4-1z" fill="#ead8c4" stroke="#ead8c4"/>
  <path d="m404 334l3-1h8q0 1 1 1 0 0 2 1 1 1 1 2t-4 1h-5q-1 0-5-2-3-2-1-2z" fill="#84a7c0" stroke="#84a7c0"/>
  <path d="m355 371h1v1q0 1 0 2 0 2-1 2-1 1-8 5l-7 5h-2q-1 0-9-1h-8v-1h2v-1h1v-1h-2l1-1 1-1h-1v-1h1l1-1 10-2q10-2 13-3l2-1h2q2 0 3-1z" fill="#a0a8ab" stroke="#a0a8ab"/>
  <path d="m576 598v1h-1q-1 0-1 3 1 3 3 4 1 2 2 4 0 1 1 1t1 1v1h-1q-1 0 3 9 5 8 5 9v1t1 0v1l-3 1q-2 0-2 2-1 2-2 2t-4 5q-4 5-5 6h-1v-1q0-1 1-1v-1h1v-2q0-1 0-4v-5t-1 0q0-1-1 0 0 1-2 1h-3v-1h-1v-1h-1l1-1v-1h1v-1q1 0 3-3 2-2 2-9t0-9l-1-3v-1q-1 0-1 0t-1 0q-1 2-2 0l-1-2v-1h-1v-1h1l2-1 1-1 3-1q3-1 3-1 1 0 1 0z" fill="#515980" stroke="#515980"/>
  <path d="m446 334h3l1 2q2 1 2 2 0 0-6 1l-7 1-1-1h-2q0-1-2-1h-1l1-1q1 0 1-1t4-2q4 0 7 0z" fill="#444d67" stroke="#444d67"/>
  <path d="m463 703h1l1 1q1 0 2 2t4 5 3 4h1v1h1v-3l1 1v1h3v1l1 1v1h2v1h1v1h6q5 0 7-3 3-2 3-2v-1h3v1h1v2h1v1h1v4l-2 10q-2 9 0 10t2 0 2-1q1-1 2 0 2 1 2 3 0 1 3-4 3-6 3-8v-1h1v-1h1v-3h1v-1h2v2l-1 1v14-1l1-1 1-1v-3l1-1 1-1v-1q0-2 1-5l1-3 1-2 1-1v-1h1l1 1v2l1 1v2l2 4q2 4 3 4 2 0 2 1h1v9q1 9 1 10v1l-2 15q-2 14-1 26t1 13 1 2l1 1v1h1v1h1v1h1v1h1v1l1 1h-4v-1h-1v-1h-1v-1h-1v-1h-1v-1q-1 0-4-1t-3-2-3-3q-3-1-8-7-5-5-7-12t-8-7q-6-1-8-3t-3-2q-2-1-2-2-1-1-2-2-1 0-2-3t-7-3q-7 0-8-1 0-1-7-5-6-5-7-7-2-2-5-9-3-8-4-16-1-7 1-12l1-5h1v-1l1-1 1-1v-1l1-1q1-1 1-2 1-2 3-2h2v-1z" fill="#d7d7ca" stroke="#d7d7ca"/>
  <path d="m468 463h2v1q1 2 2 1 2-1 3 3 1 3 1 4l-1 4q-1 4-2 4h-1l-1-1q-1-1-2 4t-2 7l-1 3v6h-1v-1h-1v1l-1 1h-1v-10q0-4 0-8v-5l1-2q1-2 2-7 2-5 3-5z" fill="#2d7ba3" stroke="#2d7ba3"/>
  <path d="m659 418h1v1h1v-1h1v2l-6 12q-6 13-6 13h-1q-1-1-1-1h-1t1-3l1-3v-2l1-1v-3q0-2 1-3t3-5l3-4q1 0 1 0v-1q1-1 1-1z" fill="#c58869" stroke="#c58869"/>
  <path d="m350 407h1v1q-1 0-1 0v1t-4 2l-3 2h-3v-1q0-1 1-1v-1h1q1 0 1-1l3-1q3 0 4-1z" fill="#a77e67" stroke="#a77e67"/>
  <path d="m694 221l3-1h13q12 0 14 1h2l2 2q1 3 2 3h1t-2 1-1 2l1 1h-3q-4 0-10 0l-7-1q0-1 2-2t-8-2l-10-1v-2h-1q-2 0-2-1h4z" fill="#755539" stroke="#755539"/>
  <path d="m354 220v-3l5 3q5 4 5 4h1t1 1q0 1 0 1h1q1 1 1 1v1h2v1h1v1l5 5q4 5 5 6 0 1 5 3t6 1q2 0 4 3 1 4 0 4 0 1-1 2 0 0 9 5t14 5q6 0 10 1h5l5 1q6 2 4 4 0 2 2 4 2 1 3 1v1h-1q-1 0-1 1v1h4v2h-2v1h-1v-1h-1q-1 0-2 1t-3 0l-2-1h-5v-1h-1v1h-2v1h1v1h1v3h1v1h1l1 2q1 1 0 1h-1q-1-1-2-1t0 1v1l1 1 1 1v1h1v1h1-4l-2-1q-2-1-2-1h-1l-2-1h-2v1l-1 1v1t-6-6l-6-7v-1t-3-3-5-3l-3-1h-1q0-1-6-6-7-6-7-7t-7-6l-7-6q-1-1-1-1v-1t-1 0-1-1l-2-1v-1q0-1-4-3l-3-3v-1q-1 0-1 0v-2h-1v-1h-1v-2h-1v-1h-1t-1-1l-1-1v-1l1-2q1-2 1-5zm34 33l-4-1h-2q-2-1-1-4 1-2 3-1t5 4q2 3-1 2z" fill="#a0b7c8" stroke="#a0b7c8"/>
  <path d="m557 628h3q1 0 1 1l-2 3q-3 4-3 4v1t-1 1q-1 0-1 0v1t-1 1l-3 3q-2 3-3 3v1h-1v1h-1l-1 1h-1v-1l1-1v-1h1v-1h1v-1l1-2q0-2 1-2t3-5q2-4 3-4 2 0 2-1 0-2 1-2zm0 2q1 0 1 0-1 0-1 0z" fill="#496086" stroke="#496086"/>
  <path d="m475 317l3 1q3 2 6 1t4-1l2 2q2 2 3 2h1t0 1-2 0l-2 1-4-1q-5-1-8-1h-3l-3-1-2-1h3q3-1 3-2-1 0-1-1z" fill="#99aabf" stroke="#99aabf"/>
  <path d="m548 724h3q1 0 1 0v2t1 1v1h-2q-1 0-1 2t1 2 1 1l2 4q3 5 4 5 0 0 0-1l1 2q1 3-1 3-1 0-1 1v1h-2v-2l-1-1v-1h-1v-1h-1v-1q0-2-1-2v-2q-1-1-3-6l-2-4v-2q0-2 2-2z" fill="#a3a7b9" stroke="#a3a7b9"/>
  <path d="m515 695h1l2 7q2 8 6 10 3 2 4 3v1l-1 2q-1 1-1 2v2l-1 2q-1 2-1 1 0 0-1 1h-2v1h-1v3h-1v1h-1v1q0 2-3 8-3 5-3 4 0-2-2-3-1-1-2 0-2 0-2 1t-2 0 0-10l2-10v-4h-1v-1h-1v-2h-1v-1h-3v1t-3 2q-2 3-7 3h-6v-1h-1v-1h-2v-1l-1-1v-1h-1v-1h2l1-1 1-1h-1l-1-1h-1v-2h1l1 1 6 2q5 2 8 0 4-2 9-10t7-8 3 1z" fill="#adb0b9" stroke="#adb0b9"/>
  <path d="m498 639v1q0 2 0 4v1l-1 2q-1 2-1 3 0 0-1 1v1l-1 1q0 1-1 1v1h-1v3l-8 14q-8 15-10 24-1 8 0 8t2 2q2 2 3 3h1q0 1 0 1h1q1 1 1 1v1h1l-1 1-1 1h-2v1h-2v-1l-1-1v3h-1v-1h-1q0-1-4-3-4-4-5-6l-1-3h-1v1h-2v1q0 1-2 1-1 1-2 2l-1 1v1l-1 1-1 1v1h-1v-1l1-2v-2l1-2 1-1v-1t2-3l2-3v-1l1-1 1-2v-2l1-1q1-1 2-5l2-3h1q0-1 0-1h1q1 0 10-14l9-13q1-1 5-8l4-7h1t0-1z" fill="#abaeb6" stroke="#abaeb6"/>
  <path d="m784 261h1q0 1 1 1 0 0 0 1h1v1h1q0 1 1 2 0 0 1 1l3 7q3 6 3 10v3h-1q-1-1-5-1-3 0-6 3l-2 2q-1 1-2 1-2 1-2 2t-2 2h-2t-4 1l-5 1t-1-1q-1 0-1-1-1-1-3-2-3 0-4-8v-8q0-1-2-2t-2-4q0-2-2-4l-3-2h-3v-2h-1v-1h1v-1h5q5 0 6-1l1-1h4v-1h3v1q0 1-2 2l-1 1v3h5v-1h2q2 0 2-1t2-1 2-1 1-1 1-1v-1l1-1t3 0q3 1 4 2 0 1 1 1z" fill="#e2b58c" stroke="#e2b58c"/>
  <path d="m512 418l-2 9q-2 9-2 11 0 3 0 4v2t-1 1l-1 1v2l1 2 1 2v2l-1 4q-1 4-3 4h-2v-2h-2t-1-2-5-1q-5 1-5 2-1 1-2 1l-1 1v3q0 3 1 4v1h-1q0 1-2 1l-2 1v3h-1l-1 1-1 1h-1v-1l-1-1-1-2q0-1-1-4-1-4-3-3-1 1-2-1v-6q0-6 2-11l2-5h1l1 2q1 2 4-3 4-4 4-5v-1l1-1 1-1v-1l1-1 1-1v-1t1-1l1-1h3v2h1l1 1h4l6-6q7-6 7-6z" fill="#4192bb" stroke="#4192bb"/>
  <path d="m238 436l4-3v2q0 2-1 3l-2 2q-2 3-3 3h-1v-1q0-1-1-1h-2q0-1 1-2t5-3z" fill="#b08882" stroke="#b08882"/>
  <path d="m593 330l3-8v1q1 1 2 1 1-2 3-2h2l-1 22q-2 23-1 24t1 1q0 1-3 1-3 1-4 6l-1 6-1 1-1 1v2h-1v-1h-1v1l-1-1-1-1v-8q0-4 0-12 0-7 0-16 2-9 5-18z" fill="#acb066" stroke="#acb066"/>
  <path d="m486 397h2l4 2q3 1 4 1 0 0 0 1h1q0 1 1 1l1 2q1 2 1 2h1l-1 3q-1 3-4 8-4 5-4 6v1h-1v1h-1v2l-1 1q-1 1-1 1v1l-1 1-1 1v1l-1 1-1 1v-4h-1v1h-1v-4h-1t1-1v-1t1 0v-4q1-2 1-4v-1l-1-1v-1h-2v-2h-1q-1 0-2 2l-2 2v-1q0-1 0-2v-1h-1v-1h-3v-5l2-1q1 0 2-1l4-1q3-1 4-4 0-3 2-3z" fill="#81a1c6" stroke="#81a1c6"/>
  <path d="m670 410h1q-1 1-5 6l-4 4v-2h1v-1h1l2-3q3-4 4-4z" fill="#d2b5ab" stroke="#d2b5ab"/>
  <path d="m424 349l-1-2 6 3q6 2 7 3h1l2 1q3 2 3 2v2l1 1v1h-1t-2 1l-1 1h-1q-1 0-2-1l-2-1h-1l-1-1-1-1h-3l-1-1q-1-1-3-1l-1-1v-1q-1 0-1 0v-1q0-1 1-1t1-3z" fill="#724d40" stroke="#724d40"/>
  <path d="m293 419h1v1q0 2-1 2t-1 1h-7l-2-1q-1 0-1 0v-1l5-2q5-2 5-1t1 1z" fill="#9d655c" stroke="#9d655c"/>
  <path d="m496 320v1q0 1-1 1h-2q-1 0-3-2l-2-2q0-1-1-2v-1q0-1 4 0 5 1 5 3t0 2z" fill="#5b7691" stroke="#5b7691"/>
  <path d="m554 731l2 3q2 4 2 6v1q0 1 0 1-1 0-3-4t-3-4-1-1v-1h1q2-1 2-1z" fill="#8c919f" stroke="#8c919f"/>
  <path d="m564 563h1v1q1 1 1 2v1q0 1 0 1h2q2 0 2 0v-1h1v1q0 2-3 3l-3 1-1-1v-1t-1-2l-1-2 1-2q0-1 1-1z" fill="#8d839e" stroke="#8d839e"/>
  <path d="m545 300l1 1 1 1q2 1 2 2v1h-1q0 1 0 1 0 1-1 2-1 2-2 2t-1 2q-1 1-6 2l-4 1v2h-1v1h-2l-5-1q-5-1-9-3l-4-2h-2v-2h5l6-1q7-1 11-3 3-3 4-4v-1l4-1q4-1 4 0z" fill="#a6b8ce" stroke="#a6b8ce"/>
  <path d="m417 297v-1h1q1 0 4 4 2 3 3 4l-1 1q-1 1-1 2h-1q0-1-4-1l-5-1h-1q0-1-4-1h-3v-1q0-1-1-2t2 0q2 1 3 1h1l1-1 1-1h3v1h1v-2h-1v-1h1q1 0 1-1z" fill="#86665b" stroke="#86665b"/>
  <path d="m472 401h1l1 2q2 1 2 2-1 1-2 1l-2 1v3h-1q-1-1-1-4v-4h1q1 0 1-1z" fill="#57678e" stroke="#57678e"/>
  <path d="m607 276h1v1q0 1-2 2l-2 1v1l-1 1v2h-1t0 1q-1 1-1 1-1 1-6 5-5 5-7 5h-2l7-7q7-7 8-7l3-3q2-3 3-3z" fill="#97c2d2" stroke="#97c2d2"/>
  <path d="m156 302v-1h8l7 1q7 0 15 1h7l3 1q4 0 5 1h1v1q1 2 2 2 2 0 2 1h-6q-5 1-12 1h-8q-1 0-9-2l-8-2-1-1q-1-1-4-1-2-1-2-2z" fill="#dccfc7" stroke="#dccfc7"/>
  <path d="m460 310h3t1 1l3 1q3 0 4 1h1q0 1 0 1h1l1 1q0 1 1 1v1q0 1 1 1 0 1-3 2h-5q0-1-1-1h-1q0-1-2-1h-2t-2-1h-2q0-1-1-1h-1l-2-1-1-1h-2v-2q0-2 3-2t6 0z" fill="#c5d1df" stroke="#c5d1df"/>
  <path d="m488 396h2q2 0 4 1h2l1 1q1 2 1 3v1h-1q-1 0-1-1-1-1-4-2l-4-2q0-1 0-1z" fill="#5c6d9e" stroke="#5c6d9e"/>
  <path d="m267 419v1h1v1l-2 2q-1 1 5 1h11q5 0 5-1h7q1 1 1 1-1 1-1 2l-3 2q-3 3-3 4v1l-1 1v1q-1 0-1 1v1l-1 2q-1 2 0 2 0 1 1 1v1q-1 1-1 2h-1v1l-1 1-1 1-1 1h-1q0-1-5-1t-17 2l-13 2h-2v1h-1v1h-3l1-1v-1h1l1-1 2-1h2v-1t4-4l3-4v-1q1 0 2-2 2-2 3-5 2-3 0-3l-2-1v-1t3-3l3-3q1 0 1-1l2-1q1-1 2-1z" fill="#e0c2b5" stroke="#e0c2b5"/>
  <path d="m225 429h1v5h2v1l1 1-11 6q-12 6-13 7l-1 1h-1l-1 1h-1v-2h2v-1l1-2v-1l1-1q0-2 1-2 2 0 2-1t3-3l3-2q1 0 4-2t4-3q2-2 3-2z" fill="#767f8a" stroke="#767f8a"/>
  <path d="m274 414h2t-1 1l-1 1h-2l-1 1-1 1h-2v1h-1q-1 0-2 1l-2 1q-1 0-1 1h-2q-1 0-8 4l-6 2v1h-1l-1 1h-3v1h-1l-1 1h-3v-2h2l1-1 1-1h2l16-7q15-7 16-7z" fill="#6a4740" stroke="#6a4740"/>
  <path d="m480 426q-1 0-4 3l-2 3h-1q-1 0-3 2l-2 1v-2h1v-1h1v-1t3-5l3-6v-1l1-1q1-1 3 1 1 1 1 4-1 2-1 2 0 1 0 1zm-4-3q0-1 1-1 1 1 0 2-1 0-1-1z" fill="#304a5c" stroke="#304a5c"/>
  <path d="m572 565l2 1q3 0 2 3-2 3-2 3h-1t-3 2l-2 2t-1-1-2-1q-2-1-1-2v-1l1 1h1q2 0 2-2 1-1 0-1-2 0-2-1v-1l1 1q1 0 2-1 0-1 1-1h1t1-1z" fill="#373346" stroke="#373346"/>
  <path d="m410 281l6 7q6 6 6 6v1q0 1-1 1t-3-3q-3-3-4-3h-3q-1 0-1-1l-1-1v-1h-1q0-1-1-2l-1-1 2-2q2-1 2-1z" fill="#4a5562" stroke="#4a5562"/>
  <path d="m589 546v-1h1v3q0 4-1 4t-1 2v2q-1 0-1 1h-2q-2-1-3-1v-1q0-1-1-2t-1-2v-2q-1-1 2-2t4 0q1 0 2 1 0 0 1-2z" fill="#312d33" stroke="#312d33"/>
  <path d="m430 309h1l3 1q2 2 3 2h1l4 2q3 2 4 3l1 1h1l2 1q1 1 2 2l1 1t1 1q0 1 0 1h1v1h1v5h-2v1h-1v-1h-3q-2 0-4-1h-17q-14-1-18-1h-5t-2-1h-2v-2h-2l-1-1 1-1h1v-3h2l10-1q10-1 10-2v-1l3-1q4-1 3-1 0 0-1-1h-2l2-1q2-2 2-2t0-1z" fill="#877976" stroke="#877976"/>
  <path d="m234 443h1v1q0 1 1 1h1l-2 2q-2 1-2 2h-1v1h-2v1l-1 1-5 3q-4 3-4 3h-1v1h-1v1h-1l-1-1v-1q0-1 2-2t2-2 5-4q4-2 6-5 2-2 3-2z" fill="#ba988d" stroke="#ba988d"/>
  <path d="m598 581v1l1 1q1 1 0 1t0 1q1 0 1 1v1q-1 1-1 1l-1 1q-1 1-1 2h-1v1h-1v1h-1v1h-2v4t0 1v1h-1q-1 0-1-2v-2h-2v-1t0-3q0-2 2-4l2-2v-1l1-1v-2q0-1 2-1 2-1 3 0z" fill="#636a86" stroke="#636a86"/>
  <path d="m330 406h6q6 1 6 2t1 1q0 1-1 1h-1v1h-1q-1 1-8 1-8 2-10 4l-2 2h-1q-1 0-1-2v-2l1-1 1-1 1-1v-1h-2l3-2q3 0 4-1h1l1-1q2 0 2 0z" fill="#9e7558" stroke="#9e7558"/>
  <path d="m868 300v-1l4 1q4 0 6 1h1l1 1q0 2 1 2 1 1 1 2 0 0 1 1l1 1h1q1 0-1 2-2 0-1 1t2 1v1h-1q-1-1-9-2l-8-1-1-1h-2v-2h1l1-1-1-1-1-1v-1h-1v-1h3q2 0 2-2z" fill="#2e2d26" stroke="#2e2d26"/>
  <path d="m468 444l4-5v1q0 1 2 1 1 1 1 1h-1q-1 1-2 6-2 4-2 10v5h-2q-1 0-3 5-1 5-2 7l-1 2v-2h-1v-1h1v-2l-1-7v-7h1v-1q0-1 2-4 0-3 4-9z" fill="#4aa3c4" stroke="#4aa3c4"/>
  <path d="m515 414l3-4h1q1 1 1 2v1l-4 12q-3 11-3 12l-2 3q-3 3-3 3v-1q0-1 0-4 0-2 2-11l2-9t3-4z" fill="#79a1c4" stroke="#79a1c4"/>
  <path d="m628 481h1l-1 3q0 3-1 4v1l-1 3q0 2-1 4v2l-1 3q-2 3-2 3h-2q-2 1-2 3t-1 5v2h-1t0 1l-2 5q-3 6-3 6h-1t0 1h-1q-1 0-2-3l-1-2t0-2q-1-1-4-2l-3-1h-2v-1l-1-1v-3h1l1-1q1-1 0-2v-1h2q1 0 1-1v-1h3v-1t1 0q0-1 5-9l5-9v1l1 1v2h1l1-1h2v-1h1v-1h1v-1h1v-1h1l2-2q1-2 2-3z" fill="#beb061" stroke="#beb061"/>
  <path d="m419 314l-2-1h11q1 1 1 1 1 0-3 1l-3 1h-3t0-1-1-1z" fill="#735e4b" stroke="#735e4b"/>
  <path d="m746 277l-4-5 4 2q4 3 4 4t1 2 1 1v2q0 2-1 2h-1q0-1 0-2t-4-6z" fill="#e1b583" stroke="#e1b583"/>
  <path d="m585 539l1-1h4v4l-1 1q-1 1-1 2h1v1q-1 2-1 2-1-1-2-1-1-1-4 0t-2 2v1t-2 1l-2 1t-1 1h-1v-1q0-1 0-4v-2q1 0 1-1h1q0-1 2-3l1-2h3q2 0 3-1z" fill="#312731" stroke="#312731"/>
  <path d="m362 400v1h-1q-1 1-1 1h-2q-1 0-2 2l-2 1h-16l4-1q4-2 4-2h4l6-2q6 0 6 0z" fill="#3d2726" stroke="#3d2726"/>
  <path d="m482 312v-1l1 1q1 0 2 1l1 1v1q0 1 1 1 1 1 1 2-1 0-4 1t-6-1l-3-1v-1q-1 0-2 0-1-1-1-2v-1h1l1 1h4q4 0 4-2z" fill="#748ba5" stroke="#748ba5"/>
  <path d="m270 305l-1-1 9 1q10 1 16 1h7l2 1 2 1h3v1h1v1l8 2q8 2 8 3h-2l-2 1 11 2q11 4 20 4h17v2h-3l-2 1-1 1h1l-2 1q-1 1-1 1h-7v1h-2q-1-1-8-1h-8q-1 0-8-1l-8-1h-3t-10-3l-10-2h-1q-1-1-9-2l-8-2h-1q0-1-4-2l-5-1-1-1h-1v-1h-1v-1h-1v-1h1t1-1q1 0 1-1t1-1q1-1 1-2z" fill="#8fa6ba" stroke="#8fa6ba"/>
  <path d="m143 475l14-8v1q0 1-1 1l-1 1h-1v1h-1v1h2q1 1 2 2v1q-1 0-1 1h-1q-1 0-1 1 0 0-1 1l-2 2q-2 2-2 3h-1v1h-1v1h-1l-2 2q-2 3-1 3h1l-4 3q-3 3-10 3h-6 1l1-1 1-1h-5v-3h1v-1h1v-2q0-1 2-3t17-10z" fill="#ced7dd" stroke="#ced7dd"/>
  <path d="m375 305l2-1 3 1q2 1 3 2l1 1h1l1 1v1q1 0 2 1h1v1q1 0 1 0v1q-1 1 0 1h2q1 1 1 2v1h-1q0 1 0 1h-2q-1 0-2 1h-6q-3-1-6-1h-2l1-1q1-1 1-2t-2-3q0-3 0-4 1 0 0-1 0-1 1-2z" fill="#a6a2a3" stroke="#a6a2a3"/>
  <path d="m464 408h1l3 1q3 1 3 1h1v3q0 1-2 1-1 0-2 2-2 2-4 0l-2-3v-1q0-2-1-2v-1h1q0-1 2-1z" fill="#ac7f73" stroke="#ac7f73"/>
  <path d="m499 623h1l2 5q2 5 2 8v4l-1 2v3q0 1-1 1h-2v-1q0-1-1-1l-1 1v-1q0-2 1-3 0-1-1-1h-1v-1q1-1 1-2v-2q0-1-1-3l-1-1t1-3v-4h2v-1z" fill="#30394f" stroke="#30394f"/>
  <path d="m678 590v-3l6 5q6 4 8 6t2 2v1q0 1 0 1h1t1 1q0 1 0 1h1q1 0 1 1t-2 1l-1-1v-1q-1 0-1 0h-2q-1 0-2 0-2 0-2 0-1-1-4-3t-3-3l-1-1v-1h-1v-1l-1-1v-2t0-2z" fill="#6f7171" stroke="#6f7171"/>
  <path d="m629 488v5q-1 0-1 3-1 2-2 2h-1v-2q1-2 1-4l1-3v1q1 0 1-1t1-1z" fill="#8d623d" stroke="#8d623d"/>
  <path d="m564 316h1l-1 1q0 1-1 2-1 0-6 11-5 10-6 12 0 2-1 2t-1 2q-1 2-1 2v-1q0-1-2-1-2-1-2-3v-3q0-1 5-8l5-8 2-1q1-1 1-2h1l1-1q1-2 1-2h1l1-1q1-1 2-1z" fill="#86a9c9" stroke="#86a9c9"/>
  <path d="m291 428l3-2h3q-1 1-1 2v1t-1 1q-1 0-1 0v1t-1 1q-1 0-1 0v1l-2 3q-2 2-3 2t-1-1v-1t1 0v-2l1-1v-1q0-1 3-4z" fill="#915e58" stroke="#915e58"/>
  <path d="m744 286h4l1-1h1q0 1 0 1t-1 2l-1 2v1q0 1 1 1t1 2-5 2q-4 1-4 2t-3 2q-2 2-7 2l-5 1v-1h3l2-1 2-1h-1l1-2q1-2 4-4t3-4v-3l1-1h3z" fill="#d7ae36" stroke="#d7ae36"/>
  <path d="m465 542l-1-4h2q3 1 3 2t1 0q2 0 2 0v2q0 1 2 1 1 0 0 2 0 3-1 3t-3 1h-1v2h-1l-1-3q-1-3-2-6z" fill="#203b57" stroke="#203b57"/>
  <path d="m814 294h3l7 1q6 1 7 1h1v1h-2q-2 0-2 1t1 1l1 1h-10q-5 0-9-1l-4-1h4q3-1 3-1 0-1-1-1h-1v-1q0-1 2-1z" fill="#433b1b" stroke="#433b1b"/>
  <path d="m446 346l-3-2h3q2 0 4 0h2l1 1 1 1h1q1 1 1 2v1l2 1q2 1 2 2h-1q-1 0-5-2l-5-1q0-1-3-3z" fill="#4d6085" stroke="#4d6085"/>
  <path d="m580 615v-3t0 1h1l3 5q4 6 4 6v1h1q0 1 1 1v1q0 1 0 1h1l3 4q4 5 4 6v1h-1q-1 0-3-3-2-2-2-2h-2t0-1h-1v-1q-1 0-1 0v-1q0-1-4-7-3-6-4-9z" fill="#8c94b2" stroke="#8c94b2"/>
  <path d="m162 295h4l2 1 14 2q14 2 14 2v1q0 1 0 1t-2 1h-8q-8-1-15-1l-7-1v-1t-2-2q-1-3 0-3z" fill="#a9adb1" stroke="#a9adb1"/>
  <path d="m324 234l-2-3h1q1 0 9 9 7 8 8 9 0 1 0 1h1t1 1v1t-1 1l-1 1q-1 0-7-8l-6-8q-1 0-3-4z" fill="#e5d9cc" stroke="#e5d9cc"/>
  <path d="m472 235l1-1 2 1q2 1 3 2l1 1q1 2 2 2h1t0 1h1q0 1 1 1l1 2q1 1 2 2v1q0 1-1 1-2-1-6-3-5-1-7-5-3-3-2-4 1 0 1-1z" fill="#a3b7c9" stroke="#a3b7c9"/>
  <path d="m632 496l-4 8q-3 8-3 9h-1q-1 1-3 0h-2q0-1 1-5l2-4t2-3l1-3h1q1 0 2-2 0-3 1-3l1-1t1 2 1 2z" fill="#6f442a" stroke="#6f442a"/>
  <path d="m356 332h5q4 0 6 1h2l9 2q8 3 9 3h1t-1 1h-1q-1-1-2-1h-4q-2 0-5 1l-3 1t-3-1-2-1q1-1-6-3l-6-2q0-1 1-1z" fill="#5b352f" stroke="#5b352f"/>
  <path d="m597 559h1v2h1v1h1q1 0 2-1h2v1t-1 2l-1 1v2q1 1 0 1t0 1h1l-1 1q-1 2-1 2l-1 2q0 3-1 3h-1q-1-1-2-2 0-1-1-1h-1v-1q0-1 0-1h1v-5q0-5-1-5h-1l1-1q2-1 3-2z" fill="#3d4357" stroke="#3d4357"/>
  <path d="m492 620l2 1v1l1 2 1 1v1h1v3q1 3 0 3h-1t0-1v-1t-3-4l-2-3v-2q1-2 1-1z" fill="#222738" stroke="#222738"/>
  <path d="m339 334h1l5-1h5v1q0 1-2 1t-2 1q0 2 2 3 3 1 4 1h2t-1 1-7 1l-5 1h-1v-1h-2v-1h1v-1h-1l-2-1-1-1h1v-2h-2q-1 0-1-1h3q2-1 3-1z" fill="#d1b2a3" stroke="#d1b2a3"/>
  <path d="m607 637v1l1 1q0 1 0 1l1 1 1 1v7l-1-1h-1v-2h-1v-1h-1v-2h-1v-1h-1v-1q0-1-5-7l-5-7v-1t-1 0v-2q-1 0-5-8l-6-7v-1q0-1-1-2l-1-2q0-1-1-1v-1q0-1 4 2 3 4 13 18t11 15z" fill="#a7acbd" stroke="#a7acbd"/>
  <path d="m618 673l2 1q2 1 2 1v1h1l1 1 1 1h2v1h1v1l2 2q2 3 2 3v1l1 1q0 1 1 1t6 7q4 7 13 19t10 13l1 1v1h1v1h1t0 1h1q0 1 1 1l4 4q5 4 6 5h1v1h1v2h2v1h-2q-2 1-4 1-2 1-2 2v1l-3 3q-3 2-3 2v1t-1 1q-1 0-1 0v1h-1q-1 1-9 3t-8 3-1 1-1 1-1 1-1 1-3 3q-3 1-3 2t-8 5q-7 5-14 12l-7 7v1h-1v1h-1v1h-1v1t-1 0v1q-1 0-1 1 0 0-1 0v1q-1 0-5 2-5 3-11 3t-13-1h-8q0-1-1-3t-2-2-2 2l-1 2h-1v-2l1-1v-1q0-2 0-8 0-5 0-6 0-2-2-12-1-10 0-13v-7q0-3-1-6v-3q0-1 1-1 2 0 1-3l-1-2v-1q0-2-2-6l-2-3v-1t-1-1v-1l-1-1v-1h-1v-1h1l1-2 1-2v1h1v1h1v1q1 0 3 2t7 1q4-1 8-3 3-4 4-6 2-3 3-3 1-1 2-3 1-3 3-4 2 0 1-2t-1-6v-4t1 0v-1h1q0-1 0-1l10-6q9-6 10-6t1-1 2-1q1-1 2-2 0-1 3-3 2-1 2-2z" fill="#cfcec1" stroke="#cfcec1"/>
  <path d="m457 184h-1q-1 0-2 3-1 2-3 2l-2 1v-1h-1v1h-1v1h-1v1h-1v1h1v1l3 4q2 3 3 3 2 0 3 2 1 3 2 3h1v1h1v1h1v2h-1q-1 0-3-1-2 0-1 5 1 6-1 6h-1v2l-1 1v1h1v1l-1 1q-2 2-3 2-1 1 0 2 1 2 2 2h-2q-2 0-5 0l-2-1v1q0 2-2 2-1 0 0 2 1 3-6 6-6 3-6 6-1 4 0 4 0 0-2 1-1 0 1 4 2 3 2 4 1 0 1 0v1h2v1h1v1h1v1h-6q-4-1-10-1-5 0-14-5t-9-5q1-1 1-2 1 0 0-4-2-3-4-3-1 1-6-1t-5-3q-1-1-5-6l-5-5v-1h-1v-1h-2l-1-1-1-1-1-1v-1h2v1h1v1h10q9 0 12-2 2 0 2-1h1v-1h1v-3h1v-1h1v-1l-2-3q-1-2-2-2t-1-2-1-2-2-2q0-2 0-3t4-5q4-3 4-6 2-4 2-12 0-7 2-10 2-2 3-4 0-1 3-2 3-2 6-2 3-2 8 0 4 1 5 2 1 2 7 4t15 9q9 6 10 7z" fill="#c5d4de" stroke="#c5d4de"/>
  <path d="m476 589h1l1 2q0 1 0 2h1q0 1 1 1 0 0 0 1h1l2 3q3 2 3 3v1l1 1 1 1v2h2v1h1l1 2q0 2 1 3v1q1 0 1 1 0 0-1 1-1 0-3-3l-1-3h-1q-1-1-2-1t-5-6l-3-6h-1t-1-4q-2-3 0-3z" fill="#1b2238" stroke="#1b2238"/>
  <path d="m350 334v-1h5l6 2q7 2 6 3-1 0 2 1t3 1h-20q-1 0-4-1-2-1-2-3 0-1 2-1t2-1z" fill="#a07063" stroke="#a07063"/>
  <path d="m403 346l-1-3 4 1q3 0 5 0h4l3 2q4 0 4 1h1l1 2q0 3-1 3-1 1 0 2v1h-1q-1-1-2-1 0 0-8-3l-8-2v-1t-1-2z" fill="#845b4a" stroke="#845b4a"/>
  <path d="m298 416h1l-1 1q0 1 1 2t-1 3-2 2h-1t-1-1h-2q0-1 1-1t1-2v-1l2-1q1-2 2-2z" fill="#a97068" stroke="#a97068"/>
  <path d="m576 572h1l-1 3q-2 3-4 5t-4 2h-1v1h-1v1q0 1-1 1t1-3l2-4 4-3q3-3 4-3z" fill="#454258" stroke="#454258"/>
  <path d="m246 436v1l-4 4q-4 3-4 4h-2q-2-1-2-1 1 0 1-1h1q0-1 0-1 1 0 3-2l2-2h1t1-2q0-1 1 0 2 0 2 0z" fill="#946963" stroke="#946963"/>
  <path d="m552 755v1q1 0 2 1h1l1 1q0 2 1 2h1v3q-1 3 0 13 2 10 2 12 0 1 0 6 0 6 0 8v1l-1 1v2l-2 5q-2 5-4 7t-3 2h-3l-1-1v-1h-1v-1h-1v-1h-1v-1h-1v-1l-1-1q-1-1-1-2t-1-13 1-26l2-15v2q0 2 1 3l1 2v-1h1v1h2v-2q1-2 1-4l1-3h1q1-1 2 0z" fill="#b7b6a6" stroke="#b7b6a6"/>
  <path d="m796 297l2-1h6q5 0 6 0h3q1 0 1 1 0 0-3 1h-4l4 1q4 1 9 1h4v1l-1 1v1h-3l-2 1h-5q-5 0-11-1h-5v-1q-1 0-1-1t-1-2q-2-1 1-2z" fill="#211e13" stroke="#211e13"/>
  <path d="m248 309q0 1-2 1h-6q-4 0-6-1l-1-1h-5v-1h1l9 1q9 0 10 1z" fill="#998176" stroke="#998176"/>
  <path d="m390 398h2v1q0 1 0 2t0 1v1h-2q-1-1-3-1l-2-1 1-1q2-2 4-2z" fill="#a87863" stroke="#a87863"/>
  <path d="m720 264h1q1 0 5 1h4v1h2l1 1 1 1 4 2q3 2 4 2l4 5q4 5 4 6t0 2h-1l-1 1h-8q-1 0-2-2 0-1-1-2-1 0-4-2l-3-1q0-1-3-2l-3-2v-1t-1 0h-4l-1-1-1-1h-1v-3q0-1 1-1t1-2v-1h1q1-1 1-1z" fill="#f0e09f" stroke="#f0e09f"/>
  <path d="m578 297l1-1h3v1q0 1-2 2l-1 1v1h-1q0 1-3 3-3 4-7 7-3 4-5 5l-2 2h-1t-1 2l-1 1h-1q0 1-1 2l-2 1q0-1-1-2-1 0-6 2-5 3-15 7-9 5-12 7l-4 4h-5l1 1 1 1h-2v1h-3q-3-1-3-1 1 0-1-1l-1-1v-1q-1-1-1-1l-2-1h-4v-1h4v-5l5-2q4-1 5-2l2-1h3l1-1 1-1h3v-1l2-1q1 0 4-1l2-1h2v-1h2l2-1h2l6-4q6-2 12-7 6-4 6-5l4-3q3-3 4-3h8l2-1z" fill="#27527d" stroke="#27527d"/>
  <path d="m580 550v1q0 1 1 2t1 2v1h-1q-1 0-3 1h-2q0-1 0-3v-3h1q1 1 2 0t1-1z" fill="#473d4f" stroke="#473d4f"/>
  <path d="m550 744l2 3 1 3q1 3 0 3t-1 1v1q-1-1-2 0h-1q-1 0-1-7 0-6 2-4z" fill="#9499ae" stroke="#9499ae"/>
  <path d="m458 582h1l1 1-2 5q-2 5-3 6v1q-1 0-1 1 0 0-1 2t-1 1l-1-1q1-1 1-2 0 0 2-6 2-7 4-8z" fill="#51566b" stroke="#51566b"/>
  <path d="m675 234h1v-1l1 3q0 2-3 5-2 3-2 5t2 1q3-1 3 0 1 0 1 1t-1 1l-1 3q-2 2-2 4-1 1-2 1t-2 3q-2 2-2 4t2 3q1 1 1 1h-1l-2 1q-3 1-5 1-2 1-2 0t-3 0q-3 2-3 3-1 1-2 1t-6 2q-4 2-5 2 0 1-2 2-2 0-2 1t-2 3l-2 1h-1v1h-1v1h-1v1h-1v1q-1 1-2 1t-6 5l-4 5h-1v1h-1v1h-1v1h-1v1h-1l-1 1h-1v-1l1-1v-2l1-1 1-1v-2h1v-1l3-4q2-5 3-6l6-8q6-8 7-8t3-3q1-3 2-3v-1l2-2q3-2 4-4 2-3 3-3 2 0 4-2 2-3 3-4v-2h2l1-1 1-1h1l4-4q3-2 4-3l2-1h3v-1h1v-1h1z" fill="#8f773c" stroke="#8f773c"/>
  <path d="m537 292h-1t0 1q-1 1-3 3l-3 2t-1 2l-1 1q-1 1-1 1h-1t0 1h-1q-1 1-4 1h-4q-1 0-1 0h-2l-1-1q-1-1-3-1l-2-1v-2h1l1 1 7-1q7-1 13-4 5-3 6-3t1 0z" fill="#405f7e" stroke="#405f7e"/>
  <path d="m340 411h1v1q-1 0-1 0v1l-5 3q-5 4-7 7-4 3-4 5t1 2 1-1 1-1h1v1q0 1 0 1h-1l-2 2q-1 2-2 2v1h-1q-1 0-2-3v-4h-1l-1-1-1-1h-5 1v-2h1v-1h1v-1h1q1 0 2-2l2-2 2-2q2-2 10-4 7 0 8-1z" fill="#d9bea0" stroke="#d9bea0"/>
  <path d="m486 469h1l5 14q6 14 8 17t2 6v2h1v6l-1 5v2h-1v-1h-1v-1h-1v-1h-1v-5h-1v-1h1v-1h-1q0-1-3-2-2-2-2-3t-4-4-7-8q-3-6-4-6-1-1-2-3l-1-2q-1-1-2-2v-1h1q1 0 2-4l1-4 1 2 1 1v1h1l1-1 1-1h1v-3l2-1q2 0 2-1z" fill="#4381a5" stroke="#4381a5"/>
  <path d="m677 363h1v3q0 1-2 3 0 2-4 5-4 4-7 8t-3 4q-1 1-1 2l-1 2v1h-1v1h-1v2h2v2h1v1h1v1q1 0 2-1h1v2h-1l-1 1-3 1q-4 2-4 3t-2 2q-2 2-2 3t-1 1q-1 1-1 3t0 7q0 4-1 6l-1 1v1l-1 1-1 1v3h-1v-3l-1-4v-3h-1v-1h-1q-2 0-5 1-3 2-3 1t-2-1q-1-1-4-2l-2-1v-2l-1-2q-1-1-1-3l-1-2h1v-2l2-3q2-2 4-4 1-2 4-1 4 1 5-1 1-1 1-3t1-2 1-3q1-2 2-3 2-1 4-9 2-7 5-10 3-4 3-4v-1h1v-1h2v-1h1q2 0 4 2 2 1 6 1t5-2q1 0 2-1z" fill="#ba752e" stroke="#ba752e"/>
  <path d="m318 385h11q8 1 9 1h2l-2 1-1 1h-1v1h-1v1h3v1h-2q-1 1-6 2l-5 2q-1 0-1 1h-1q-1 0-11 2l-10 2h-7v-2h2l1-1 1-1h2v-1l1-1t2-1 2-2v-1q1 0 1-1l4-2q4-1 7-2z" fill="#69839d" stroke="#69839d"/>
  <path d="m337 222v-1l4 2q3 2 6 5 3 2 4 3l1 1h1v1h1v1h2v1h1q0 1 1 1 0 0 0 1h1l3 3q4 2 4 3v1h-2v1h-1v-1h-1l-2 1h-2v3l-1-1q-1-1-2-2t-2-3-2-2-3-2q-1-2-2-2t-1-1-1-1-2-2l-2-2v-2q0-1-1-2-1-2-2-4zm8 11q0-1 0-1 1 0 1 0 0 1-1 1z" fill="#a99185" stroke="#a99185"/>
  <path d="m465 391l-6-6 3 1q2 1 4 2 1 0 2 2 1 3 2 3 1 1 1 1 1 0 1 0v1l2 1q1 0 1 1h-2q-2-1-8-6z" fill="#485783" stroke="#485783"/>
  <path d="m298 323l4 2q4 1 6 2l1 1h1q1 0 2 0h2l2 1q2 1 3 1h1l2 1q3 1 3 1l1 1q0 1 1 1v1h-11q-10-1-14-3l-4-2h-1t-1-1q0-1 0-3l1-2h1t0-1z" fill="#aa856f" stroke="#aa856f"/>
  <path d="m658 302h1v2l-2 2q-3 2-4 8t-1 6-1 2l-1 1v1h-1v1q-1 0-1-1t0-2v-2q0-1 1-2l1-1v-2q0-2 1-3v-2l1-1 2-3q3-4 4-4z" fill="#e1c365" stroke="#e1c365"/>
  <path d="m715 271h1v1h1l1 1 1 1h-3q-2 0-2 4l1 3q-1 0-1 1l-1 1h-1q0-1-1-3t-2-1l-1 1h-2v-2l4-3q4-3 5-4z" fill="#ded774" stroke="#ded774"/>
  <path d="m722 354h1v2q-1 0-1 0 0 1-1 1v1q-1 0-1 0 0 1-1 1v1q-1 0-1 0 0 1-1 1v1q-1 0-1 0 0 1-12 12l-12 12v1h-1v1h-1v1h-1v1h-1v2h-2v-2h1v-1h1v-1h1v-1h1v-1h1v-1h1l6-7q7-8 8-8t4-4q4-4 5-5t1-1l2-3q3-3 4-3z" fill="#cec1bd" stroke="#cec1bd"/>
  <path d="m398 380h2v1h-8q-4-1-4-1h-1 4q4 0 7 0z" fill="#6d7b93" stroke="#6d7b93"/>
  <path d="m570 607h1l1 3q0 2 0 9t-2 9q-2 3-3 3v1h-1v1l-1 1-3 4q-2 5-3 6l-1 1v2h-1v1h-1v3h-1v-1l-1-1v-1l1-2 1-1v-3h-3v-2h1t0-1q1-1 1-1h1t0-1v-1t3-4l2-3q1 0 2-3l1-2t3-8q2-9 3-9z" fill="#9197ba" stroke="#9197ba"/>
  <path d="m750 653l-1-2q1 0 1 1v1t1 1l5 6q4 7 7 12 3 6 3 8v2h-2v-2l-1-2-1-1v-1l-1-2q-1-2-5-8l-4-7v-1q0-1-1-2-1 0-1-3z" fill="#aaa971" stroke="#aaa971"/>
  <path d="m566 807h1v3q0 4-4 6-3 2-6 3-2 1-5 1t-3 0h1q1 0 3-2t4-7l2-5h1l1-2q1-2 2-2t2 2 1 3z" fill="#e1deba" stroke="#e1deba"/>
  <path d="m619 513h2q2 1 3 0h1l-5 8q-4 9-4 9h-1q-1 0-3 2-2 1-2-1l-1-2q0-1 1-1v-1t1-1 3-6l2-5t1-1h1q1 0 1-1z" fill="#74482c" stroke="#74482c"/>
  <path d="m460 409h1v1q1 0 1 2v1q-1-1-2-1-2 0-2-1-1-1-3-1l-2-1 1-1t3 0 3 1z" fill="#d1a898" stroke="#d1a898"/>
  <path d="m335 303l5 1h-14q-14 0-15 0h-1l-1 1-1 1h-14q-6 0-16-1l-9-1q-1 0-1 0 0 1-24 0l-23-2h-1t-4-1l-4-1h-16t-14-2l-14-2-2-1h-2v-1h-1v-1h3l4-1h22q21 0 35-1t30 2 35 4q20 1 29 3t14 3z" fill="#d1dce4" stroke="#d1dce4"/>
  <path d="m450 317v-1h6l3 1q3 1 3 1h-2q-2 0 2 2 4 0 4 0t1 0v-1h1q1 1 2 1l2 1 3 1h3q3 0 8 1l4 1 2-1q2 0 2 0 0-1 0-1h1q1 0 1-1v-1h1q1 1 1 1 0 1 0 1v1q0 1 4 2 3 1 3 1 1 0 1-1v-1l1 1q1 1 5 1h4v-1h1v-1h2l1 1v1h-3l-1 1-1 1h-3l-2 1q-1 1-5 2l-5 2v1h-11q-5 0-8 0l-3-1h-2q-1-1-11-5l-10-4q-1-1-1-1v-1h-1l-1-1q-1-1-2-2l-2-1h2v-1zm6 1t0-1 0 1z" fill="#54708c" stroke="#54708c"/>
  <path d="m680 383v-1l1 1q0 1 1 1 2 0 2 1-1 1-1 1v1q-1 1-11 13l-10 13h-1v1h-1v2h-1v1h-1v2q-1 1-1 1l-3 4q-2 4-3 5t-1 3v3l-1 1v2h-2v1h-1v-1l-1-1v-4h1v-3l1-1 1-1v-1l1-1q1-2 1-7t0-8 2-3q1 0 1-1 1-1 2-1 1-1 1-2t4-3l3-1v-1q1 0 1-1 0 0 1 0v-1h1v-1h1v-1h1l3-4q3-4 4-4t1-1v-1h1v-1h2v-1h1zm0 3q1 0 1 1-1 1-2 2-2 1-1-1t2-2z" fill="#944b28" stroke="#944b28"/>
  <path d="m511 440l2-3v3q-1 3-1 4v1h1v1h1q2 0 2 1t4 1q5 0 8 2 3 0 5 1h2v1h-3q-2 0-2 1h-1q-1 1-1 1h-2t0 1q-1 1-4 2l-2 1q-1 0-4 0h-4l-1-1-1-1h-1v-1h-1v-3l-1-2-1-2v-2l1-1q1-1 1-1v-1t3-3z" fill="#87bdd4" stroke="#87bdd4"/>
  <path d="m255 428v1q-1 0-1 1 0 0-1 0v1l-1 1q-2 0-2 1v1t-1 0v1q-1 0-1 1 0 0-1 0v1h-1v-1t-3 1l-2 1q1-1 1-3v-2h2q0-1 0-1 1 0 1-1v-1h-1l1-1h3q3-1 5-1 2-1 2 0z" fill="#92665f" stroke="#92665f"/>
  <path d="m385 386h-4l3 2q3 2 10 2t7-2v-1l7 1q8 0 8 1h-1q-1 0-1 2-1 1 0 2 1 0 1 1v1q0 1-1 1h-3q-2 0-8-1h-10q-4 1-15 2l-12 1-2 1-1 1h-1t-6 0l-6 2h-6v-2l1-1v-1h2l1-1q2-1 3-1h1l1-1 1-1h-1q-1 0-3-1l-2-1h1v-1h1l1-1 7-1q8-1 8-2l6-1q7 0 10 0t3 0z" fill="#496583" stroke="#496583"/>
  <path d="m454 323l-1-1 9 5q10 5 12 5 1 0 2 1h2q0 1 1 2t-3 2l-5 1v1h-5q-6 1-8 1h-3q-1-1-2-2h-1q0-1-2-2l-1-2t-1-1l-2-1-1-1v-1h-2v-1h3q2 1 4 1h3v1h1v-1h2v-4l-1-1q-1-1-1-2z" fill="#645b69" stroke="#645b69"/>
  <path d="m910 314l1-3 21 8q21 9 22 9h1l1 1 1 1h2v1h1v1h1v1h1v2h-1v1h-1l-4-1-3-1h-1q-2 0-20-8l-19-6-1-1h-2v-1t-1 0v-1q1-1 1-3z" fill="#1b1b1b" stroke="#1b1b1b"/>
  <path d="m462 574l1-2h1q2 1 4 5t2 5v1h1q1 0 1 1t1 0q1 0 1-5v-5l3 9q3 9 3 9 0 1 1 2v1h-1q-1-1-2-2 0-1 0 1v2l3 5q4 5 5 5t1 2q0 1 1 1h1l1 1q0 2 1 2h1t0 1h1q1 0 1 1l1 1q1 1 1 2v1h1v1h1v2h1v1h1v1h-1v1h-2v2h-1v-1l-1-1-1-2v-1l-2-1q0-1-1 1v2h-1q0-1-4-4t-12-11l-9-8q-1-1-1-1v-1t-1 0q-1-1-1-1v-1t-1 0v-3q1-3 1-9 0-5-1-3l-1 2-1-1 1-1v-1q0-2 0-2 0-1 2-4zm13 15q1-1 1 0 1 1 0 1-2 0-1-1z" fill="#343b58" stroke="#343b58"/>
  <path d="m568 551v-1h2q2 0 2 1t1 1v2q-1 0-1 0l-1 1v-1q0-1-1-1-1-1-2-2z" fill="#5b4762" stroke="#5b4762"/>
  <path d="m432 627l4-10 1 1q1 1 1 1l1 1q1 0 1 2 0 1 1 2l-3 7q-2 7-3 7t-1-2-2 1q-3 3-4 3h-1v-2q1-1 5-11zm3 5q1 0 1 0-1 0-1 0z" fill="#75777b" stroke="#75777b"/>
  <path d="m555 680h1l-4 8q-3 8-4 9v-7q0-8 1-8v1h1v1h2v-1h1v-1h1v-1h1v-1z" fill="#656d92" stroke="#656d92"/>
  <path d="m484 672l8-14 3 2q3 2 9 11 6 10 7 13 1 2 2 3v2q1 1 1 1t0 1h1v1l1 1v2h-1q-1-1-3-1t-6 6q-4 7-8 10-3 4-10 2l-7-2q-1-1-1-1h-1q-1-1-3-3-1-2-2-2t0-8q2-9 10-24z" fill="#9196a6" stroke="#9196a6"/>
  <path d="m617 442v-39l1 1t1 2l1 2v4l1-1v-1h2v1l1 2q0 2 1 3l1 2v2l2 1q3 1 4 2 2 0 2 1t3-1q3-1 5-1h1v1h1v3l1 4v6l-4 10q-5 10-5 12v1l-1 2v2l-3 7q-2 6-2 7v1t-1 2v1h-1q0 1 0 1h-1q-1 0-2 2l-1 2h-1v1h-1v1h-1v1h-1v1h-2l-1 1h-1v-2l-1-1v-3l1-2v-1q0-2 1-40z" fill="#d7b76a" stroke="#d7b76a"/>
  <path d="m274 325l2-1h21l-1 2q0 2 0 3 1 1 1 1h1l4 2q4 2 14 3h17q0 1 1 1h2v2h-1l1 1 2 1h1v1h-1v1h2v1h-2l-3-1h-3q-2 0-6 0-3 0-7 1l-4 1t-1-1h-5q-4-1-5-1 0 0-8-2-7-2-7-3t-3-2l-4-1v-1h-1v-1h-1l-1-1-1-1h-2q-1 0-2-1l-1-1h-8l1-1 1-1h3q3 0 4-1z" fill="#e5d3c5" stroke="#e5d3c5"/>
  <path d="m684 358h1l1 1q2 1 4 1 3 0 3 0h4v-1h1v-1h3v1l-1 1v2h-1v1h-1v1q0 1-2 3l-2 2v2l1 1v2q-1 0-5 6-5 6-6 6h-2t-2 2q-3 2-1 0l1-3v-3 1h-1v1h-2v1h-1v1q0 1-1 1t-4 4l-3 4h-1v1h-1v1h-2v1h-2v-1h-1v-1h-1v-2h-2v-2h1v-1h1v-1l1-2q0-1 1-2 0 0 3-4t7-8q4-3 4-5 2-2 2-3h1l1-1 2-1h1v-1h1v-1q0-1 0-2h-1l1-1q0-1 0-1zm8 15q0-1 0-1v1z" fill="#a96230" stroke="#a96230"/>
  <path d="m591 563l1-1h2q1 0 1 5v5h-1t0 1v1l-1 1q-1 1-1 3v3l-1 1h-1v1h-1v1h-1v1h-1v1h-1v2q0 1-1 1t-1-1-2-1l-2-1v-1h1v-1h2v-1h1q0-1 2-4t2-5l1-2v-7q1-1 2-2z" fill="#8991ae" stroke="#8991ae"/>
  <path d="m594 572h1l1 2q1 2 2 3h1v1q-1 1-1 2v1q-1-1-2-1t-1 2q0 1-1 1h-1q0 1-1 1t0-2v-4q0-2 1-3l1-1v-1q0-1 0-1z" fill="#4f5671" stroke="#4f5671"/>
  <path d="m533 680v-14h1v2h1v-1h1v-1h1l1 16q0 17 2 22t2 8v2t-2 1h-2v-1t-1 0q-1-1-2-5l-2-4h1q1 1 1-2l1-2-1-1-1-1v-3q0-2-1-16z" fill="#6d9fbd" stroke="#6d9fbd"/>
  <path d="m405 329l2-1h4q4 0 18 1h14v1h2v1l1 1 2 1q1 1 1 1h-3q-3 0-7 0-4 1-4 2t-1 1l-1 1h1q2 0 2 1v1q0 1 1 2h-3q-2 0-3-1t-3-3-7-3l-5-1q0-1-1-1h-8v-1h-1q-1 0-2-1t1-2z" fill="#46566b" stroke="#46566b"/>
  <path d="m324 395h1l-1 1q0 2 0 2h-1v1h-1v2h-1l-1 1h-3q-3 0-6 1-3 0-3 2l1 2q-1 0-10 2l-9 1-2 1h-2t-3 1h-10l1-1 1-1h1l1-1 1-1h3l7-4q7-2 7-3h1q0-1 0-1h6l10-2q10-2 10-2 1 0 2-1z" fill="#8298af" stroke="#8298af"/>
  <path d="m305 420h1t0 1l-4 3q-3 4-4 4 0 0-1 0v1q0 1-1 1 0 0 0 1h-1q0 1-1 1 0 0-1 1h-1v-1q0-1 3-4l2-2 3-3q4-3 5-3z" fill="#b0857f" stroke="#b0857f"/>
  <path d="m455 490l1-5t1 11v12t-1 1l-2 1v-7q0-7 1-13z" fill="#496b7c" stroke="#496b7c"/>
  <path d="m531 266v-1h1l1 1h1v1q1 1 2 1h1v1q1 1 1 1l2 2q2 1 2 2v1h1v1h1v1h1v1h1v2h1v1h1l2 5q3 4 4 5 2 1 1 1h-5v1h-2v-1h-1v-1h1v-2h-1v-1h-1q-1 0-2-1-2-1-2-3t-4-8l-4-6h-1v-1h-1v-2l-1-1z" fill="#3e5b76" stroke="#3e5b76"/>
  <path d="m674 596v-2h3v1h1v1h2v1l1 1q0 1 3 3t4 3 2 0q1 0 2 0h2t0 1h1l3 3q2 2 3 2t1-1v-1h1q1 0 5 4 3 4 3 4 1 0 1 0v1l2 4q2 4 3 4 1 1 3 1h2t0 1h1l9 8q10 9 13 12t4 3v1h-1q0 1 0 1h1t1 1 1 1v1q0 1 0 2 1 0 1 1v1l4 7q4 6 5 8l1 2v1l1 1 1 2v2h2v4h-1v-1h-1v-1t-1 1-2-1l-1-2-1 2q-1 2-1 3t-12 5q-11 4-16 5l-4 1v4q0 6-3 6t-4 3q-2 3-9 7t-12 10q-4 6-3 8t2 2h1v2h-2l-6-1h-6q-1-1-4-1-2 0-6-4l-4-3v-1h-1v-1h-1v-1l-1-1-1-1v-1h-1v-1q-1 0-17-22l-17-21v-1l-1-1v-1l-1-1-1-1v-1h-1v-1h-1v-2h-1v-1h-1v-2h1v1h4v1h1v1l2 2q2 2 2 2v-2q0-1 2-2 1 0 1-1 1-1 3-1 3 1 3 0-1-1 0-1 1-1 9-5 7-4 14-4t8-1q0-1 2-1 1 0 3-2t7-7q5-4 5-5 1-1 3-2 3-2 4-6 2-4 3-4 1-1 1-2 0-2 0-3 1-1-12-13l-13-12q-1-1-1-1v-1t-1 0q-1-1-1-1v-3zm26 17v1h-2q-1-1-1-2t1 0q2 0 2 1zm16 15h-1l1-1q0-1 0 0 1 1 0 1z" fill="#d8d6ba" stroke="#d8d6ba"/>
  <path d="m262 421h1v1q0 1-3 4-4 2-4 2v1l-2 2q-2 2-3 3 0 0-1 1v1q-1 0-2 1h-1v-1q1-1 4-4 3-4 2-4t-5 2l-5 3v-2h-2v-1h4l1-1v-1l8-3q7-3 8-4z" fill="#b0867d" stroke="#b0867d"/>
  <path d="m188 444l5-2h1q1 0 1 0h1q1 0 2 1 0 1 1 0 1 0 1 2 0 1 0 3 0 0 0 2t0 2l-1 1-1 1h-1v1l-3 1q-2 2-3 2v1h-1v1h-1l-1 1-1 1h-2l-1 1-1 1-7 4q-7 4-8 5h-2q-2 1-2 1-1 0-3 0l-3 1v1h-1l-1 1-1 1h-2v-2h2v-1l-1-1v-2h-1v-1h1v-1h1v-1q1 0 1-1 1 0 1-1h1q0-1 13-9 13-9 13-10t4-4z" fill="#a6b7c5" stroke="#a6b7c5"/>
  <path d="m630 478v-1h1q1 1 1 1h1l-1 4q-2 5-2 6v1h-1v-1q-1 0-1 1t-1 1v-2q1-1 1-4v-2t1 0v-2q1-2 1-2zm0 2t0-1 0 1z" fill="#9c6d45" stroke="#9c6d45"/>
  <path d="m690 221q0 1 2 1h1v2l10 1q10 1 8 2t-2 2h-1q-2 1-6 1-3 2-10 7-8 5-8 6t-3 3l-3 2q0 1-1 1h-1q0-1 0-1t-2 0-2-2 2-5q3-3 3-5l-1-3v1h-2v1h-1v1h-3l-2 1q-1 1-4 3l-4 4h-1l-1 1-1 1h-3v-6h-1v-1h-1v-2h1v-1h2v-1h1l5-3q5-2 6-3l1-1h2l2-1 1-1h1v-1l8-2q7-1 8-2z" fill="#797054" stroke="#797054"/>
  <path d="m456 184h1l3 2q3 1 3 2t5 4q6 4 25 20t19 17h1v1h1v1h1v1h1v1l14 15q14 15 16 18t2 3v1l1 1v1h1v2h-3v1h1v1l-1 1-1 1h-1v-1h-1v-1h-1v-1h-1v-1q0-1-2-2l-2-2v-1q0-1-1-1-1-1-1-1v-1h-1v-1h-1v-1h-1t-7-5-7-6q-1-1-17-13-16-13-19-14-2-2-4-3l-3-2v-1h-1v-1h-1v-1h-1v-1h-1v2h1v1q1 0 1 2 1 2-2 2l-3-1v1l-1 1v1h2v2h-2l-1-1-1-1h-1t0-4l1-3h-1v1h-3v1t-1 1q-1 2-4 2l-4 1v-1h-1v-1l1-1v-2h1q2 0 1-6-1-5 1-5 2-1 2-1v-2h-1q-1 0-2-3-1-2-3-2-1 0-3-3l-3-4v-1h-1v-1h1v-1h1v-1h1v-1h1v1l2-1q2 0 3-2 1-3 2-3zm23 38t0-1q1 0 1 1 0 0-1 0z" fill="#98b1c3" stroke="#98b1c3"/>
  <path d="m688 337h2l2 1q1 0 2 1h1v1q-1 0 0 1t0 1-1 3-4 8l-5 5h-1t0 1l-1 1h-1v1h-1v1h-1l-1 1h-2q-1 1-2 1-1 2-5 2t-6-1q-2-2-4-2h-4l-2 1h-2v-1h1v-1h1v-1q0-1 2-4 0-3-2-5l-3-2h-1v-3h1v2l3-1q4-1 4-4 0-2 0-3h1l1 1q0 1 4 0 3 0 7-4 4-2 7-3t6 1q3 0 4 1z" fill="#c68834" stroke="#c68834"/>
  <path d="m554 639l2-2-2 2q-1 3 0 3h2v3l-1 1-1 2v1l1 1v1l-1 2q-1 3-2 3v-1q0-1-2 0-1 1-4 6-3 6-4 6-2 0-3-2l-1-2v1l-1 1v1h-1v1h-1v1h-1v-7h1v-1h1v-2q0-2 1-4t2-3q2-1 3-1l1-1h1l1-1h1v-1h1v-1q1 0 3-2 2-3 4-5zm-2 13t1 0-1 0z" fill="#6f89ae" stroke="#6f89ae"/>
  <path d="m358 402h2l1 1q1 1-1 1h-1v1h1q0 1 2 1h3t-3 1q-4 0-4 1v1q-1-1-3-2l-2-1h1t0-1l2-1q1-2 2-2z" fill="#b18970" stroke="#b18970"/>
  <path d="m535 452v-1h7q8 1 11 2 3 2 3 3t2 2q3 2 3 2v1l1 1 2 4q2 4 3 5v1h-1q-1 0-3-2l-2-2v-1h-1v1h-2t0-1h-2q0-1 0-1-1 0-2-2-2 0-5-4-3-3-9-6l-5-2z" fill="#85b5b6" stroke="#85b5b6"/>
  <path d="m336 328h1v1h-2q-2-1-5-1h-4t-3-1l-3-1 8 1q7 1 8 1z" fill="#64768c" stroke="#64768c"/>
  <path d="m224 455l5-3v1h1v2l-1 1v1h3q0 1-1 1t-4 0-7 3l-4 2v-2h1v-1h1v-1h1v-1h1t4-3z" fill="#e5d6c6" stroke="#e5d6c6"/>
  <path d="m451 365v-1h2v1l1 1t1 0v1h1l1 2q1 2 2 2t0 5q-1 4-2 4h-1v2h-7t-2-2q-3-1-7-2l-4-1v-1h-1v-1h1v-1h-1v-1h1v-1h1v-1h3q3-1 4-1h3q3 0 5-1t1-2-2-2z" fill="#333451" stroke="#333451"/>
  <path d="m639 262v2q-1 0-2 3-2 3-3 3t-7 8l-6 8h-1q-1 0-2 2l-1 1h-1q0 1 0 1-1 0-1 1-1 0-1-1v-1h-2v-1h1v-1h1v-2h1v-1h1l1-4q2-4 4-8t3-4 1-1h1t1-1h1t2-1l1-1h3l2-2q2-2 3 0z" fill="#61817b" stroke="#61817b"/>
  <path d="m774 296h1v1l-1 1v1h1v1h1l2 1 1 1h1v1q0 1 1 1h3q0 1-6 4-5 2-16 11l-10 9q-1 0-1 1h-1v1h-1v1h-1v1h-1v1h-1v2h-2v-2l1-1 1-2v-1h1v-1h1v-2q0-1-1-1h-1l11-11q11-10 12-10v-1h1v-2l1-1v-1h-3l-4-1h1l5-1q4-1 4-1z" fill="#9a8c7d" stroke="#9a8c7d"/>
  <path d="m385 320v-1h3v1q-1 0 1 1l2 1h3q3 2 4 2h1l1 1h2v2h2q2 1 2 1h1l-2 1q-2 1-1 2t2 1h1v1l-3 1q-2 0 1 2 4 2 5 2h1l1 1q1 0 1 1l1 2v2h-2l-2-1-1-1h-2l-1-1q-1-1-2-1h-2t-7-3-17-3l-9-1h-2q-2-1-6-1h-4v-1l1-1-2-1h-2v-1h7t1-1l2-1h-1l1-1 2-1h3v-2h7q6 0 7-1t2-1z" fill="#64869f" stroke="#64869f"/>
  <path d="m564 622v2l-1 2q-1 3-2 3 0-1-1-1t-2 2v1-1q0-2 0-2l2-3q1-3 2-4 2 0 2 1z" fill="#45547a" stroke="#45547a"/>
  <path d="m496 398v-1l2 1q2 1 2 2v1q0 1 0 1h1v4h-1t-1-2l-1-2q0-1-1-1v-1q-1-1-1-2z" fill="#495b90" stroke="#495b90"/>
  <path d="m448 301l-1-2 13 4q13 5 17 5t5 1v2q0 1 0 1h1q-1 1-5 2h-5q-1-1-1-1h-1q-1-1-4-1l-3-1v-1t-1 0-7-4q-6-2-8-5z" fill="#4d657f" stroke="#4d657f"/>
  <path d="m714 620l-2-3 6 4q5 4 5 5v1h-1q-1-1-4 0l-3 1v-1q1-1 1-3t-2-4z" fill="#525448" stroke="#525448"/>
  <path d="m630 289v1h1v-1h1v1l3 1q3 1 3 3 0 1 2 0 2 0 2 2 0 1 1 2 1 0 1 2 0 3 0 2 0 0 1 1t2 1 2 0h1v2q0 2-1 2t-2 0l-1 1h1v1h2l1 1h1v1q-1 1-1 3v2l-1 1q-1 1-1 2l-1 2q-1 2-1 8t3 6q2 0 2 0h2l-2 3q-2 3-1 4 2 1 1 3v1h-1v3h1l3 2q2 2 2 5-2 3-2 4v1h-1v1h-1v1h2l2-1h3v1h-2v1h-1v1l-3 3q-3 4-5 12-3 7-4 8-2 1-2 5 0 3-1 3t-1 1q0 2 0 4v1h-1q-1-1-5-2-3-1-4 1-2 2-4 4l-2 3v2h-1v-1h-2v1l-1 1v-4l-1-2q-1-1-1-1v-1q0-1-1-1v-2q1-2 0-7-1-6-3-12t-7-10l-5-3t-1-1 1-24l1-22t4-9l4-8h1l1-1h1v-1h1v-1h1v-1h1v-1h1l4-5q5-5 6-5t2-1zm10 11q0-1 1-1 1 1 1 1t-1 1-1-1z" fill="#cda22f" stroke="#cda22f"/>
  <path d="m694 602v-1l4 3q4 3 4 4 0 0 0 1h1v1q0 1-1 1-2 0-2 1v2h-1t-1-1q0-1 0-2t-2-3-2-3v-1t0-2zm3 4t0-1q1 0 1 1 0 0-1 0z" fill="#565853" stroke="#565853"/>
  <path d="m746 325h1q1 0 1 1v2l-2 2q0 2-1 3v1h-1t0 1q-1 1-6 6l-5 5h-1q-1 0-5 4l-4 4h-1t0 1l-1 1h-1v1l-1 1h-1v1l-1 1h-1v1q-1 1-3 3l-2 2h-1t0 1q-1 1-1 1h-1t0 1q-1 1-2 1v1q-1 1-1 1h-1t-6 7l-6 6h-1v1h-1v1h-1v1h-1v1l-1 1v1h-1q0 1 0 1-1 0-2 2l-2 2t-6 7l-6 7q-1 0-4 4l-2 3h-1v1h-2v1h-1v-1l-1 1v1h-2v-1l1-1v-1h1v-1h1v-2h1v-1h1l10-13q10-12 11-13v-1q1 0 1 0v-1l5-5q5-6 6-6v-1h1v-1h1v-1h1v-1h1l19-19q20-18 20-19h1v-1h1v-1l2-2q3-2 4-3z" fill="#b28971" stroke="#b28971"/>
  <path d="m610 270h1q1 1 1 2-1 0-1 1h-1q0 1 0 1-1 0-1 1h-1q0 1 0 1-1 0-1 1h-1q0 1 0 1h-1q-1 0-3 2l-1 2q-1 0-8 7l-7 7q-1 0-3 2l-2 2v1h-2v-1l1-1q2-1 2-2v-1h-3l-1 1-2 1h-7v-1l1-1v-1l1-1 1-1v-2h1v-1h1v-1l1-1 9-3q10-3 10-4l6-3q6-4 8-6t2-2z" fill="#1e6b8f" stroke="#1e6b8f"/>
  <path d="m580 562h3v2l1 1v1l-1 1-1 1v1t-1 0v1q-1 0-2 1l-2 1h-1t0 1h-1q-1 1-4 3l-3 2v-2l2-2q3-2 3-2h1t2-3q1-3-2-3l-3 1v-1t1-1l2-1q1 0 1-1h1q1-1 4-1z" fill="#6a697f" stroke="#6a697f"/>
  <path d="m688 277h2q2 0 3 1-1 1-1 2-1 0-8 4t-11 8q-5 5-9 8l-5 4v-3h1v-1h1v-1h1v-1h1v-1h1v-1l4-4q3-4 11-10 8-4 9-5z" fill="#dab662" stroke="#dab662"/>
  <path d="m442 360h1l3 2q4 2 4 2h1t1 1q0 1 0 1h1t1 1q0 1-2 2t-5 1h-3v-1q0-1-2-4l-3-3 1-1q2-1 2-1z" fill="#957679" stroke="#957679"/>
  <path d="m536 339v-1h1v1h1v2l-4 10q-4 10-4 12v2q-1 1-1 1l-4 10q-3 11-6 15t-3 5v2h-1v1h-1v1l-1 1q-1 1-1 1v1q0 1-3 1t-3-1q-1-1-3-1h-2q-1-1-1-1v-1q0-1-2-2l-2-1h-2q-2-1-4-1h-1t-1-1-8 0h-8v-1t-1 0h-1q0-1-2-4-1-2-2-2-2-1-4-2l-3-1h-1q0-1-1-1h-1l-2-1-1-1h3v-2h1q1 0 2-2 1-3-1-7l-2-4h-1v-1h-2v-2h7q3 2 4 1h3v1h5q5 0 6-2 2 0 3-1l1-1-1-1v-1h2v1h1v1h1v-1h1v-1h1-5q-4 0-7 0h-3q-1 0-3-2h-2l-1-1-1-1h-1v-2h-1l-1-1v-2l1-1v-1h1l2 1 16-1q17-1 20-1t3-1 3-1h3l10-1q10-1 10-1 1 0 1-1v-1h1v-1h1v-1h1v-1h1z" fill="#1c295c" stroke="#1c295c"/>
  <path d="m574 445l6-14v19q0 19 2 21 0 2 0 3 0 2 1 2t2 4q1 5 1 6 2 2 2 3v1q-1 0-2-1l-2-1q-1 0-5-4l-4-4q-1-1-4-4l-4-4q-1-1-1-1v-1q0-1-2-4l-2-4-1-1v-1h1t2 0h3v-1h1q0-1 6-14z" fill="#cfe0af" stroke="#cfe0af"/>
  <path d="m537 292h1q2 0 2 1t-2 2l-1 1h-1q-1 0-6 4l-4 3 2-2q2-3 2-3l2-1q2-1 2-3v-1h2t1-1z" fill="#5a7b9a" stroke="#5a7b9a"/>
  <path d="m547 710v-4l2 6q1 7 2 10v3h-1q-2-1-3-1t-1 2v2t-2-2l-2-3v-1t-2-2l-1-1v-1q-1-1-1-2l-1-2h2q3 1 3 1 0-1 0-1l1 1q1 1 2 1h1v-1q0-1 1-5z" fill="#6d7c9c" stroke="#6d7c9c"/>
  <path d="m591 544l1-1v1h1v1h1v1l3 2q3 2 3 2t0 1h1l-1 3q-2 4-2 4t0 1h-1q-1 1-3 2l-1 1h-1l-1 1q-1 1-2 2v1q-1 0-1-2 0-1-1-4v-3q1 0 1-1v-2q0-2 1-2t1-4v-3l1-1zm-2 16t0-1q1 0 1 1 0 0-1 0z" fill="#3e353a" stroke="#3e353a"/>
  <path d="m399 371h1l2 1q3 0 3 1h-1v1h4q5 0 5 0 1 0 1 1v1t-1 1-4 2l-3 1v1h-6v-1h-2q-3 0-7 0h-8l-2 1-2 1h-2l-1-1-1-1h1l1-1 1-1h1l1-1 1-1h1q2 0 2-1t1-1 1-1l6-1q6 0 7-1z" fill="#414c5e" stroke="#414c5e"/>
  <path d="m551 728l1-1q0 1 0 1h1v1q1 1 1 1v1l-1 1q-1 1-1 1v-1t-1 0-1-2 1-2z" fill="#757c93" stroke="#757c93"/>
  <path d="m575 481v-1l4 4q4 4 5 4l1 2q1 2 1 3t-2 0q-1-1-1-2h-1q0-1-3-4l-3-3v-2t-1 0v-1z" fill="#9b9f4c" stroke="#9b9f4c"/>
  <path d="m397 396v-1h6q6 1 8 1h2l-3 1q-2 1-4 2l-2 1h-1t-3 2l-2 1h-6v-1t0-1 0-2v-1l2-1q2-1 3-1z" fill="#744131" stroke="#744131"/>
  <path d="m463 569v3l-1 2q-2 3-2 4 0 0 0 2v1l-1 1-1 2q0 1-2 1-1 0-3 5-1 6-1 7v1h-3v2h-5v-4l1-2 1-1v-1q0-1 2-4l1-2q1-1 1-1h1q1 0 1-1v-1h1v-1h1v-2q0-1 4-8l3-8 1 2q0 1 1 3z" fill="#5d637a" stroke="#5d637a"/>
  <path d="m631 254h1t1 0v1h-1q0 1-5 4-5 4-5 5t-7 6l-6 5v-1q1-1 1-2l1-2 1-1q2-1 2-1l8-6q7-5 8-6 0-2 1-2z" fill="#4a8396" stroke="#4a8396"/>
  <path d="m416 367h1v1h-15l2-1q1-1 6-1t6 1z" fill="#b3a192" stroke="#b3a192"/>
  <path d="m527 718l1-2v2q0 1 2 1 1 0 1 1 1 1 1 2v1h-2q-1 0-1 1l-1 2v-1q0-1-1-1t-1-1v-3q0-1 1-2z" fill="#898fa4" stroke="#898fa4"/>
  <path d="m548 559v-1h2q1 1 1 2t1 1 1-1 2 1q3 2 3 3v1h1l1-1h1v1h1v3q1 2 2 2t1 1v1h-1t2 2 2 2v2l-1 2q-1 2-2 3v1h-1t0 1h1v1l-1 1v1h-1v1h1v1h2v-1h1v-1h2v-1h1v-1h1q1-1 1-1v-1t1 0q1-1 1-1v-1t1 0q1-1 1-1v-1t1 0 1-1h1l-3 4q-4 3-7 7-3 3 1 2 2-1 3-2 1 0 2-1h1v1q0 1-1 1l-1 1 1 2 1 2v1h1v1h1v2h-1v-1h-1v-1t-1 0-3 1l-3 1-1 1-2 1h-1v1h1v1l2 1q2 1 3 1v1h-1q-1 0-3 9-3 8-3 8v-2q0-1-2-1-1 1-2 4l-2 3h-1q-1 0-1 2 0 1-2 1-1 0-3 4-2 5-3 5t-1 2l-1 2v1h-1v1h-1v1l-1 1v1l-1 1q-1 0-3 1-1 1-2 3t-1 4v2h-1v1h-1v5h-1v-2l-1-3v-2q0-2 0-5 0-2-2-2-1 0-1-3 0-2-1-2t-2-2q-2-1-8-12l-5-10v-1q-1-2-4-10-4-9-5-9-1-1-2-2v-1t0-1 2-5l2-3 4-4q4-4 5-6 1-1 5-1 5 0 6 0h1l4 1q5 1 7 3t5 2 3-1q-1-1 2-3 2-2 2-1 0 0 1 0v1h1l1 1h1v-3h-1v-1h-1q0-1 0-1 0-1-2-6-1-5-3-6h-2v-1h1v-1h1v-1h-1v-1q0-1 1-2h1v-1zm19 48q1 0 1 0 0 1 0 1-1 0-1-1z" fill="#5e6f96" stroke="#5e6f96"/>
  <path d="m880 302l-1-1 15 5q16 4 16 5h1l-1 3q0 3 0 4v1h-1q-1-1-13-3l-11-3v-1q-1 0-2-1t1-1q2-2 1-2h-1l-1-1q-1-1-1-1 0-1-1-2-1 0-1-2z" fill="#272723" stroke="#272723"/>
  <path d="m196 301v-1h16l4 1q4 1 4 1h1t-1 1h-8q-9-1-12-1h-4t0-1z" fill="#9dabb7" stroke="#9dabb7"/>
  <path d="m437 397h2q2 1 3 1h2t2 1l2 1h2l8 4q7 4 7 4h-1q-2 0-2 1h-2q0-1-3-1t-3 0l-1 1h-9q-8 0-7-1 1-2-3-3l-3-1v-1h-1l-1-1v-1h1l1 1h1l2-2q4-2 3-2 0 0 0-1z" fill="#965e4f" stroke="#965e4f"/>
  <path d="m670 734l-4-4 2 1q1 1 2 1v-1l4 3q4 4 6 4 3 0 4 1h1q0 1 3 1h3l-1 1h-2q-2 1-5 1h-3q0-1-1-1h-1q-1-1-3-2t-5-5z" fill="#c0bd7b" stroke="#c0bd7b"/>
  <path d="m416 402h7q3 0 5 1h3v1l3 1q4 1 3 3-1 1 7 1h7q0 1-1 1-2 0-6 4t-10 6q-5 0-6-2t-3-2h-2l-3-1h-2q-1-1-6-1h-4v2h-4v-1h1v-1h1v-2l1-1q1-1 2-3l2-3 1-1q0-2 4-2z" fill="#dab69f" stroke="#dab69f"/>
  <path d="m529 453h1v1t-3 2l-3 2h-1v1h-1v1h1v1h1l2 5q3 4 8 10 6 4 7 5h1v2l-1 1h-1v-1 3h-2v1h-1v1h1v1h-1l-1-1h-2l-2-1h-2q0-1 0-3-1-2-4-2-2 0-4-3l-2-3q0-1-3-2-2-2-2-4-1-2 2-7l3-5 2-1q3-1 4-2 0-1 0-1h2t1-1z" fill="#304f62" stroke="#304f62"/>
  <path d="m723 278v-4h1q1 0 2 2 2 2 3 2t1 1-2 3q-2 3-4 4-2 0-6 0-5-1-5-2v-1q1 0 1-1v-2t1 0v1h1q0 1 1 1h5t1-4z" fill="#dedd85" stroke="#dedd85"/>
  <path d="m318 410h3v1l-1 1-1 1-1 1-2 2q-2 3-3 3v-1q-1-2-1-2v1h-1v1h-2l1-1v-1l1-1q1-1 2-2l1-1 2-1q1-1 2-1z" fill="#c1a58f" stroke="#c1a58f"/>
  <path d="m578 301h2v1t-8 7l-7 7h-1t0 1q-1 1-1 1h-2l2-2q2-1 5-5 4-3 7-7 3-2 3-3z" fill="#7497af" stroke="#7497af"/>
  <path d="m466 339h14v1q0 1 4 1 3-1 6-1h4v2q0 2 4 1 5-1 5-1l1 1q2 1 1 1 0 0 3 1h3v1h-3q-3 0-3 1t-3 1-20 1l-16 1-2-1h-1v1l-1 1 1 1q1 1 1 2v1h-1l-1-1-1-1q-1-1-1-1 0-1-2-2l-2-1v-1q0-1-1-2h-1l-1-1-1-1 1-2v-2h2v2q0 1 1 0 0-1 1-2h1q2 0 8-1z" fill="#2e3f6b" stroke="#2e3f6b"/>
  <path d="m544 734h1t1 1q0 1 0 1l2 3q2 3 3 2v-1q1 0 1 2v1h1v1h1v1l1 1v1h-1q-1-1-2 0l-2-3q-2-2-2 4 0 7 1 7l-1 3q0 2-1 4v2h-2v-1h-1v1l-1-2q-1-1-1-3v-3q0-1-1-10v-11l1-1q1 0 2 0z" fill="#7f859d" stroke="#7f859d"/>
  <path d="m651 339l2-3h1v1l1 1v1h2q2 0 2 1v1h-1q0 1 0 3 0 3-4 4l-3 1v-3q1-2-1-3-1-1 1-4z" fill="#c7911f" stroke="#c7911f"/>
  <path d="m600 600h1t-4 0h-5q0-1-1-1v-1q1-1 1-1v1h3q1-1 3-3 1-1 2-1 0 0 0 3t0 3z" fill="#565b70" stroke="#565b70"/>
  <path d="m770 254h2l2 1h2l-1 1q-1 2-1 2t0 1h1v1q0 1-1 1t-1 1-2 1-2 1-2 1h-2v1h-5v-3l1-1q2-1 2-2v-1h-7v-1h1v-1h1l4-2q5-1 8-1z" fill="#c07351" stroke="#c07351"/>
  <path d="m372 264l-2-1 3 1q3 1 4 2 0 0-1 1-1 0-1 1-1 1-3 2l-2 2v-1q0-1 2-3 1-3 0-4z" fill="#bfa192" stroke="#bfa192"/>
  <path d="m472 218v-1h1v1h1v1h1v1h1v1l2 1q0 1 1 0 0-1 4 2 3 4 19 16t17 13q0 1 7 6t7 5h1v1h1v1h1l1 1h1v3h-1v-1h-1v-1t-1-1l-1-1h-1l-1-1h-1v1l1 1v2h1v1h1l4 6q4 6 4 8t2 3q1 1 2 1h1v1h1v2h-1v1h1v2h-1v1h-1v-2h-1v-1h-2v-1q-1 0-2 1l-1 1q0-1-2 0h-2v-1q0-1-1 0l-1 1h-1q-1 1-5 3t-11 3l-7 1-1-1h-1v2l2 1q2 0 3 1l1 1h1v1h-3l-4 1t-1 0v1h-1v1h2v2h-2t-2-2q-3-2-8-3l-5-1t0-2l1-2h-1v-1h-1v-3q0-2 2-2 3 1 3 0l-1-1q0-1-1-3t-1-3l-1-1h1v-2h-1v-1h-1v-1q0-1-1-2 0-1 1-2h4v-2h-1v-1h-1v-1q0-1-3-4-3-4-1-4 1 0 0-2 0-3-1-10v-8q-1-1-3-4l-2-2h1q1 0 1-2l-1-2h-2v-1h-1v-1t-2 0-1 1l1 2q-1-1-3-2l-2-1q-1-1-2-2h-1v-1l-1-1q0-1 1-1 1-1 0-1 0-1-1-1v-1h-1v-1l1-1v-1l2-1q3 0 3-1t-1-1v-1h-1v-1z" fill="#688aa7" stroke="#688aa7"/>
  <path d="m310 411h1q1 1 2 1h1l-1 1q-1 1-2 2l-1 1v1l-1 1q-1 0-2 1l-1 1h-1q-1 0-5 3l-3 3h-3q0-1 1-2h1t2-2 1-2q-1-1-1-2v-1q1-1 1-1l5-2q6-2 6-3z" fill="#834c45" stroke="#834c45"/>
  <path d="m416 370v-1l3 1q3 0 11 1h7v1h-1v1h-1v1h1v1h-1v1h1v1h-1q-1 1-1 1h-4l-2 1q-3 1-6 1h-5v-1q-1 0-1-1 0 0 2-1 1 0 1-1 0-2-3-4l-2-1h1q1 0 1-1z" fill="#373846" stroke="#373846"/>
  <path d="m377 266l7 10q8 9 8 11 2 2 0 5 0 2 0 3t1 2v1h-1q-1 0-2 0h-2v-1h-1v-1h-2l-1-1v-1q0-2-1-2-1-1-4-4-4-4-4-5-1-1-2-3-2-2-3-3v-2h-1v-1h1v-2h1v-1q1 0 1-1h1q1-1 2-2 0-1 1-1 1-1 1-1z" fill="#bd9c8d" stroke="#bd9c8d"/>
  <path d="m554 324l-5 8q-5 7-5 8v1l-6 15q-6 15-6 16v1h-1q-1 0-1-3 1-4 0-4h-1v-1q1-1 5-13l4-11v-2h-1v-1h-1v1h-1v1h-1v1h-1v1h-1v1q0 1-1 1 0 0-10 1l-10 1v-2h2l-1-1-1-1h5l4-4q3-2 12-7 10-4 15-7 5-2 6-2 1 1 1 2z" fill="#274474" stroke="#274474"/>
  <path d="m489 278h3-2q-1 1-1 2 1 1 1 2 0 0 0 1v3h1l1 1q0 1 1 3t1 3l1 1q0 1-3 0-2 0-2 2v3h1v1h1l-1 2q0 2 0 2h-1q-1 0-2 3 0 2-2 1-3 0-3 1l-1 1t-1-1q0-1-4-1t-17-5l-13-4v-1q-1 0-2-1t-1-1q0-1-4-4l-5-3q1 0 0-1l-1-2h-1v-1h-1v-3h-1v-1h-1v-1h2v-1h1v1h5l2 1q2 1 3 0t2-1h1v1h1v-1h2l3 2q3 2 6 2 4-1 4-2v-1l1 1q0 1 2 2 2 0 5 4 2 4 2 4h6v-1h-1v-1h2v-2q-1-1-1-2t3-1 2-2l-1-1v-1h-1v-1h-1v-2h3v1h1l1-1q1 0 4 0zm-3 3l-1-1h1q1 0 0 1 0 1 0 0z" fill="#839fb6" stroke="#839fb6"/>
  <path d="m575 552h1v2q0 2 0 3h1l-1 2q-1 2-2 2l-1 1h1v1h1q0 1-1 1l-2 1q-1 1-1 1h-1t0 1q-1 1-2 1h-1q-1-1-1-1v-1q0-1-1-2v-1q0-1-1-1-2 0-2-2 0-1 1-1 2-1 5-2l3-2 1-1t1 0v-1h1t1-1z" fill="#362d3d" stroke="#362d3d"/>
  <path d="m445 351h1q0 1 0 1h1l1 1q1 1 2 1h1v1h1v1h1t1 1v1q0 1 1 1 0 1-3 1h-4v-1h-1v-1h-3l-1-1h-1v-1t-3-2l-2-1 2-1q2 0 1-2-2 0 1 0t4 1zm-3 3t0-1 0 1z" fill="#4b6a8b" stroke="#4b6a8b"/>
  <path d="m400 368h1q-1 1-1 2v1h-1q-1 1-7 1l-6 1t-1-1q0-1-2-1l-2-1h-1l-2-1h-3v-1h11q12 0 14 0z" fill="#777066" stroke="#777066"/>
  <path d="m783 257l1 1v1l2 1q1 2 2 2h1v2h1q0 1 1 2v1h-1v-1t-1 0-3-4q-4-3-7-4-3 0-3 0l-1 1h-1q0-1 0-1t1-2l1-1h3q3 1 3 1t1 1z" fill="#ab6e5f" stroke="#ab6e5f"/>
  <path d="m752 259h8v1h-4l-1 1q-1 1-6 1h-5q-1 0-1-1l3-1q3 0 6-1z" fill="#ca8d5f" stroke="#ca8d5f"/>
  <path d="m582 257v-2l1 1q1 2 1 2v10h1v10q0 2-3 2-2 0-2 2 0 1-2 1l-1 1-1-1q-1 0-2 1v1q-1-1-2-1v-7q0-7 0-9v-3l1 1q1 1 3-1 2-1 3-2 1 0 2-2t1-4zm-8 24q0-1 0-1 0 1 0 1z" fill="#6988a1" stroke="#6988a1"/>
  <path d="m460 596h1t1 1q0 1 0 1h1t1 1q0 1 0 1h1l9 8q8 8 12 11t4 4h1l2 3q3 4 3 4v1q0 1 0 1h1v1q1 1 1 2v1h-2q-1 0-10 12-10 12-10 13v1l-1 1-1 1v2h-1v-2l-1-1v-3q0-2-2-2-1 0-1-1t-8-5-16-8q-8-2-10 0t-3 2 0-2q0-2-2 0l-2 1-1 1-1 1v3h-1v1h-1v1h-1v-1l1-1v-3l1-2 1-2v-1q0-1 1-2h1q1 0 1-1 1-1 3-3 2-1 2-2 1-2 2-1 0 1 3-4l2-5q1 0 2-4l1-3t2-3q0-4-2-8l-2-3v-3h1v-1h1v1h1l1-2q2 0 4 0h1v1q1 1 1 0v-1q1 0 2-1v-1q1 0 1-1h3q2 1 2 1zm-25 40q1-1 1 0 0 2-1 2t0-2z" fill="#a8acb9" stroke="#a8acb9"/>
  <path d="m320 406h7v1h-1q-1 1-4 1l-3 2h-1q-1 0-2 1l-2 1h-1q-1 0-2-1h-3q-3 1-12 1h-10v-1h2l2-1 9-1q9-2 10-2h2q2-1 9-1z" fill="#4d3230" stroke="#4d3230"/>
  <path d="m600 574l1-2 2 2q1 1 2 3 0 2 1 2h1v1q-1 0-1 0 0 1-1 1l-2 3q-2 4-3 4h-1v-1q1-1 0-2t0-1 0-1l-1-1v-2q0-1 1-2v-1q1 0 1-3z" fill="#50566d" stroke="#50566d"/>
  <path d="m364 301h2l1 1h7q3 2 3 2l-2 1q-1 1-1 2 1 1 0 1 0 1 0 4 2 2 2 3t-1 2l-1 1h-16q-4 0-5-1t-15-1l-13-1q0-1-8-3l-8-2v-1h-1v-1h-3l-2-1-2-1h7l1-1 1-1h1q1 0 15 0h14l11-1q11-1 11-1 1 0 2-1z" fill="#bcc6cf" stroke="#bcc6cf"/>
  <path d="m452 338l2 1q2 1 2 1h1q-1 1-1 2 0 0-2 1l-2 1h-2q-2 0-4 0h-4t-2-1l-3-1q-1-1-1-2v-1h2l1 1 7-1q6-1 6-1zm1 4t0-1q1 0 1 1 0 0-1 0z" fill="#263149" stroke="#263149"/>
  <path d="m642 562h2l8 4q7 5 7 6t8 6q7 6 9 7 1 1 2 2v1h1l1 1v3h-1v1h-1v1l1 1v1h-1v-1h-1v-1h-2l-1-1v-1h-1t-9-7q-10-7-10-9 0-1-5-4l-5-3v-1q0-1-1-2-2-2-2-3t1-1z" fill="#686b72" stroke="#686b72"/>
  <path d="m567 178h5q4 1 4 2t2 2q2 0 6 8t5 10 1 10v9l-1 3q-1 4 0 6 0 1-1 1t-1 2q-1 2-1 2v-1q0-1-1-3l-1-2-1-1q-1 0-1 8-1 7-2 8-2 0-3 9t-3 10q-1 1-1 0-1 0-1 2v5q0 2 0 9v10h-1l-1-1h-1v-1h-1v-3h-1t-3-2-6-2q-2 0-6-3l-3-3v-1l-1-1v-1t-2-3-16-18l-14-15v-1h-1v-1h-1v-1h-1v-1h1l1 1h1v-1l1-1v-1h1l1-1h4q4 0 9-1 4-1 6-5 2-3 3-9t2-7q0-2 5-3 4-1 7-3t3-6q1-4 2-4t4-4q2-5 3-5 0-1 0-1z" fill="#b5c8d5" stroke="#b5c8d5"/>
  <path d="m414 390l2-1 10 1q11 2 16 2h4l2 1q2 1 2 1h-1q-1 0-1 2 0 1-2 2h-4q-1 0-3-1h-5q-2-1-5-1t-7 0h-4l-1-1h-2v-1q0-1-1-1-1-1-2-2 0-1 2-1z" fill="#537c99" stroke="#537c99"/>
  <path d="m589 624h2q1 1 2 1v1q1 0 1 0v1l5 7q5 6 5 7v1h1v1h1v2h1v1h1v2h1l1 1 7 11q7 10 7 10v1h1v1h1v2h1v1h1v1l1 1 1 1v1l1 1v1h-1l-1-1h-1v-1h-1v-1h-1v-2h-1v-1h-1v-1h-1v-1h-1v-2h-1v-1q-1 0-12-16l-11-15v-1t-1 0v-1q-1-1-3-5l-3-4h-1t0-1-1-1v-2z" fill="#2f3439" stroke="#2f3439"/>
  <path d="m608 548v-4l6 2q6 2 8 4 2 0 3 0h1l9 6q9 5 9 6v2q0 2 1 2t1 2 5 5 6 5 9 8q7 6 7 6h1v1l1 1h-1v4l1 1 1 1 1 1v1h-2v-1h-1v-1h-1v-1h-1v-1h-1v-1q-1 0-21-15l-20-15h-1v-1h-1l-1-1-1-1h-4v10q0 6-2 10t-2 4h-1v1h-1v1h-1v1h-1v1h-2l-2 1h-2v-5h1v-1h1v-1q0-1 2-3 0-2 1-5 0-2 1-2t1-2q-1-3-2-5-1-1-3-6l-2-5h1q1 0 1-3t0-3q-1-1-2-4z" fill="#949aaf" stroke="#949aaf"/>
  <path d="m588 572h1l-1 2q0 2-2 5t-2 4h-1v1h-2v1h-1v1t-2 2l-2 1t-1 1h-1q-1 0-1 1-1 0-3 1-4 1-1-3l3-4v-1t1 0q1-1 1-1 1 1 1 0v-1q1-1 1-1v-1t1 0h1q1 0 1-1l4-4q4-5 5-4 0 1 0 1z" fill="#1a1b20" stroke="#1a1b20"/>
  <path d="m609 281h1v1q0 1-1 1t-2 3l-1 2 1 1h1v2l1 1v2q-1 0-9 11l-8 11v2h-1v1h-1v2l-6 9q-6 9-10 30-6 22-6 24v2h1l1 1q2 1 2-1 1-1 2-1t2 4 2 4 1-1q1-1 1 0 1 2 2 2 0 0 1 3v3h2v1l1 1-3 13q-3 13-3 15v1l-6 14q-6 13-6 14h-1v1h-3q-2 0-2 0h-1t-3-2q-2-1-2-2t-3-3q-3-1-11-2h-9q-2-1-5-1-3-2-8-2-4 0-4-1t-2-1h-1v-1h-1v-1q0-1 1-4v-3q0-1 3-12l4-12t6-7q4-8 9-18l4-10t5-15l4-15t1-2q0-2 1-2t1-2q1-2 6-13l6-11q1 0 1 0v-1t1-1l7-7q8-7 8-7v-1h1v-1l2-2q2-2 3-2h2q2 0 7-5 5-4 6-5 1 0 1 0v-1t1-1l3-1q2-1 3-2z" fill="#b5dbe6" stroke="#b5dbe6"/>
  <path d="m630 679l1 1v1l17 21q16 22 17 22v1h1v1l1 1 1 1v1h1v1h1v2h-2v-1h-1v-1h-2v-1h-1v-1l-1-1q-1-1-10-13t-13-19q-5-7-6-7t-1-1l-1-1v-1t-2-3l-2-2h1q1-1 1-1z" fill="#767860" stroke="#767860"/>
  <path d="m350 409v1t0 1q-1 1 0 1t1 1l-1 1q0 2-1 2v1l-5 5q-6 6-6 6h-1v1h-1v1h-2v-1q0-1 1-3v-2h-2v1h-1v1l-2 2q-1 2-2 2h-1v-2h1v-1h1v-1h1v-1h1v-1h1v-1h1q0-1 5-5l5-5 3-2q4-2 4-2z" fill="#d2b697" stroke="#d2b697"/>
  <path d="m317 402h12v1q0 1-1 2t-1 1h-7q-7 0-9 1h-2l-1-2q0-2 3-2 3-1 6-1z" fill="#667c96" stroke="#667c96"/>
  <path d="m583 226l1 1v31t-1-2l-1-1v2q0 2-1 4t-2 2q-1 1-3 2-2 2-3 1l-1-1v-2q0-2 1-2 0 1 1 0 2-1 3-10t3-9q1-1 2-8 0-8 1-8z" fill="#7893a9" stroke="#7893a9"/>
  <path d="m798 288h2v1q0 1 8 1 7 0 8 1h1v3h-3q-2 0-2 1v1h-2q-1 0-6 0h-7q-1 0-1 3t1 3v1h-5l-4 1h-7v-3h2v-2l2-1q1 0 1 0 0-1 1-2v-1q1 0 1-1l2-2q2-2 4-2 3-2 4-2zm-5 11q0-1 0-1 1 0 1 0 0 1-1 1z" fill="#35311c" stroke="#35311c"/>
  <path d="m528 716v-1l2 1q2 0 5 2 3 0 3 1h1l1 1q2 2 2 2v4q0 3 1 3t2 2 1 3v1h-1q-1-1-1-1-1 0-2 0l-1 1v-1q-1 0-4-3l-4-3v-2l-1-1v-3h-1v-2q0-1-1-1-2 0-2-1v-2z" fill="#575d75" stroke="#575d75"/>
  <path d="m538 356l6-15v2q0 2 2 3 2 0 2 1v1l-4 15q-5 15-5 15h-2q-2 0-3 2l-2 2h-2v1h-1v-1l1-2v-2l1-2q1-2 1-2v-2q0-1 6-16z" fill="#7896bd" stroke="#7896bd"/>
  <path d="m401 368h15v2q0 1-1 1h-1l-2 1q-2 0 0 1 1 1 1 1t-5 0h-4v-1h1q0-1-3-1l-2-1v-1q0-1 1-2z" fill="#444041" stroke="#444041"/>
  <path d="m748 291v-1h2q3 1 3 2 0 2 1 2 2 0 2 2 0 1 1 1v1h7l4 1h3v1l-1 1q-1 1-4 1-2 0-12 12l-11 10v1h-1v1h-1v1h-1v1h-1v1h-1v1t1 0v2h-1q0 1-20 19l-19 19h-1v1h-1v1h-1v1h-1v-1l-1-1v1h-1v1h-1v-3h2v-1l2-2q2-2 2-3v-1h1v-1h1v-2l1-1v-1h-3v1h-1v1h-4t-3 0q-2 0-4 1l-2 1v1h-1v1h-1l-2 1-1 1h-1v-3h1l1-1h1v-1h1v-1h2q0-1 1-2l5-5q4-5 4-8t1-3 0-1 0-1v-1l5-3q6-2 9-11t3-10-2 0h-2v-3h1l5-2q5-1 7-3 2-3 3-3t2-1l5-1q5 0 7-2 3-1 3-2t4-2q5 0 5-2t-1-2-1-1z" fill="#a96e37" stroke="#a96e37"/>
  <path d="m385 401l2 1q2 0 3 1h8v2l-2 1q-1 0 5 0t7 0 2-1h1l-2 3q-1 2-2 3l-1 1v2h-1v1h-1v1t-3 2-5 1q-3-1-4-5-1-3-6-4l-4-2h-2v-3h1v-1h-3l2-1q2-1 2-1h1q1-1 2-1z" fill="#cda285" stroke="#cda285"/>
  <path d="m360 261l-3-2 5 2q5 1 5 2h-3q-2-1-4-2z" fill="#c0a293" stroke="#c0a293"/>
  <path d="m332 318l-11-2 2-1h2l13 1q14 0 15 1t5 1h5t-3 1-2 1h2v2h-8q-9 0-20-4z" fill="#7290a8" stroke="#7290a8"/>
  <path d="m535 732l-2-4 4 3q3 3 4 3v3h-1q0-1-2-1-1 0-3-4z" fill="#a0a6bd" stroke="#a0a6bd"/>
  <path d="m457 318l1-1q1 1 2 1h4q2 0 2 1h1q0 1 1 1v1q0 1-6-1t-5-2z" fill="#3f4f61" stroke="#3f4f61"/>
  <path d="m474 487v-4l1 2q1 2 2 3 1 0 4 6 3 5 7 8t4 4 2 3q3 1 3 2h1v1h-1v1h1v4q-1-1-3-1h-3v3q0 3-3 6t-4 3-1 1q1 1-1 2t-3 3-2 2-2 1q0 1-2 2-1 1-2 1 0 0-2 0-1 1-1 0t-3-2h-2q0-1-3-6l-3-6q0-1 1-8l1-6v-1q0-1 1-6l1-5h2v2q0 3 1 3 0 1 2 1h2v-3h1q1-1 2-6t2-10z" fill="#204e71" stroke="#204e71"/>
  <path d="m631 260l-1 1h-1v1h-1v1l-1 1v2h-1t0 1h-1q-1 1-1 1-1 0-3 4t-4 8l-1 4h-1v1h-1v2h-1v1h-1v2t-1 1l-1 1v1h-1v-1l-1-1v-2h-1l-1-1h1t1-3v-3h-1q-1 0-3 2l-1 2h-2v-1l1-1v-1l1-1 1-1v-1h1q1-1 1-2 0 0 1 0v-1q1 0 1-1 0 0 0-1h1q1 0 1-1 0 0 1 0v-1q1 0 1-1l5-4q5-3 5-4t4-4q4-2 4-3v-1t1 0v-1h3q1-1 2-1 2-1 2 0t-2 2q-3 1-3 2t-2 2z" fill="#9dc3ce" stroke="#9dc3ce"/>
  <path d="m565 674l2 2q1 2 2 3v1t1 1v1q0 2-1 2-1-1-1-1v-1t-3-2q-3-3-3-4v-1l1-1q1 0 2 0z" fill="#4d5672" stroke="#4d5672"/>
  <path d="m731 226h2l12 4q12 4 17 7 4 3 5 2h1t1 1l-1 1q0 1 1 1t1-1l4 3q4 4 8 8 2 3 3 4l1 1v2h1v1h1v2h1v2h-2v-2h-1v-1h-1v-1l-1-1v-1l-1-1q-1-1-1-1t-3-1h-3v-1h-1v-1h-1v-1h-1v-1h-1v-1h-1l-1-1q-1-1-10-6t-19-9l-10-4h-2l-1-1q-1-1 1-2t2-1z" fill="#965039" stroke="#965039"/>
  <path d="m488 654v1l-10 14q-9 13-10 14h-1v-1q0-1 1-1t2-2v-2h1v-1h1v-1q0-1 5-8l5-7v-1l2-1q2-2 2-4 0-1 1-1t1 1z" fill="#6c707d" stroke="#6c707d"/>
  <path d="m751 328h1v1q0 1-14 13t-16 15l-2 3h-1v1h-1v1h-2v-2h1l1-1v-1h1l1-1v-1h1l1-1q0-1 0-1h1l10-9q10-9 11-10 0-1 0-1h1l3-3q2-3 3-3z" fill="#c8c2c2" stroke="#c8c2c2"/>
  <path d="m695 270h1v1q0 1-1 1t-1 1v1q0 1 0 2v2t-1 0q-1-1-3-1h-2q0-1 0-3v-3h3q3-1 4-1z" fill="#bf8c3c" stroke="#bf8c3c"/>
  <path d="m685 739h12q0 1 1 1v2l1 1v1h-2v-2h-1q-1 0-3 2h-2l-1 1h-2v-1t2-1v-1t0-1l1-1h-3q-3 0-3-1z" fill="#e9e5aa" stroke="#e9e5aa"/>
  <path d="m166 473h2l-8 7q-8 6-12 8-3 2-4 2h-1q-1 0 1-3l2-2h1v-1h1v-1h1q0-1 2-3l2-2h1t0-1h1q1-1 1-1 1 0 1-1l3-1q4 0 6-1z" fill="#9ea7ae" stroke="#9ea7ae"/>
  <path d="m470 571v-1h2q1 0 1 1 1 1 1 1v1h-1q-1 0-1 3 0 2-1 2-1-1-2-4v-3h1z" fill="#304058" stroke="#304058"/>
  <path d="m255 429h1l2 1q2 0 0 3-1 3-3 5-1 2-2 2v1h-1q-1 1-2 1 0 0 0-3v-5h1q1-1 1-2l1-1h1q0-1 0-1 1 0 1-1z" fill="#ba9880" stroke="#ba9880"/>
  <path d="m414 376l1 1q1 1 1 1 0 1 1 0h1q0 1 0 1 0 1 0 1h1t-7 1h-6v-1l1-1q0-1 3-1 2 0 3-1t1-1z" fill="#374356" stroke="#374356"/>
  <path d="m297 322v-1l10 2q10 3 10 3-1 0-2 1l-1 1h-2q-1 0-2 0h-1l-1-1q-2-1-6-2l-4-2v-1t-1 0z" fill="#745c4d" stroke="#745c4d"/>
  <path d="m728 223l-2-2 10 3q10 2 21 8t11 7 0 1h1q1 0 1 0v1q0 1-1 1t-7-4q-5-4-17-8l-12-4h-3q-1 0-2-3z" fill="#5f392b" stroke="#5f392b"/>
  <path d="m424 305l1-1 1 1q2 1 3 2l1 1h1v1h-4q-3-1-3-1l-1-1q0-1 1-2z" fill="#896f63" stroke="#896f63"/>
  <path d="m313 418v2q-1 0-1 1v1l-1 2q0 2 1 1h1v1q0 1 1 1l2-1h1l1 1 1 1h1v4q1 3 2 3h1v1h-1v2h-1t-1 1l-1-1h-2q-2 0-4 2-2 0-7 2-4 2-8 4-5 3-5 2 0-2-3-1l-2 1h-1v1h-1v1h-6v-1h1l1-1 1-1 1-1v-1l1-1v-1h1q0-1 0-1 1 0 4-5l4-5q1 0 1-1h1q0-1 0-1 1 0 1-1h1q0-1 0-1 1 0 4-4l4-3q0-1 0-1l1-1q1-1 2-1h2v-1h1v-1t1 2z" fill="#eadcc7" stroke="#eadcc7"/>
  <path d="m415 334v-1l5 1q6 2 8 4t3 3 3 1h3l3 1q2 1 2 1h1l3 2q3 2 3 3l-1 1q0 2-1 2h-1t0-1h-1q-1-1-4-1t-1 1q2 2 0 2h-4q-1-1-7-3l-6-3h-1q0-1-4-1l-3-2h-1v-1h-1v-1h-2v-2h2l-1-1-1-1h6q2 0 2-1t-2-1q-2-1-2-2z" fill="#678cab" stroke="#678cab"/>
  <path d="m496 636h2v3t-1 1l-4 7q-4 7-5 8h-1q-1 1-3 2l-2 2v1l-5 7q-5 7-5 8v1h-1v1h-1v2q-2 2-2 3 0 0-1 0v1l-2 3q-1 4-2 5l-1 1v2l-1 2-1 1v1h-2v-2l1-1 1-1v-2l1-2q1-2 6-13l6-11h1v-2l1-1 1-1v-1q0-1 10-13 9-12 10-12z" fill="#25272c" stroke="#25272c"/>
  <path d="m543 291v1h2v1h1v2h1v-1h1v-1q1-1 2-1h1v1q0 1-2 2-1 1 0 5t2 4v1h-1q0 1-1 1h-1v-1q0-1-1-3l-1-1-1-1q0-1-4 0l-4 1v-1l-1-1v-1q0-1 1-2l1-1q2-1 2-2l1-1q1-1 2-1z" fill="#889fb9" stroke="#889fb9"/>
  <path d="m647 322l1-2v2q0 1 0 2t1 1v3l1 2v-1h1v1h1v2q0 2 0 2v1h-1v1t-2 0q-3 0-3-6t1-8z" fill="#e1c155" stroke="#e1c155"/>
  <path d="m220 308h13v3q0 3 1 3h2l-1 1-1 1h1q1 1 0 2 0 1 3 2 4 2 10 2t12 1h12l7 1h-3l-2 1q-1 1-4 1h-3l-1 1-1 1h8l1 1q1 1 2 1h2l1 1 1 1h1v1h1v1h-8l-2-1q-1-1-2-1 0 0-16-1-15-1-28-3-12-2-20-6-7-4-7-4 0-2-2-2-2-1-2-2t-3-1l-4-1h-4l-2-1-1-1h7q7 0 12-1h10q3-1 10-1z" fill="#e7d7cc" stroke="#e7d7cc"/>
  <path d="m668 269l2-1h1l1 1q2 1 1 3l-1 1v1h-1v1h1v1h1l7-2q6-2 6-3 1-1 2 0v3q0 2 0 3-1 1-9 5-8 6-11 10l-4 4v1h-1v1h-1v1h-1v1h-1v1h-1v1h-1q-1 0-4 4l-2 3-1 1v1h-1l-1-1h-2v-1h-1q0-1 1-2 1-2-1-3-2-2-2-1-1 1-1-2-1-2-1-1 0 0 0-3t-2-3q-2 1-2 0 0-2-3-3l-3-1v-1h-1v1h-1v-2h1v-1h1v-1h1v-1h1l2-1q2-2 2-3t2-1q2-1 2-2 1 0 5-2 5-2 6-2t2-1q0-1 3-3 3-1 3 0t2 0q2 0 5-1z" fill="#bd8a29" stroke="#bd8a29"/>
  <path d="m817 292v-1l9 1q10 0 19 2t12 2h3v1h1v1h-1v2h-1l-2-1-2-1h-3q-2 0-11-1l-9-1h-1q-1 0-7-1l-7-1v-2z" fill="#232119" stroke="#232119"/>
  <path d="m574 524l2 1q0 1 0 1h1l1 2q2 2 0 5 0 3-2 4 0 1-1 1h-1t-1-3q-1-2-1-7 0-4 2-4z" fill="#866c78" stroke="#866c78"/>
  <path d="m480 413h1v2h2v1l1 1v1q0 2-1 4v3h-1q0 1 0 1h-2t0-1 1-3q1-2-2 0-2 2-2 0 0 0 1-3 0-2-1-1l-1 1v-2l2-2q1-2 2-2z" fill="#537999" stroke="#537999"/>
  <path d="m551 292h3l1 3q1 3-1 4 0 1-1 3l-1 1v1h-1q-1 0-2-3t0-5l1-3t1-1z" fill="#a3b7cc" stroke="#a3b7cc"/>
  <path d="m554 747h1v1h2v2q1 3 1 6v4h-1q-1 0-1-2l-1-1h-1q-1-1-2-1v-2q0-1 1-1t0-3l-1-3q1-1 2 0z" fill="#828792" stroke="#828792"/>
  <path d="m453 357v-1h1q1 0 4 3 2 3 4 4t3 1v1h-1q-1 1-4-1h-7v1h-1v-1t-1 0h-1t-4-2l-3-2v-1l-1-1v-1h1l1 1h3v1h1v1h4q3 0 2-1 0-1-1-2z" fill="#2d384e" stroke="#2d384e"/>
  <path d="m756 278v8q1 8 4 8 2 1 3 2 0 1 1 1 1 1 1 1h-8v-1q-1 0-1-1 0-2-2-2-1 0-1-2 0-1-3-2h-2l1-2q1-2 1-2t0-1h1q1 0 1-1v-2l-1-1v-1h1q1 0 2 1 0 1 1-1t1-2z" fill="#c99358" stroke="#c99358"/>
  <path d="m369 248v-2q1 0 1 0v1t1 1l7 6q7 5 7 6t7 7q6 5 6 6h1l2 3q1 4 3 6t2 2l1 1q1 1 1 2h1v1l1 1q0 1 1 1h1l1 2q1 2 2 2v1h1v1h1l1 1v1h-3v1h1v2h-1v-1h-3l-1 1-1 1h-1q-1 0-3 1l-1 1h-1q-1 0-1-1-1-1-1-1l-1 1v-1q-1 0-4-2l-4-2q-1-1-1-1v-1q0-2 0-4 2-3 0-5 0-2-8-11l-7-10q-1-1-4-2l-3-1h-2v-1h2q1 0 2-1 0-1 0-3 0-3 1-4 1 0-1-3-2-2-3-3z" fill="#9f7d71" stroke="#9f7d71"/>
  <path d="m645 450l2-6h1t1 1h1l-4 10q-4 10-4 10v-5l1-2q1-2 2-8z" fill="#c98f6e" stroke="#c98f6e"/>
  <path d="m782 291h2q1 0 1 1t-1 2q1 0 2 0h2v1q0 1-1 2t-2 1l-2 1v2h-2v1q1 1 1 2v1h-1q-1 0-1-1v-2h-1l-1-1-2-1h-1v-1h-1v-1l1-1v-1h1q2-1 2-2t2-2q1 0 2-1z" fill="#725b43" stroke="#725b43"/>
  <path d="m560 467h1v1l2 1q2 1 3 2 0 1 0 1h1l4 4q3 3 4 4l1 2q0 2 0 2-1 0-6-5l-5-5h-1v-1h-1q0-1-1-1v-1t-2-1l-1-2h-1t0-1h-2q0-1 0-1h2q2 0 2 1z" fill="#70875e" stroke="#70875e"/>
 </g>
</svg>
