<svg xmlns="http://www.w3.org/2000/svg" xmlns:svgjs="http://svgjs.com/svgjs" xmlns:xlink="http://www.w3.org/1999/xlink"><svg xmlns="http://www.w3.org/2000/svg" enable-background="new 0 0 943.118 943.118" viewBox="0 0 943.118 943.118"><path fill="#3f3d56" d="M54.182 670.915v189.128c0 11.047 8.955 20 20 20h362.347c-3.137-6.688-4.899-14.143-4.899-22.006V670.915H54.182zM30 639.904h24.182 377.446V622.67v-24.418c0-.229.007-.456.009-.685.107-15.218 3.8-29.6 10.277-42.337 2.796-5.496 6.107-10.688 9.873-15.506 4.478-5.729 9.597-10.934 15.245-15.507 16.361-13.248 37.182-21.197 59.827-21.197h22.555v-43.313c0-32.846-26.627-59.473-59.473-59.473h-53.809c-10.504 0-19.628 7.229-22.029 17.455l-25.013 106.529-3.642 15.507-2.578 10.977c-.36 1.538-.785 3.049-1.271 4.528h-16.584c-.183-5.188-.711-10.367-1.577-15.506-.148-.892-.306-1.779-.476-2.666l-3.326-12.841-19.571-75.542 15.62-34.473c2.965-6.545-1.82-13.968-9.006-13.968h-33.525c-7.186 0-11.972 7.423-9.006 13.968l15.62 34.473-20.313 75.542-3.086 11.478c-.268 1.339-.506 2.683-.728 4.029-.848 5.14-1.36 10.317-1.527 15.506h-15.88c-.484-1.48-.909-2.99-1.271-4.528l-2.578-10.977-3.641-15.508-25.013-106.525c-2.401-10.227-11.524-17.455-22.029-17.455h-53.808c-32.846 0-59.473 26.627-59.473 59.473v64.513 15.506 15.506H30c-16.568 0-30 13.431-30 30v24.674C0 626.474 13.432 639.904 30 639.904zM329.919 368.094c73.717 0 133.477-59.76 133.477-133.477V92.744c0-18.391-16.561-32.347-34.686-29.233-39.276 6.747-128.839 24.62-184.565 35.864-27.752 5.599-47.704 29.986-47.704 58.297v76.946C196.442 308.335 256.202 368.094 329.919 368.094z" class="color000 svgShape"/><path fill="#3f3d56" d="M526.859 533.021c-10.345 0-20.121 2.418-28.812 6.703-7.723 3.809-14.576 9.102-20.201 15.506-9.95 11.325-16.036 26.118-16.204 42.337-.002.229-.017.455-.017.685v24.418 17.234 15.505 15.506 187.122c0 12.154 9.853 22.006 22.005 22.006h334.086 103.396c12.153 0 22.006-9.852 22.006-22.006V598.252c0-31.565-22.422-57.893-52.209-63.928-4.207-.852-8.562-1.303-13.021-1.303H549.414 526.859L526.859 533.021zM702.375 497.769c80.854 0 146.4-65.546 146.4-146.4v-84.396c0-31.052-21.886-57.8-52.322-63.941-61.123-12.332-159.355-31.935-202.434-39.336-1.879-.323-3.743-.478-5.577-.478-17.574 0-32.468 14.276-32.468 32.542v155.609C555.975 432.223 621.52 497.769 702.375 497.769z" class="color000 svgShape"/></svg></svg>