<svg id="Layer_1" data-name="Layer 1" xmlns="http://www.w3.org/2000/svg" viewBox="0 0 180 180"><defs><style>.cls-1{fill:#1ab4ff;}.cls-2{fill:#fff;}</style></defs><title>Asset_livedemo_200</title><circle class="cls-1" cx="99.32" cy="100.07" r="50" transform="translate(-40.05 35.56) rotate(-22.5)"/><path class="cls-1" d="M99.32,90.07a10,10,0,1,1-10,10,10,10,0,0,1,10-10m0-80a90,90,0,1,0,90,90,90,90,0,0,0-90-90Z" transform="translate(-9.32 -10.07)"/><path class="cls-2" d="M124.09,160.51c-4.34,0-9.15-4.2-14.08-12.33a105.05,105.05,0,0,1-10.35-24.5c-.08-.29-.16-.56-.24-.84-.18.31-.36.63-.55.94A120.41,120.41,0,0,1,84.29,144C77.9,151,69,158.71,62.84,155.21c-4.53-2.59-4.83-9.75-.87-20.7a115.82,115.82,0,0,1,12.54-24l0,0-.26.07a122,122,0,0,1-23.43,4.1c-15.74,1-19.44-3.08-19.8-6.71-.42-4.33,4.22-8.87,13.8-13.5a122.88,122.88,0,0,1,23.63-8.18,81.3,81.3,0,0,1-15.13-9.78c-4.79-4-7.32-7.71-7.51-10.86a5.59,5.59,0,0,1,1.48-4.24c2.58-2.78,8-3.29,16.22-1.51a92,92,0,0,1,19.7,7h0a53.8,53.8,0,0,1-2.12-14.41c.08-10.07,4.24-12.3,6.71-12.74,3.63-.63,7.65,1.82,11.63,7.1a57.52,57.52,0,0,1,7.79,15,63.27,63.27,0,0,1,10-11.69c5.67-5,10.57-6.85,14.15-5.27,2.06.91,5.27,3.7,3.57,12.2a51.26,51.26,0,0,1-5.81,14.65,90.85,90.85,0,0,1,17.65-2.51c9.16-.33,14.76,1.33,16.61,4.84,1.14,2.18,1.7,6.62-7.37,12a76.24,76.24,0,0,1-17.91,7.25,108.52,108.52,0,0,1,17.49,10.51h0c8.94,6.72,12.69,12.35,11.14,16.71-1.08,3-4.92,6.09-17.13,3.42a103.28,103.28,0,0,1-23-8.57l-.32-.16.06.2a109.12,109.12,0,0,1,5.51,22.42c1.11,8.81,1.06,19.81-5.46,22.23A6.51,6.51,0,0,1,124.09,160.51Zm-22.66-53.77,1.66,7.84c.51,2.45,1.15,5,1.89,7.56a99.08,99.08,0,0,0,9.77,23.17c4.76,7.85,8.49,10.05,9.75,9.58,1.46-.54,3.26-5.46,1.89-16.35a103.07,103.07,0,0,0-5.22-21.25c-.87-2.44-1.81-4.81-2.78-7L115,102.41l7.36,4.35c2.09,1.24,4.38,2.48,6.79,3.69a97.69,97.69,0,0,0,21.75,8.1c8.12,1.77,10.62.4,10.72.13.19-.54-.84-4.1-9.25-10.43h0A104.41,104.41,0,0,0,135.23,98c-2.17-1-4.4-2-6.65-3l-8.52-3.48,9-1.8c2.24-.45,4.49-1,6.7-1.57a72.62,72.62,0,0,0,17.47-6.92c4.29-2.57,5.28-4.36,5.29-4.78-.23-.4-2.88-2-11.5-1.82a86.55,86.55,0,0,0-16.87,2.44c-2.14.51-4.25,1.09-6.26,1.71l-7.73,2.4,4.64-6.63c1.05-1.51,2.08-3.12,3.05-4.79A47.81,47.81,0,0,0,129.58,56c.82-4.09.11-5.84-.37-6.05-.88-.38-3.87.47-8.24,4.35A57.11,57.11,0,0,0,111.79,65c-1.08,1.61-2.07,3.21-2.93,4.74l-3.33,6-1.76-6.61c-.46-1.73-1-3.49-1.63-5.25a52.36,52.36,0,0,0-7.08-13.71c-3.2-4.25-5.45-5.11-6.24-5s-2.1,2.53-2.14,7.33a49.3,49.3,0,0,0,2.13,13.61c.53,1.82,1.14,3.63,1.81,5.39l2.74,7.21-6.7-3.82c-1.8-1-3.76-2-5.82-3a87.17,87.17,0,0,0-18.47-6.59c-7.59-1.65-10.51-.65-11-.13-.12.39.52,2.85,5.55,7.1a76.45,76.45,0,0,0,14.93,9.51c2.08,1,4.23,2,6.39,2.93l8.67,3.63L77.67,90c-2.41.43-5,1-7.57,1.59a117.44,117.44,0,0,0-22.84,7.87c-9.07,4.38-10.74,7.41-10.7,8,.26.51,3.42,2.4,13.93,1.72a117.18,117.18,0,0,0,22.35-3.93c2.72-.73,5.37-1.53,7.85-2.37l8.68-2.94-5.6,7.25c-1.59,2.06-3.16,4.24-4.66,6.47A109.72,109.72,0,0,0,67.18,136.4c-3.65,10.08-2.34,13.57-1.59,14,1.17.66,6.27-1,14.6-10.14A116.71,116.71,0,0,0,94.09,121c1.4-2.41,2.68-4.78,3.8-7.07Z" transform="translate(-9.32 -10.07)"/></svg>