<svg id="Layer_1" data-name="Layer 1" xmlns="http://www.w3.org/2000/svg" viewBox="0 0 180 180"><defs><style>.cls-1{fill:#1ab4ff;}.cls-2{fill:#fff;}</style></defs><title>Asset_webinar_200</title><circle class="cls-1" cx="100.32" cy="100.07" r="89" transform="translate(-40.98 35.94) rotate(-22.5)"/><path class="cls-1" d="M100.32,12.07a88,88,0,1,1-88,88,88.1,88.1,0,0,1,88-88m0-2a90,90,0,1,0,90,90,90,90,0,0,0-90-90Z" transform="translate(-10.32 -10.07)"/><path class="cls-2" d="M136.3,87.51a2.86,2.86,0,0,0-2.87,2.87v11.46a31.52,31.52,0,0,1-63,0V90.38a2.87,2.87,0,1,0-5.73,0v11.46a37.27,37.27,0,0,0,34.38,37.09v13.16H82.33a3.08,3.08,0,0,0,0,6.15H121.5a3.08,3.08,0,1,0,0-6.15H104.78V138.93a37.27,37.27,0,0,0,34.38-37.09V90.38A2.86,2.86,0,0,0,136.3,87.51Z" transform="translate(-10.32 -10.07)"/><path class="cls-2" d="M101.92,127.62a25.81,25.81,0,0,0,25.78-25.78V67.46a25.79,25.79,0,1,0-51.57,0v34.38A25.82,25.82,0,0,0,101.92,127.62ZM81.86,67.46a20.06,20.06,0,1,1,40.11,0v34.38a20.06,20.06,0,0,1-40.11,0Z" transform="translate(-10.32 -10.07)"/></svg>