<svg xmlns="http://www.w3.org/2000/svg" viewBox="0 0 65 65"><defs><style>.cls-1{fill:#1ab4ff;}.cls-2{fill:#fff;}</style></defs><title>Icon_BlueFill_User_Centric</title><g id="Layer_2" data-name="Layer 2"><g id="Layer_1-2" data-name="Layer 1"><circle class="cls-1" cx="32.5" cy="32.5" r="31.5"/><path class="cls-1" d="M32.5,2A30.5,30.5,0,1,1,2,32.5,30.53,30.53,0,0,1,32.5,2m0-2A32.5,32.5,0,1,0,65,32.5,32.5,32.5,0,0,0,32.5,0Z"/><path class="cls-2" d="M46,49.56H19c-1.58,0-2.89-1.3-3.4-3.4-.41-1.65-.23-3.75,1.09-4.55.87-.79,3.14-1.82,6.44-3.27a37.7,37.7,0,0,0,4.21-2c.26-.26.09-2.16-1.88-5.07-2.25-2.34-1.81-4.36-1.1-5.36,0-.18,0-.41-.06-.66a13.79,13.79,0,0,1,.11-4.65c1-3.53,4.87-5.14,8.05-5.14s7,1.61,8,5.14a13.79,13.79,0,0,1,.11,4.65c0,.25,0,.48-.06.66.71,1,1.14,3-1.1,5.36-2,2.91-2.14,4.81-1.87,5.07a36.44,36.44,0,0,0,4.2,2c3.3,1.45,5.57,2.48,6.44,3.27,1.32.8,1.5,2.9,1.09,4.55C48.85,48.26,47.54,49.56,46,49.56ZM32.5,17.24c-2.11,0-5.53,1-6.33,3.83a12.76,12.76,0,0,0,0,4c0,.48.08.87.08,1.13a.91.91,0,0,1-.27.64c-.1.1-1,1.23.9,3.21l.1.12c1.78,2.62,3.17,5.94,1.71,7.42-.47.47-1.75,1.06-4.76,2.39-2.27,1-5.37,2.37-6,3a.89.89,0,0,1-.22.16c-.35.18-.63,1.26-.3,2.6.23.94.81,2,1.66,2H46c.86,0,1.44-1.09,1.67-2,.33-1.34,0-2.42-.3-2.6A.89.89,0,0,1,47.1,43c-.62-.62-3.72-2-6-3-3-1.33-4.29-1.92-4.76-2.39-1.46-1.47-.08-4.8,1.71-7.42l.1-.12c2-2.07.91-3.2.9-3.21a.91.91,0,0,1-.27-.64c0-.26,0-.65.08-1.13a12.76,12.76,0,0,0,0-4C38,18.26,34.61,17.24,32.5,17.24Z"/></g></g></svg>