<svg xmlns="http://www.w3.org/2000/svg" viewBox="0 0 65 65"><defs><style>.cls-1{fill:#1ab4ff;}.cls-2{fill:#fff;}</style></defs><title>Icon_BlueFill_Global_Langauges</title><g id="Layer_2" data-name="Layer 2"><g id="Layer_1-2" data-name="Layer 1"><circle class="cls-1" cx="32.5" cy="32.5" r="31.5"/><path class="cls-1" d="M32.5,2A30.5,30.5,0,1,1,2,32.5,30.53,30.53,0,0,1,32.5,2m0-2A32.5,32.5,0,1,0,65,32.5,32.5,32.5,0,0,0,32.5,0Z"/><path class="cls-2" d="M32.5,50.71A18.21,18.21,0,1,1,50.71,32.5,18.23,18.23,0,0,1,32.5,50.71Zm0-34.6A16.39,16.39,0,1,0,48.89,32.5,16.41,16.41,0,0,0,32.5,16.11Z"/><path class="cls-2" d="M32.5,50.71c-5.36,0-9.56-8-9.56-18.21s4.2-18.21,9.56-18.21,9.56,8,9.56,18.21S37.86,50.71,32.5,50.71Zm0-34.6c-4.2,0-7.74,7.51-7.74,16.39S28.3,48.89,32.5,48.89s7.74-7.51,7.74-16.39S36.69,16.11,32.5,16.11Z"/><path class="cls-2" d="M49.8,33.41H15.2a.91.91,0,1,1,0-1.82H49.8a.91.91,0,1,1,0,1.82Z"/><path class="cls-2" d="M32.5,50.71a.91.91,0,0,1-.91-.91V15.2a.91.91,0,0,1,1.82,0V49.8A.91.91,0,0,1,32.5,50.71Z"/><path class="cls-2" d="M32.53,25.22h0a40.75,40.75,0,0,1-13-1.89.9.9,0,0,1-.55-1.16.92.92,0,0,1,1.17-.55A39,39,0,0,0,32.5,23.4h0a39.17,39.17,0,0,0,12.41-1.76.9.9,0,0,1,1.17.54.92.92,0,0,1-.55,1.17A40.7,40.7,0,0,1,32.53,25.22Z"/><path class="cls-2" d="M19.76,43.43a.91.91,0,0,1-.31-1.76A40.75,40.75,0,0,1,32.5,39.78h0a40.7,40.7,0,0,1,13,1.87.92.92,0,0,1,.55,1.17.9.9,0,0,1-1.17.54A39.17,39.17,0,0,0,32.53,41.6h0a39,39,0,0,0-12.43,1.78A.87.87,0,0,1,19.76,43.43Z"/></g></g></svg>