<svg xmlns="http://www.w3.org/2000/svg" viewBox="0 0 65 65"><defs><style>.cls-1{fill:#1ab4ff;}.cls-2{fill:#fff;}</style></defs><title>Icon_BlueFill_Advanced_Analytics</title><g id="Layer_2" data-name="Layer 2"><g id="Layer_3" data-name="Layer 3"><circle class="cls-1" cx="32.5" cy="32.5" r="31.5"/><path class="cls-1" d="M32.5,2A30.5,30.5,0,1,1,2,32.5,30.53,30.53,0,0,1,32.5,2m0-2A32.5,32.5,0,1,0,65,32.5,32.5,32.5,0,0,0,32.5,0Z"/><path class="cls-2" d="M48.93,32a.56.56,0,0,0-.09-.31l0,0a.52.52,0,0,0-.18-.18h0L41.14,27V17.49a.19.19,0,0,0,0-.07.65.65,0,0,0-.06-.24L41,17.1a.47.47,0,0,0-.14-.14l-7.73-4.67a.64.64,0,0,0-.64,0l-8,4.67a.63.63,0,0,0-.23.23,10.25,10.25,0,0,0-.08.31v4.67l-7.74,4.55a.53.53,0,0,0-.15.15s-.06,0-.07.07a.62.62,0,0,0-.09.32v11.1a.63.63,0,0,0,.32.55l8,4.6h0l8,4.61h0l8,4.61h0a.54.54,0,0,0,.3.08.72.72,0,0,0,.32-.08h0l7.47-4.61a.6.6,0,0,0,.3-.53V32ZM24.12,41.88,17.32,38V28.34l6.8,4Zm0-11-6.19-3.63,6.19-3.64Zm8,1.09V46.49L25.37,42.6v-24l6.79,3.89ZM26,17.49l6.79-3.94,6.52,3.94-1.89,1.13-4.63,2.76Zm13.9,1.1V27l-6.48,3.85V22.46l1.82-1.09Zm.32,32.51-6.8-3.89V33.05l6.8,3.89Zm.61-15.25L34,32l6.49-3.85L47.09,32Zm6.86,11.37-6.22,3.84V36.92l6.22-3.83Z"/></g></g></svg>