<svg xmlns="http://www.w3.org/2000/svg" viewBox="0 0 65 65"><defs><style>.cls-1{fill:#1ab4ff;}.cls-2{fill:#fff;}</style></defs><title>Icon_BlueFill_Hospitality</title><g id="Layer_2" data-name="Layer 2"><g id="Layer_1-2" data-name="Layer 1"><circle class="cls-1" cx="32.5" cy="32.5" r="31.5"/><path class="cls-1" d="M32.5,2A30.5,30.5,0,1,1,2,32.5,30.53,30.53,0,0,1,32.5,2m0-2A32.5,32.5,0,1,0,65,32.5,32.5,32.5,0,0,0,32.5,0Z"/><path class="cls-2" d="M35.16,20a4.34,4.34,0,1,0-5.32,0A20.27,20.27,0,0,0,12.25,40.1v4.3a2.3,2.3,0,0,0,2.31,2.31H50.44a2.3,2.3,0,0,0,2.31-2.31V40.1A20.27,20.27,0,0,0,35.16,20ZM32.5,14a2.59,2.59,0,1,1-2.59,2.59A2.59,2.59,0,0,1,32.5,14Zm0,7.55A18.51,18.51,0,0,1,51,39.22H14A18.51,18.51,0,0,1,32.5,21.59ZM50.44,45H14.56A.56.56,0,0,1,14,44.4V41H51V44.4A.56.56,0,0,1,50.44,45Z"/></g></g></svg>