<svg xmlns="http://www.w3.org/2000/svg" viewBox="0 0 65 65"><defs><style>.cls-1{fill:#1ab4ff;}.cls-2{fill:#fff;fill-rule:evenodd;}</style></defs><title>Icon_BlueFill_Twitter</title><g id="Layer_2" data-name="Layer 2"><g id="Layer_1-2" data-name="Layer 1"><circle class="cls-1" cx="32.5" cy="32.5" r="31.5"/><path class="cls-1" d="M32.5,2A30.5,30.5,0,1,1,2,32.5,30.53,30.53,0,0,1,32.5,2m0-2A32.5,32.5,0,1,0,65,32.5,32.5,32.5,0,0,0,32.5,0Z"/><path class="cls-2" d="M46.76,22.33a7.39,7.39,0,0,0,3.12-4.15A13.57,13.57,0,0,1,45.36,20a6.88,6.88,0,0,0-5.19-2.38,7.31,7.31,0,0,0-7.11,7.51,8,8,0,0,0,.18,1.71A19.91,19.91,0,0,1,18.57,19a7.82,7.82,0,0,0-1,3.77A7.63,7.63,0,0,0,20.77,29a6.86,6.86,0,0,1-3.22-.94v.09a7.41,7.41,0,0,0,5.71,7.36,6.56,6.56,0,0,1-3.21.13,7.16,7.16,0,0,0,6.64,5.21,13.77,13.77,0,0,1-8.84,3.22A11.8,11.8,0,0,1,16.16,44a19.4,19.4,0,0,0,10.91,3.38c13.09,0,20.24-11.44,20.24-21.36,0-.33,0-.65,0-1a14.83,14.83,0,0,0,3.55-3.89,13.51,13.51,0,0,1-4.08,1.18Z"/></g></g></svg>