<svg xmlns="http://www.w3.org/2000/svg" viewBox="0 0 65 65"><defs><style>.cls-1{fill:#1ab4ff;}.cls-2{fill:none;stroke:#fff;stroke-linejoin:round;stroke-width:2px;}</style></defs><title>Icon_BlueFill_Strive_For_Excellence</title><g id="Layer_2" data-name="Layer 2"><g id="Layer_1-2" data-name="Layer 1"><circle class="cls-1" cx="32.5" cy="32.5" r="31.5"/><path class="cls-1" d="M32.5,2A30.5,30.5,0,1,1,2,32.5,30.53,30.53,0,0,1,32.5,2m0-2A32.5,32.5,0,1,0,65,32.5,32.5,32.5,0,0,0,32.5,0Z"/><path class="cls-2" d="M30.85,17.09a1.79,1.79,0,0,1,3.3,0l4,9.24,10,.91a1.79,1.79,0,0,1,1,3.14L41.57,37l2.24,9.81a1.8,1.8,0,0,1-2.67,1.94L32.5,43.59l-8.64,5.16a1.8,1.8,0,0,1-2.67-1.94L23.43,37l-7.57-6.62a1.79,1.79,0,0,1,1-3.14l10-.91Z"/></g></g></svg>