<svg xmlns="http://www.w3.org/2000/svg" viewBox="0 0 65 65"><defs><style>.cls-1{fill:#1ab4ff;}.cls-2{fill:#fff;stroke:#fff;stroke-miterlimit:10;stroke-width:0.25px;}</style></defs><title>Icon_BlueFill_Ai</title><g id="Layer_2" data-name="Layer 2"><g id="Layer_1-2" data-name="Layer 1"><circle class="cls-1" cx="32.5" cy="32.5" r="31.5"/><path class="cls-1" d="M32.5,2A30.5,30.5,0,1,1,2,32.5,30.53,30.53,0,0,1,32.5,2m0-2A32.5,32.5,0,1,0,65,32.5,32.5,32.5,0,0,0,32.5,0Z"/><path class="cls-2" d="M48.38,33.23h0a2.79,2.79,0,1,0,0-1.46H32.32V29.21h6.3a.73.73,0,0,0,.65-.4l2.82-5.54h5.08a2.79,2.79,0,1,0,0-1.45H41.64a.74.74,0,0,0-.65.39l-2.81,5.54H32.32V25.57h4.12a.71.71,0,0,0,.65-.4l2.74-5.39a3,3,0,0,0,.52.06A2.79,2.79,0,0,0,43,16.11a2.79,2.79,0,1,0-4.46,3l-2.52,5H32.32V17.69l0-.68a5.07,5.07,0,0,0-5-4.68A5,5,0,0,0,23.52,14a3.92,3.92,0,0,0-3.05,1h-.23a6.13,6.13,0,0,0-6.12,6.13,6.22,6.22,0,0,0,.55,2.55,5.05,5.05,0,0,0-1.29,8.38,6.12,6.12,0,0,0,2.67,10.73,5.26,5.26,0,0,0-.12,1.12A5,5,0,0,0,21,49a4.9,4.9,0,0,0,1.38-.2,5,5,0,0,0,10-1.12V40.88H36l2.52,5a2.77,2.77,0,1,0,1.83-.7,3,3,0,0,0-.52.06l-2.74-5.39a.71.71,0,0,0-.65-.4H32.32V37.25h5.86L41,42.79a.74.74,0,0,0,.65.39h5.54a2.79,2.79,0,1,0,0-1.45H42.09l-2.82-5.54a.72.72,0,0,0-.65-.39h-6.3V33.23Zm2.69-2.06a1.33,1.33,0,1,1-1.34,1.33A1.33,1.33,0,0,1,51.07,31.17Zm-1.21-10a1.34,1.34,0,1,1-1.34,1.34A1.33,1.33,0,0,1,49.86,21.22ZM39.14,16.47a1.35,1.35,0,0,1,1.21-.76,1.4,1.4,0,0,1,.57.13,1.32,1.32,0,0,1,.63,1.78,1.35,1.35,0,0,1-1.77.63,1.29,1.29,0,0,1-.69-.76A1.34,1.34,0,0,1,39.14,16.47Zm0,31a1.29,1.29,0,0,1,.69-.76,1.25,1.25,0,0,1,.57-.13,1.34,1.34,0,0,1,1.2.76,1.32,1.32,0,0,1-.63,1.78,1.4,1.4,0,0,1-.57.13,1.35,1.35,0,0,1-1.21-.76A1.34,1.34,0,0,1,39.09,47.51Zm10.77-6.4a1.34,1.34,0,1,1-1.34,1.33A1.33,1.33,0,0,1,49.86,41.11Zm-19,6.53a3.59,3.59,0,0,1-7.17.11.74.74,0,0,0-.36-.6.71.71,0,0,0-.37-.1.81.81,0,0,0-.34.08,3.49,3.49,0,0,1-1.64.4,3.6,3.6,0,0,1-3.6-3.59,3.5,3.5,0,0,1,.24-1.24,6.07,6.07,0,0,1,5.31-1.23,6.53,6.53,0,0,0,.62,3.34.73.73,0,0,0,.65.39.76.76,0,0,0,.33-.08.72.72,0,0,0,.31-1,3.94,3.94,0,0,1,1.28-5.22.72.72,0,1,0-.81-1.2,5.33,5.33,0,0,0-2,2.34,7.44,7.44,0,0,0-6.47,1.4A4.65,4.65,0,0,1,14.68,33a12.22,12.22,0,0,0,4.3.81,9.24,9.24,0,0,0,5.79-1.95,6.17,6.17,0,0,0,2.66,1.82.78.78,0,0,0,.26,0,.73.73,0,0,0,.25-1.41,4.56,4.56,0,0,1-3.11-4.66.74.74,0,0,0-.66-.8.73.73,0,0,0-.79.66,6.52,6.52,0,0,0,.6,3.12,7.83,7.83,0,0,1-5,1.73,10.71,10.71,0,0,1-3.84-.75l-.14-.1a3.59,3.59,0,0,1,.9-6.64.73.73,0,0,0,.44-1.1,4.6,4.6,0,0,1-.77-2.56,4.68,4.68,0,0,1,4.48-4.67,5,5,0,0,0,1.83,3.45,5.13,5.13,0,0,0-1.56,3,.72.72,0,0,0,.72.62h.11a.73.73,0,0,0,.61-.69c0-.22.66-2.93,4.57-3.65a.73.73,0,0,0-.26-1.43,8.27,8.27,0,0,0-3,1.14,3.36,3.36,0,0,1-1.55-2.9h0a2.46,2.46,0,0,1,1.62-.63,2.62,2.62,0,0,1,.54.06.71.71,0,0,0,.73-.27,3.58,3.58,0,0,1,6.45,1.84l0,30.34Z"/></g></g></svg>