<svg xmlns="http://www.w3.org/2000/svg" viewBox="0 0 65 65"><defs><style>.cls-1{fill:#1ab4ff;}.cls-2{fill:#fff;}</style></defs><title>Icon_BlueFill_Budgets</title><g id="Layer_2" data-name="Layer 2"><g id="Layer_3" data-name="Layer 3"><circle class="cls-1" cx="32.5" cy="32.5" r="31.5"/><path class="cls-1" d="M32.5,2A30.5,30.5,0,1,1,2,32.5,30.53,30.53,0,0,1,32.5,2m0-2A32.5,32.5,0,1,0,65,32.5,32.5,32.5,0,0,0,32.5,0Z"/><path class="cls-2" d="M24.81,23.38a2.13,2.13,0,1,0,2.12,2.12A2.13,2.13,0,0,0,24.81,23.38Zm0,3a.91.91,0,1,1,.91-.91A.91.91,0,0,1,24.81,26.41Z"/><path class="cls-2" d="M39.93,19.86H31.4a.86.86,0,1,0,0,1.71h8.53a.86.86,0,0,0,0-1.71Z"/><path class="cls-2" d="M51.16,25.55l-.07-.14c0-.11-.09-.21-.13-.3-.15-.33-.39-.82-.66-1.28l-.13-.19h0a.41.41,0,0,1-.05-.09,17.21,17.21,0,0,0-10.27-7.37.86.86,0,0,0-.22,0,21.42,21.42,0,0,0-10.09,0l-.2.05a11.82,11.82,0,0,0-1.19.36l-.12.05-.51.19-4.9-1.07h-.33a.33.33,0,0,0-.12,0l.07.15-.12-.13a.44.44,0,0,0-.19.13l.12.12L21.89,16l-.09.1a.54.54,0,0,0-.05.11l0,0a.34.34,0,0,0,0,.1l-.87,5A15.28,15.28,0,0,0,18.37,25H14.66c-1.79,0-2,4.22-2,6s.19,5.92,1.91,6v.06h.17a2.06,2.06,0,0,0,.54-.06h2.85a15.81,15.81,0,0,0,3.72,5.14v6.5a.78.78,0,0,0,.78.78,5.86,5.86,0,0,0,5.42-3.58A19.58,19.58,0,0,0,41,45.92v2.74a.78.78,0,0,0,.78.78,5.92,5.92,0,0,0,5.91-5.91V41.89a14.8,14.8,0,0,0,4.69-10.66A14.51,14.51,0,0,0,51.16,25.55ZM42.49,44.7v-.05a.37.37,0,0,0,0-.09v0h0a.78.78,0,0,0-.16-.24l-.07-.06A1.06,1.06,0,0,0,42,44.1a.76.76,0,0,0-.44,0h0l-.1,0a18.41,18.41,0,0,1-13.54,0l-.09,0h-.26l-.15,0-.14,0-.13.09-.1.09a.85.85,0,0,0-.1.14l-.05.08,0,.09a4.32,4.32,0,0,1-3.41,3.15v-6a.61.61,0,0,0,0-.15l-.17.05.15-.1a.26.26,0,0,0,0-.1s0-.06-.05-.09l-.14.11.11-.15s-.06-.08-.07-.08l0,0a14.21,14.21,0,0,1-3.8-5.3h0a.82.82,0,0,0-.63-.47H17.17a11.34,11.34,0,0,0,1-4.63A6.93,6.93,0,0,0,17,26.51h1.88a.79.79,0,0,0,.38-.11l.07,0a.74.74,0,0,0,.27-.32,14,14,0,0,1,2.55-3.8l0-.06a.6.6,0,0,0,.09-.15.76.76,0,0,0,0-.11l.79-4.48,4.33.94a.72.72,0,0,0,.43,0h0a15.37,15.37,0,0,1,1.48-.51A19.91,19.91,0,0,1,40.53,18l.09,0c6.17,2.13,10.14,7.29,10.14,13.17A13.28,13.28,0,0,1,46.34,41a.75.75,0,0,0-.26.57v2a4.36,4.36,0,0,1-3.57,4.28v-3A.37.37,0,0,0,42.49,44.7ZM16.66,30.81c0,1.25-.44,4-1.48,4.59a1.77,1.77,0,0,1-.38-.1A13.06,13.06,0,0,1,14.24,31a14,14,0,0,1,.48-4.09l.1-.25C15.41,27,16.66,28,16.66,30.81Z"/></g></g></svg>