<svg xmlns="http://www.w3.org/2000/svg" viewBox="0 0 65 65"><defs><style>.cls-1{fill:#1ab4ff;}.cls-2{fill:#fff;}</style></defs><title>Icon_BlueFill_StoreFront</title><g id="Layer_2" data-name="Layer 2"><g id="Layer_3" data-name="Layer 3"><circle class="cls-1" cx="32.5" cy="32.5" r="31.5"/><path class="cls-1" d="M32.5,2A30.5,30.5,0,1,1,2,32.5,30.53,30.53,0,0,1,32.5,2m0-2A32.5,32.5,0,1,0,65,32.5,32.5,32.5,0,0,0,32.5,0Z"/><path class="cls-2" d="M49.9,31.76A5.1,5.1,0,0,0,51,26.1c-1.51-3.49-3.82-8.65-3.84-8.69a.89.89,0,0,0-.81-.53H18.76a.9.9,0,0,0-.81.52s-2.37,5.07-3.33,7.14c-.8,1.74-1.45,3.58-.81,5.32a4.7,4.7,0,0,0,2.61,2.57,4.93,4.93,0,0,0,.82.27V44l0,.17v3a.94.94,0,0,0,.94.94h3v0h22.4l.18,0h3a.94.94,0,0,0,.94-.94v-.64l0-.17V32.8A4.52,4.52,0,0,0,49.9,31.76ZM22.42,18.66,20.91,29.77A4.83,4.83,0,0,1,18.12,31a2.24,2.24,0,0,1-1-.21,2.94,2.94,0,0,1-1.68-1.57c-.41-1.13.12-2.56.76-3.95C17,23.62,18.7,20,19.33,18.66Zm5.76,11.28a4,4,0,0,1-2.93,1.23,2.44,2.44,0,0,1-2.45-1.44,1,1,0,0,0-.07-.15l1.48-10.92h4.4Zm7,5.09H29.8a1.59,1.59,0,0,0-1.59,1.58v9.73H19V32.7a7,7,0,0,0,2.68-1.28h.07A4.31,4.31,0,0,0,25.25,33a5.72,5.72,0,0,0,3.89-1.47A5.17,5.17,0,0,0,32.6,33a5.61,5.61,0,0,0,3.56-1.45,7.14,7.14,0,0,0,3.73,1.44,4.23,4.23,0,0,0,3.56-1.45A6.78,6.78,0,0,0,46,32.74v13.6h-9.2V36.61A1.58,1.58,0,0,0,35.21,35ZM40,31.16a5.35,5.35,0,0,1-3.13-1.38l-.43-11.12H40.8L42.34,30A2.59,2.59,0,0,1,40,31.16Zm-5,5.63v9.55H30l0-9.53Zm13.73-6.38a2.55,2.55,0,0,1-1.71.68,4.84,4.84,0,0,1-2.94-1.39l-1.5-11h3.22c.88,2,2.47,5.55,3.6,8.15A3.29,3.29,0,0,1,48.74,30.41ZM30,29.79l.42-11.13h4.28l.43,11.39a3.85,3.85,0,0,1-2.5,1.12A3.8,3.8,0,0,1,30,29.79Z"/></g></g></svg>