<svg xmlns="http://www.w3.org/2000/svg" width="144" height="144" viewBox="0 0 144 144"><defs><style>.a{fill:#00b5ef;}.b{fill:#f2f2f2;opacity:0.2;}.c{fill:#fff;}</style></defs><title>Solution_Icons</title><circle class="a" cx="72" cy="72" r="72"/><path class="b" d="M37.79,135.37c2.46-10.21,18.9-23.09,43.74-34.92A451,451,0,0,1,143.8,77.07c.12-1.68.2-3.36.2-5.07a71.67,71.67,0,0,0-10.92-38.11A168.21,168.21,0,0,1,113.54,19.1,143.55,143.55,0,0,1,99.6,5.49a71.57,71.57,0,0,0-37-4.85A254,254,0,0,0,86.79,19c-27,.61-51.29,3.1-70.41,7.3A71.73,71.73,0,0,0,0,72a70.23,70.23,0,0,0,.36,7.14C12,84.69,26.9,89.86,44.46,94.35c-12.33,4.8-23.79,9.77-34.13,14.82A72.36,72.36,0,0,0,37.79,135.37Z"/><path class="c" d="M50.16,82.5s4.68,4.56,10.75,4.56c3.28,0,6.26-1.7,6.26-5.23,0-7.71-20.35-6.37-20.35-19.62,0-7.16,6.2-12.51,14.46-12.51,8.5,0,12.88,4.62,12.88,4.62L70.75,60.7a15.73,15.73,0,0,0-9.53-3.77c-3.65,0-6.5,2.13-6.5,5.16C54.72,69.75,75,67.86,75,81.65c0,6.87-5.23,12.64-14.22,12.64a20.88,20.88,0,0,1-14.88-5.9Z"/><path class="c" d="M87.26,50.43H95.1V93.56H87.26Z"/></svg>