<svg xmlns="http://www.w3.org/2000/svg" viewBox="0 0 65 65"><defs><style>.cls-1{fill:#1ab4ff;}.cls-2{fill:#fff;}</style></defs><title>Icon_BlueFill_Community_Intelligence</title><g id="Layer_2" data-name="Layer 2"><g id="Layer_2-2" data-name="Layer 2"><circle class="cls-1" cx="32.5" cy="32.5" r="31.5"/><path class="cls-1" d="M32.5,2A30.5,30.5,0,1,1,2,32.5,30.53,30.53,0,0,1,32.5,2m0-2A32.5,32.5,0,1,0,65,32.5,32.5,32.5,0,0,0,32.5,0Z"/><path class="cls-2" d="M52.08,19.37h0A3.93,3.93,0,0,0,49.23,26L43.46,34.7a4.07,4.07,0,0,0-1.35-.23,3.72,3.72,0,0,0-1.42.29L36.1,28.32a3.94,3.94,0,0,0,.95-2.61A3.89,3.89,0,0,0,35.87,23a3.93,3.93,0,0,0-5.51,5.6L23.53,40a3.9,3.9,0,0,0-1.19-.18,4,4,0,0,0-2,.56l-4.14-4.18a3.78,3.78,0,0,0,.59-2.09,4,4,0,0,0-3.95-3.89h0a3.94,3.94,0,0,0-3.89,4,3.94,3.94,0,0,0,4,3.89,3.93,3.93,0,0,0,2-.57L19,41.66a3.77,3.77,0,0,0-.59,2.08,3.92,3.92,0,0,0,6.73,2.71,3.89,3.89,0,0,0-.06-5.52L32,29.5a3.91,3.91,0,0,0,1.2.18,3.86,3.86,0,0,0,1.41-.29l4.6,6.44a3.93,3.93,0,1,0,6.9,2.53,3.88,3.88,0,0,0-1-2.63L50.79,27A3.9,3.9,0,0,0,56,23.26,4,4,0,0,0,52.08,19.37ZM14.36,35.55a2,2,0,0,1-1.45.62v.38l0-.38A2.06,2.06,0,1,1,15,34.09,2,2,0,0,1,14.36,35.55Zm9.49,9.6a2.11,2.11,0,0,1-1.45.62,2.21,2.21,0,0,1-1.47-.59,2.06,2.06,0,0,1,0-2.92,2.1,2.1,0,0,1,1.47-.62,2.06,2.06,0,0,1,1.48,3.51Zm20.36-6.78a2.12,2.12,0,0,1-.59,1.47,2.09,2.09,0,0,1-1.45.62,2,2,0,0,1-2.09-2.05A2,2,0,0,1,40.67,37a2,2,0,0,1,1.48-.62,2.05,2.05,0,0,1,1.44.59A2.09,2.09,0,0,1,44.21,38.37ZM34.6,27.2a2.06,2.06,0,1,1,.59-1.47A2.09,2.09,0,0,1,34.6,27.2Zm16.07-2.43a2,2,0,0,1-.62-1.46,2.06,2.06,0,1,1,2.09,2.05A2.17,2.17,0,0,1,50.67,24.77Z"/></g></g></svg>