<svg xmlns="http://www.w3.org/2000/svg" viewBox="0 0 65 65"><defs><style>.cls-1{fill:#1ab4ff;}.cls-2{fill:#fff;}</style></defs><title>Icon_BlueFill_Life_Sciences</title><g id="Layer_2" data-name="Layer 2"><g id="Layer_1-2" data-name="Layer 1"><circle class="cls-1" cx="32.5" cy="32.5" r="31.5"/><path class="cls-1" d="M32.5,2A30.5,30.5,0,1,1,2,32.5,30.53,30.53,0,0,1,32.5,2m0-2A32.5,32.5,0,1,0,65,32.5,32.5,32.5,0,0,0,32.5,0Z"/><path class="cls-2" d="M44.49,40.28l-7-8.84a3.26,3.26,0,0,1-.64-1.92v-14a1,1,0,0,0-1-1H29.09a1,1,0,0,0-1,1v14a3.22,3.22,0,0,1-.62,1.9l-7,8.88a8.13,8.13,0,0,0-1.85,5.6c0,3.37,2,4.57,3.76,4.57H42.6c1.73,0,3.76-1.2,3.76-4.57A8.17,8.17,0,0,0,44.49,40.28ZM36,32.63l3,3.78H26.06l3-3.8a5.23,5.23,0,0,0,1-3.09v-13h4.86v13A5.26,5.26,0,0,0,36,32.63Zm4.52,5.74,2.44,3.1A6.25,6.25,0,0,1,44.4,45.9c0,1-.24,2.61-1.8,2.61H22.4c-1.56,0-1.8-1.63-1.8-2.61a6.26,6.26,0,0,1,1.45-4.41l2.46-3.12Z"/></g></g></svg>