<svg xmlns="http://www.w3.org/2000/svg" viewBox="0 0 65 65"><defs><style>.cls-1{fill:#1ab4ff;}.cls-2{fill:#fff;}</style></defs><title>Icon_BlueFill_Services_Procurement</title><g id="Layer_2" data-name="Layer 2"><g id="Layer_3" data-name="Layer 3"><circle class="cls-1" cx="32.5" cy="32.5" r="31.5"/><path class="cls-1" d="M32.5,2A30.5,30.5,0,1,1,2,32.5,30.53,30.53,0,0,1,32.5,2m0-2A32.5,32.5,0,1,0,65,32.5,32.5,32.5,0,0,0,32.5,0Z"/><path class="cls-2" d="M16.53,19a.91.91,0,0,0-.85-.06L11,21.09a.89.89,0,1,0,.74,1.62l1.94-.88a21.66,21.66,0,0,0,1.19,23.4.91.91,0,0,0,.73.37.92.92,0,0,0,.52-.17.88.88,0,0,0,.2-1.24,19.86,19.86,0,0,1-1.1-21.46l0,2a.9.9,0,0,0,1.79-.05l-.14-4.92A.89.89,0,0,0,16.53,19Z"/><path class="cls-2" d="M44.05,11.15h0a.89.89,0,1,0-1.63.73l.88,1.94A21.67,21.67,0,0,0,19.9,15a.91.91,0,0,0-.21,1.25.92.92,0,0,0,.59.36.87.87,0,0,0,.66-.16,19.85,19.85,0,0,1,21.45-1.05l-2,.05a.89.89,0,1,0,0,1.78l4.92-.12a.9.9,0,0,0,.74-.42.87.87,0,0,0,0-.84Z"/><path class="cls-2" d="M54.42,42.9h0a.88.88,0,0,0-1.18-.44l-1.94.88a21.67,21.67,0,0,0-1.21-23.4.9.9,0,0,0-1.25-.2.92.92,0,0,0-.36.58.89.89,0,0,0,.16.67,19.83,19.83,0,0,1,1.12,21.44l0-2a.89.89,0,0,0-1.54-.59.89.89,0,0,0-.25.64l.14,4.92a.92.92,0,0,0,.42.74,1,1,0,0,0,.47.13,1,1,0,0,0,.37-.08L54,44.08A.9.9,0,0,0,54.42,42.9Z"/><path class="cls-2" d="M44.44,48.82a.85.85,0,0,0-.66.15,19.88,19.88,0,0,1-21.47.69l2,0a.85.85,0,0,0,.63-.27.87.87,0,0,0,.25-.63.89.89,0,0,0-.9-.88l-4.92,0a.91.91,0,0,0-.74.41.9.9,0,0,0-.08.84l2,4.7a.88.88,0,0,0,.82.54,1,1,0,0,0,.35-.07.89.89,0,0,0,.47-1.18l-.84-1.94a21.69,21.69,0,0,0,10.7,3.07,21.37,21.37,0,0,0,12.71-3.83A.89.89,0,0,0,45,49.19.9.9,0,0,0,44.44,48.82Z"/><path class="cls-2" d="M43.66,26.65v-.18a1.83,1.83,0,0,0-.56-1.32,1.91,1.91,0,0,0-1.34-.55l-9.6.08H23.08a2.33,2.33,0,0,0-.59.08,1.88,1.88,0,0,0-1.86,1.9l.05,5.86v5.35a1.85,1.85,0,0,0,0,.43v.18a1.9,1.9,0,0,0,.57,1.33,1.86,1.86,0,0,0,1.33.54l9.6-.08H41.3a2.21,2.21,0,0,0,.59-.08,1.87,1.87,0,0,0,1.33-.56,1.9,1.9,0,0,0,.54-1.34l0-5.86V27.09A1.9,1.9,0,0,0,43.66,26.65ZM42.22,38.31a.35.35,0,0,1-.34.35l-.33,0a.85.85,0,0,1-.25.05H32.21l-9.6.08a.37.37,0,0,1-.25-.1.39.39,0,0,1-.1-.25l0-.41a.68.68,0,0,1,0-.19l0-8h20Zm0-11.22v1.2h-20V26.65a.39.39,0,0,1,.1-.25.33.33,0,0,1,.25-.1l.32,0a.85.85,0,0,1,.25,0h9.09l9.61-.08a.33.33,0,0,1,.24.1.36.36,0,0,1,.11.24l0,.41A.71.71,0,0,1,42.17,27.09Z"/></g></g></svg>