<svg xmlns="http://www.w3.org/2000/svg" viewBox="0 0 65 65"><defs><style>.cls-1{fill:#1ab4ff;}.cls-2{fill:#fff;}</style></defs><title>Icon_BlueFill_Public_Sector</title><g id="Layer_2" data-name="Layer 2"><g id="Layer_1-2" data-name="Layer 1"><path class="cls-1" d="M32.5,64A31.5,31.5,0,1,1,64,32.5,31.54,31.54,0,0,1,32.5,64Z"/><path class="cls-1" d="M32.5,2A30.5,30.5,0,1,1,2,32.5,30.54,30.54,0,0,1,32.5,2h0m0-2a32.5,32.5,0,0,0,0,65h0a32.5,32.5,0,0,0,0-65Z"/><path class="cls-2" d="M50.58,24.84a.88.88,0,0,0,.88-.88V21.63a.88.88,0,0,0-.56-.82l-18.08-7a.86.86,0,0,0-.63,0l-18.09,7a.88.88,0,0,0-.56.81V24a.87.87,0,0,0,.88.87H18V42.92H14.42a.88.88,0,0,0-.88.88v4.58a.87.87,0,0,0,.87.87H50.58a.88.88,0,0,0,.88-.88V43.79a.87.87,0,0,0-.88-.87H47V24.84ZM15.29,22.22,32.5,15.56l17.21,6.67v.86H15.29Zm21,20.7V24.83h3.09V42.92Zm-10.67,0V24.83h3.08V42.92Zm4.84-18.09h4.08V42.92H30.46Zm-10.67,0h4.09V42.92H19.79ZM49.71,47.5H15.29V44.66H49.71Zm-4.5-4.58H41.12V24.83h4.08Z"/></g></g></svg>