<svg id="Layer_1" data-name="Layer 1" xmlns="http://www.w3.org/2000/svg" viewBox="0 0 300 300"><defs><style>.cls-1{fill:#1ab4ff;}.cls-2{fill:#fff;}</style></defs><circle class="cls-1" cx="150.08" cy="149.93" r="143.81" transform="translate(-62.06 150.04) rotate(-45)"/><path class="cls-1" d="M150.08,7.12a142.81,142.81,0,0,1,101,243.79A142.81,142.81,0,0,1,49.1,49a141.87,141.87,0,0,1,101-41.83m0-2A144.81,144.81,0,1,0,294.89,149.93,144.8,144.8,0,0,0,150.08,5.12Z"/><path class="cls-2" d="M210.9,177.39a10.21,10.21,0,0,0-5.51-6.1c2-6.72,3.08-18.2,3.08-18.2l0,0c1.14-5.55.39-12.2-3.94-14.84-3-2.72-10.84-6.28-22.25-11.31-5.62-2.47-13.33-5.87-14.55-7-.91-.92-.31-7.48,6.48-17.54,7.76-8.09,6.25-15.07,3.81-18.51,0-.64.12-1.41.2-2.27.41-4.44,1-11.15-.37-16.1C174.37,53.33,161,47.78,150,47.78s-24.38,5.55-27.84,17.74c-1.4,5-.77,11.66-.36,16.1.08.86.15,1.63.2,2.27-2.44,3.44-4,10.42,3.8,18.51,6.8,10.06,7.4,16.62,6.5,17.52-1.23,1.11-8.93,4.5-14.56,7-11.41,5-19.23,8.59-22.25,11.31-4.45,2.72-5.12,9.69-3.84,15.33,0,0,1,11,2.95,17.76a10.17,10.17,0,0,0-2.5,17l23.11,20.21-6.82,29.94a10.26,10.26,0,0,0,10,12.53,10.16,10.16,0,0,0,5.25-1.46L150,233.76l26.37,15.74a10.25,10.25,0,0,0,15.23-11.08l-6.81-29.94,23.1-20.21A10.22,10.22,0,0,0,210.9,177.39Zm-8.68,4.39-25,21.91a4.31,4.31,0,0,0-1.37,4.2l7.39,32.45a1.62,1.62,0,0,1-2.41,1.75L152.21,225a4.32,4.32,0,0,0-4.42,0l-28.58,17.05a1.59,1.59,0,0,1-1.77-.08,1.63,1.63,0,0,1-.64-1.67l7.39-32.45a4.29,4.29,0,0,0-1.37-4.2l-25-21.91A1.62,1.62,0,0,1,98.7,179l33.14-3a4.3,4.3,0,0,0,3.57-2.59l13.1-30.59a1.69,1.69,0,0,1,3,0l13.1,30.59a4.3,4.3,0,0,0,3.57,2.59l33.15,3a1.63,1.63,0,0,1,1.39,1.11A1.6,1.6,0,0,1,202.22,181.78Zm0-29.32c0,.09-.06.18-.08.26h0v.08h0l-2.76,17.3-27.88-2.52-12.08-28.23a10.25,10.25,0,0,0-18.84,0L128.5,167.59l-27.84,2.52L98,153.18c-.07-.24-.15-.48-.21-.72-1.14-4.64-.17-8.36,1-9a3.25,3.25,0,0,0,.76-.56c2.13-2.14,12.86-6.87,20.7-10.33,10.4-4.59,14.81-6.62,16.44-8.27,5.05-5.09.26-16.57-5.9-25.62a2.79,2.79,0,0,0-.35-.42c-6.7-6.87-3.47-10.74-3.12-11.12a3.05,3.05,0,0,0,.93-2.21c0-.88-.12-2.25-.27-3.9-.37-4-.93-10,.15-13.82C130.89,57.5,142.72,54,150,54s19.11,3.52,21.87,13.23C173,71,172.39,77.06,172,81c-.15,1.65-.27,3-.27,3.9a3.1,3.1,0,0,0,.92,2.21s3.87,4-3.12,11.12a3.47,3.47,0,0,0-.34.42c-6.17,9-11,20.54-5.9,25.62,1.63,1.65,6,3.68,16.45,8.27,7.83,3.46,18.56,8.19,20.69,10.33a3.25,3.25,0,0,0,.76.56C202.41,144.1,203.39,147.82,202.25,152.46Z"/></svg>