<svg xmlns="http://www.w3.org/2000/svg" viewBox="0 0 65 65"><defs><style>.cls-1{fill:#1ab4ff;}.cls-2{fill:#fff;}</style></defs><title>Icon_BlueFill_Supplier_Success</title><g id="Layer_2" data-name="Layer 2"><g id="Layer_3" data-name="Layer 3"><circle class="cls-1" cx="32.5" cy="32.5" r="31.5"/><path class="cls-1" d="M32.5,2A30.5,30.5,0,1,1,2,32.5,30.53,30.53,0,0,1,32.5,2m0-2A32.5,32.5,0,1,0,65,32.5,32.5,32.5,0,0,0,32.5,0Z"/><path class="cls-2" d="M46.62,39a2.36,2.36,0,0,0-1.27-1.41,28.92,28.92,0,0,0,.71-4.23h0c.26-1.29.09-2.83-.92-3.45A26.06,26.06,0,0,0,40,27.29a29.44,29.44,0,0,1-3.37-1.61c-.21-.22-.08-1.74,1.5-4.07,1.8-1.88,1.45-3.5.88-4.3,0-.14,0-.32,0-.52A11.25,11.25,0,0,0,39,13.05c-.81-2.82-3.91-4.11-6.46-4.11S26.85,10.23,26,13.06A11.18,11.18,0,0,0,26,16.79c0,.2,0,.38.05.52-.57.8-.92,2.42.88,4.3,1.57,2.33,1.71,3.85,1.51,4.06A28.56,28.56,0,0,1,25,27.29a26.06,26.06,0,0,0-5.16,2.62c-1,.63-1.19,2.25-.89,3.56a29.85,29.85,0,0,0,.68,4.12,2.36,2.36,0,0,0-.58,3.93l5.36,4.69-1.58,6.95a2.37,2.37,0,0,0,2.32,2.9,2.34,2.34,0,0,0,1.22-.34l6.11-3.64,6.12,3.64a2.37,2.37,0,0,0,3.53-2.56l-1.58-6.95,5.36-4.69A2.34,2.34,0,0,0,46.62,39Zm-2,1L38.8,45.1a1,1,0,0,0-.31,1L40.2,53.6a.37.37,0,0,1-.15.39.38.38,0,0,1-.41,0l-6.63-4a1,1,0,0,0-1,0l-6.63,4A.38.38,0,0,1,25,54a.37.37,0,0,1-.15-.39l1.71-7.53a1,1,0,0,0-.31-1L20.39,40a.36.36,0,0,1-.11-.4.38.38,0,0,1,.32-.26l7.69-.69a1,1,0,0,0,.83-.61l3-7.09a.4.4,0,0,1,.7,0l3,7.09a1,1,0,0,0,.83.61l7.69.69a.38.38,0,0,1,.32.26A.36.36,0,0,1,44.61,40Zm0-6.8,0,.06h0v0h0l-.64,4-6.46-.58-2.81-6.55a2.37,2.37,0,0,0-4.36,0l-2.81,6.55-6.45.58-.63-3.92c0-.06,0-.12-.05-.17-.26-1.08,0-1.94.24-2.09A.46.46,0,0,0,20.8,31a29.41,29.41,0,0,1,4.8-2.39,17.63,17.63,0,0,0,3.81-1.92c1.17-1.18.06-3.84-1.37-5.94a.39.39,0,0,0-.08-.1c-1.55-1.59-.8-2.49-.72-2.58a.7.7,0,0,0,.22-.51c0-.21,0-.52-.07-.91a10.4,10.4,0,0,1,0-3.2c.64-2.25,3.38-3.07,5.07-3.07s4.43.82,5.07,3.07a10.4,10.4,0,0,1,0,3.2c0,.39-.07.7-.07.91a.7.7,0,0,0,.22.51s.89.92-.73,2.58a.86.86,0,0,0-.07.1c-1.43,2.1-2.54,4.76-1.37,5.94a17.63,17.63,0,0,0,3.81,1.92A29.41,29.41,0,0,1,44.2,31a.46.46,0,0,0,.18.13C44.66,31.28,44.88,32.14,44.62,33.22Z"/></g></g></svg>