<svg xmlns="http://www.w3.org/2000/svg" viewBox="0 0 65 65"><defs><style>.cls-1{fill:#1ab4ff;}.cls-2{fill:#fff;fill-rule:evenodd;}</style></defs><title>Icon_BlueFill_Youtube</title><g id="Layer_2" data-name="Layer 2"><g id="Layer_1-2" data-name="Layer 1"><circle class="cls-1" cx="32.5" cy="32.5" r="31.5"/><path class="cls-1" d="M32.5,2A30.5,30.5,0,1,1,2,32.5,30.53,30.53,0,0,1,32.5,2m0-2A32.5,32.5,0,1,0,65,32.5,32.5,32.5,0,0,0,32.5,0Z"/><path class="cls-2" d="M51,39.09V25.91s0-6.36-6.38-6.36H20.37S14,19.55,14,25.91V39.09s0,6.36,6.37,6.36H44.62s6.38,0,6.38-6.36M39.68,32.52,27.57,39.61V25.42l12.11,7.1"/></g></g></svg>