<svg xmlns="http://www.w3.org/2000/svg" viewBox="0 0 65 65"><defs><style>.cls-1{fill:#1ab4ff;}.cls-2{fill:#fff;}</style></defs><title>Icon_BlueFill_Open_Business_Network</title><g id="Layer_2" data-name="Layer 2"><g id="Layer_2-2" data-name="Layer 2"><circle class="cls-1" cx="32.5" cy="32.5" r="31.5"/><path class="cls-1" d="M32.5,2A30.5,30.5,0,1,1,2,32.5,30.53,30.53,0,0,1,32.5,2m0-2A32.5,32.5,0,1,0,65,32.5,32.5,32.5,0,0,0,32.5,0Z"/><path class="cls-2" d="M51.05,39.44a3.71,3.71,0,0,0-2.65,1.1l-7.47-4.3A6.41,6.41,0,0,0,41.35,34a6.33,6.33,0,0,0-1.49-4.07l6.79-7.77a3.83,3.83,0,0,0,1.63.39,3.83,3.83,0,1,0-3.13-1.71L38.36,28.6a6.55,6.55,0,0,0-5.64-.55l-6-10.33a3.74,3.74,0,1,0-1.73,1L31,29.05a6.28,6.28,0,0,0-2.2,3.56l-11.14-.68a3.81,3.81,0,1,0-.14,2l11.16.67a6.35,6.35,0,0,0,2.58,4.53L27.6,46.25a3.84,3.84,0,0,0-.75-.09,3.78,3.78,0,1,0,2.54,1L33,40a6.24,6.24,0,0,0,2,.32,6.38,6.38,0,0,0,5-2.37l7.47,4.29a3.73,3.73,0,0,0-.12.94,3.77,3.77,0,1,0,3.77-3.77ZM15.72,32.82a1.83,1.83,0,1,1,0-.11ZM48.28,17a1.77,1.77,0,1,1-1.77,1.77A1.77,1.77,0,0,1,48.28,17Zm-26-1.93A1.77,1.77,0,1,1,25,16.6a1.69,1.69,0,0,1-.88.24A1.78,1.78,0,0,1,22.31,15.07ZM26.85,51.7a1.77,1.77,0,0,1,0-3.54,1.85,1.85,0,0,1,.8.19,1.77,1.77,0,0,1-.8,3.35ZM35,38.35a4.4,4.4,0,0,1-2-.47A4.35,4.35,0,0,1,30.62,34a2.44,2.44,0,0,1,0-.27,4.36,4.36,0,1,1,8.14,2.44A4.39,4.39,0,0,1,35,38.35ZM51.05,45a1.77,1.77,0,0,1-1.77-1.77,1.76,1.76,0,0,1,1.77-1.77,1.77,1.77,0,1,1,0,3.54Z"/></g></g></svg>