<svg xmlns="http://www.w3.org/2000/svg" viewBox="0 0 65 65"><defs><style>.cls-1{fill:#1ab4ff;}.cls-2{fill:#fff;}</style></defs><title>Icon_BlueFill_Education</title><g id="Layer_2" data-name="Layer 2"><g id="Layer_1-2" data-name="Layer 1"><circle class="cls-1" cx="32.5" cy="32.5" r="31.5"/><path class="cls-1" d="M32.5,2A30.5,30.5,0,1,1,2,32.5,30.53,30.53,0,0,1,32.5,2m0-2A32.5,32.5,0,1,0,65,32.5,32.5,32.5,0,0,0,32.5,0Z"/><path class="cls-2" d="M49.53,22.32l-5.85-5.85a1.17,1.17,0,0,0-1.63,0L19.29,39.23l-.09.09a1.37,1.37,0,0,0-.16.25.71.71,0,0,0-.06.14l-1.81,7.74a1.11,1.11,0,0,0,.3,1.07,1.15,1.15,0,0,0,.82.34,1.09,1.09,0,0,0,.26,0L26.21,47a1.37,1.37,0,0,0,.29-.12,1,1,0,0,0,.23-.18L49.53,24a1.17,1.17,0,0,0,0-1.63Zm-25.9,23-3.8.88.89-3.8ZM43,27.27l-17,17L21.7,40.08l17-17Zm4.13-4.14-2.5,2.51-4.22-4.22,2.5-2.5Z"/></g></g></svg>