<svg xmlns="http://www.w3.org/2000/svg" viewBox="0 0 178 178"><defs><style>.cls-1{fill:#ee7025;}.cls-2{fill:#fff;}</style></defs><title>icon-spendOptimization</title><g id="Layer_2" data-name="Layer 2"><g id="Layer_1-2" data-name="Layer 1"><circle class="cls-1" cx="89" cy="89" r="89"/><path class="cls-2" d="M141,128.11l-13.45-13.45c-.42-.42-2.19-1.2-2.69-.54a47.88,47.88,0,0,1-9,9c-.16.12-.09.37,0,.48,4.25,4.26,8.48,8.53,12.76,12.76,2.42,2.39,5.62,3.89,9.1,3.06,5.29-1.27,6.79-7.47,3.3-11.36-.53-.59-3.38-.86-2.66-.05a6.16,6.16,0,0,1,.2,8.3,4.62,4.62,0,0,1-6.82.57c-2-1.79-3.88-3.88-5.8-5.8l-6.55-6.55c-.16-.16-.73-.55-.77-.77a8.39,8.39,0,0,0,1.94-1.22,46.41,46.41,0,0,0,7-7.45l-2.69-.54,13.45,13.46C138.86,128.61,141.7,128.85,141,128.11Z"/><path class="cls-2" d="M90.62,42.38c-19,.14-36.73,11.46-43.61,29.39A45.49,45.49,0,0,0,61.12,123.3c14.79,11.69,36,13.06,52.33,3.8A45.71,45.71,0,0,0,135.76,79c-4.18-21.49-23.53-36.46-45.14-36.62-1.29,0-2.69,1.23-.64,1.24a44.4,44.4,0,0,1,41,29.26,44.88,44.88,0,0,1-12.5,48.48,42.69,42.69,0,0,1-50.69,4A44.92,44.92,0,0,1,47.63,80C51.15,59.55,69.14,43.78,90,43.62,91.27,43.61,92.67,42.36,90.62,42.38Z"/><path class="cls-2" d="M90.62,122A34.35,34.35,0,0,1,59,99.29a34.7,34.7,0,0,1,9.2-37.07,32.56,32.56,0,0,1,39.33-3.43,34.84,34.84,0,0,1,15.64,34.7c-2.56,15.87-16.39,28.33-32.56,28.49-1.28,0-2.69,1.26-.64,1.24,14.82-.14,28.74-8.82,34.21-22.83a35.37,35.37,0,0,0-11-40.33c-11.53-9-28-10.09-40.74-3A35.63,35.63,0,0,0,54.62,94.49C57.84,111.41,73,123.06,90,123.22,91.27,123.24,92.67,122,90.62,122Z"/><path class="cls-2" d="M90.74,101.18h-.2l1.15.47v-24l-1.83.77h.2L88.91,78v24c0,.79,3,.61,3-.3v-24c0-.42-.91-.47-1.15-.47h-.2c-.4,0-1.83.11-1.83.77v24c0,.41.91.47,1.15.47h.2C91.34,102.42,92.79,101.18,90.74,101.18Z"/><path class="cls-2" d="M82.07,101.18h-.2l1.82.79V86l-1.16.45h.2l-1.82-.79v16c0,.9,3,1.13,3,.34V86c0-.66-1.41-.79-1.82-.79h-.2c-.24,0-1.16,0-1.16.45v16c0,.66,1.42.79,1.82.79h.2C84.77,102.42,83.37,101.18,82.07,101.18Z"/><path class="cls-2" d="M73.78,101.13h-.2l2.09,1v-12l-.84.34H75l-2.09-1v12c0,1,2.92,1.37,2.92.66v-12c0-.79-1.53-1-2.08-1h-.2c-.18,0-.84,0-.84.34v12c0,.79,1.54,1,2.09,1H75C77,102.47,74.69,101.13,73.78,101.13Z"/><path class="cls-2" d="M97.79,101.12h-.2l2.07,1v-20l-.84.33H99l-2.08-1v20c0,1,2.92,1.4,2.92.7v-20c0-.78-1.51-1-2.07-1h-.2c-.17,0-.85,0-.85.33v20c0,.78,1.52,1,2.08,1H99C101,102.48,98.71,101.12,97.79,101.12Z"/><path class="cls-2" d="M105.8,101.11h-.2l2.05,1.06v-28l-.84.32h.2L105,73.43v28c0,1,2.9,1.43,2.9.74v-28c0-.78-1.49-1.06-2-1.06h-.2c-.17,0-.85,0-.85.32v28c0,.78,1.49,1.06,2.06,1.06h.2C108.94,102.49,106.72,101.11,105.8,101.11Z"/></g></g></svg>