<svg xmlns="http://www.w3.org/2000/svg" viewBox="0 0 65 65"><defs><style>.cls-1{fill:#1ab4ff;}.cls-2{fill:#fff;stroke:#fff;stroke-miterlimit:10;}</style></defs><title>Icon_BlueFill_Focus_On_Results</title><g id="Layer_2" data-name="Layer 2"><g id="Layer_1-2" data-name="Layer 1"><circle class="cls-1" cx="32.5" cy="32.5" r="31.5"/><path class="cls-1" d="M32.5,2A30.5,30.5,0,1,1,2,32.5,30.53,30.53,0,0,1,32.5,2m0-2A32.5,32.5,0,1,0,65,32.5,32.5,32.5,0,0,0,32.5,0Z"/><path class="cls-2" d="M32.5,45.31A12.81,12.81,0,1,1,45.31,32.5,12.82,12.82,0,0,1,32.5,45.31Zm0-24.21A11.4,11.4,0,1,0,43.9,32.5,11.41,11.41,0,0,0,32.5,21.1Z"/><path class="cls-2" d="M32.5,25.42a.7.7,0,0,1-.71-.7V16.07a.71.71,0,0,1,1.42,0v8.65A.7.7,0,0,1,32.5,25.42Z"/><path class="cls-2" d="M32.5,49.64a.71.71,0,0,1-.71-.71V40.28a.71.71,0,0,1,1.42,0v8.65A.71.71,0,0,1,32.5,49.64Z"/><path class="cls-2" d="M48.93,33.21H40.28a.71.71,0,0,1,0-1.42h8.65a.71.71,0,0,1,0,1.42Z"/><path class="cls-2" d="M24.72,33.21H16.07a.71.71,0,0,1,0-1.42h8.65a.71.71,0,0,1,0,1.42Z"/></g></g></svg>