<svg id="Layer_1" data-name="Layer 1" xmlns="http://www.w3.org/2000/svg" viewBox="0 0 300 300"><defs><style>.cls-1{fill:#1ab4ff;}.cls-2{fill:#fff;}</style></defs><circle class="cls-1" cx="150.08" cy="149.93" r="143.81" transform="translate(-62.06 150.04) rotate(-45)"/><path class="cls-1" d="M150.08,7.12a142.81,142.81,0,0,1,101,243.79A142.81,142.81,0,0,1,49.1,49a141.87,141.87,0,0,1,101-41.83m0-2A144.81,144.81,0,1,0,294.89,149.93,144.8,144.8,0,0,0,150.08,5.12Z"/><path class="cls-2" d="M184.13,109.94a48.85,48.85,0,0,0-68.29-3.16,42.76,42.76,0,0,0-3.47,3.4,48.94,48.94,0,0,0-5.87,58.26l.09.13a49.2,49.2,0,0,0,6.24,8.74c4.56,5.49,9.28,11.16,10,22.55,0,.38,0,.76,0,1.16a1.27,1.27,0,0,0,0,.2c0,.29,0,.58,0,.88v18.69a9.26,9.26,0,0,0,9.25,9.25l-.48,0A17,17,0,0,0,165,230c-.16,0-.33,0-.5,0a9.25,9.25,0,0,0,9.24-9.25V203.15s.05-2.31.11-3.22c.67-11.43,5.42-17.12,10-22.63a49,49,0,0,0,6.24-8.72,2,2,0,0,0,.18-.32,48.84,48.84,0,0,0-6.18-58.32ZM148.36,237.77A10.82,10.82,0,0,1,138,230h20.73A10.82,10.82,0,0,1,148.36,237.77Zm16.18-13.9H132.16a3.08,3.08,0,0,1-3.08-3.08V206.17h38.54v14.62A3.08,3.08,0,0,1,164.54,223.87ZM185,165.12a3.2,3.2,0,0,0-.29.51,43.87,43.87,0,0,1-5.56,7.72c-5,6-10.63,12.76-11.42,26.18,0,.13,0,.29,0,.47H129l0-.55c-.82-13.37-6.44-20.12-11.4-26.08a44,44,0,0,1-5.61-7.83,2.56,2.56,0,0,0-.27-.45A42,42,0,0,1,107,153.94a42.75,42.75,0,0,1,9.89-39.6,36.18,36.18,0,0,1,3-2.94A42.68,42.68,0,0,1,185,165.12Z"/><path class="cls-2" d="M143.84,113.21a4.3,4.3,0,0,0-1.31.2A35.05,35.05,0,0,0,119.34,138a4.32,4.32,0,0,0,3.13,5.26,4.41,4.41,0,0,0,1.07.13,4.33,4.33,0,0,0,4.19-3.26,26.34,26.34,0,0,1,17.42-18.48,4.33,4.33,0,0,0-1.31-8.45Z"/><path class="cls-2" d="M150.1,82.18a4.32,4.32,0,0,0,4.32-4.33V60.25a4.33,4.33,0,1,0-8.65,0v17.6A4.33,4.33,0,0,0,150.1,82.18Z"/><path class="cls-2" d="M100.05,100.37a4.33,4.33,0,0,0,6.12-6.12L93.72,81.8a4.33,4.33,0,0,0-6.12,6.12Z"/><path class="cls-2" d="M88,144.29A4.32,4.32,0,0,0,83.64,140H66a4.33,4.33,0,1,0,0,8.66H83.64A4.32,4.32,0,0,0,88,144.29Z"/><path class="cls-2" d="M103.09,187a4.34,4.34,0,0,0-3.06,1.27L87.58,200.67a4.33,4.33,0,1,0,6.12,6.12l12.45-12.45a4.33,4.33,0,0,0-3.06-7.39Z"/><path class="cls-2" d="M200.12,188.24a4.32,4.32,0,0,0-6.12,6.11l12.45,12.45a4.32,4.32,0,1,0,6.12-6.11Z"/><path class="cls-2" d="M234.14,140H216.53a4.33,4.33,0,0,0,0,8.65h17.61a4.33,4.33,0,1,0,0-8.65Z"/><path class="cls-2" d="M197.08,101.65a4.3,4.3,0,0,0,3.06-1.27l12.45-12.45a4.33,4.33,0,0,0-6.12-6.12L194,94.27a4.33,4.33,0,0,0,3.06,7.38Z"/></svg>