<svg xmlns="http://www.w3.org/2000/svg" viewBox="0 0 65 65"><defs><style>.cls-1{fill:#1ab4ff;}.cls-2{fill:#fff;}</style></defs><title>Icon_BlueFill_Risk_Aware</title><g id="Layer_2" data-name="Layer 2"><g id="Layer_3" data-name="Layer 3"><circle class="cls-1" cx="32.5" cy="32.5" r="31.5"/><path class="cls-1" d="M32.5,2A30.5,30.5,0,1,1,2,32.5,30.53,30.53,0,0,1,32.5,2m0-2A32.5,32.5,0,1,0,65,32.5,32.5,32.5,0,0,0,32.5,0Z"/><path class="cls-2" d="M52,45.93l-18.56-32a1.13,1.13,0,0,0-1.88,0L13,45.93A1.07,1.07,0,0,0,13,47a1.08,1.08,0,0,0,.94.55H51.06A1.08,1.08,0,0,0,52,47,1.07,1.07,0,0,0,52,45.93Zm-36.17-.54L32.5,16.65,49.17,45.39Z"/><path class="cls-2" d="M34.38,26.45,33.27,36.87a.8.8,0,0,1-.8.72h0a.81.81,0,0,1-.8-.72L30.62,26.44a1.89,1.89,0,0,1,1.88-2.08h0A1.89,1.89,0,0,1,34.38,26.45Z"/><rect class="cls-2" x="30.66" y="39.88" width="3.68" height="3.69" rx="1.84"/></g></g></svg>