<svg xmlns="http://www.w3.org/2000/svg" viewBox="0 0 65 65"><defs><style>.cls-1{fill:#1ab4ff;}.cls-2{fill:#fff;fill-rule:evenodd;}</style></defs><title>Icon_BlueFill_Glassdoor</title><g id="Layer_2" data-name="Layer 2"><g id="Layer_1-2" data-name="Layer 1"><circle class="cls-1" cx="32.5" cy="32.5" r="31.5"/><path class="cls-1" d="M32.5,2A30.5,30.5,0,1,1,2,32.5,30.53,30.53,0,0,1,32.5,2m0-2A32.5,32.5,0,1,0,65,32.5,32.5,32.5,0,0,0,32.5,0Z"/><path id="icon" class="cls-2" d="M40.7,13.36a5.46,5.46,0,0,1,5.47,5.47H24.3V41.29a.2.2,0,0,1-.2.2H19a.2.2,0,0,1-.2-.2V18.83h0a5.46,5.46,0,0,1,5.47-5.47H40.7Zm0,32.81H18.83a5.46,5.46,0,0,0,5.47,5.47H40.7a5.46,5.46,0,0,0,5.47-5.47h0V23.71a.2.2,0,0,0-.2-.2H40.9a.2.2,0,0,0-.2.2Z"/></g></g></svg>