<svg xmlns="http://www.w3.org/2000/svg" viewBox="0 0 65 65"><defs><style>.cls-1{fill:#1ab4ff;}.cls-2{fill:#fff;}</style></defs><title>Icon_BlueFill_Contract_Management</title><g id="Layer_2" data-name="Layer 2"><g id="Layer_2-2" data-name="Layer 2"><circle class="cls-1" cx="32.5" cy="32.5" r="31.5"/><path class="cls-1" d="M32.5,2A30.5,30.5,0,1,1,2,32.5,30.53,30.53,0,0,1,32.5,2m0-2A32.5,32.5,0,1,0,65,32.5,32.5,32.5,0,0,0,32.5,0Z"/><path class="cls-2" d="M50.06,18.6a1,1,0,0,0-.31-.74l-2.13-2.13a1.05,1.05,0,0,0-1.47,0L44.2,17.68a3.77,3.77,0,0,0-4.46.6l-.37.37-2.21-2.2a1.05,1.05,0,0,0-1.47,0l-7.44,7.44a1.05,1.05,0,0,0,0,1.47,1.06,1.06,0,0,0,1.48,0l6.7-6.7,1.46,1.47-18.4,18.4c0,.06-.08.11-.15.23a1.18,1.18,0,0,0-.08.23L17.5,46.5l-1.29,1.29a1,1,0,0,0,1.48,1.48L19,48l7.56-1.77a1.56,1.56,0,0,0,.24-.1A1.67,1.67,0,0,0,27,46L46.12,26.82l.1-.1,1-1a3.72,3.72,0,0,0,.6-4.46l2-2A1,1,0,0,0,50.06,18.6Zm-6.18,7.51L26.26,43.73l-4.51-4.51L39.37,21.6Zm1.47-1.47-4.51-4.51.37-.37a1.67,1.67,0,0,1,2.31,0l2.2,2.2a1.63,1.63,0,0,1,0,2.31Zm.7-5.87.83-.83.66.66-.83.83ZM19.85,45.63l1-4.34,3.33,3.33Zm-.15-6.74Zm7,6.82Z"/></g></g></svg>