<svg xmlns="http://www.w3.org/2000/svg" xmlns:xlink="http://www.w3.org/1999/xlink" viewBox="0 0 178 178"><defs><style>.cls-1{fill:none;}.cls-2{fill:#ee7025;}.cls-3{fill:#fff;}.cls-4{clip-path:url(#clip-path);}.cls-5{clip-path:url(#clip-path-2);}</style><clipPath id="clip-path"><polygon class="cls-1" points="39.2 124 138.35 124 121.82 95.38 55.73 95.38 39.2 124"/></clipPath><clipPath id="clip-path-2"><polygon class="cls-1" points="72.25 66.76 55.73 95.38 121.82 95.38 105.3 66.76 72.25 66.76"/></clipPath></defs><title>icon-riskManagement</title><g id="Layer_2" data-name="Layer 2"><g id="Layer_1-2" data-name="Layer 1"><circle class="cls-2" cx="89" cy="89" r="89"/><path class="cls-3" d="M87.34,37.9,70.82,66.52c-.36.62,1.1.84,1.4.84h33.05c.21,0,1.85,0,1.48-.68L90.23,38.06c-.44-.76-3.32-.56-2.91.16l16.53,28.62,1.48-.68h-33l1.41.84L90.21,38.37C90.65,37.61,87.77,37.16,87.34,37.9Z"/><path class="cls-3" d="M39.53,124.62h99.14c.23,0,1.44-.07,1.13-.6L123.28,95.4c-.3-.52-1.26-.64-1.78-.64H55.4c-.26,0-.92,0-1.09.28L37.79,123.66c-.47.8,2.41,1.4,2.83.68L57.14,95.72,56.05,96h66.1l-1.78-.64L136.89,124l1.13-.6H38.88C36.84,123.38,38.22,124.62,39.53,124.62Z"/><g class="cls-4"><path class="cls-3" d="M155,103.24l-.07,0,.64.44,0-.07-2.78.13.1.1a2.68,2.68,0,0,0,2,.46c.4,0,1.11-.28.64-.75l-.11-.1a2.6,2.6,0,0,0-1.82-.47c-.29,0-1.17.11-1,.6.13.3.46.41.74.54a2.63,2.63,0,0,0,2.06,0C156,103.78,155.33,103.38,155,103.24Z"/><path class="cls-3" d="M146.83,103.24l-.07,0,.64.44,0-.07-2.78.13.1.1a2.71,2.71,0,0,0,2,.46c.39,0,1.1-.28.63-.75l-.1-.1a2.63,2.63,0,0,0-1.83-.47c-.29,0-1.17.11-.95.6a1.31,1.31,0,0,0,.74.54,2.66,2.66,0,0,0,2.07,0C147.87,103.78,147.15,103.38,146.83,103.24Z"/><path class="cls-3" d="M138.65,103.24l-.07,0,.64.44,0-.07-2.77.13.1.1a2.68,2.68,0,0,0,2,.46c.39,0,1.1-.28.63-.75l-.1-.1a2.63,2.63,0,0,0-1.83-.47c-.29,0-1.17.11-.95.6.14.3.46.41.75.54a2.63,2.63,0,0,0,2.06,0C139.69,103.78,139,103.38,138.65,103.24Z"/><path class="cls-3" d="M130.48,103.24l-.07,0,.64.44,0-.07-2.78.13.1.1a2.68,2.68,0,0,0,2,.46c.4,0,1.1-.28.63-.75l-.1-.1a2.63,2.63,0,0,0-1.83-.47c-.28,0-1.16.11-.94.6.13.3.46.41.74.54a2.63,2.63,0,0,0,2.06,0C131.51,103.78,130.8,103.38,130.48,103.24Z"/><path class="cls-3" d="M122.3,103.24l-.07,0,.64.44,0-.07-2.78.13.1.1a2.69,2.69,0,0,0,2,.46c.4,0,1.11-.28.64-.75l-.1-.1a2.64,2.64,0,0,0-1.83-.47c-.29,0-1.17.11-.95.6.13.3.46.41.74.54a2.63,2.63,0,0,0,2.06,0C123.33,103.78,122.62,103.38,122.3,103.24Z"/><path class="cls-3" d="M114.12,103.24l-.07,0,.64.44,0-.07-2.78.13.11.1a2.68,2.68,0,0,0,2,.46c.39,0,1.1-.28.63-.75l-.1-.1a2.63,2.63,0,0,0-1.83-.47c-.29,0-1.17.11-1,.6a1.31,1.31,0,0,0,.74.54,2.66,2.66,0,0,0,2.07,0C115.16,103.78,114.44,103.38,114.12,103.24Z"/><path class="cls-3" d="M105.94,103.24l-.07,0,.64.44,0-.07-2.77.13.1.1a2.68,2.68,0,0,0,2,.46c.39,0,1.1-.28.63-.75l-.1-.1a2.63,2.63,0,0,0-1.83-.47c-.29,0-1.17.11-1,.6.14.3.46.41.75.54a2.63,2.63,0,0,0,2.06,0C107,103.78,106.27,103.38,105.94,103.24Z"/><path class="cls-3" d="M97.77,103.24l-.07,0,.64.44,0-.07-2.78.13.1.1a2.68,2.68,0,0,0,2,.46c.4,0,1.1-.28.64-.75l-.11-.1a2.63,2.63,0,0,0-1.83-.47c-.28,0-1.16.11-.94.6.13.3.46.41.74.54a2.63,2.63,0,0,0,2.06,0C98.8,103.78,98.09,103.38,97.77,103.24Z"/><path class="cls-3" d="M89.59,103.24l-.07,0,.64.44,0-.07-2.78.13.1.1a2.69,2.69,0,0,0,2,.46c.4,0,1.11-.28.64-.75l-.1-.1a2.64,2.64,0,0,0-1.83-.47c-.29,0-1.17.11-1,.6.13.3.46.41.74.54a2.63,2.63,0,0,0,2.06,0C90.62,103.78,89.91,103.38,89.59,103.24Z"/><path class="cls-3" d="M81.41,103.24l-.07,0,.64.44,0-.07-2.78.13.11.1a2.68,2.68,0,0,0,2,.46c.39,0,1.1-.28.63-.75l-.1-.1a2.63,2.63,0,0,0-1.83-.47c-.29,0-1.17.11-.95.6a1.31,1.31,0,0,0,.74.54,2.66,2.66,0,0,0,2.07,0C82.45,103.78,81.74,103.38,81.41,103.24Z"/><path class="cls-3" d="M73.23,103.24l-.07,0,.65.44,0-.07L71,103.7l.1.1a2.68,2.68,0,0,0,2,.46c.39,0,1.1-.28.63-.75l-.1-.1a2.63,2.63,0,0,0-1.83-.47c-.29,0-1.17.11-1,.6.14.3.46.41.75.54a2.63,2.63,0,0,0,2.06,0C74.27,103.78,73.56,103.38,73.23,103.24Z"/><path class="cls-3" d="M65.06,103.24l-.07,0,.64.44,0-.07-2.78.13.1.1a2.68,2.68,0,0,0,2,.46c.4,0,1.1-.28.64-.75l-.11-.1a2.62,2.62,0,0,0-1.83-.47c-.28,0-1.16.11-.94.6.13.3.46.41.74.54a2.63,2.63,0,0,0,2.06,0C66.09,103.78,65.38,103.38,65.06,103.24Z"/><path class="cls-3" d="M56.88,103.24l-.07,0,.64.44,0-.07-2.78.13.1.1a2.69,2.69,0,0,0,2,.46c.4,0,1.11-.28.64-.75l-.1-.1a2.63,2.63,0,0,0-1.83-.47c-.29,0-1.17.11-1,.6.13.3.46.41.74.54a2.63,2.63,0,0,0,2.06,0C57.91,103.78,57.2,103.38,56.88,103.24Z"/><path class="cls-3" d="M48.7,103.24l-.07,0,.64.44,0-.07-2.78.13.11.1a2.68,2.68,0,0,0,2,.46c.39,0,1.1-.28.63-.75l-.1-.1a2.63,2.63,0,0,0-1.83-.47c-.29,0-1.17.11-1,.6a1.31,1.31,0,0,0,.74.54,2.66,2.66,0,0,0,2.07,0C49.74,103.78,49,103.38,48.7,103.24Z"/><path class="cls-3" d="M40.53,103.24l-.07,0,.64.44,0-.07-2.77.13.1.1a2.68,2.68,0,0,0,2,.46c.39,0,1.1-.28.63-.75l-.1-.1a2.63,2.63,0,0,0-1.83-.47c-.28,0-1.16.11-1,.6.14.3.46.41.75.54a2.63,2.63,0,0,0,2.06,0C41.56,103.78,40.85,103.38,40.53,103.24Z"/><path class="cls-3" d="M32.35,103.24l-.07,0,.64.44,0-.07-2.78.13.1.1a2.68,2.68,0,0,0,2,.46c.4,0,1.11-.28.64-.75l-.11-.1a2.62,2.62,0,0,0-1.83-.47c-.28,0-1.16.11-.94.6.13.3.46.41.74.54a2.63,2.63,0,0,0,2.06,0C33.38,103.78,32.67,103.38,32.35,103.24Z"/><path class="cls-3" d="M24.17,103.24l-.07,0,.64.44,0-.07-2.78.13.1.1a2.7,2.7,0,0,0,2,.46c.39,0,1.1-.28.63-.75l-.1-.1a2.63,2.63,0,0,0-1.83-.47c-.29,0-1.17.11-.95.6a1.31,1.31,0,0,0,.74.54,2.66,2.66,0,0,0,2.07,0C25.2,103.78,24.49,103.38,24.17,103.24Z"/><path class="cls-3" d="M155.43,115.44l-.07,0,.25.27,0-.07-2.9.59.11.1c.43.44,1.36.29,1.88.15.24-.06,1.35-.46.93-.88l-.1-.11c-.39-.38-1.22-.28-1.69-.18-.22,0-1.39.35-1.2.77a.56.56,0,0,0,.35.37,2.82,2.82,0,0,0,2.06-.08C155.33,116.2,156.06,115.72,155.43,115.44Z"/><path class="cls-3" d="M147.25,115.44l-.07,0,.25.27,0-.07-2.89.59.1.1c.43.44,1.36.29,1.89.15.23-.06,1.35-.46.92-.88l-.1-.11c-.39-.38-1.22-.28-1.69-.18-.22,0-1.39.35-1.2.77a.56.56,0,0,0,.35.37,2.82,2.82,0,0,0,2.06-.08C147.16,116.2,147.88,115.72,147.25,115.44Z"/><path class="cls-3" d="M139.08,115.44l-.07,0,.24.27,0-.07-2.89.59.1.1c.43.44,1.36.29,1.89.15.24-.06,1.35-.46.93-.88l-.1-.11c-.39-.38-1.23-.28-1.7-.18-.22,0-1.39.35-1.2.77a.61.61,0,0,0,.35.37,2.82,2.82,0,0,0,2.06-.08C139,116.2,139.7,115.72,139.08,115.44Z"/><path class="cls-3" d="M130.9,115.44l-.07,0,.25.27,0-.07-2.89.59.1.1c.44.44,1.37.29,1.89.15.24-.06,1.35-.46.93-.88l-.1-.11c-.39-.38-1.22-.28-1.69-.18-.23,0-1.39.35-1.2.77a.57.57,0,0,0,.34.37,2.85,2.85,0,0,0,2.07-.08C130.8,116.2,131.53,115.72,130.9,115.44Z"/><path class="cls-3" d="M122.72,115.44l-.07,0,.25.27,0-.07-2.89.59.1.1c.43.44,1.36.29,1.88.15.24-.06,1.36-.46.93-.88l-.1-.11c-.39-.38-1.22-.28-1.69-.18-.22,0-1.39.35-1.2.77a.56.56,0,0,0,.35.37,2.82,2.82,0,0,0,2.06-.08C122.62,116.2,123.35,115.72,122.72,115.44Z"/><path class="cls-3" d="M114.54,115.44l-.07,0,.25.27,0-.07-2.89.59.1.1c.43.44,1.36.29,1.89.15.23-.06,1.35-.46.93-.88l-.11-.11c-.39-.38-1.22-.28-1.69-.18-.22,0-1.39.35-1.2.77a.61.61,0,0,0,.35.37,2.82,2.82,0,0,0,2.06-.08C114.45,116.2,115.17,115.72,114.54,115.44Z"/><path class="cls-3" d="M106.37,115.44l-.07,0,.24.27,0-.07-2.89.59.1.1c.43.44,1.37.29,1.89.15.24-.06,1.35-.46.93-.88l-.1-.11c-.39-.38-1.22-.28-1.69-.18-.23,0-1.4.35-1.21.77a.61.61,0,0,0,.35.37,2.82,2.82,0,0,0,2.06-.08C106.27,116.2,107,115.72,106.37,115.44Z"/><path class="cls-3" d="M98.19,115.44l-.07,0,.25.27,0-.07-2.89.59.1.1c.44.44,1.37.29,1.89.15.24-.06,1.35-.46.93-.88l-.1-.11c-.39-.38-1.22-.28-1.69-.18-.23,0-1.39.35-1.2.77a.56.56,0,0,0,.35.37,2.82,2.82,0,0,0,2.06-.08C98.09,116.2,98.82,115.72,98.19,115.44Z"/><path class="cls-3" d="M90,115.44l-.07,0,.25.27,0-.07-2.89.59.1.1c.43.44,1.36.29,1.88.15.24-.06,1.36-.46.93-.88l-.1-.11c-.39-.38-1.22-.28-1.69-.18-.22,0-1.39.35-1.2.77a.56.56,0,0,0,.35.37,2.82,2.82,0,0,0,2.06-.08C89.92,116.2,90.64,115.72,90,115.44Z"/><path class="cls-3" d="M81.84,115.44l-.08,0,.25.27,0-.07-2.89.59.1.1c.43.44,1.36.29,1.89.15.23-.06,1.35-.46.93-.88l-.11-.11c-.39-.38-1.22-.28-1.69-.18-.22,0-1.39.35-1.2.77a.61.61,0,0,0,.35.37,2.82,2.82,0,0,0,2.06-.08C81.74,116.2,82.46,115.72,81.84,115.44Z"/><path class="cls-3" d="M73.66,115.44l-.07,0,.24.27,0-.07-2.89.59.1.1c.44.44,1.37.29,1.89.15.24-.06,1.35-.46.93-.88l-.1-.11c-.39-.38-1.22-.28-1.69-.18-.23,0-1.39.35-1.21.77a.61.61,0,0,0,.35.37,2.85,2.85,0,0,0,2.07-.08C73.56,116.2,74.29,115.72,73.66,115.44Z"/><path class="cls-3" d="M65.48,115.44l-.07,0,.25.27,0-.07-2.9.59.11.1c.43.44,1.36.29,1.88.15.24-.06,1.35-.46.93-.88l-.1-.11c-.39-.38-1.22-.28-1.69-.18-.22,0-1.39.35-1.2.77a.56.56,0,0,0,.35.37,2.82,2.82,0,0,0,2.06-.08C65.38,116.2,66.11,115.72,65.48,115.44Z"/><path class="cls-3" d="M57.3,115.44l-.07,0,.25.27,0-.07-2.89.59.1.1c.43.44,1.36.29,1.88.15.24-.06,1.36-.46.93-.88l-.1-.11c-.39-.38-1.22-.28-1.69-.18-.22,0-1.39.35-1.2.77a.56.56,0,0,0,.35.37,2.82,2.82,0,0,0,2.06-.08C57.21,116.2,57.93,115.72,57.3,115.44Z"/><path class="cls-3" d="M49.13,115.44l-.07,0,.24.27,0-.07-2.89.59.1.1c.43.44,1.36.29,1.89.15.23-.06,1.35-.46.93-.88l-.11-.11c-.38-.38-1.22-.28-1.69-.18-.22,0-1.39.35-1.2.77a.61.61,0,0,0,.35.37,2.82,2.82,0,0,0,2.06-.08C49,116.2,49.75,115.72,49.13,115.44Z"/><path class="cls-3" d="M41,115.44l-.07,0,.24.27,0-.07-2.89.59.1.1c.44.44,1.37.29,1.89.15.24-.06,1.35-.46.93-.88l-.1-.11c-.39-.38-1.22-.28-1.69-.18-.23,0-1.39.35-1.2.77a.57.57,0,0,0,.34.37,2.85,2.85,0,0,0,2.07-.08C40.85,116.2,41.58,115.72,41,115.44Z"/><path class="cls-3" d="M32.77,115.44l-.07,0,.25.27,0-.07-2.9.59.11.1c.43.44,1.36.29,1.88.15.24-.06,1.35-.46.93-.88l-.1-.11c-.39-.38-1.22-.28-1.69-.18-.22,0-1.39.35-1.2.77a.56.56,0,0,0,.35.37,2.82,2.82,0,0,0,2.06-.08C32.67,116.2,33.4,115.72,32.77,115.44Z"/><path class="cls-3" d="M24.59,115.44l-.07,0,.25.27,0-.07-2.89.59.1.1c.43.44,1.36.29,1.89.15.23-.06,1.35-.46.92-.88l-.1-.11c-.39-.38-1.22-.28-1.69-.18-.22,0-1.39.35-1.2.77a.56.56,0,0,0,.35.37,2.82,2.82,0,0,0,2.06-.08C24.5,116.2,25.22,115.72,24.59,115.44Z"/></g><g class="cls-5"><path class="cls-3" d="M31.49,114.06l-.14-.14-.17.63L62.5,83.23l49.85-49.85L123.7,22l-3.66,0,.14.14.17-.63L89,52.89,39.18,102.74,27.83,114.09c-1.08,1.08,2.74,1.36,3.5.6L62.64,83.37l49.85-49.84,11.35-11.36c.15-.14.39-.41.17-.62l-.15-.15a3.33,3.33,0,0,0-3.66,0L88.89,52.74,39,102.59,27.69,113.94c-.15.15-.38.41-.17.63l.15.15C28.52,115.57,32.16,114.74,31.49,114.06Z"/><path class="cls-3" d="M40.17,122.76l-.14-.14-.18.62L71.17,91.93,121,42.08l11.35-11.35-3.66,0,.14.14.17-.62L97.71,61.54,47.86,111.38,36.51,122.74c-1.08,1.08,2.73,1.41,3.49.65L71.31,92.07l49.85-49.85,11.35-11.35c.14-.14.39-.41.18-.62l-.15-.15a3.33,3.33,0,0,0-3.66,0L97.56,61.39,47.72,111.24,36.37,122.59c-.15.14-.4.41-.18.63l.15.14C37.19,124.22,40.83,123.42,40.17,122.76Z"/><path class="cls-3" d="M48.69,131.58l-.14-.14.11.64L80,100.76l49.85-49.85,11.35-11.35-3.65-.33.14.15-.11-.64L106.25,70.05,56.4,119.9,45.05,131.25c-.72.72,2.9,1.82,3.76,1L80.12,100.9,130,51.05,141.32,39.7c.21-.2.05-.47-.11-.64l-.15-.14c-.69-.69-2.87-1.1-3.64-.33L106.1,69.91,56.26,119.76,44.9,131.11c-.2.21,0,.48.12.64l.14.14C45.91,132.64,49.74,132.63,48.69,131.58Z"/><path class="cls-3" d="M57.48,140l-.14-.14-.12.63,31.32-31.31,49.84-49.85,11.36-11.35-3.65.28.14.14.12-.64L115,79,65.19,128.88,53.83,140.23c-1,1,2.77,1.12,3.53.36l31.32-31.32,49.85-49.85,11.35-11.35c.16-.16.33-.43.12-.64l-.14-.14c-.76-.75-2.94-.43-3.65.28L114.89,78.89,65,128.73,53.69,140.09c-.16.16-.33.43-.12.63l.14.15C54.56,141.71,58.21,140.67,57.48,140Z"/></g></g></g></svg>