<?xml version="1.0" encoding="utf-8"?>
<!-- Generator: Adobe Illustrator 24.1.0, SVG Export Plug-In . SVG Version: 6.00 Build 0)  -->
<svg version="1.1" id="Layer_1" xmlns="http://www.w3.org/2000/svg" xmlns:xlink="http://www.w3.org/1999/xlink" x="0px" y="0px"
	 viewBox="0 0 300 300" style="enable-background:new 0 0 300 300;" xml:space="preserve">
<style type="text/css">
	.st0{fill:#1AB4FF;}
	.st1{fill:#FFFFFF;}
</style>
<g>
	
		<ellipse transform="matrix(0.7071 -0.7071 0.7071 0.7071 -62.6842 149.1171)" class="st0" cx="148.7" cy="150.2" rx="147.2" ry="147.2"/>
	<path class="st0" d="M148.7,4c39.1,0,75.8,15.2,103.4,42.8c27.6,27.6,42.8,64.3,42.8,103.4s-15.2,75.8-42.8,103.4
		c-27.6,27.6-64.3,42.8-103.4,42.8s-75.8-15.2-103.4-42.8C17.6,226,2.4,189.3,2.4,150.2S17.6,74.4,45.3,46.8
		C72.9,19.2,109.6,4,148.7,4 M148.7,2C66.8,2,0.4,68.4,0.4,150.2s66.4,148.2,148.2,148.2s148.2-66.4,148.2-148.2S230.5,2,148.7,2
		L148.7,2z"/>
</g>
<path class="st1" d="M156.5,67.9H73.1c-0.3-3.7-1.5-6.7-3.9-8.8c-4-3.6-9.5-3.1-9.5-3.1h-5.4C53,56,52,57,52,58.3
	c0,1.3,1,2.3,2.3,2.3l5.7,0c0,0,3.8-0.3,6.3,1.9c1.6,1.5,2.4,3.8,2.4,7v0.2V120v8.8c0,0,0,0,0,0v2.5c0,0.5-0.1,4.6,2.5,7.3
	c1.1,1.1,2.5,1.8,4.1,2.1c0.8,5.2,5.3,9.2,10.7,9.2c5.2,0,9.6-3.7,10.7-8.6H122c1.1,4.9,5.4,8.6,10.7,8.6c6,0,10.9-4.9,10.9-10.9
	c0-6-4.9-10.9-10.9-10.9c-5.2,0-9.6,3.7-10.7,8.6H96.7c-1.1-4.9-5.4-8.6-10.7-8.6c-5,0-9.2,3.4-10.5,8.1c-0.5-0.2-0.9-0.4-1.1-0.6
	c-1.1-1.1-1.3-3.2-1.3-4v-2.6v-6.5h68.1c2.8,0,5.3-1.8,6.1-4.5L160.2,83c1.2-3.3,1.9-5.2,2.3-6.5l0.1,0c0.3-0.7,0.4-1.5,0.4-2.2
	C162.9,70.8,160.1,67.9,156.5,67.9z M132.7,132.6c3.5,0,6.4,2.8,6.4,6.4c0,3.5-2.8,6.3-6.4,6.3c-3.5,0-6.4-2.8-6.4-6.3
	C126.3,135.5,129.2,132.6,132.7,132.6z M86.1,132.6c3.5,0,6.4,2.8,6.4,6.4c0,3.5-2.8,6.3-6.4,6.3s-6.4-2.8-6.4-6.3
	C79.7,135.5,82.6,132.6,86.1,132.6z M158.3,75C158.2,75,158.2,75,158.3,75c-0.4,1-10,27.4-15.1,41.5c-0.2,0.8-1,1.4-1.8,1.4H73.2
	V72.5h83.3c1,0,1.9,0.8,1.9,1.9C158.4,74.5,158.3,74.7,158.3,75z"/>
<path class="st1" d="M165.4,215.6v-16.4c0-3.8-3.1-6.9-6.9-6.9h-5.2l-4.1-12.2c-0.4-1.1-1.6-1.8-2.7-1.5l-7.8,1.9l-8.2-10.2
	c-0.7-0.9-2-1.1-2.9-0.5l-38.3,22.5h-4c-3.8,0-6.9,3.1-6.9,6.9V254c0,3.8,3.1,6.9,6.9,6.9h73.2c3.8,0,6.9-3.1,6.9-6.9v-16.4
	c2.7-0.9,4.6-3.5,4.6-6.4V222C170,219,168.1,216.5,165.4,215.6z M128.3,174.7l5.6,7l-29.5,7.1L128.3,174.7z M145.6,183.6l2.9,8.7
	h-39.2L145.6,183.6z M158.6,256.3H85.4c-1.3,0-2.3-1-2.3-2.3v-54.9c0-1.3,1-2.3,2.3-2.3h73.2c1.3,0,2.3,1,2.3,2.3v16h-18.3
	c-3.8,0-6.9,3.1-6.9,6.9v9.1c0,3.8,3.1,6.9,6.9,6.9h18.3v16C160.9,255.3,159.8,256.3,158.6,256.3z M165.4,231.2c0,1.3-1,2.3-2.3,2.3
	h-20.6c-1.3,0-2.3-1-2.3-2.3V222c0-1.3,1-2.3,2.3-2.3h20.6c1.3,0,2.3,1,2.3,2.3V231.2z"/>
<g>
	<g>
		<path class="st1" d="M257.9,134l-27.4-29.1c-0.7-0.8-1.7-1.2-2.8-1.2h-38.8c-2.1,0-3.8,1.8-3.8,3.9v85.5c0,2.2,1.7,3.9,3.8,3.9
			h66.3c2.1,0,3.8-1.8,3.8-3.9v-56.4C259,135.7,258.6,134.7,257.9,134z M231,112l19.9,21.1H231V112z M189.6,192.5v-84.3h37v27.1
			c0,1.2,1,2.2,2.2,2.2h25.8v55H189.6z"/>
	</g>
	<path class="st1" d="M242.3,151.3h-39.5c-1.1,0-1.9-0.9-1.9-1.9s0.9-1.9,1.9-1.9h39.5c1.1,0,1.9,0.9,1.9,1.9
		S243.4,151.3,242.3,151.3z"/>
	<path class="st1" d="M242.3,161.5h-39.5c-1.1,0-1.9-0.9-1.9-1.9c0-1.1,0.9-1.9,1.9-1.9h39.5c1.1,0,1.9,0.9,1.9,1.9
		C244.2,160.6,243.4,161.5,242.3,161.5z"/>
	<path class="st1" d="M242.3,171.6h-39.5c-1.1,0-1.9-0.9-1.9-1.9c0-1.1,0.9-1.9,1.9-1.9h39.5c1.1,0,1.9,0.9,1.9,1.9
		C244.2,170.8,243.4,171.6,242.3,171.6z"/>
	<path class="st1" d="M242.3,181.8h-19.7c-1.1,0-1.9-0.9-1.9-1.9c0-1.1,0.9-1.9,1.9-1.9h19.7c1.1,0,1.9,0.9,1.9,1.9
		C244.2,181,243.4,181.8,242.3,181.8z"/>
</g>
</svg>
