<?xml version="1.0" encoding="utf-8"?>
<!-- Generator: Adobe Illustrator 25.0.1, SVG Export Plug-In . SVG Version: 6.00 Build 0)  -->
<svg version="1.1" id="virtual" xmlns="http://www.w3.org/2000/svg" xmlns:xlink="http://www.w3.org/1999/xlink" x="0px" y="0px"
	 viewBox="0 0 121 98" style="enable-background:new 0 0 121 98;" xml:space="preserve">
<style type="text/css">
	.st0{opacity:0.5;fill:#49C0B6;enable-background:new    ;}
	.st1{fill:none;stroke:#091A34;stroke-width:1.5;stroke-linecap:round;stroke-linejoin:round;}
	.st2{fill:none;stroke:#091A34;stroke-width:1.5;stroke-linejoin:round;}
</style>
<circle id="Ellipse_1_copy" class="st0" cx="26" cy="26" r="26"/>
<g>
	<line class="st1" x1="65.2" y1="96.6" x2="66.9" y2="86.1"/>
	<line class="st1" x1="91.3" y1="96.6" x2="59.9" y2="96.6"/>
	<line class="st1" x1="84.3" y1="86.1" x2="86.1" y2="96.6"/>
	<line class="st2" x1="32" y1="75.6" x2="119.2" y2="75.6"/>
	<line class="st1" x1="32" y1="49.5" x2="119.2" y2="49.5"/>
	<path class="st1" d="M116.2,86.1H35c-1.7,0-3-1.3-3-3V26.3c0-1.7,1.3-3,3-3h81.2c1.7,0,3,1.3,3,3v56.8
		C119.2,84.8,117.9,86.1,116.2,86.1z"/>
	<line class="st1" x1="75.6" y1="23.3" x2="75.6" y2="75.6"/>
	<circle class="st2" cx="52.9" cy="34.7" r="4.4"/>
	<path class="st1" d="M46,49.5v-1.7c0-3.9,3.1-7,7-7c3.9,0,7,3.1,7,7v1.7"/>
	<circle class="st2" cx="52.9" cy="60.8" r="4.4"/>
	<path class="st1" d="M46,75.6v-1.7c0-3.9,3.1-7,7-7c3.9,0,7,3.1,7,7v1.7"/>
	<circle class="st2" cx="98.3" cy="60.8" r="4.4"/>
	<path class="st1" d="M91.3,75.6v-1.7c0-3.9,3.1-7,7-7c3.9,0,7,3.1,7,7v1.7"/>
	<circle class="st2" cx="98.3" cy="34.7" r="4.4"/>
	<path class="st1" d="M91.3,49.5v-1.7c0-3.9,3.1-7,7-7c3.9,0,7,3.1,7,7v1.7"/>
</g>
</svg>
