<svg xmlns="http://www.w3.org/2000/svg" version="1.1" xmlns:xlink="http://www.w3.org/1999/xlink" xmlns:svgjs="http://svgjs.dev/svgjs" width="128" height="128" viewBox="0 0 128 128"><g transform="matrix(0.8046875,0,0,0.8046875,12.495036144578329,15.96664566532258)"><svg viewBox="0 0 166 155" data-background-color="#398378" preserveAspectRatio="xMidYMid meet" height="119" width="128" xmlns="http://www.w3.org/2000/svg" xmlns:xlink="http://www.w3.org/1999/xlink"><defs></defs><g id="tight-bounds" transform="matrix(1,0,0,1,0.007999999999981355,0.25)"><svg viewBox="0 0 154.5 154.5" height="154.5" width="154.5"><g><svg></svg></g><g><svg viewBox="0 0 154.5 154.5" height="154.5" width="154.5"><g transform="matrix(1,0,0,1,62.550870551785714,47.746371)"><svg viewBox="0 0 29.39825889642857 59.00725799999999" height="59.00725799999999" width="29.39825889642857"><g><svg viewBox="0 0 29.39825889642857 59.00725799999999" height="59.00725799999999" width="29.39825889642857"><g><svg viewBox="0 0 29.39825889642857 59.00725799999999" height="59.00725799999999" width="29.39825889642857"><g><svg viewBox="0 0 29.39825889642857 59.00725799999999" height="59.00725799999999" width="29.39825889642857"><g><svg viewBox="0 0 29.39825889642857 59.00725799999999" height="59.00725799999999" width="29.39825889642857"><g transform="matrix(1,0,0,1,0,0)"><svg width="29.39825889642857" viewBox="3.75 -28 13.95 28" height="59.00725799999999" data-palette-color="#31c48d"><path d="M9.45-23.55Q10.7-25.65 12.78-26.83 14.85-28 17.7-28L17.7-28 17.7-22.1 16.25-22.1Q12.9-22.1 11.18-20.4 9.45-18.7 9.45-14.5L9.45-14.5 9.45 0 3.75 0 3.75-27.55 9.45-27.55 9.45-23.55Z" opacity="1" transform="matrix(1,0,0,1,0,0)" fill="#000000" class="undefined-text-0" data-fill-palette-color="primary" id="text-0"></path></svg></g></svg></g></svg></g></svg></g></svg></g></svg></g><path d="M165.984 41.746L165.984 0 11.484 0 11.484 154.5 165.984 154.5 165.984 112.754 160.662 112.754 160.662 149.179 16.805 149.179 16.805 5.321 160.662 5.321 160.662 41.746Z" fill="#000000" stroke="transparent" data-fill-palette-color="primary"></path></svg></g></svg><rect width="154.5" height="154.5" fill="none" stroke="none" visibility="hidden"></rect></g></svg></g></svg>