<svg xmlns="http://www.w3.org/2000/svg" viewBox="0 0 313.6 94.6"><defs><style>.cls-1{fill-rule:evenodd;}</style></defs><g id="Layer_2" data-name="Layer 2"><g id="Layer_1-2" data-name="Layer 1"><path class="cls-1" d="M194.6,74C176.4,87.4,150,94.6,127.2,94.6A121.9,121.9,0,0,1,44.9,63.2c-1.7-1.5-.2-3.6,1.9-2.5a166,166,0,0,0,82.4,21.9A163,163,0,0,0,192,69.7C195,68.4,197.6,71.8,194.6,74Z"/><path class="cls-1" d="M202.2,65.3c-2.3-3-15.4-1.4-21.3-.7-1.8.2-2.1-1.3-.5-2.5,10.4-7.3,27.5-5.2,29.5-2.8s-.5,19.6-10.3,27.8c-1.5,1.3-2.9.6-2.3-1.1C199.6,80.6,204.5,68.3,202.2,65.3Z"/><path class="cls-1" d="M181.3,10.4V3.3a1.73,1.73,0,0,1,1.8-1.8H215a1.73,1.73,0,0,1,1.8,1.8V9.4c0,1-.9,2.4-2.4,4.5L197.9,37.5c6.1-.1,12.6.8,18.2,3.9a3.23,3.23,0,0,1,1.7,2.8v7.6a1.7,1.7,0,0,1-2.4,1.6,36.77,36.77,0,0,0-33.7.1c-1.1.6-2.3-.6-2.3-1.7V44.6a8.35,8.35,0,0,1,1.2-4.9l19.2-27.5H183.1A1.73,1.73,0,0,1,181.3,10.4Z"/><path class="cls-1" d="M64.9,54.9H55.2a1.82,1.82,0,0,1-1.7-1.6V3.5a1.82,1.82,0,0,1,1.9-1.8h9a1.92,1.92,0,0,1,1.8,1.7V9.9h.2C68.8,3.6,73.2.7,79.2.7s9.9,2.9,12.6,9.2A13.78,13.78,0,0,1,105.2.7a13.63,13.63,0,0,1,11.2,5.5c3.1,4.2,2.4,10.3,2.4,15.6V53.2a1.82,1.82,0,0,1-1.9,1.8h-9.7a1.77,1.77,0,0,1-1.7-1.8V26.8c0-2.1.2-7.3-.3-9.3-.7-3.4-2.9-4.3-5.7-4.3a6.43,6.43,0,0,0-5.8,4.1c-1,2.5-.9,6.7-.9,9.5V53.2A1.82,1.82,0,0,1,90.9,55H81.2a1.77,1.77,0,0,1-1.7-1.8V26.8c0-5.6.9-13.7-6-13.7s-6.7,8-6.7,13.7V53.2A1.87,1.87,0,0,1,64.9,54.9Z"/><path class="cls-1" d="M244.3.5c14.4,0,22.2,12.4,22.2,28.1,0,15.2-8.6,27.3-22.2,27.3-14.1,0-21.8-12.4-21.8-27.8S230.3.5,244.3.5Zm.1,10.2c-7.2,0-7.6,9.7-7.6,15.8s-.1,19.1,7.5,19.1,7.9-10.5,7.9-16.9c0-4.2-.2-9.2-1.5-13.2C249.7,12.1,247.5,10.7,244.4,10.7Z"/><path class="cls-1" d="M285.2,54.9h-9.7a1.77,1.77,0,0,1-1.7-1.8V3.3a1.86,1.86,0,0,1,1.9-1.6h9a1.81,1.81,0,0,1,1.7,1.4v7.6h.2C289.3,3.9,293.1.6,299.8.6c4.3,0,8.6,1.6,11.3,5.9,2.5,4,2.5,10.7,2.5,15.5V53.4a1.86,1.86,0,0,1-1.9,1.6H302a1.82,1.82,0,0,1-1.7-1.6V26.2c0-5.5.6-13.4-6.1-13.4a6.33,6.33,0,0,0-5.6,4c-1.4,3-1.5,6.1-1.5,9.4V53A1.84,1.84,0,0,1,285.2,54.9Z"/><path class="cls-1" d="M155.9,31.1c0,3.8.1,6.9-1.8,10.3a7.88,7.88,0,0,1-6.7,4.4c-3.7,0-5.9-2.8-5.9-7,0-8.3,7.4-9.8,14.4-9.8Zm9.8,23.6a2,2,0,0,1-2.3.2,24.66,24.66,0,0,1-5.6-6.5c-5.3,5.4-9.1,7.1-16,7.1-8.2,0-14.5-5-14.5-15.1a16.6,16.6,0,0,1,10.4-15.9c5.3-2.3,12.6-2.7,18.3-3.4V19.8c0-2.3.2-5-1.2-7a6.48,6.48,0,0,0-5.4-2.5c-3.7,0-7,1.9-7.8,5.8a2.13,2.13,0,0,1-1.7,1.8l-9.4-1a1.62,1.62,0,0,1-1.4-2C131.3,3.5,141.6,0,150.8,0c4.7,0,10.9,1.3,14.6,4.8,4.7,4.4,4.3,10.3,4.3,16.7V36.7c0,4.6,1.9,6.5,3.7,9,.6.9.8,1.9,0,2.6-2.3,1.7-5.8,4.7-7.7,6.4Z"/><path class="cls-1" d="M28.6,31.1c0,3.8.1,6.9-1.8,10.3a7.88,7.88,0,0,1-6.7,4.4c-3.7,0-5.9-2.8-5.9-7,0-8.3,7.4-9.8,14.4-9.8Zm9.8,23.6a2,2,0,0,1-2.3.2,24.66,24.66,0,0,1-5.6-6.5c-5.3,5.4-9.1,7.1-16,7.1C6.3,55.5,0,50.5,0,40.4A16.6,16.6,0,0,1,10.4,24.5c5.3-2.3,12.6-2.7,18.3-3.4V19.8c0-2.3.2-5-1.2-7a6.48,6.48,0,0,0-5.4-2.5c-3.7,0-7,1.9-7.8,5.8a2.13,2.13,0,0,1-1.7,1.8l-9.4-1a1.62,1.62,0,0,1-1.4-2C4,3.5,14.3,0,23.5,0c4.7,0,10.9,1.3,14.6,4.8,4.7,4.4,4.3,10.3,4.3,16.7V36.7c0,4.6,1.9,6.5,3.7,9,.6.9.8,1.9,0,2.6-2.2,1.7-5.7,4.7-7.7,6.4Z"/></g></g></svg>