<svg id="Layer_1" data-name="Layer 1" xmlns="http://www.w3.org/2000/svg" viewBox="0 0 180 180"><defs><style>.cls-1{fill:#1ab4ff;}.cls-2{fill:#fff;}</style></defs><title>Asset_video_200</title><circle class="cls-1" cx="100.32" cy="100.07" r="89" transform="translate(-40.98 35.94) rotate(-22.5)"/><path class="cls-1" d="M100.32,12.07a88,88,0,1,1-88,88,88.1,88.1,0,0,1,88-88m0-2a90,90,0,1,0,90,90,90,90,0,0,0-90-90Z" transform="translate(-10.32 -10.07)"/><path class="cls-2" d="M74.44,144.39a5.22,5.22,0,0,1-2.74-.77,6,6,0,0,1-2.82-5.18V61.69a6.05,6.05,0,0,1,2.81-5.17,5.23,5.23,0,0,1,5.18-.18L150.5,94.47a6.15,6.15,0,0,1,0,10.7L76.89,143.78A5.2,5.2,0,0,1,74.44,144.39Zm0-83.07c0,.06,0,.19,0,.37v76.75a.54.54,0,0,0,.15.44L148,100.27a.56.56,0,0,0,.15-.44c0-.25-.09-.42-.15-.44Z" transform="translate(-10.32 -10.07)"/></svg>