<svg id="Layer_1" data-name="Layer 1" xmlns="http://www.w3.org/2000/svg" viewBox="0 0 180 180"><defs><style>.cls-1{fill:#1ab4ff;}.cls-2{fill:#fff;}</style></defs><title>Asset_content_200</title><circle class="cls-1" cx="99.82" cy="100.07" r="89" transform="translate(-40.52 35.75) rotate(-22.5)"/><path class="cls-1" d="M99.82,12.07a88,88,0,1,1-88,88,88.1,88.1,0,0,1,88-88m0-2a90,90,0,1,0,90,90,90,90,0,0,0-90-90Z" transform="translate(-9.82 -10.07)"/><path class="cls-2" d="M141.61,78.06l-29-31.64a4,4,0,0,0-2.91-1.3h-41a4.15,4.15,0,0,0-4,4.25v93a4.15,4.15,0,0,0,4,4.25h70a4.15,4.15,0,0,0,4-4.25V81A4.33,4.33,0,0,0,141.61,78.06ZM113.2,54.12l21,22.93h-21ZM138,141.79H69.42V50H108.5V79.48a2.39,2.39,0,0,0,2.35,2.44H138Z" transform="translate(-9.82 -10.07)"/></svg>