<svg id="Layer_1" data-name="Layer 1" xmlns="http://www.w3.org/2000/svg" viewBox="0 0 65 65"><defs><style>.cls-1{fill:#1ab4ff;}.cls-2{fill:#fff;}</style></defs><title>asset_world_200</title><path class="cls-1" d="M100.1,131.41a31.5,31.5,0,1,1,31.5-31.5A31.53,31.53,0,0,1,100.1,131.41Z" transform="translate(-67.6 -67.41)"/><path class="cls-1" d="M100.1,69.41a30.5,30.5,0,1,1-30.5,30.5,30.53,30.53,0,0,1,30.5-30.5m0-2a32.5,32.5,0,1,0,32.5,32.5,32.5,32.5,0,0,0-32.5-32.5Z" transform="translate(-67.6 -67.41)"/><path class="cls-2" d="M100.1,81.7a18.21,18.21,0,1,0,18.21,18.21A18.23,18.23,0,0,0,100.1,81.7Zm13.06,27.36a28.72,28.72,0,0,0-4.45-1.15,33,33,0,0,0,.93-7.09h6.8a16.3,16.3,0,0,1-2.93,8.48A1,1,0,0,0,113.16,109.06Zm-26.46.25a16.23,16.23,0,0,1-2.94-8.49h6.8a33.05,33.05,0,0,0,.93,7.1,28.28,28.28,0,0,0-4.44,1.15A.88.88,0,0,0,86.7,109.31Zm.35-18.57a27.22,27.22,0,0,0,4.44,1.15A33.06,33.06,0,0,0,90.56,99h-6.8a16.26,16.26,0,0,1,2.94-8.5A.88.88,0,0,0,87.05,90.74Zm14,1.87a49.69,49.69,0,0,0,5.88-.43,30,30,0,0,1,.92,6.82H101Zm0-1.82V83.65c2.17.57,4.09,3.13,5.34,6.77A49.75,49.75,0,0,1,101,90.79Zm-1.82-7.14v7.14a49.68,49.68,0,0,1-5.34-.38C95.1,86.78,97,84.22,99.19,83.65Zm0,9V99H92.38a30.61,30.61,0,0,1,.93-6.82A51.9,51.9,0,0,0,99.19,92.61Zm-6.81,8.21h6.81v6.39a49.69,49.69,0,0,0-5.88.43A30.61,30.61,0,0,1,92.38,100.82ZM99.19,109v7.14c-2.17-.57-4.09-3.13-5.34-6.76A47.24,47.24,0,0,1,99.19,109Zm1.82,7.14V109a47.3,47.3,0,0,1,5.34.37C105.1,113,103.18,115.6,101,116.17Zm0-9v-6.39h6.8a30,30,0,0,1-.92,6.81A49.74,49.74,0,0,0,101,107.21ZM109.64,99a33.05,33.05,0,0,0-.93-7.1,28.76,28.76,0,0,0,4.45-1.14.87.87,0,0,0,.35-.25A16.31,16.31,0,0,1,116.44,99Zm2.74-9.91a25.73,25.73,0,0,1-4.18,1,17,17,0,0,0-3.13-5.85A16.48,16.48,0,0,1,112.38,89.09Zm-17.25-4.8A17,17,0,0,0,92,90.13a25.59,25.59,0,0,1-4.17-1A16.49,16.49,0,0,1,95.13,84.29Zm-7.3,26.44a27.82,27.82,0,0,1,4.17-1,16.87,16.87,0,0,0,3.13,5.84A16.4,16.4,0,0,1,87.83,110.73Zm17.24,4.79a16.92,16.92,0,0,0,3.13-5.85,28,28,0,0,1,4.18,1A16.4,16.4,0,0,1,105.07,115.52Z" transform="translate(-67.6 -67.41)"/></svg>