<svg id="Layer_1" data-name="Layer 1" xmlns="http://www.w3.org/2000/svg" viewBox="0 0 300 300"><defs><style>.cls-1{fill:#1ab4ff;}.cls-2{fill:#fff;stroke:#fff;stroke-miterlimit:10;stroke-width:0.5px;}</style></defs><circle class="cls-1" cx="150" cy="150" r="136"/><path class="cls-1" d="M150,15a135,135,0,0,1,95.46,230.46A135,135,0,0,1,54.54,54.54,134.11,134.11,0,0,1,150,15m0-2A137,137,0,1,0,287,150,137,137,0,0,0,150,13Z"/><path class="cls-2" d="M224,84.5H76A10.58,10.58,0,0,0,65.4,95.08v98.69A10.58,10.58,0,0,0,76,204.35h42.3v14.1H107.7a3.53,3.53,0,0,0,0,7.05h84.6a3.53,3.53,0,0,0,0-7.05H181.72v-14.1H224a10.58,10.58,0,0,0,10.58-10.58V95.08A10.58,10.58,0,0,0,224,84.5Zm-148,7H224a3.53,3.53,0,0,1,3.53,3.53v84.59H72.45V95.08A3.53,3.53,0,0,1,76,91.55Zm98.69,126.9H125.33v-14.1h49.34ZM224,197.3H76a3.53,3.53,0,0,1-3.53-3.53v-7.05h155.1v7.05A3.53,3.53,0,0,1,224,197.3Z"/></svg>