<?xml version="1.0" encoding="utf-8"?>
<!-- Generator: Adobe Illustrator 25.0.1, SVG Export Plug-In . SVG Version: 6.00 Build 0)  -->
<svg version="1.1" id="customer" xmlns="http://www.w3.org/2000/svg" xmlns:xlink="http://www.w3.org/1999/xlink" x="0px" y="0px"
	 viewBox="0 0 94.7 98" style="enable-background:new 0 0 94.7 98;" xml:space="preserve">
<style type="text/css">
	.st0{opacity:0.5;fill:#49C0B6;enable-background:new    ;}
	.st1{fill:none;stroke:#091A34;stroke-width:2;stroke-linecap:round;stroke-linejoin:round;}
	.st2{fill:none;stroke:#091A34;stroke-width:2;stroke-linejoin:round;}
</style>
<circle id="Ellipse_1_copy_2" class="st0" cx="65.7" cy="29" r="29"/>
<g>
	<path class="st1" d="M4.5,87.8v-3.3c0-3.5,2-6.7,5.2-8.2L27,68.3l9,25.5l4.5-15"/>
	<path class="st1" d="M79.5,87.8v-3.3c0-3.5-2-6.7-5.2-8.2L57,68.3l-9,25.5l-4.5-15"/>
	<path class="st1" d="M25.5,50.3c-2.6,0-3.8-2.7-3.8-5.3c0-2.6,1.2-3.8,3.8-3.8c0-5.7,1.8-11.7,4.7-11.7c4.4,0,8.9,2.6,14.4,2.6
		c6.7,0,11.8-3.9,11.8-3.9s2.1,6.5,2.1,13c2.6,0,3.8,1.2,3.8,3.8c0,2.6-1.2,5.3-3.8,5.3c0,10.5-7.5,19.5-16.5,19.5
		C33,69.8,25.5,60.8,25.5,50.3z"/>
	<path class="st2" d="M62,43.3c2.4-13,0.7-23.5-4.9-23.5c-2.6-7-7.9-7-11.8-7c-15.2,0-27.4,6-23.6,31.5"/>
	<polyline class="st1" points="46.5,74.3 43.5,78.8 40.5,78.8 37.5,74.3 	"/>
</g>
</svg>
