<?xml version="1.0" encoding="utf-8"?>
<!-- Generator: Adobe Illustrator 25.0.1, SVG Export Plug-In . SVG Version: 6.00 Build 0)  -->
<svg version="1.1" id="discussion" xmlns="http://www.w3.org/2000/svg" xmlns:xlink="http://www.w3.org/1999/xlink" x="0px" y="0px"
	 viewBox="0 0 121 79.3" style="enable-background:new 0 0 121 79.3;" xml:space="preserve">
<style type="text/css">
	.st0{opacity:0.5;fill:#49C0B6;enable-background:new    ;}
	.st1{fill:none;stroke:#091A34;stroke-width:2;stroke-linecap:round;stroke-linejoin:round;stroke-miterlimit:10;}
	
		.st2{clip-path:url(#SVGID_3_);fill:none;stroke:#091A34;stroke-width:2;stroke-linecap:round;stroke-linejoin:round;stroke-miterlimit:10;}
</style>
<circle id="Ellipse_1_copy_4" class="st0" cx="30.3" cy="31.3" r="24.3"/>
<g>
	<path class="st1" d="M87,45.8l8,6.4c1.3,1.3,4.8,1.3,4.8-1.3v-5c5.3,0,9.7-4.4,9.7-9.7V12.9c0-5.3-4.4-9.7-9.7-9.7H62.4
		c-5.3,0-9.7,4.4-9.7,9.7v23.2c0,5.3,4.4,9.7,9.7,9.7H87z"/>
	<g>
		<g>
			<defs>
				<path id="SVGID_2_" d="M52.7,36.1V17.5c-15.7,0-28.4,12.7-28.4,28.4c0,5.2,1.4,10.1,3.8,14.2c-0.2,0.3-0.3,0.4-0.4,0.7
					l-3.3,10.3c-0.7,2.3,0.5,3.6,2.9,2.9l10.3-3.3c0.3-0.1,0.5-0.2,0.7-0.4c4.2,2.4,9,3.8,14.2,3.8C68.3,74.1,81,61.4,81,45.8v-0.1
					H62.4C57.1,45.8,52.7,41.4,52.7,36.1z"/>
			</defs>
			<clipPath id="SVGID_3_">
				<use xlink:href="#SVGID_2_"  style="overflow:visible;"/>
			</clipPath>
			<path class="st2" d="M52.7,17.5c-15.7,0-28.4,12.7-28.4,28.4c0,5.2,1.4,10.1,3.8,14.2c-0.2,0.3-0.3,0.4-0.4,0.7l-3.3,10.3
				c-0.7,2.3,0.5,3.6,2.9,2.9l10.3-3.3c0.3-0.1,0.5-0.2,0.7-0.4c4.2,2.4,9,3.8,14.2,3.8C68.3,74.1,81,61.4,81,45.8
				C81.1,30.2,68.4,17.5,52.7,17.5z"/>
		</g>
		<g>
			<path id="SVGID_1_" class="st1" d="M52.7,36.1V17.5c-15.7,0-28.4,12.7-28.4,28.4c0,5.2,1.4,10.1,3.8,14.2
				c-0.2,0.3-0.3,0.4-0.4,0.7l-3.3,10.3c-0.7,2.3,0.5,3.6,2.9,2.9l10.3-3.3c0.3-0.1,0.5-0.2,0.7-0.4c4.2,2.4,9,3.8,14.2,3.8
				C68.3,74.1,81,61.4,81,45.8v-0.1H62.4C57.1,45.8,52.7,41.4,52.7,36.1z"/>
		</g>
	</g>
	<g>
		<rect x="40.2" y="45.8" class="st1" width="8.9" height="0.2"/>
		<rect x="40.2" y="54.6" class="st1" width="24.8" height="0.2"/>
		<rect x="40.2" y="36.9" class="st1" width="5.3" height="0.2"/>
	</g>
	<g>
		<circle class="st1" cx="81.1" cy="24.6" r="0.9"/>
		<circle class="st1" cx="70.4" cy="24.6" r="0.9"/>
		<circle class="st1" cx="91.7" cy="24.6" r="0.9"/>
	</g>
</g>
</svg>
