<svg xmlns="http://www.w3.org/2000/svg" viewBox="0 0 65 65"><defs><style>.cls-1{fill:#1ab4ff;}.cls-2{fill:#fff;fill-rule:evenodd;}</style></defs><title>Icon_BlueFill_LinkedIn</title><g id="Layer_2" data-name="Layer 2"><g id="Layer_1-2" data-name="Layer 1"><circle class="cls-1" cx="32.5" cy="32.5" r="31.5"/><path class="cls-1" d="M32.5,2A30.5,30.5,0,1,1,2,32.5,30.53,30.53,0,0,1,32.5,2m0-2A32.5,32.5,0,1,0,65,32.5,32.5,32.5,0,0,0,32.5,0Z"/><path class="cls-2" d="M19.73,27.3h5.65V47H19.73V27.3Zm2.68-2.47h0A3.27,3.27,0,0,1,19,21.42,3.3,3.3,0,0,1,22.45,18a3.28,3.28,0,0,1,3.41,3.42,3.29,3.29,0,0,1-3.45,3.41ZM48,47H41.59V36.8c0-2.66-1-4.48-3.21-4.48a3.29,3.29,0,0,0-3.06,2.41,5,5,0,0,0-.14,1.61V47H28.83s.09-18.06,0-19.7h6.35v3.09c.38-1.35,2.41-3.28,5.65-3.28,4,0,7.17,2.83,7.17,8.93V47Z"/></g></g></svg>