<svg xmlns="http://www.w3.org/2000/svg" viewBox="0 0 65 65"><defs><style>.cls-1{fill:#1ab4ff;}.cls-2{fill:#fff;}</style></defs><title>Icon_BlueFill_Expenses</title><g id="Layer_2" data-name="Layer 2"><g id="Layer_2-2" data-name="Layer 2"><circle class="cls-1" cx="32.5" cy="32.5" r="31.5"/><path class="cls-1" d="M32.5,2A30.5,30.5,0,1,1,2,32.5,30.53,30.53,0,0,1,32.5,2m0-2A32.5,32.5,0,1,0,65,32.5,32.5,32.5,0,0,0,32.5,0Z"/><path class="cls-1" d="M36.63,26.25l-.34-.2a7.36,7.36,0,0,0-3.71-1h-.39l-2.36-9.6.56-.07a18.46,18.46,0,0,1,2.1-.14A17.18,17.18,0,0,1,43.18,18.9l.44.35ZM33,24a8.53,8.53,0,0,1,3.48,1l5.65-5.65a16.09,16.09,0,0,0-9.62-3.16c-.44,0-.91,0-1.42.08Z"/><path class="cls-1" d="M45.74,43.63l-7-7,.19-.33a7.4,7.4,0,0,0,0-7.6l-.19-.33,7-7,.35.45a17.23,17.23,0,0,1,0,21.36ZM40,36.47l5.64,5.65a16.24,16.24,0,0,0,0-19.24L40,28.53a8.46,8.46,0,0,1,0,7.94Z"/><path class="cls-1" d="M25.28,30.46l-9.87-.73.1-.55A17.42,17.42,0,0,1,26.39,16.32l.53-.2,2.36,9.6-.34.18a7.47,7.47,0,0,0-3.54,4.19Zm-8.67-1.64,8,.59a8.45,8.45,0,0,1,3.53-4.2l-1.9-7.74A16.4,16.4,0,0,0,16.61,28.82Z"/><path class="cls-1" d="M32.49,49.81A17.26,17.26,0,0,1,15.23,33.28l0-.56,9.86.73.06.38A7.47,7.47,0,0,0,36.29,39l.34-.2,7,7-.44.35A17.18,17.18,0,0,1,32.49,49.81Zm-16.23-16a16.27,16.27,0,0,0,16.23,15,16.07,16.07,0,0,0,9.62-3.16L36.46,40a8.45,8.45,0,0,1-12.24-5.61Z"/><path class="cls-2" d="M32.17,24.76h.41a7.63,7.63,0,0,1,3.83,1.07l.36.21a.28.28,0,0,0,.13,0,.25.25,0,0,0,.17-.08l7.46-7.45a.26.26,0,0,0,.07-.19.25.25,0,0,0-.1-.18L44,17.82a18.5,18.5,0,0,0-11.54-4,19.43,19.43,0,0,0-2.27.15l-.6.07a.25.25,0,0,0-.17.11.24.24,0,0,0,0,.2l2.52,10.23A.26.26,0,0,0,32.17,24.76Zm.32-9.38a16.91,16.91,0,0,1,9.86,3.14L36.67,24.2a9.47,9.47,0,0,0-3.46-1l-1.92-7.8C31.72,15.39,32.11,15.38,32.49,15.38Z"/><path class="cls-2" d="M47.18,21l-.37-.47a.25.25,0,0,0-.38,0L39,27.92a.24.24,0,0,0,0,.3l.21.36a7.65,7.65,0,0,1,0,7.84l-.21.36a.24.24,0,0,0,0,.3l7.45,7.45a.25.25,0,0,0,.18.08h0a.27.27,0,0,0,.19-.1l.37-.47a18.65,18.65,0,0,0,0-23.08ZM40.79,36.68a9.24,9.24,0,0,0,0-8.36l5.69-5.68a17,17,0,0,1,0,19.72Z"/><path class="cls-2" d="M14.27,29.8l10.51.78h0a.26.26,0,0,0,.24-.17l.13-.39h0a7.73,7.73,0,0,1,3.65-4.33l.37-.2a.24.24,0,0,0,.12-.28L26.79,15a.25.25,0,0,0-.12-.16.26.26,0,0,0-.21,0L25.9,15A18.8,18.8,0,0,0,14.15,28.91L14,29.5a.24.24,0,0,0,.05.2A.25.25,0,0,0,14.27,29.8Zm1.61-1.45a17.18,17.18,0,0,1,9.75-11.52l1.92,7.79a9.22,9.22,0,0,0-3.65,4.32Z"/><path class="cls-2" d="M37.07,39a.24.24,0,0,0-.3,0l-.36.21a7.7,7.7,0,0,1-11.52-5.28l-.08-.41a.23.23,0,0,0-.22-.2l-10.5-.78a.26.26,0,0,0-.2.07.23.23,0,0,0-.07.19l0,.6A18.65,18.65,0,0,0,44,47.18l.47-.37a.25.25,0,0,0,.1-.18.26.26,0,0,0-.07-.19Zm-13.6-4.24a9.28,9.28,0,0,0,13.2,6l5.68,5.68A17.09,17.09,0,0,1,15.47,34.16Z"/></g></g></svg>