<svg xmlns="http://www.w3.org/2000/svg" viewBox="0 0 65 65"><defs><style>.cls-1{fill:#1ab4ff;}.cls-2{fill:#fff;fill-rule:evenodd;}</style></defs><title>Icon_BlueFill_Slack</title><g id="Layer_2" data-name="Layer 2"><g id="Layer_1-2" data-name="Layer 1"><circle class="cls-1" cx="32.5" cy="32.5" r="31.5"/><path class="cls-1" d="M32.5,2A30.5,30.5,0,1,1,2,32.5,30.53,30.53,0,0,1,32.5,2m0-2A32.5,32.5,0,1,0,65,32.5,32.5,32.5,0,0,0,32.5,0Z"/><path class="cls-2" d="M41.88,35.33,39.75,36l.74,2.21a1.72,1.72,0,0,1-1.08,2.17,2.06,2.06,0,0,1-.59.09,1.72,1.72,0,0,1-1.58-1.17l-.74-2.21L32.09,38.6l.74,2.22A1.7,1.7,0,0,1,31.75,43a1.67,1.67,0,0,1-.58.09,1.71,1.71,0,0,1-1.58-1.17l-.74-2.21-2.14.72a1.73,1.73,0,0,1-2.16-1.08,1.71,1.71,0,0,1,1.07-2.17l2.14-.71L26.34,32.2l-2.14.72a2,2,0,0,1-.58.09,1.71,1.71,0,0,1-.5-3.34L25.25,29l-.74-2.21a1.71,1.71,0,0,1,3.25-1.09l.74,2.21,4.41-1.47-.74-2.22a1.71,1.71,0,1,1,3.24-1.08l.74,2.21,2.14-.72a1.71,1.71,0,0,1,1.09,3.25l-2.14.71,1.42,4.25,2.14-.72a1.71,1.71,0,0,1,1.08,3.25M29.41,30.88l1.42,4.25,4.41-1.48-1.42-4.24-4.41,1.47ZM47.62,28C44.22,16.62,39.3,14,28,17.38S14,25.7,17.38,37,25.7,51,37,47.62,51,39.3,47.62,28Z"/></g></g></svg>