<svg id="Layer_1" data-name="Layer 1" xmlns="http://www.w3.org/2000/svg" viewBox="0 0 300 300"><defs><style>.cls-1{fill:#1ab4ff;}.cls-2{fill:#fff;}</style></defs><circle class="cls-1" cx="151.27" cy="149.93" r="143.81" transform="translate(-61.71 150.88) rotate(-45)"/><path class="cls-1" d="M151.27,7.12a142.81,142.81,0,0,1,101,243.79,142.81,142.81,0,1,1-202-202,141.83,141.83,0,0,1,101-41.83m0-2A144.81,144.81,0,1,0,296.08,149.93,144.81,144.81,0,0,0,151.27,5.12Z"/><path class="cls-2" d="M222.68,104,196.52,77.79a5.23,5.23,0,0,0-7.29,0L87.46,179.58l-.41.43a6,6,0,0,0-.75,1.11,2.42,2.42,0,0,0-.23.61l-8.13,34.61a5.16,5.16,0,0,0,5,6.33,5.76,5.76,0,0,0,1.18-.13l34.27-8a6,6,0,0,0,1.29-.55,6.39,6.39,0,0,0,1-.78l102-101.95a5.17,5.17,0,0,0,0-7.3ZM89.88,210.6l4-17,13,13Zm27.2-8.35L98.22,183.39l76.17-76.17,18.86,18.86Zm83.47-83.46L181.69,99.93l11.18-11.19,18.87,18.86Z"/></svg>