<svg xmlns="http://www.w3.org/2000/svg" viewBox="0 0 65 65"><defs><style>.cls-1{fill:#1ab4ff;}.cls-2{fill:#fff;stroke:#fff;stroke-linejoin:round;stroke-width:0.75px;}</style></defs><title>Icon_BlueFill_CPG</title><g id="Layer_2" data-name="Layer 2"><g id="Layer_1-2" data-name="Layer 1"><circle class="cls-1" cx="32.5" cy="32.5" r="31.5"/><path class="cls-1" d="M32.5,2A30.5,30.5,0,1,1,2,32.5,30.53,30.53,0,0,1,32.5,2m0-2A32.5,32.5,0,1,0,65,32.5,32.5,32.5,0,0,0,32.5,0Z"/><path class="cls-2" d="M49.25,23.14a.69.69,0,0,0-.06-.25v0a.67.67,0,0,0-.12-.2l0,0,0,0-.07-.06-.06,0,0,0-.06,0-16-6.66a.63.63,0,0,0-.27-.06.81.81,0,0,0-.27.05h0l-16,6.66-.06,0,0,0-.06,0-.07.06,0,0,0,0a.76.76,0,0,0-.12.19.42.42,0,0,0,0,.06.68.68,0,0,0-.05.22V41.85a.71.71,0,0,0,.44.66l16,6.67.06,0a.65.65,0,0,0,.5,0l.06,0,16-6.67a.71.71,0,0,0,.44-.66V23.14ZM27.34,19.39l5-2.09a.3.3,0,0,1,.26,0l13.26,5.52a.36.36,0,0,1,.21.33.34.34,0,0,1-.21.32L40.78,25.6h-.06l-1.08-.44L27.34,20a.34.34,0,0,1-.21-.32A.36.36,0,0,1,27.34,19.39Zm4.44,27.54a.35.35,0,0,1-.15.29.36.36,0,0,1-.2.06.31.31,0,0,1-.13,0L17.4,41.46a.34.34,0,0,1-.21-.32V24.75a.33.33,0,0,1,.15-.29.36.36,0,0,1,.2-.06.31.31,0,0,1,.13,0l13.9,5.79a.34.34,0,0,1,.21.32ZM32.63,29a.28.28,0,0,1-.13,0,.35.35,0,0,1-.14,0L19.11,23.47a.34.34,0,0,1-.21-.32.36.36,0,0,1,.21-.33l5.45-2.27a.34.34,0,0,1,.14,0,.3.3,0,0,1,.13,0l13.26,5.52a.36.36,0,0,1,.21.33.34.34,0,0,1-.21.32ZM47.81,41.14a.34.34,0,0,1-.21.32L33.7,47.25a.31.31,0,0,1-.13,0,.36.36,0,0,1-.2-.06.35.35,0,0,1-.15-.29V30.54a.34.34,0,0,1,.21-.32l13.9-5.79a.31.31,0,0,1,.13,0,.36.36,0,0,1,.2.06.33.33,0,0,1,.15.29Z"/><polygon class="cls-2" points="32.23 15.8 32.23 15.8 32.23 15.8 32.23 15.8"/></g></g></svg>