<svg xmlns="http://www.w3.org/2000/svg" viewBox="0 0 65 65"><defs><style>.cls-1{fill:#1ab4ff;}.cls-2{fill:#fff;stroke:#fff;stroke-miterlimit:10;stroke-width:0.25px;}</style></defs><title>Icon_BlueFill_Financial_Services</title><g id="Layer_2" data-name="Layer 2"><g id="Layer_1-2" data-name="Layer 1"><circle class="cls-1" cx="32.5" cy="32.5" r="31.5"/><path class="cls-1" d="M32.5,2A30.5,30.5,0,1,1,2,32.5,30.53,30.53,0,0,1,32.5,2m0-2A32.5,32.5,0,1,0,65,32.5,32.5,32.5,0,0,0,32.5,0Z"/><path class="cls-2" d="M48.34,17H16.66a2.48,2.48,0,0,0-2.48,2.48v26.1A2.48,2.48,0,0,0,16.66,48H48.34a2.48,2.48,0,0,0,2.48-2.48V19.45A2.48,2.48,0,0,0,48.34,17ZM15.6,27.71H31.79v8.84H15.6Zm1.06,18.9a1.06,1.06,0,0,1-1.06-1.06V38H31.79v8.64ZM49.4,45.55a1.06,1.06,0,0,1-1.06,1.06H33.21V38H49.4Zm0-9H33.21V27.71H49.4Zm0-10.26H15.6V19.45a1.06,1.06,0,0,1,1.06-1.06H48.34a1.06,1.06,0,0,1,1.06,1.06Z"/><rect class="cls-2" x="38.28" y="31.31" width="5.88" height="1.42"/><rect class="cls-2" x="38.28" y="40.15" width="5.88" height="1.42"/><rect class="cls-2" x="38.28" y="43.03" width="5.88" height="1.42"/><polygon class="cls-2" points="24.2 31.31 24.2 29.08 22.78 29.08 22.78 31.31 20.55 31.31 20.55 32.73 22.78 32.73 22.78 34.97 24.2 34.97 24.2 32.73 26.43 32.73 26.43 31.31 24.2 31.31"/><polygon class="cls-2" points="25.06 39.72 23.49 41.3 21.91 39.72 20.91 40.72 22.48 42.3 20.91 43.88 21.91 44.88 23.49 43.3 25.06 44.88 26.07 43.88 24.49 42.3 26.07 40.72 25.06 39.72"/></g></g></svg>