<svg xmlns="http://www.w3.org/2000/svg" viewBox="0 0 65 65"><defs><style>.cls-1{fill:#1ab4ff;}.cls-2{fill:#fff;}</style></defs><title>Icon_BlueFill_Contingent_Workforce</title><g id="Layer_2" data-name="Layer 2"><g id="Layer_2-2" data-name="Layer 2"><circle class="cls-1" cx="32.5" cy="32.5" r="31.5"/><path class="cls-1" d="M32.5,2A30.5,30.5,0,1,1,2,32.5,30.53,30.53,0,0,1,32.5,2m0-2A32.5,32.5,0,1,0,65,32.5,32.5,32.5,0,0,0,32.5,0Z"/><path class="cls-2" d="M51.58,45.58a1.35,1.35,0,0,0,0-.29s0,0,0,0l-2.35-6.38a1,1,0,1,0-1.87.69l1.39,3.79L33.5,34.57V17l2.58,3.11a1,1,0,0,0,.77.36,1,1,0,0,0,.64-.24,1,1,0,0,0,.13-1.41l-4.35-5.22,0,0a1,1,0,0,0-1.48,0l0,0-4.35,5.22a1,1,0,0,0,1.54,1.29L31.5,17V34.57L16.3,43.34l1.39-3.79a1,1,0,0,0-1.87-.69l-2.35,6.38s0,0,0,0a1.35,1.35,0,0,0,0,.29.41.41,0,0,0,0,.11,1,1,0,0,0,.12.4.94.94,0,0,0,.27.29l0,0a1,1,0,0,0,.35.14h0l6.7,1.16.17,0a1,1,0,0,0,.17-2l-4-.69L32.5,36.3l15.2,8.77-4,.69a1,1,0,0,0,.17,2l.17,0,6.7-1.16h0a1,1,0,0,0,.35-.14l0,0a.94.94,0,0,0,.27-.29,1,1,0,0,0,.12-.4A.41.41,0,0,0,51.58,45.58Z"/></g></g></svg>