<svg xmlns="http://www.w3.org/2000/svg" width="144" height="144" viewBox="0 0 144 144"><defs><style>.a{fill:#00b5ef;}.b{fill:#f2f2f2;opacity:0.2;}.c{fill:#fff;}</style></defs><title>Solution_Icons</title><circle class="a" cx="72" cy="72" r="72"/><path class="b" d="M113.05,131.14A71.92,71.92,0,0,0,144,72c0-1.11,0-2.2-.08-3.3a342.63,342.63,0,0,0-45.4-13.1c14.68-6.73,26.6-13.78,35.2-20.69A72,72,0,0,0,37.64,8.72c3-.18,5.88-.28,8.72-.28C73,7.1,91.7,11.1,97,20.44c4,9.33-4,20-22.67,30.67-16,10.67-38.68,20-65.35,26.67-3,.43-5.87,1-8.64,1.62A70.51,70.51,0,0,0,2.63,91.27l5.06,2.51a289.52,289.52,0,0,1,64,37.34c5.23,3.85,10,7.71,14.29,11.51a71.42,71.42,0,0,0,20.34-7.33c-1.86-1.21-3.74-2.43-5.66-3.64Q107,131.51,113.05,131.14Z"/><path class="c" d="M29.22,50.43H45.86c8.08,0,13.73,5.65,13.73,14S53.94,78.68,45.86,78.68H37.05V93.56H29.22ZM44.4,71.87c4.56,0,7.23-2.91,7.23-7.41s-2.67-7.29-7.1-7.29H37.05v14.7Z"/><path class="c" d="M66.34,82.4c0-8.18,11.93-9.24,11.93-15.54,0-2.55-1.92-4.47-4.84-4.47-3.41,0-5.2,3.18-5.2,3.18l-1.72-1.16a8.2,8.2,0,0,1,7.06-4.21c4.44,0,7.09,2.89,7.09,6.53,0,7.82-11.77,8.91-11.8,15.11H81v2H66.48A8,8,0,0,1,66.34,82.4Z"/><path class="c" d="M89.15,50.43h16.64c8.08,0,13.73,5.65,13.73,14s-5.65,14.22-13.73,14.22H97V93.56H89.15Zm15.19,21.44c4.55,0,7.22-2.91,7.22-7.41s-2.67-7.29-7.1-7.29H97v14.7Z"/></svg>