<svg xmlns="http://www.w3.org/2000/svg" viewBox="0 0 65 65"><defs><style>.cls-1{fill:#1ab4ff;}.cls-2{fill:#fff;}</style></defs><title>Icon_BlueFill_Content</title><g id="Layer_2" data-name="Layer 2"><g id="Layer_1-2" data-name="Layer 1"><circle class="cls-1" cx="32.5" cy="32.5" r="31.5"/><path class="cls-1" d="M32.5,2A30.5,30.5,0,1,1,2,32.5,30.53,30.53,0,0,1,32.5,2m0-2A32.5,32.5,0,1,0,65,32.5,32.5,32.5,0,0,0,32.5,0Z"/><path class="cls-1" d="M46,26.7,35.18,15.35a.61.61,0,0,0-.45-.2H19.48a.64.64,0,0,0-.63.65V49.2a.64.64,0,0,0,.63.65h26a.64.64,0,0,0,.63-.65v-22A.65.65,0,0,0,46,26.7Zm-10.3-9,8.26,8.69H35.67Zm-1.2-1.27,0,0-.5,0Z"/><path class="cls-2" d="M47.18,26.06,36.72,14.63a1.48,1.48,0,0,0-1-.47H20.87a1.51,1.51,0,0,0-1.46,1.54V49.3a1.51,1.51,0,0,0,1.46,1.54H46.13a1.51,1.51,0,0,0,1.46-1.54V27.13A1.59,1.59,0,0,0,47.18,26.06ZM36.92,17.41l7.58,8.28H36.92ZM21.11,49.07V15.93H35.22V26.57a.86.86,0,0,0,.85.88h9.82V49.07Z"/></g></g></svg>