<svg xmlns="http://www.w3.org/2000/svg" viewBox="0 0 65 65"><defs><style>.cls-1{fill:#1ab4ff;}.cls-2{fill:#fff;}</style></defs><title>Icon_BlueFill_Non_Profit</title><g id="Layer_2" data-name="Layer 2"><g id="Layer_1-2" data-name="Layer 1"><circle class="cls-1" cx="32.5" cy="32.5" r="31.5"/><path class="cls-1" d="M32.5,2A30.5,30.5,0,1,1,2,32.5,30.53,30.53,0,0,1,32.5,2m0-2A32.5,32.5,0,1,0,65,32.5,32.5,32.5,0,0,0,32.5,0Z"/><path class="cls-2" d="M48.37,24.27a8.26,8.26,0,0,0-4.2-4.76A10,10,0,0,0,40,18.57a9,9,0,0,0-7.46,3.65,9,9,0,0,0-7.44-3.61,9.86,9.86,0,0,0-4.22.94,8.22,8.22,0,0,0-4.19,4.76A10.33,10.33,0,0,0,17,32.09c2.51,5.31,14.3,15.66,14.79,16.1a1.06,1.06,0,0,0,.68.24h.13a1,1,0,0,0,.6-.28C34.47,47,45.54,37.24,48,32A10.35,10.35,0,0,0,48.37,24.27ZM18.58,25a6.16,6.16,0,0,1,3.13-3.59,7.8,7.8,0,0,1,3.34-.74,6.81,6.81,0,0,1,5.92,3l.63,1.07a1,1,0,0,0,.84.51,1.07,1.07,0,0,0,.9-.44l.7-1.19a6.8,6.8,0,0,1,5.91-3,7.8,7.8,0,0,1,3.34.74A6.19,6.19,0,0,1,46.42,25a8.29,8.29,0,0,1-.29,6.19C44.11,35.41,35,43.73,32.48,46c-2.55-2.29-11.6-10.59-13.61-14.82A8.32,8.32,0,0,1,18.58,25Zm13.9,22.92Zm0,0Z"/></g></g></svg>