<svg xmlns="http://www.w3.org/2000/svg" viewBox="0 0 65 65"><defs><style>.cls-1{fill:#1ab4ff;}.cls-2{fill:#fff;stroke:#fff;stroke-miterlimit:10;}</style></defs><title>Icon_BlueFill_Ensure_Customer_Success</title><g id="Layer_2" data-name="Layer 2"><g id="Layer_1-2" data-name="Layer 1"><circle class="cls-1" cx="32.5" cy="32.5" r="31.5"/><path class="cls-1" d="M32.5,2A30.5,30.5,0,1,1,2,32.5,30.53,30.53,0,0,1,32.5,2m0-2A32.5,32.5,0,1,0,65,32.5,32.5,32.5,0,0,0,32.5,0Z"/><path class="cls-2" d="M32.48,47.93a.47.47,0,0,1-.34-.12c-.5-.43-12.21-10.71-14.68-15.94a9.85,9.85,0,0,1-.35-7.39A7.74,7.74,0,0,1,21,20a9.51,9.51,0,0,1,4-.89,8.39,8.39,0,0,1,7.27,3.78l.17.29.2-.33A8.36,8.36,0,0,1,40,19.07,9.51,9.51,0,0,1,44,20a7.74,7.74,0,0,1,3.93,4.48,9.85,9.85,0,0,1-.35,7.39c-2.45,5.18-14,15.33-14.66,15.93a.54.54,0,0,1-.32.16ZM25.05,20.18A8.44,8.44,0,0,0,21.5,21a6.68,6.68,0,0,0-3.39,3.88,8.77,8.77,0,0,0,.31,6.58C20.57,36,30.46,44.9,32.48,46.7c1.91-1.7,11.94-10.76,14.1-15.32a8.77,8.77,0,0,0,.31-6.58,6.64,6.64,0,0,0-3.38-3.87A8.37,8.37,0,0,0,40,20.14a7.29,7.29,0,0,0-6.34,3.24L33,24.46l-.06.07a.53.53,0,0,1-.89,0l-.63-1.07A7.31,7.31,0,0,0,25.05,20.18Z"/></g></g></svg>