<svg id="Layer_1" data-name="Layer 1" xmlns="http://www.w3.org/2000/svg" viewBox="0 0 300 300"><defs><style>.cls-1{fill:#1ab4ff;}.cls-2,.cls-3{fill:none;stroke:#fff;stroke-miterlimit:10;}.cls-2{stroke-width:8px;}.cls-3{stroke-width:5px;}</style></defs><circle class="cls-1" cx="151.27" cy="149.93" r="143.81" transform="translate(-61.71 150.88) rotate(-45)"/><path class="cls-1" d="M151.27,7.12a142.81,142.81,0,0,1,101,243.79,142.81,142.81,0,1,1-202-202,141.83,141.83,0,0,1,101-41.83m0-2A144.81,144.81,0,1,0,296.08,149.93,144.81,144.81,0,0,0,151.27,5.12Z"/><path class="cls-2" d="M210.07,194.24l-1.59-10.53c-.77-3.82-1.52-7.05-2.13-9.18h0c-.85-3.05-1.78-5.45-2.76-6.43-2.44-2.45-9.78-4.71-17.28-6.94a21.42,21.42,0,0,0,2-5.22c-12.61-1.87-10.73-16.42-9.5-31a14.47,14.47,0,0,0,.44-3.31,9.56,9.56,0,0,0-.11-1.2c.53-8.25.31-16-3.45-21.06a12.44,12.44,0,0,0-2.93-3.24,11.89,11.89,0,0,0-6.4-6.87,29.83,29.83,0,0,0-13.21-2.66c-10.63-.05-20.76,6.27-24,16.57-12,29,10.63,49.51-11.26,52.75A21.28,21.28,0,0,0,120,161.3c-7.35,2.18-14.44,4.4-16.82,6.8-.87.87-1.7,2.86-2.47,5.44h-.14l-.2,1.12c-.18.6-.36,1.28-.55,2l.17.08-1.24,6.93-1.59,10.53s-2.79,9.94,10.92,9.94h91.11C212.87,204.18,210.07,194.24,210.07,194.24Z"/><path class="cls-3" d="M274.53,186.65l-1.06-7.06c-.52-2.56-1-4.72-1.43-6.15h0a11.18,11.18,0,0,0-1.84-4.3c-1.64-1.65-6.55-3.16-11.58-4.66A14.7,14.7,0,0,0,260,161c-8.45-1.26-7.19-11-6.37-20.76a10,10,0,0,0,.3-2.22c0-.28,0-.54-.07-.81.35-5.52.2-10.75-2.32-14.11a8.31,8.31,0,0,0-2-2.17,8,8,0,0,0-4.29-4.61,20,20,0,0,0-8.86-1.77c-7.12,0-13.9,4.19-16.1,11.1-8,19.43,7.12,33.17-7.55,35.35a14.71,14.71,0,0,0,1.41,3.58c-4.12,1.23-8.12,2.48-10.25,3.8a123.33,123.33,0,0,1,6.73,21.18,10.16,10.16,0,0,1,.15,3.76h56.44C276.41,193.31,274.53,186.65,274.53,186.65Z"/><path class="cls-3" d="M97,190.48c0-.09,0-.16,0-.23l.09-.8c.21-1.73.42-3.45.66-5.18A41.29,41.29,0,0,1,99,177.84a22.22,22.22,0,0,1,4.9-8.78c-1.7-1.62-6.54-3.11-11.49-4.58A14.7,14.7,0,0,0,93.77,161c-8.45-1.26-7.19-11-6.37-20.76a10,10,0,0,0,.3-2.22,7.17,7.17,0,0,0-.08-.81c.36-5.52.21-10.75-2.31-14.11a8.17,8.17,0,0,0-2-2.17,8,8,0,0,0-4.28-4.61,20,20,0,0,0-8.86-1.77c-7.12,0-13.9,4.19-16.1,11.1-8,19.43,7.12,33.17-7.55,35.35A14.71,14.71,0,0,0,48,164.57c-4.92,1.47-9.67,3-11.27,4.57A9.79,9.79,0,0,0,35,172.78h-.1l-.13.75c-.12.4-.24.86-.37,1.37l.12,0-.83,4.64-1.07,7.06s-1.87,6.66,7.32,6.66H96.8A12.29,12.29,0,0,1,97,190.48Z"/></svg>