<svg xmlns="http://www.w3.org/2000/svg" viewBox="0 0 65 65"><defs><style>.cls-1{fill:#1ab4ff;}.cls-2{fill:#fff;}</style></defs><title>Icon_BlueFill_Email</title><g id="Layer_2" data-name="Layer 2"><g id="Layer_1-2" data-name="Layer 1"><circle class="cls-1" cx="32.5" cy="32.5" r="31.5"/><path class="cls-1" d="M32.5,2A30.5,30.5,0,1,1,2,32.5,30.53,30.53,0,0,1,32.5,2m0-2A32.5,32.5,0,1,0,65,32.5,32.5,32.5,0,0,0,32.5,0Z"/><path class="cls-2" d="M47,22.87A1.09,1.09,0,0,1,48.1,24V41A1.09,1.09,0,0,1,47,42.13H18A1.09,1.09,0,0,1,16.9,41V24A1.09,1.09,0,0,1,18,22.87H47m0-2.13H18A3.22,3.22,0,0,0,14.77,24V41A3.22,3.22,0,0,0,18,44.26H47A3.22,3.22,0,0,0,50.23,41V24A3.22,3.22,0,0,0,47,20.74Z"/><path class="cls-2" d="M32.5,34.88a1,1,0,0,1-.56-.18L16,23.25a1,1,0,0,1,1.12-1.56l16,11.45a1,1,0,0,1-.56,1.74Z"/><path class="cls-2" d="M32.5,34.88a1,1,0,0,1-.56-1.74l16-11.45A1,1,0,1,1,49,23.25l-16,11.45A1,1,0,0,1,32.5,34.88Z"/><path class="cls-2" d="M16.53,43.63A1,1,0,0,1,15.9,42L28.48,31.06a1,1,0,1,1,1.25,1.45L17.15,43.4A.92.92,0,0,1,16.53,43.63Z"/><path class="cls-2" d="M48.47,43.63a.92.92,0,0,1-.62-.23L35.27,32.51a1,1,0,1,1,1.25-1.45L49.1,42a1,1,0,0,1-.63,1.68Z"/></g></g></svg>