<svg xmlns="http://www.w3.org/2000/svg" viewBox="0 0 395 395"><defs><style>.cls-1{fill:#1ab4ff;}.cls-2{fill:#fff;}</style></defs><g id="Layer_2" data-name="Layer 2"><g id="Layer_1-2" data-name="Layer 1"><g id="Layer_2-2" data-name="Layer 2"><g id="Layer_1-2-2" data-name="Layer 1-2"><path class="cls-1" d="M197.5,395C88.6,395,0,306.4,0,197.5S88.6,0,197.5,0,395,88.6,395,197.5,306.4,395,197.5,395"/><path class="cls-2" d="M102.38,117.25a5.26,5.26,0,0,0-5-.34l-27.73,12.6a5.18,5.18,0,0,0-2.79,3,5.25,5.25,0,0,0,.14,4.06,5.32,5.32,0,0,0,7,2.64L85.48,134a129,129,0,0,0,7.14,139.32,5.4,5.4,0,0,0,4.38,2.2,5.31,5.31,0,0,0,5.33-5.31,5.23,5.23,0,0,0-1-3.12,118.28,118.28,0,0,1-6.59-127.71L95,151.24a5.33,5.33,0,1,0,10.66-.29l-.8-29.34a5.37,5.37,0,0,0-2.49-4.36"/><path class="cls-2" d="M266.29,70.33h0a5.33,5.33,0,0,0-9.71,4.39l5.19,11.49a128.91,128.91,0,0,0-139.32,6.85,5.24,5.24,0,0,0-2.15,3.47,5.15,5.15,0,0,0,.93,4,5.28,5.28,0,0,0,7.36,1.27l.06,0a118.29,118.29,0,0,1,127.73-6.31l-11.88.31a5.33,5.33,0,0,0,.27,10.65l29.34-.74a5.32,5.32,0,0,0,4.72-7.51Z"/><path class="cls-2" d="M328.05,259.43h0a5.28,5.28,0,0,0-7-2.66l-.07,0L309.51,262a128.89,128.89,0,0,0-7.26-139.31,5.38,5.38,0,0,0-7.44-1.2,5.32,5.32,0,0,0-1.21,7.43h0a118.21,118.21,0,0,1,6.71,127.71L300,244.77a5.33,5.33,0,0,0-10.66.29h0l.82,29.33a5.32,5.32,0,0,0,5.33,5.18,5.22,5.22,0,0,0,2.2-.48l27.72-12.62a5.35,5.35,0,0,0,2.65-7"/><path class="cls-2" d="M268.59,294.68a5.22,5.22,0,0,0-3.93.86,118.25,118.25,0,0,1-127.83,4.14l11.87-.09a5.31,5.31,0,0,0,5.29-5.33v0a5.34,5.34,0,0,0-5.36-5.29l-29.34.23a5.33,5.33,0,0,0-5.29,5.35,5.5,5.5,0,0,0,.44,2.08l12.06,28a5.34,5.34,0,0,0,4.89,3.2,5.31,5.31,0,0,0,4.9-7.4v0l-5-11.57A128.79,128.79,0,0,0,195,327.08h2.47a128.26,128.26,0,0,0,73.21-22.8,5.32,5.32,0,0,0-2.13-9.62"/><path class="cls-2" d="M197.5,280.13l-72.74-42v-84l72.74-42,72.74,42v84Zm-65.38-46.25,65.38,37.76,65.38-37.76V158.4L197.5,120.65,132.12,158.4Z"/><rect class="cls-2" x="225.96" y="163.49" width="43.51" height="7.35" transform="translate(-50.4 146.36) rotate(-30.02)"/><rect class="cls-2" x="193.82" y="223.27" width="7.36" height="52.61"/><path class="cls-2" d="M197.5,227a36.9,36.9,0,0,1-26.29-10.89h0A37.18,37.18,0,1,1,197.5,227Zm0-67a29.82,29.82,0,0,0-21.09,50.91h0A29.83,29.83,0,1,0,197.5,160Z"/><polygon class="cls-2" points="192.81 205.43 178.69 191.31 183.89 186.11 192.81 195.02 211.11 176.72 216.31 181.92 192.81 205.43"/><rect class="cls-2" x="143.78" y="145.29" width="7.35" height="43.9" transform="translate(-71.11 211.32) rotate(-60)"/></g></g></g></g></svg>