<svg xmlns="http://www.w3.org/2000/svg" viewBox="0 0 65 65"><defs><style>.cls-1{fill:#1ab4ff;}.cls-2{fill:#fff;}</style></defs><title>Icon_BlueFill_Implemention</title><g id="Layer_2" data-name="Layer 2"><g id="Layer_1-2" data-name="Layer 1"><circle class="cls-1" cx="32.5" cy="32.5" r="31.5"/><path class="cls-1" d="M32.5,2A30.5,30.5,0,1,1,2,32.5,30.53,30.53,0,0,1,32.5,2m0-2A32.5,32.5,0,1,0,65,32.5,32.5,32.5,0,0,0,32.5,0Z"/><path class="cls-2" d="M45.85,29.34a3.88,3.88,0,0,0,3.88-3.87V19.15a3.88,3.88,0,0,0-3.88-3.88H39.54a3.88,3.88,0,0,0-3.88,3.88v2.28H29.34V19.15a3.88,3.88,0,0,0-3.87-3.88H19.15a3.88,3.88,0,0,0-3.88,3.88v6.32a3.88,3.88,0,0,0,3.88,3.87h2.28v6.32H19.15a3.88,3.88,0,0,0-3.88,3.88v6.31a3.88,3.88,0,0,0,3.88,3.88h6.32a3.88,3.88,0,0,0,3.87-3.88V43.57h6.32v2.28a3.88,3.88,0,0,0,3.88,3.88h6.31a3.88,3.88,0,0,0,3.88-3.88V39.54a3.88,3.88,0,0,0-3.88-3.88H43.57V29.34ZM37.41,19.15A2.13,2.13,0,0,1,39.54,17h6.31A2.14,2.14,0,0,1,48,19.15v6.32a2.13,2.13,0,0,1-2.13,2.12H39.54a2.12,2.12,0,0,1-2.13-2.12ZM17,25.47V19.15A2.14,2.14,0,0,1,19.15,17h6.32a2.13,2.13,0,0,1,2.12,2.13v6.32a2.12,2.12,0,0,1-2.12,2.12H19.15A2.13,2.13,0,0,1,17,25.47ZM27.59,45.85A2.13,2.13,0,0,1,25.47,48H19.15A2.14,2.14,0,0,1,17,45.85V39.54a2.13,2.13,0,0,1,2.13-2.13h6.32a2.12,2.12,0,0,1,2.12,2.13ZM48,39.54v6.31A2.14,2.14,0,0,1,45.85,48H39.54a2.13,2.13,0,0,1-2.13-2.13V39.54a2.13,2.13,0,0,1,2.13-2.13h6.31A2.13,2.13,0,0,1,48,39.54Zm-6.16-3.88H39.54a3.88,3.88,0,0,0-3.88,3.88v2.28H29.34V39.54a3.88,3.88,0,0,0-3.87-3.88H23.18V29.34h2.29a3.88,3.88,0,0,0,3.87-3.87V23.18h6.32v2.29a3.88,3.88,0,0,0,3.88,3.87h2.28Z"/></g></g></svg>