<svg xmlns="http://www.w3.org/2000/svg" viewBox="0 0 65 65"><defs><style>.cls-1{fill:#1ab4ff;}.cls-2{fill:#fff;}</style></defs><title>Icon_BlueFill_Invoice_Smash</title><g id="Layer_2" data-name="Layer 2"><g id="Layer_3" data-name="Layer 3"><circle class="cls-1" cx="32.5" cy="32.5" r="31.5"/><path class="cls-1" d="M32.5,2A30.5,30.5,0,1,1,2,32.5,30.53,30.53,0,0,1,32.5,2m0-2A32.5,32.5,0,1,0,65,32.5,32.5,32.5,0,0,0,32.5,0Z"/><path class="cls-2" d="M35.45,33.93v0h6.49a5.37,5.37,0,1,0,0-1.72H33.2v-4h0a1.12,1.12,0,0,0-.3-.76l-1.6-1.69h0c-.12-.11-.22-.24-.35-.35l5-5a5.34,5.34,0,0,0,6.92-.55h0a5.37,5.37,0,1,0-8.14-.67l-4.94,4.94L29,23.36l-3.86-4.09a1.07,1.07,0,0,0-.35-.25,1,1,0,0,0-.42-.09H13.47a1.12,1.12,0,0,0-.76.32,1.14,1.14,0,0,0-.31.78h0V44.09h0a1.22,1.22,0,0,0,.08.43,1.1,1.1,0,0,0,.58.58,1,1,0,0,0,.41.09H32.12a1,1,0,0,0,.42-.09,1,1,0,0,0,.57-.58,1,1,0,0,0,.09-.43h0v-.6l4.54,3.13a5.36,5.36,0,1,0,7.89-2.12h0a5.34,5.34,0,0,0-6.91.71L33.2,41.4V33.93Zm11.78-4.49a3.65,3.65,0,1,1-3.65,3.65A3.64,3.64,0,0,1,47.23,29.44ZM36.48,13.5a3.66,3.66,0,0,1,5.16,0,3.73,3.73,0,0,1,0,5.16h0a3.65,3.65,0,1,1-5.16-5.16Zm3.09,33.34a3.67,3.67,0,0,1,5.08-.93h0A3.74,3.74,0,0,1,45.58,51a3.65,3.65,0,0,1-6-4.15ZM30.92,27.19h-5.6V21.26Zm1,16.74H13.65V20.19H24.07v7.63a.63.63,0,0,0,.18.44.66.66,0,0,0,.2.14.7.7,0,0,0,.25.05H32Z"/></g></g></svg>