<svg xmlns="http://www.w3.org/2000/svg" viewBox="0 0 65 65"><defs><style>.cls-1{fill:#1ab4ff;}.cls-2{fill:#fff;}</style></defs><title>Icon_LightBlueFill_SpendGuard</title><g id="Layer_2" data-name="Layer 2"><g id="Layer_3" data-name="Layer 3"><circle class="cls-1" cx="32.5" cy="32.5" r="31.5"/><path class="cls-1" d="M32.5,2A30.5,30.5,0,1,1,2,32.5,30.53,30.53,0,0,1,32.5,2m0-2A32.5,32.5,0,1,0,65,32.5,32.5,32.5,0,0,0,32.5,0Z"/><path class="cls-2" d="M45.7,34a1.09,1.09,0,0,0-1.09,1.21l.64,6a.48.48,0,0,0,.47.42.46.46,0,0,0,.46-.42l.61-6.06A1.09,1.09,0,0,0,45.7,34Z"/><path class="cls-2" d="M45.74,42.34a1,1,0,0,0-1,1h0a1,1,0,1,0,2,0h0A1,1,0,0,0,45.74,42.34Z"/><path class="cls-2" d="M54.06,37.39a7.84,7.84,0,0,0-.49-1.56,8.11,8.11,0,0,0-.78-1.45,9.08,9.08,0,0,0-1-1.27A7.88,7.88,0,0,0,50.44,32,8.74,8.74,0,0,0,47,30.71l-.3,0V15.11a.89.89,0,0,0-.78-1H39a.89.89,0,0,0-.78,1V35c-.12.21-.23.43-.33.65a8,8,0,0,0-.59,1.87,8.19,8.19,0,0,0-.14,1.39H35.36v-.53h0v-16a.88.88,0,0,0-.78-1H27.64a.88.88,0,0,0-.78,1v16h0v.49H24v-.24h0V27.56a.89.89,0,0,0-.78-1H16.27a.89.89,0,0,0-.78,1V38.92h-4a.78.78,0,0,0,0,1.56H37.26c0,.29.1.58.17.87a9,9,0,0,0,.67,1.72,7.74,7.74,0,0,0,.79,1.25l-.4.39-4.93,4.93-1.21,1.22A1.17,1.17,0,1,0,34,52.51l1.22-1.21,4.93-4.94.39-.38a8.8,8.8,0,0,0,1.44.88,8.38,8.38,0,0,0,3.72.85h0a8.67,8.67,0,0,0,2.53-.38,8.81,8.81,0,0,0,2.25-1.08,8.5,8.5,0,0,0,1.85-1.69,8.71,8.71,0,0,0,1.29-2.18,8.88,8.88,0,0,0,.49-1.67A8.53,8.53,0,0,0,54.25,39,8.25,8.25,0,0,0,54.06,37.39ZM45.17,16.07V30.63h0a8.61,8.61,0,0,0-5,2.06c-.11.09-.21.2-.32.31V16.07ZM28.42,36.64V23.39H33.8V36.68h0v2.24H28.43V36.64ZM17.05,38.43V28.52h5.38v8.16h0v2.24H17.05Zm35.38,2a6.86,6.86,0,0,1-.37,1.27A6.79,6.79,0,0,1,50.55,44a6.86,6.86,0,0,1-9.7,0,6.79,6.79,0,0,1-1.51-2.27A6.86,6.86,0,0,1,39,40.47a6.67,6.67,0,0,1,0-2.62,7,7,0,0,1,.37-1.28,6.94,6.94,0,0,1,3.78-3.77,7.76,7.76,0,0,1,1.27-.38,7.21,7.21,0,0,1,2.62,0,7.47,7.47,0,0,1,1.27.38,6.94,6.94,0,0,1,3.78,3.77,7,7,0,0,1,.37,1.28,6.67,6.67,0,0,1,0,2.62Z"/></g></g></svg>