<svg xmlns="http://www.w3.org/2000/svg" viewBox="0 0 65 65"><defs><style>.cls-1{fill:#1ab4ff;}.cls-2{fill:#fff;}</style></defs><title>Icon_BlueFill_Healthcare</title><g id="Layer_2" data-name="Layer 2"><g id="Layer_1-2" data-name="Layer 1"><circle class="cls-1" cx="32.5" cy="32.5" r="31.5"/><path class="cls-1" d="M32.5,2A30.5,30.5,0,1,1,2,32.5,30.53,30.53,0,0,1,32.5,2m0-2A32.5,32.5,0,1,0,65,32.5,32.5,32.5,0,0,0,32.5,0Z"/><path class="cls-2" d="M36.41,51.5H28.59a2,2,0,0,1-2-2V38.41H15.5a2,2,0,0,1-2-2V28.59a2,2,0,0,1,2-2H26.59V15.5a2,2,0,0,1,2-2h7.82a2,2,0,0,1,2,2V26.59H49.5a2,2,0,0,1,2,2v7.82a2,2,0,0,1-2,2H38.41V49.5A2,2,0,0,1,36.41,51.5ZM15.5,28.59v7.82H28.59V49.5h7.82V36.41H49.5V28.59H36.41V15.5H28.59V28.59Z"/></g></g></svg>