<svg xmlns="http://www.w3.org/2000/svg" width="144" height="144" viewBox="0 0 144 144"><defs><style>.a{fill:#00b5ef;}.b{fill:#f2f2f2;opacity:0.2;}.c{fill:#fff;}</style></defs><title>Solution_Icons</title><circle class="a" cx="72" cy="72" r="72"/><path class="b" d="M25,126.54q-5.75-24.39-5.76-43.05c0-20,5.34-34.67,16-36,9.33-2.67,20,6.66,32,21.33C76.62,82.16,86,99.49,94,120.83a134.41,134.41,0,0,1,6.11,17.5c.83-.36,1.65-.74,2.47-1.12a120.49,120.49,0,0,1,8.76-13.71A183,183,0,0,1,142.8,85,71.94,71.94,0,0,0,103.63,7.31C92.15,13,80.89,29.15,72.45,52.37,60.34,31.77,47.07,16.78,35.38,10A72,72,0,0,0,.26,66.07c0,.21,0,.41,0,.63l-.09-.07C.09,68.41,0,70.19,0,72A71.8,71.8,0,0,0,25,126.54Z"/><path class="c" d="M29.49,82.52s4.68,4.56,10.75,4.56c3.28,0,6.26-1.7,6.26-5.23,0-7.71-20.35-6.38-20.35-19.62,0-7.16,6.19-12.51,14.45-12.51,8.51,0,12.88,4.62,12.88,4.62l-3.4,6.37A15.76,15.76,0,0,0,40.54,57C36.9,57,34,59.07,34,62.11c0,7.66,20.29,5.77,20.29,19.56,0,6.86-5.22,12.64-14.21,12.64a20.85,20.85,0,0,1-14.88-5.9Z"/><path class="c" d="M63.42,82.42c0-8.18,11.93-9.24,11.93-15.54,0-2.55-1.92-4.47-4.84-4.47-3.41,0-5.2,3.18-5.2,3.18l-1.72-1.16a8.2,8.2,0,0,1,7.06-4.21c4.44,0,7.09,2.89,7.09,6.53,0,7.82-11.77,8.91-11.8,15.11H78.1v2H63.56A8,8,0,0,1,63.42,82.42Z"/><path class="c" d="M106.28,49.72c10.51,0,15.91,5.89,15.91,5.89l-3.76,5.83a19,19,0,0,0-11.79-4.55c-9.11,0-14.45,6.8-14.45,14.82,0,8.2,5.52,15.43,14.51,15.43,7.48,0,12.52-5.47,12.52-5.47l4.13,5.65a23.2,23.2,0,0,1-16.95,7c-13.18,0-22.29-9.78-22.29-22.48A21.67,21.67,0,0,1,106.28,49.72Z"/></svg>