<svg xmlns="http://www.w3.org/2000/svg" xmlns:xlink="http://www.w3.org/1999/xlink" viewBox="0 0 178 178"><defs><style>.cls-1{fill:none;}.cls-2{fill:#ee7025;}.cls-3{fill:#fff;}.cls-4{clip-path:url(#clip-path);}</style><clipPath id="clip-path"><path class="cls-1" d="M88.5,80A30.7,30.7,0,0,0,77.84,95.51a30.26,30.26,0,0,0,21.32,0A30.7,30.7,0,0,0,88.5,80Z"/></clipPath></defs><title>icon-processEfficiency</title><g id="Layer_2" data-name="Layer 2"><g id="Layer_1-2" data-name="Layer 1"><circle class="cls-2" cx="89" cy="89" r="89"/><path class="cls-3" d="M102,104.18A31.56,31.56,0,0,0,80.21,74.55a33.44,33.44,0,0,0-35,9.36,31.26,31.26,0,0,0-2.92,37C49.37,132.13,63.08,137.49,76,135A31.84,31.84,0,0,0,102,104.18c0-.8-3-.71-3,.19a30.52,30.52,0,0,1-18.66,28c-11.93,4.87-25.69.5-33.45-9.55a30.69,30.69,0,0,1-2.36-33.67c6.24-10.91,19-17.11,31.38-14.25C89.45,78,98.8,90.63,99,104.37,99,105.19,102,105.07,102,104.18Z"/><path class="cls-3" d="M139.5,104.15a31.56,31.56,0,0,0-21.75-29.62,33.44,33.44,0,0,0-35,9.41,31.29,31.29,0,0,0-2.92,37c7.11,11.28,20.8,16.58,33.75,14.08a31.89,31.89,0,0,0,25.92-30.83c0-.79-3-.66-3,.25a30.48,30.48,0,0,1-18.83,28c-11.91,4.72-25.56.33-33.29-9.67A30.67,30.67,0,0,1,82,89.1c6.28-11,19.26-17.24,31.73-14.11,13.41,3.36,22.58,15.74,22.73,29.41C136.51,105.2,139.51,105.05,139.5,104.15Z"/><path class="cls-3" d="M120.72,66.66A31.57,31.57,0,0,0,99,37c-12.32-4-26.42-.46-35,9.31a31.26,31.26,0,0,0-2.93,37c7.09,11.25,20.79,16.63,33.73,14.16a31.8,31.8,0,0,0,25.94-30.79c0-.81-3-.76-3,.12a30.57,30.57,0,0,1-18.66,28c-11.91,4.9-25.68.55-33.45-9.5a30.68,30.68,0,0,1-2.36-33.67c6.22-10.89,19-17.15,31.36-14.29,13.6,3.13,22.95,15.72,23.11,29.46C117.73,67.61,120.73,67.54,120.72,66.66Z"/><g class="cls-4"><path class="cls-3" d="M42.79,139.08s-.46.43-.09.2c.2-.12.34-.36.52-.52.67-.59,1.28-1.28,1.92-1.92l7.12-7.12,23.67-23.67,53.28-53.28,12.36-12.36-2.74.26s.45-.46.1-.2a6.38,6.38,0,0,0-.52.52c-.68.58-1.29,1.28-1.92,1.92L129.37,50,105.7,73.7,52.42,127,40.06,139.34c-.78.77,2.08.79,2.65.22L76.24,106,129.47,52.8l12.24-12.24c.12-.12.24-.33.08-.48l-.14-.15c-.57-.57-2.21-.27-2.74.26L105.38,73.72,52.15,127,39.91,139.19c-.12.12-.23.33-.08.48l.15.15C40.61,140.45,43.35,139.63,42.79,139.08Z"/></g></g></g></svg>