<svg xmlns="http://www.w3.org/2000/svg" viewBox="0 0 65 65"><defs><style>.cls-1{fill:#1ab4ff;}.cls-2{fill:#fff;}</style></defs><title>Icon_BlueFill_Technology</title><g id="Layer_2" data-name="Layer 2"><g id="Layer_1-2" data-name="Layer 1"><circle class="cls-1" cx="32.5" cy="32.5" r="31.5"/><path class="cls-1" d="M32.5,2A30.5,30.5,0,1,1,2,32.5,30.53,30.53,0,0,1,32.5,2m0-2A32.5,32.5,0,1,0,65,32.5,32.5,32.5,0,0,0,32.5,0Z"/><path class="cls-2" d="M36.42,39.56A5.54,5.54,0,0,0,27,43.48h0A5.53,5.53,0,0,0,32.5,49h0A5.53,5.53,0,0,0,38,43.48V43.4A5.53,5.53,0,0,0,36.42,39.56Zm-.29,3.92a3.63,3.63,0,1,1-7.26,0h0a3.63,3.63,0,0,1,7.26-.06Z"/><path class="cls-2" d="M46.16,32.51a21.28,21.28,0,0,0-2.35-1.61,21.71,21.71,0,0,0-2.5-1.27l-.07,0-.67-.27a22.74,22.74,0,0,0-4.65-1.26,23,23,0,0,0-4.76-.22h-.07a22.57,22.57,0,0,0-4.79.83,22.82,22.82,0,0,0-4.48,1.86l-.3.18c-.49.27-.95.56-1.37.84s-.88.61-1.3.94a3.12,3.12,0,0,0-.88,1,3.28,3.28,0,0,0-.36,1.32,3.11,3.11,0,0,0,.94,2.5l.64.64a3.22,3.22,0,0,0,4.28.27l.34-.26.3-.21.16-.1.52-.34.51-.29.08,0h0a15,15,0,0,1,5.9-1.78l.53,0a14.85,14.85,0,0,1,3.06.17,15.27,15.27,0,0,1,3,.81l.07,0,.6.26.56.25.1.06h0l0,0c.41.21.81.44,1.2.68s.76.51,1.12.79A3.22,3.22,0,0,0,45.81,38l.64-.64a3.14,3.14,0,0,0,.75-1.14,3.38,3.38,0,0,0,.2-1.35,3.16,3.16,0,0,0-1.24-2.36Zm-.74,3a1.41,1.41,0,0,1-.32.47l-.64.64a1.34,1.34,0,0,1-.86.39,1.38,1.38,0,0,1-.91-.27,15.43,15.43,0,0,0-1.27-.9,15.1,15.1,0,0,0-1.35-.77L39.9,35l-.62-.29c-.2-.09-.42-.19-.67-.28l-.09,0a16.47,16.47,0,0,0-3.34-.9,16.09,16.09,0,0,0-3.46-.2l-.59,0A16.73,16.73,0,0,0,27.7,34a17.71,17.71,0,0,0-3.22,1.35l-.05,0h0l-.06,0-.58.34-.59.38-.51.36a4.28,4.28,0,0,0-.38.29,1.38,1.38,0,0,1-.91.27,1.34,1.34,0,0,1-.86-.39L19.9,36a1.41,1.41,0,0,1-.32-.47A1.46,1.46,0,0,1,19.5,35a1.54,1.54,0,0,1,.15-.54A1.25,1.25,0,0,1,20,34c.39-.31.79-.6,1.19-.87s.84-.54,1.25-.77l.28-.16a20.13,20.13,0,0,1,8.47-2.46h.07a20.51,20.51,0,0,1,4.35.21,20.26,20.26,0,0,1,4.25,1.14c.22.09.45.2.68.28a19.56,19.56,0,0,1,2.27,1.17A20.83,20.83,0,0,1,45,34a1.38,1.38,0,0,1,.37.44,1.21,1.21,0,0,1,.15.54A1.46,1.46,0,0,1,45.42,35.54Z"/><path class="cls-2" d="M53.93,24.61a3.19,3.19,0,0,0-.82-1.05,31.66,31.66,0,0,0-4.12-3,31.19,31.19,0,0,0-4.55-2.28l-.61-.24A31.5,31.5,0,0,0,31.37,16h-.11l-.51,0h-.33c-.3,0-.6.06-.9.07a32.29,32.29,0,0,0-6.25,1.23A31.28,31.28,0,0,0,17.4,19.8l-.58.32a29.69,29.69,0,0,0-2.55,1.6c-.82.57-1.61,1.19-2.38,1.84a3.23,3.23,0,0,0-.78,1l0,.09a3.27,3.27,0,0,0-.32,1.29A3.22,3.22,0,0,0,11,27.22a3.27,3.27,0,0,0,.74,1.11l.63.64a3.28,3.28,0,0,0,2.17,1,3.23,3.23,0,0,0,2.23-.77l.63-.52.65-.49.17-.12c.36-.26.75-.53,1.17-.8s.78-.48,1.16-.7l.19-.1h0c.23-.13.47-.27.71-.38a24.47,24.47,0,0,1,4.27-1.69,25,25,0,0,1,4.51-.87c.49,0,1-.07,1.45-.09a25.21,25.21,0,0,1,4.59.27,24.82,24.82,0,0,1,4.45,1.13h0l.91.35c.45.18.88.37,1.29.56s.82.41,1.25.64l.18.09h0a22.15,22.15,0,0,1,2,1.27c.64.44,1.28.93,1.91,1.46a3.25,3.25,0,0,0,4.4-.18l.63-.64a3.12,3.12,0,0,0,1-2.42A3.36,3.36,0,0,0,53.93,24.61Zm-1.67,1.92A1.18,1.18,0,0,1,52,27l-.63.64a1.38,1.38,0,0,1-.9.4,1.4,1.4,0,0,1-.92-.32,24.92,24.92,0,0,0-2.06-1.58c-.71-.49-1.44-.94-2.2-1.36h0l-.18-.09c-.43-.24-.88-.46-1.35-.68s-.94-.43-1.39-.61l-.5-.2a4.09,4.09,0,0,1-.49-.18,26.34,26.34,0,0,0-9.76-1.5l-.51,0c-.34,0-.69,0-1,.08a26.4,26.4,0,0,0-9.46,2.75l-.78.41h0l-.19.11c-.44.25-.86.5-1.27.76s-.81.54-1.24.85l-.19.13-.7.54c-.24.19-.47.37-.68.55a1.3,1.3,0,0,1-.92.32,1.32,1.32,0,0,1-.9-.39L13.05,27a1.21,1.21,0,0,1-.31-.46,1.18,1.18,0,0,1-.09-.54,1.26,1.26,0,0,1,.13-.53l0-.06a1.63,1.63,0,0,1,.33-.38c.72-.61,1.46-1.19,2.23-1.73s1.59-1.05,2.4-1.51l.54-.3A29.73,29.73,0,0,1,29.7,18l.92-.07h.23l.58,0h0a30,30,0,0,1,6,.38,29.43,29.43,0,0,1,5.76,1.56s.5.19.57.23A29.31,29.31,0,0,1,48,22.21,30.46,30.46,0,0,1,51.88,25a1.38,1.38,0,0,1,.34.44,1.26,1.26,0,0,1,.13.53A1.23,1.23,0,0,1,52.26,26.53Z"/></g></g></svg>