<svg xmlns="http://www.w3.org/2000/svg" viewBox="0 0 65 65"><defs><style>.cls-1{fill:#1ab4ff;}.cls-2{fill:#fff;}</style></defs><title>Icon_LightBlueFill_Risk_Assess</title><g id="Layer_2" data-name="Layer 2"><g id="Layer_3" data-name="Layer 3"><circle class="cls-1" cx="32.5" cy="32.5" r="31.5"/><path class="cls-1" d="M32.5,2A30.5,30.5,0,1,1,2,32.5,30.53,30.53,0,0,1,32.5,2m0-2A32.5,32.5,0,1,0,65,32.5,32.5,32.5,0,0,0,32.5,0Z"/><path class="cls-2" d="M53.25,48.11,52.13,47l-4.56-4.55-.36-.37a7.7,7.7,0,0,0,1.34-2.74,7.69,7.69,0,0,0,.26-1.72,8.5,8.5,0,0,0-.14-1.81,8,8,0,0,0-.55-1.72,7.28,7.28,0,0,0-.88-1.5,8,8,0,0,0-1.16-1.24,8.23,8.23,0,0,0-3-1.61,8.1,8.1,0,0,0-1.69-.3,7.81,7.81,0,0,0-1.74.08A7.65,7.65,0,0,0,38,30a7.88,7.88,0,0,0-1.41.74,8.14,8.14,0,0,0-1.2,1,7.93,7.93,0,0,0-1.69,2.51,8.42,8.42,0,0,0-.46,1.45A8.63,8.63,0,0,0,33,37.2a8,8,0,0,0,.13,1.54,8.24,8.24,0,0,0,.45,1.54,7.93,7.93,0,0,0,1.2,2,7.82,7.82,0,0,0,1.7,1.55,7.83,7.83,0,0,0,4.42,1.35h0a7.62,7.62,0,0,0,1.79-.2,7.79,7.79,0,0,0,1.64-.58,7.5,7.5,0,0,0,1.33-.81L46,44l4.56,4.56,1.12,1.12a1.08,1.08,0,0,0,1.53-1.53ZM46.79,39.7a6.34,6.34,0,0,1-10.35,2.09,6.07,6.07,0,0,1-1.39-2.09,6.36,6.36,0,0,1,0-4.78,6.07,6.07,0,0,1,1.39-2.09,6.27,6.27,0,0,1,2.09-1.39,6.69,6.69,0,0,1,1.18-.35A6.05,6.05,0,0,1,40.92,31a6.19,6.19,0,0,1,1.21.11,6.58,6.58,0,0,1,1.17.35,6.34,6.34,0,0,1,3.49,3.48,6.36,6.36,0,0,1,0,4.78Z"/><path class="cls-2" d="M27.82,13a.89.89,0,0,0-.79.42L11.56,40.14a.91.91,0,0,0,.78,1.36H34.77a3.85,3.85,0,0,1-.58-1.12,3.62,3.62,0,0,1-.13-.69H13.92l13.9-24L36.91,31.4a2.53,2.53,0,0,1,1.14-.68,2.28,2.28,0,0,1,.51-.09l-10-17.17a.88.88,0,0,0-.78-.42Z"/><path class="cls-2" d="M27.82,22.15a1.58,1.58,0,0,0-1.57,1.73l.88,8.7a.66.66,0,0,0,.66.6.67.67,0,0,0,.67-.6l.92-8.69a1.57,1.57,0,0,0-1.56-1.74Z"/><path class="cls-2" d="M27.82,35.09a1.53,1.53,0,0,0-1.54,1.53h0a1.54,1.54,0,1,0,3.07,0h0a1.53,1.53,0,0,0-1.53-1.53Z"/></g></g></svg>