<svg xmlns="http://www.w3.org/2000/svg" viewBox="0 0 65 65"><defs><style>.cls-1{fill:#1ab4ff;}.cls-2{fill:#fff;}</style></defs><title>Icon_BlueFill_Retail</title><g id="Layer_2" data-name="Layer 2"><g id="Layer_1-2" data-name="Layer 1"><path class="cls-1" d="M32.5,64A31.5,31.5,0,1,1,64,32.5,31.53,31.53,0,0,1,32.5,64Z"/><path class="cls-1" d="M32.5,2A30.5,30.5,0,1,1,2,32.5,30.53,30.53,0,0,1,32.5,2m0-2A32.5,32.5,0,1,0,65,32.5,32.5,32.5,0,0,0,32.5,0Z"/><path class="cls-2" d="M46.28,21.58a1,1,0,0,0-1-.93H39.4a7,7,0,0,0-7.18-5.94,7,7,0,0,0-7.17,5.94H19.71a1,1,0,0,0-1,.93L17,47.23a1,1,0,0,0,1,1.06H47a1,1,0,0,0,1-1.06ZM32.22,16.32a5.45,5.45,0,0,1,5.54,4.33H26.68A5.45,5.45,0,0,1,32.22,16.32ZM19,46.29l1.61-23.64h23.7L46,46.29Z"/></g></g></svg>