<svg xmlns="http://www.w3.org/2000/svg" viewBox="0 0 65 65"><defs><style>.cls-1{fill:#1ab4ff;}.cls-2{fill:#fff;}</style></defs><title>Icon_BlueFill_Invoice</title><g id="Layer_2" data-name="Layer 2"><g id="Layer_2-2" data-name="Layer 2"><circle class="cls-1" cx="32.5" cy="32.5" r="31.5"/><path class="cls-1" d="M32.5,2A30.5,30.5,0,1,1,2,32.5,30.53,30.53,0,0,1,32.5,2m0-2A32.5,32.5,0,1,0,65,32.5,32.5,32.5,0,0,0,32.5,0Z"/><path class="cls-2" d="M47.6,26.06,36.81,14.63a1.51,1.51,0,0,0-1.08-.47H20.48A1.52,1.52,0,0,0,19,15.7V49.3a1.52,1.52,0,0,0,1.5,1.54h26A1.52,1.52,0,0,0,48,49.3V27.13A1.5,1.5,0,0,0,47.6,26.06ZM37,17.41l7.82,8.28H37ZM20.73,49.07V15.93H35.27V26.57a.88.88,0,0,0,.88.88H46.27V49.07Z"/><path class="cls-2" d="M41.46,32.86H25.94a.75.75,0,1,1,0-1.5H41.46a.75.75,0,0,1,0,1.5Z"/><path class="cls-2" d="M41.46,36.86H25.94a.75.75,0,1,1,0-1.5H41.46a.75.75,0,0,1,0,1.5Z"/><path class="cls-2" d="M41.46,40.86H25.94a.75.75,0,1,1,0-1.5H41.46a.75.75,0,0,1,0,1.5Z"/><path class="cls-2" d="M41.46,44.86H33.7a.75.75,0,0,1,0-1.5h7.76a.75.75,0,0,1,0,1.5Z"/></g></g></svg>