<svg xmlns="http://www.w3.org/2000/svg" viewBox="0 0 65 65"><defs><style>.cls-1{fill:#1ab4ff;}.cls-2{fill:#fff;}</style></defs><title>Icon_BlueFill_Inventory</title><g id="Layer_2" data-name="Layer 2"><g id="Layer_3" data-name="Layer 3"><circle class="cls-1" cx="32.5" cy="32.5" r="31.5"/><path class="cls-1" d="M32.5,2A30.5,30.5,0,1,1,2,32.5,30.53,30.53,0,0,1,32.5,2m0-2A32.5,32.5,0,1,0,65,32.5,32.5,32.5,0,0,0,32.5,0Z"/><path class="cls-2" d="M27.84,24.61a3.58,3.58,0,1,0,3.57,3.58A3.58,3.58,0,0,0,27.84,24.61Zm0,5.7A2.13,2.13,0,1,1,30,28.19,2.12,2.12,0,0,1,27.84,30.31Z"/><path class="cls-2" d="M36.86,24.61a3.58,3.58,0,1,0,3.57,3.58A3.58,3.58,0,0,0,36.86,24.61ZM39,28.19a2.12,2.12,0,1,1-2.12-2.13A2.12,2.12,0,0,1,39,28.19Z"/><path class="cls-2" d="M18.82,33.16a3.57,3.57,0,1,0,3.58,3.57A3.57,3.57,0,0,0,18.82,33.16ZM21,36.73a2.13,2.13,0,1,1-2.13-2.12A2.13,2.13,0,0,1,21,36.73Z"/><path class="cls-2" d="M27.84,33.16a3.57,3.57,0,1,0,3.57,3.57A3.57,3.57,0,0,0,27.84,33.16Zm0,5.69A2.12,2.12,0,1,1,30,36.73,2.12,2.12,0,0,1,27.84,38.85Z"/><path class="cls-2" d="M36.86,33.16a3.57,3.57,0,1,0,3.57,3.57A3.57,3.57,0,0,0,36.86,33.16ZM39,36.73a2.12,2.12,0,1,1-2.12-2.12A2.12,2.12,0,0,1,39,36.73Z"/><path class="cls-2" d="M18.82,41.7a3.58,3.58,0,1,0,3.58,3.57A3.58,3.58,0,0,0,18.82,41.7ZM21,45.27a2.13,2.13,0,1,1-2.13-2.12A2.13,2.13,0,0,1,21,45.27Z"/><path class="cls-2" d="M27.84,41.7a3.58,3.58,0,1,0,3.57,3.57A3.58,3.58,0,0,0,27.84,41.7Zm0,5.7A2.13,2.13,0,1,1,30,45.27,2.12,2.12,0,0,1,27.84,47.4Z"/><path class="cls-2" d="M36.86,41.7a3.58,3.58,0,1,0,3.57,3.57A3.58,3.58,0,0,0,36.86,41.7ZM39,45.27a2.12,2.12,0,1,1-2.12-2.12A2.12,2.12,0,0,1,39,45.27Z"/><path class="cls-2" d="M36.86,16.15a3.58,3.58,0,1,0,3.57,3.57A3.57,3.57,0,0,0,36.86,16.15ZM39,19.72a2.12,2.12,0,1,1-2.12-2.12A2.13,2.13,0,0,1,39,19.72Z"/><path class="cls-2" d="M46.18,31.76a3.58,3.58,0,1,0-3.58-3.57A3.57,3.57,0,0,0,46.18,31.76Zm-2.13-3.57a2.13,2.13,0,1,1,2.13,2.12A2.14,2.14,0,0,1,44.05,28.19Z"/><path class="cls-2" d="M46.18,33.16a3.57,3.57,0,1,0,3.57,3.57A3.58,3.58,0,0,0,46.18,33.16Zm2.12,3.57a2.13,2.13,0,1,1-2.12-2.12A2.12,2.12,0,0,1,48.3,36.73Z"/><path class="cls-2" d="M46.18,41.7a3.58,3.58,0,1,0,3.57,3.57A3.59,3.59,0,0,0,46.18,41.7Zm2.12,3.57a2.13,2.13,0,1,1-2.12-2.12A2.12,2.12,0,0,1,48.3,45.27Z"/></g></g></svg>