<svg xmlns="http://www.w3.org/2000/svg" viewBox="0 0 65 65"><defs><style>.cls-1{fill:#1ab4ff;}.cls-2{fill:#fff;}</style></defs><title>Icon_BlueFill_Supplier_Management</title><g id="Layer_2" data-name="Layer 2"><g id="Layer_2-2" data-name="Layer 2"><circle class="cls-1" cx="32.5" cy="32.5" r="31.5"/><path class="cls-1" d="M32.5,2A30.5,30.5,0,1,1,2,32.5,30.53,30.53,0,0,1,32.5,2m0-2A32.5,32.5,0,1,0,65,32.5,32.5,32.5,0,0,0,32.5,0Z"/><path class="cls-2" d="M43.44,16.27a.91.91,0,0,0-.32.06L25.8,22.71a.9.9,0,0,0-.53,1.17L31.65,41.2a.91.91,0,0,0,.85.59,1.12,1.12,0,0,0,.31,0l17.32-6.38a.92.92,0,0,0,.54-1.18L44.29,16.87a.9.9,0,0,0-.85-.6ZM33,39.71,27.29,24.1,42.9,18.35,48.65,34,33,39.71Z"/><path class="cls-2" d="M17.92,18.09H14.27a.92.92,0,0,0,0,1.83h3L26,42.6a5.46,5.46,0,1,0,8.31,4.66,5.38,5.38,0,0,0-.12-1.14L51,39.91a.91.91,0,0,0-.31-1.76.89.89,0,0,0-.32.05L33.52,44.42a5.47,5.47,0,0,0-4.67-2.63,5.55,5.55,0,0,0-1.15.13L18.77,18.68a.93.93,0,0,0-.85-.59ZM28.86,50.91a3.65,3.65,0,1,1,3.64-3.65,3.65,3.65,0,0,1-3.64,3.65Z"/></g></g></svg>