<svg id="Layer_1" data-name="Layer 1" xmlns="http://www.w3.org/2000/svg" viewBox="0 0 300 300"><defs><style>.cls-1{fill:#1ab4ff;}.cls-2{fill:#fff;}</style></defs><circle class="cls-1" cx="149.85" cy="149.93" r="143.81" transform="translate(-62.13 149.87) rotate(-45)"/><path class="cls-1" d="M149.85,7.12a142.81,142.81,0,0,1,101,243.79,142.81,142.81,0,1,1-202-202,141.83,141.83,0,0,1,101-41.83m0-2A144.81,144.81,0,1,0,294.66,149.93,144.81,144.81,0,0,0,149.85,5.12Z"/><path class="cls-2" d="M236,123.06H165.55V102.94A17.56,17.56,0,0,0,148,85.4H66a17.55,17.55,0,0,0-17.53,17.54V150.8A17.55,17.55,0,0,0,66,168.34H89.45V185a3.86,3.86,0,0,0,2.14,3.45,3.72,3.72,0,0,0,1.72.41,3.87,3.87,0,0,0,2.32-.77L122,168.34h14.5v20.11A17.56,17.56,0,0,0,154,206h26.06l26.32,19.74a3.86,3.86,0,0,0,6.18-3.09V206H236a17.55,17.55,0,0,0,17.53-17.54V140.59A17.54,17.54,0,0,0,236,123.06Zm-99.59,17.53v20H120.66a3.79,3.79,0,0,0-2.31.78L97.18,177.26V164.48a3.87,3.87,0,0,0-3.87-3.87H66a9.82,9.82,0,0,1-9.81-9.81V102.94A9.82,9.82,0,0,1,66,93.13H148a9.83,9.83,0,0,1,9.82,9.81v20.12H154A17.55,17.55,0,0,0,136.45,140.59Zm109.4,47.86a9.83,9.83,0,0,1-9.81,9.82H208.69a3.86,3.86,0,0,0-3.87,3.86v12.79L183.65,199a3.84,3.84,0,0,0-2.31-.77H154a9.84,9.84,0,0,1-9.82-9.82V140.59a9.83,9.83,0,0,1,9.82-9.81h82a9.82,9.82,0,0,1,9.81,9.81Z"/></svg>