<svg xmlns="http://www.w3.org/2000/svg" viewBox="0 0 65 65"><defs><style>.cls-1{fill:#1ab4ff;}.cls-2{fill:#fff;}</style></defs><title>Icon_BlueFill_Smarter_Trip</title><g id="Layer_2" data-name="Layer 2"><g id="Layer_3" data-name="Layer 3"><circle class="cls-1" cx="32.5" cy="32.5" r="31.5"/><path class="cls-1" d="M32.5,2A30.5,30.5,0,1,1,2,32.5,30.53,30.53,0,0,1,32.5,2m0-2A32.5,32.5,0,1,0,65,32.5,32.5,32.5,0,0,0,32.5,0Z"/><path class="cls-2" d="M29.53,37.27a3.88,3.88,0,1,0-3.88,3.88A3.88,3.88,0,0,0,29.53,37.27Zm-3.88,2.66a2.66,2.66,0,1,1,2.66-2.66A2.67,2.67,0,0,1,25.65,39.93Z"/><path class="cls-2" d="M42.31,11.12H27.48a3.41,3.41,0,0,0-3.59,3.19V28.05a8.56,8.56,0,0,0-6.79,8.36c0,4.49,7.71,16.67,8,17.19a.64.64,0,0,0,.52.28.63.63,0,0,0,.52-.28c.14-.23,1.69-2.67,3.38-5.73H42.31a3.41,3.41,0,0,0,3.59-3.19V14.31A3.41,3.41,0,0,0,42.31,11.12Zm-16.66,41c-.72-1.17-2.08-3.43-3.43-5.93-3.22-6-3.89-8.6-3.89-9.77a7.33,7.33,0,0,1,6.25-7.24h.05c.18,0,1.3-.05,1.51-.05l.41,0A7.32,7.32,0,0,1,33,36.41c0,1-.52,3.21-2.84,7.78l-1.37,2.58h0C27.52,49,26.31,51,25.65,52.11Zm8.55-15.7a8.57,8.57,0,0,0-6-8.16v-12H41.5v25.4H32.67A15.47,15.47,0,0,0,34.2,36.41Zm10.45,8.27a2.17,2.17,0,0,1-2.34,1.94H30.25l2-3.69h9.92a.62.62,0,0,0,.62-.62V15.65a.62.62,0,0,0-.62-.62H27.58a.62.62,0,0,0-.62.62V27.92l-.82-.05h-.49c-.17,0-.34,0-.51,0V14.31a2.17,2.17,0,0,1,2.34-1.94H42.31a2.17,2.17,0,0,1,2.34,1.94Z"/></g></g></svg>