<svg xmlns="http://www.w3.org/2000/svg" viewBox="0 0 65 65"><defs><style>.cls-1{fill:#1ab4ff;}.cls-2{fill:#fff;}</style></defs><title>Icon_BlueFill_Pay</title><g id="Layer_2" data-name="Layer 2"><g id="Layer_2-2" data-name="Layer 2"><circle class="cls-1" cx="32.5" cy="32.5" r="31.5"/><path class="cls-1" d="M32.5,2A30.5,30.5,0,1,1,2,32.5,30.53,30.53,0,0,1,32.5,2m0-2A32.5,32.5,0,1,0,65,32.5,32.5,32.5,0,0,0,32.5,0Z"/><path class="cls-2" d="M49.24,31.67V25a2.79,2.79,0,0,0-2.79-2.79H44.33l-1.64-4.95a.94.94,0,0,0-1.1-.61l-3.18.76-3.32-4.16a.94.94,0,0,0-1.2-.22L18.29,22.2h-1.6A2.8,2.8,0,0,0,13.89,25V47.31a2.8,2.8,0,0,0,2.8,2.79H46.45a2.79,2.79,0,0,0,2.79-2.79V40.63A2.78,2.78,0,0,0,51.11,38V34.29A2.79,2.79,0,0,0,49.24,31.67ZM34.14,15l2.28,2.85-12,2.89Zm7,3.62,1.18,3.55h-16Zm5.26,29.59H16.69a.92.92,0,0,1-.93-.93V25a.93.93,0,0,1,.93-.93H46.45a.93.93,0,0,1,.93.93V31.5H39.94a2.79,2.79,0,0,0-2.79,2.79V38a2.79,2.79,0,0,0,2.79,2.79h7.44v6.51A.92.92,0,0,1,46.45,48.24ZM49.24,38a.93.93,0,0,1-.93.93H39.94A.93.93,0,0,1,39,38V34.29a.93.93,0,0,1,.93-.93h8.37a.93.93,0,0,1,.93.93Z"/></g></g></svg>