<svg xmlns="http://www.w3.org/2000/svg" viewBox="0 0 65 65"><defs><style>.cls-1{fill:#1ab4ff;}.cls-2{fill:#fff;fill-rule:evenodd;}</style></defs><title>Icon_BlueFill_GooglePlus</title><g id="Layer_2" data-name="Layer 2"><g id="Layer_1-2" data-name="Layer 1"><circle class="cls-1" cx="32.5" cy="32.5" r="31.5"/><path class="cls-1" d="M32.5,2A30.5,30.5,0,1,1,2,32.5,30.53,30.53,0,0,1,32.5,2m0-2A32.5,32.5,0,1,0,65,32.5,32.5,32.5,0,0,0,32.5,0Z"/><path class="cls-2" d="M24.84,29.85v5.3h7.21c-1.13,3.43-2.89,5.3-7.21,5.3a7.94,7.94,0,0,1,0-15.88,7.58,7.58,0,0,1,5.18,2c1.1-1.1,1-1.25,3.8-3.9a13.35,13.35,0,1,0-9,23.25c11,0,13.7-9.6,12.81-16Zm24,.27V25.49h-3.3v4.63H40.82v3.31h4.76v4.76h3.3V33.43H53.5V30.12Z"/></g></g></svg>