<svg xmlns="http://www.w3.org/2000/svg" viewBox="0 0 65 65"><defs><style>.cls-1{fill:#1ab4ff;}.cls-2{fill:#fff;}</style></defs><title>Icon_BlueFill_Webinar</title><g id="Layer_2" data-name="Layer 2"><g id="Layer_1-2" data-name="Layer 1"><circle class="cls-1" cx="32.5" cy="32.5" r="31.5"/><path class="cls-1" d="M32.5,2A30.5,30.5,0,1,1,2,32.5,30.53,30.53,0,0,1,32.5,2m0-2A32.5,32.5,0,1,0,65,32.5,32.5,32.5,0,0,0,32.5,0Z"/><path class="cls-2" d="M44.91,28a1,1,0,0,0-1,1v4.14a11.38,11.38,0,0,1-22.76,0V29a1,1,0,0,0-2.07,0v4.14a13.46,13.46,0,0,0,12.42,13.4v4.74h-6a1.12,1.12,0,0,0,0,2.23H39.57a1.12,1.12,0,0,0,0-2.23h-6V46.58A13.46,13.46,0,0,0,46,33.18V29A1,1,0,0,0,44.91,28Z"/><path class="cls-2" d="M32.5,42.49a9.33,9.33,0,0,0,9.31-9.31V20.76a9.31,9.31,0,0,0-18.62,0V33.18A9.33,9.33,0,0,0,32.5,42.49ZM25.26,20.76a7.24,7.24,0,0,1,14.48,0V33.18a7.24,7.24,0,0,1-14.48,0Z"/></g></g></svg>