<?xml version="1.0" encoding="utf-8"?>
<!-- Generator: Adobe Illustrator 22.1.0, SVG Export Plug-In . SVG Version: 6.00 Build 0)  -->
<svg version="1.1" id="Layer_1" xmlns="http://www.w3.org/2000/svg" xmlns:xlink="http://www.w3.org/1999/xlink" x="0px" y="0px"
	 viewBox="0 0 16 16" style="enable-background:new 0 0 16 16;" xml:space="preserve">
<style type="text/css">
	.st0{fill:#FF6714;}
</style>
<path class="st0" d="M15.5,13.6l-3.8-3.2c-0.4-0.4-0.8-0.5-1.1-0.5C11.5,8.8,12,7.5,12,6c0-3.3-2.7-6-6-6S0,2.7,0,6s2.7,6,6,6
	c1.5,0,2.8-0.5,3.9-1.4c0,0.3,0.1,0.8,0.5,1.1l3.2,3.8c0.6,0.6,1.5,0.7,2,0.1C16.2,15.1,16.1,14.2,15.5,13.6L15.5,13.6z M6,10
	c-2.2,0-4-1.8-4-4s1.8-4,4-4s4,1.8,4,4S8.2,10,6,10z"/>
</svg>
