<svg xmlns="http://www.w3.org/2000/svg" viewBox="0 0 65 65"><defs><style>.cls-1{fill:#1ab4ff;}.cls-2{fill:#fff;}</style></defs><title>Icon_BlueFill_Travel_Management</title><g id="Layer_2" data-name="Layer 2"><g id="Layer_3" data-name="Layer 3"><circle class="cls-1" cx="32.5" cy="32.5" r="31.5"/><path class="cls-1" d="M32.5,2A30.5,30.5,0,1,1,2,32.5,30.53,30.53,0,0,1,32.5,2m0-2A32.5,32.5,0,1,0,65,32.5,32.5,32.5,0,0,0,32.5,0Z"/><path class="cls-2" d="M37.56,23.46a5.06,5.06,0,1,0-5.06,5.06A5.07,5.07,0,0,0,37.56,23.46Zm-8.42,0a3.36,3.36,0,1,1,3.36,3.36A3.37,3.37,0,0,1,29.14,23.46Z"/><path class="cls-2" d="M45.87,32.13l0-.13-5-1.66c.41-.8.78-1.57,1.1-2.3A10.46,10.46,0,1,0,22,23.57,10.17,10.17,0,0,0,23,28c.32.75.7,1.53,1.11,2.33l-5,1.66-4.8,17.84,9.11-4.21,9,4.21,9-4.21,9.11,4.21Zm-21.3-4.82a8.56,8.56,0,0,1-.84-3.74,8.77,8.77,0,1,1,16.68,3.76A64,64,0,0,1,32.5,40a63.85,63.85,0,0,1-7.93-12.68ZM25,31.86a73.47,73.47,0,0,0,6.9,10l.65.77.65-.77a73.43,73.43,0,0,0,6.89-10l4.39,1.46,3.62,13.45-6.53-3L32.5,48l-9-4.21-6.53,3,3.62-13.45Z"/></g></g></svg>