<svg xmlns="http://www.w3.org/2000/svg" viewBox="0 0 65 65"><defs><style>.cls-1{fill:#1ab4ff;}.cls-2{fill:#fff;}</style></defs><title>Icon_BlueFill_WeDont</title><g id="Layer_2" data-name="Layer 2"><g id="Layer_1-2" data-name="Layer 1"><circle class="cls-1" cx="32.5" cy="32.5" r="31.5"/><path class="cls-1" d="M32.5,2A30.5,30.5,0,1,1,2,32.5,30.53,30.53,0,0,1,32.5,2m0-2A32.5,32.5,0,1,0,65,32.5,32.5,32.5,0,0,0,32.5,0Z"/><path class="cls-2" d="M17.83,16.58a1.28,1.28,0,0,0-.89.36,1.27,1.27,0,0,0,0,1.77L46.29,48.06a1.24,1.24,0,0,0,.88.36,1.28,1.28,0,0,0,.89-.36,1.27,1.27,0,0,0,0-1.77L18.71,16.94a1.24,1.24,0,0,0-.88-.36Z"/><path class="cls-2" d="M47.17,16.58a1.24,1.24,0,0,0-.88.36L16.94,46.29a1.27,1.27,0,0,0,0,1.77,1.28,1.28,0,0,0,.89.36,1.24,1.24,0,0,0,.88-.36L48.06,18.71a1.27,1.27,0,0,0,0-1.77,1.28,1.28,0,0,0-.89-.36Z"/></g></g></svg>