<svg xmlns="http://www.w3.org/2000/svg" viewBox="0 0 65 65"><defs><style>.cls-1{fill:#1ab4ff;}.cls-2{fill:#fff;}</style></defs><title>Icon_BlueFill_Coupa_Adavantage</title><g id="Layer_2" data-name="Layer 2"><g id="Layer_2-2" data-name="Layer 2"><circle class="cls-1" cx="32.5" cy="32.5" r="31.5"/><path class="cls-1" d="M32.5,2A30.5,30.5,0,1,1,2,32.5,30.53,30.53,0,0,1,32.5,2m0-2A32.5,32.5,0,1,0,65,32.5,32.5,32.5,0,0,0,32.5,0Z"/><path class="cls-2" d="M32.5,15.85A9.54,9.54,0,1,0,42,25.39,9.55,9.55,0,0,0,32.5,15.85Zm0,17.07A7.54,7.54,0,1,1,40,25.39,7.55,7.55,0,0,1,32.5,32.92Z"/><path class="cls-2" d="M47.73,25.39a3.76,3.76,0,0,0-1.23-2.78A1.77,1.77,0,0,1,46,20.79a3.8,3.8,0,0,0-.32-3A3.75,3.75,0,0,0,43.24,16a1.78,1.78,0,0,1-1.34-1.34,3.76,3.76,0,0,0-4.8-2.78,1.76,1.76,0,0,1-1.83-.48,3.73,3.73,0,0,0-5.54,0h0a1.76,1.76,0,0,1-1.83.48,3.82,3.82,0,0,0-3,.33,3.76,3.76,0,0,0-1.79,2.45A1.78,1.78,0,0,1,21.76,16a3.75,3.75,0,0,0-2.45,1.78,3.8,3.8,0,0,0-.32,3,1.76,1.76,0,0,1-.49,1.82,3.75,3.75,0,0,0,0,5.55A1.79,1.79,0,0,1,19,30a3.74,3.74,0,0,0,2.77,4.8,1.75,1.75,0,0,1,1.34,1.33,3.69,3.69,0,0,0,3.66,2.93V53.84a1,1,0,0,0,.62.92,1,1,0,0,0,1.09-.21l4-4,4,4a1,1,0,0,0,.7.29,1.09,1.09,0,0,0,.39-.08,1,1,0,0,0,.61-.92V39.06a3.72,3.72,0,0,0,3.66-2.93,1.75,1.75,0,0,1,1.34-1.34A3.74,3.74,0,0,0,46,30a1.79,1.79,0,0,1,.49-1.83A3.76,3.76,0,0,0,47.73,25.39Zm-14.52,23a1,1,0,0,0-1.42,0l-3,3V38.86a1.73,1.73,0,0,1,1,.53,3.75,3.75,0,0,0,5.54,0,1.73,1.73,0,0,1,1-.53V51.42ZM45.16,26.68a3.73,3.73,0,0,0-1,3.91,1.77,1.77,0,0,1-1.3,2.25A3.75,3.75,0,0,0,40,35.7a1.75,1.75,0,0,1-.84,1.14,1.72,1.72,0,0,1-1.4.15,3.76,3.76,0,0,0-3.91,1,1.81,1.81,0,0,1-2.59,0,3.78,3.78,0,0,0-2.78-1.22A3.65,3.65,0,0,0,27.3,37a1.76,1.76,0,0,1-2.25-1.29,3.75,3.75,0,0,0-2.86-2.86,1.77,1.77,0,0,1-1.3-2.25,3.74,3.74,0,0,0-1-3.91,1.73,1.73,0,0,1-.58-1.29,1.75,1.75,0,0,1,.58-1.3,3.74,3.74,0,0,0,1-3.91,1.76,1.76,0,0,1,1.3-2.24,3.77,3.77,0,0,0,2.86-2.86,1.79,1.79,0,0,1,.84-1.15,1.76,1.76,0,0,1,1.4-.15,3.78,3.78,0,0,0,3.92-1,1.81,1.81,0,0,1,2.59,0,3.77,3.77,0,0,0,3.91,1,1.76,1.76,0,0,1,1.4.15A1.79,1.79,0,0,1,40,15.08a3.77,3.77,0,0,0,2.86,2.86,1.76,1.76,0,0,1,1.3,2.24,3.74,3.74,0,0,0,1,3.91,1.75,1.75,0,0,1,0,2.59Z"/></g></g></svg>