<svg xmlns="http://www.w3.org/2000/svg" viewBox="0 0 65 65"><defs><style>.cls-1{fill:#1ab4ff;}.cls-2{fill:#fff;}</style></defs><title>Icon_BlueFill_Energy&amp;amp;Utilities</title><g id="Layer_2" data-name="Layer 2"><g id="Layer_1-2" data-name="Layer 1"><circle class="cls-1" cx="32.5" cy="32.5" r="31.5"/><path class="cls-1" d="M32.5,2A30.5,30.5,0,1,1,2,32.5,30.53,30.53,0,0,1,32.5,2m0-2A32.5,32.5,0,1,0,65,32.5,32.5,32.5,0,0,0,32.5,0Z"/><path class="cls-2" d="M42.09,16.76a13.11,13.11,0,0,0-18.31-.85c-.32.29-.63.59-.93.92a13.06,13.06,0,0,0-3.45,8.85,13.11,13.11,0,0,0,1.89,6.78A13.63,13.63,0,0,0,23,34.81a9,9,0,0,1,2.56,5.78,2.83,2.83,0,0,1,0,.29v5.2a2.68,2.68,0,0,0,2.36,2.65,4.69,4.69,0,0,0,9.16,0,2.69,2.69,0,0,0,2.35-2.65V41.44s0-.6,0-.83A9,9,0,0,1,42,34.79a13.31,13.31,0,0,0,1.65-2.3.23.23,0,0,0,.05-.1,13.07,13.07,0,0,0-1.65-15.63ZM37.31,46.08a.56.56,0,0,1-.56.56H28.24a.56.56,0,0,1-.56-.56v-3.6h9.63Zm0-5.72H27.64a10.89,10.89,0,0,0-3.05-6.92,11.28,11.28,0,0,1-1.44-2l-.08-.14a11.15,11.15,0,0,1-1.55-5.62,10.91,10.91,0,0,1,2.9-7.42,7.9,7.9,0,0,1,.77-.76A11,11,0,0,1,41.93,31.3a.65.65,0,0,0-.09.16,11.22,11.22,0,0,1-1.44,2A10.86,10.86,0,0,0,37.35,40.36ZM32.5,50.29a2.6,2.6,0,0,1-2.36-1.53h4.72A2.6,2.6,0,0,1,32.5,50.29Z"/></g></g></svg>