<svg xmlns="http://www.w3.org/2000/svg" viewBox="0 0 65 65"><defs><style>.cls-1{fill:#1ab4ff;}.cls-2{fill:#fff;stroke:#fff;stroke-miterlimit:10;stroke-width:0.5px;}</style></defs><title>Icon_BlueFill_Compliance</title><g id="Layer_2" data-name="Layer 2"><g id="Layer_1-2" data-name="Layer 1"><circle class="cls-1" cx="32.5" cy="32.5" r="31.5"/><path class="cls-1" d="M32.5,2A30.5,30.5,0,1,1,2,32.5,30.53,30.53,0,0,1,32.5,2m0-2A32.5,32.5,0,1,0,65,32.5,32.5,32.5,0,0,0,32.5,0Z"/><path class="cls-2" d="M32.5,52.63a2,2,0,0,1-.55-.08C15.62,47.61,15.53,27.08,15.89,20.91a2,2,0,0,1,1.95-1.86H18c.35,0,.71,0,1.07,0a20,20,0,0,0,12.29-4.3,1.89,1.89,0,0,1,1.19-.41,1.93,1.93,0,0,1,1.19.41A20.34,20.34,0,0,0,46,19.08c.34,0,.69,0,1,0h0a2,2,0,0,1,2,1.86c.36,6.17.28,26.7-16.06,31.64A2.09,2.09,0,0,1,32.5,52.63ZM17.83,20.69a.45.45,0,0,0-.27.1.45.45,0,0,0-.13.28c-.32,7.53.5,25.53,15,29.91l.12,0,.11,0c15.08-4.58,15.16-24,14.83-29.91a.41.41,0,0,0-.4-.38h0l-1,0a22.21,22.21,0,0,1-13.31-4.59A.36.36,0,0,0,32.5,16a.4.4,0,0,0-.25.09,22.24,22.24,0,0,1-13.37,4.58c-.34,0-.69,0-1,0Z"/></g></g></svg>