<svg xmlns="http://www.w3.org/2000/svg" viewBox="0 0 65 65"><defs><style>.cls-1{fill:#1ab4ff;}.cls-2{fill:#fff;}</style></defs><title>Icon_BlueFill_Procurement</title><g id="Layer_2" data-name="Layer 2"><g id="Layer_2-2" data-name="Layer 2"><circle class="cls-1" cx="32.5" cy="32.5" r="31.5"/><path class="cls-1" d="M32.5,2A30.5,30.5,0,1,1,2,32.5,30.53,30.53,0,0,1,32.5,2m0-2A32.5,32.5,0,1,0,65,32.5,32.5,32.5,0,0,0,32.5,0Z"/><path class="cls-1" d="M53.44,21.89a1.6,1.6,0,0,0-1.6-1.6H18.93a4.25,4.25,0,0,0-4.25-4.24H12.56a1.06,1.06,0,0,0,0,2.11h2.12a2.12,2.12,0,0,1,2.12,2.12v22.3a4.26,4.26,0,0,0,4.25,4.25h.19a3.18,3.18,0,0,0,6,0H39.82a3.19,3.19,0,1,0,0-2.13H27.24a3.18,3.18,0,0,0-6,0h-.19a2.12,2.12,0,0,1-2.12-2.12V39.4H46a1.57,1.57,0,0,0,1.52-1.13h0l5.81-15.84h0A1.62,1.62,0,0,0,53.44,21.89Z"/><path class="cls-2" d="M50.52,20.62H19.87a4.65,4.65,0,0,0-1.42-3.22A5,5,0,0,0,15,16.26H13a.84.84,0,1,0,0,1.68H15a3.36,3.36,0,0,1,2.3.71,3.37,3.37,0,0,1,.89,2.57V43h0v.93a4,4,0,0,0,.94,2.68,2.63,2.63,0,0,0,1.52.76,4,4,0,0,0,7.87.2h9.28a4,4,0,1,0,0-1.68H28.56a4,4,0,0,0-7.78-.21,1,1,0,0,1-.4-.24A2.37,2.37,0,0,1,19.91,44V40.63h25A2.36,2.36,0,0,0,47.19,39l4.68-12.82c.44-1.19.7-1.92.83-2.39h0a2.54,2.54,0,0,0,.14-.8A2.37,2.37,0,0,0,50.52,20.62ZM41.76,44.4a2.34,2.34,0,1,1-2.33,2.34A2.33,2.33,0,0,1,41.76,44.4Zm-17.12,0a2.34,2.34,0,1,1-2.34,2.34A2.34,2.34,0,0,1,24.64,44.4ZM51.16,23.22v0C51,23.6,47.48,33.3,45.6,38.45a.69.69,0,0,1-.66.5h-25V22.3H50.52a.68.68,0,0,1,.68.69A.66.66,0,0,1,51.16,23.22Z"/></g></g></svg>