<svg xmlns="http://www.w3.org/2000/svg" viewBox="0 0 65 65"><defs><style>.cls-1{fill:#1ab4ff;}.cls-2{fill:none;stroke:#fff;stroke-miterlimit:10;stroke-width:2px;}</style></defs><title>Icon_BlueFill_LiveDemo</title><g id="Layer_2" data-name="Layer 2"><g id="Layer_1-2" data-name="Layer 1"><circle class="cls-1" cx="32.5" cy="32.5" r="31.5"/><path class="cls-1" d="M32.5,2A30.5,30.5,0,1,1,2,32.5,30.53,30.53,0,0,1,32.5,2m0-2A32.5,32.5,0,1,0,65,32.5,32.5,32.5,0,0,0,32.5,0Z"/><path class="cls-2" d="M52.33,34.66A38.44,38.44,0,0,0,46,30.86c-.83-.4-1.65-.76-2.45-1.09.81-.16,1.64-.35,2.48-.58a26.54,26.54,0,0,0,6.56-2.61c1.82-1.08,2.73-2.19,2.29-3s-2.41-1.3-5.08-1.21a32,32,0,0,0-6.29.9c-.8.19-1.58.41-2.32.64q.6-.87,1.14-1.8a18.27,18.27,0,0,0,2.18-5.32c.34-1.71.12-2.93-.71-3.3s-2.41.29-4,1.74a21.78,21.78,0,0,0-3.48,4.07c-.4.6-.77,1.2-1.1,1.79-.18-.65-.38-1.31-.62-2a19.66,19.66,0,0,0-2.7-5.22c-1.13-1.51-2.3-2.34-3.22-2.18S27,13.26,27,15.32a18.52,18.52,0,0,0,.81,5.2c.2.7.43,1.37.68,2-.69-.39-1.41-.77-2.17-1.13A32.26,32.26,0,0,0,19.45,19c-2.39-.52-4.24-.48-4.91.25s.11,2.33,2.09,4a29,29,0,0,0,5.59,3.56c.79.4,1.59.76,2.37,1.09-.9.16-1.83.36-2.79.59a43.24,43.24,0,0,0-8.45,2.91c-2.78,1.34-4.53,2.76-4.42,3.88S11.48,37,15,36.77a42.68,42.68,0,0,0,8.27-1.45c1-.27,2-.57,2.9-.88-.58.75-1.15,1.54-1.72,2.39A39.93,39.93,0,0,0,20,45.28c-1.14,3.15-1.32,5.59-.13,6.26s3.83-.9,6.51-3.86a43.16,43.16,0,0,0,5.14-7.12c.52-.9,1-1.77,1.4-2.61.19.89.43,1.83.71,2.8a37.09,37.09,0,0,0,3.63,8.61C39,52.12,40.73,53.72,42,53.23s1.79-3.29,1.33-7a38.58,38.58,0,0,0-1.93-7.89c-.33-.91-.68-1.78-1-2.6.78.46,1.63.92,2.51,1.36a36,36,0,0,0,8.09,3c2.72.6,4.65.45,5-.59S54.91,36.6,52.33,34.66Z"/></g></g></svg>