<svg xmlns="http://www.w3.org/2000/svg" viewBox="0 0 65 65"><defs><style>.cls-1{fill:#1ab4ff;}.cls-2{fill:#fff;}</style></defs><title>Icon_BlueFill_Ai_Spend_Classification</title><g id="Layer_2" data-name="Layer 2"><g id="Layer_3" data-name="Layer 3"><circle class="cls-1" cx="32.5" cy="32.5" r="31.5"/><path class="cls-1" d="M32.5,2A30.5,30.5,0,1,1,2,32.5,30.53,30.53,0,0,1,32.5,2m0-2A32.5,32.5,0,1,0,65,32.5,32.5,32.5,0,0,0,32.5,0Z"/><polygon class="cls-2" points="35.78 16.73 36.27 16.75 36.25 16.73 35.78 16.73"/><path class="cls-2" d="M28.86,13.09a4.84,4.84,0,0,0-3.63,1.61,3.83,3.83,0,0,0-2.91,1h-.18a6,6,0,0,0-6,6A5.85,5.85,0,0,0,16.65,24a5,5,0,0,0-1.26,8.07A6,6,0,0,0,18,42.47a4.43,4.43,0,0,0-.1,1,5,5,0,0,0,4.95,5,4.69,4.69,0,0,0,1.24-.16,4.94,4.94,0,0,0,9.71-1V17.66h0A5,5,0,0,0,28.86,13.09ZM19.74,42.32a5.72,5.72,0,0,1,4.84-1.15,6.27,6.27,0,0,0,.62,3.16.82.82,0,0,0,1.45-.76,3.64,3.64,0,0,1,1.19-4.83.82.82,0,0,0,.21-1.14.82.82,0,0,0-1.14-.21A5.32,5.32,0,0,0,25,39.58a7.17,7.17,0,0,0-6.14,1.36,4.32,4.32,0,0,1-2-7.87,12,12,0,0,0,4.09.76A9,9,0,0,0,26.45,32,6.17,6.17,0,0,0,29,33.7.85.85,0,0,0,30,33.21a.82.82,0,0,0-.49-1.05,4.28,4.28,0,0,1-2.89-4.34.82.82,0,0,0-.74-.89.81.81,0,0,0-.89.74,6.23,6.23,0,0,0,.54,3,7.34,7.34,0,0,1-4.63,1.56,10.26,10.26,0,0,1-3.6-.69.61.61,0,0,0-.14-.1A3.31,3.31,0,0,1,18,25.28.82.82,0,0,0,18.51,24a4.33,4.33,0,0,1,3.33-6.7,4.91,4.91,0,0,0,1.69,3.17,4.89,4.89,0,0,0-1.44,2.93.83.83,0,0,0,.81.7H23a.82.82,0,0,0,.7-.75c0-.11.57-2.71,4.27-3.4a.8.8,0,0,0,.52-.34.78.78,0,0,0,.13-.61.8.8,0,0,0-.34-.53.78.78,0,0,0-.61-.13,8.21,8.21,0,0,0-2.86,1.07,3.16,3.16,0,0,1-1.36-2.57,2.21,2.21,0,0,1,1.43-.54,2.12,2.12,0,0,1,.49.06.83.83,0,0,0,.83-.31,3.3,3.3,0,0,1,5.94,1.69l0,29V47a3.31,3.31,0,0,1-6.61.1.81.81,0,0,0-.41-.68.84.84,0,0,0-.41-.11.85.85,0,0,0-.38.09,3.19,3.19,0,0,1-1.52.37,3.28,3.28,0,0,1-3.1-4.43Z"/><path class="cls-2" d="M50.93,29H37.68a.76.76,0,0,0-.75.75v5.42a.76.76,0,0,0,.75.75H50.93a.75.75,0,0,0,.75-.75V29.79A.75.75,0,0,0,50.93,29Zm-.75,5.42H38.43V30.54H50.18Z"/><path class="cls-2" d="M50.93,39.78H37.68a.76.76,0,0,0-.75.75V46a.75.75,0,0,0,.75.75H50.93a.74.74,0,0,0,.75-.75V40.53A.75.75,0,0,0,50.93,39.78Zm-.75,5.42H38.43V41.28H50.18Z"/><path class="cls-2" d="M50.93,18.3H37.68a.75.75,0,0,0-.75.75v5.42a.76.76,0,0,0,.75.75H50.93a.75.75,0,0,0,.75-.75V19.05A.74.74,0,0,0,50.93,18.3Zm-.75,5.42H38.43V19.8H50.18Z"/></g></g></svg>