<svg xmlns="http://www.w3.org/2000/svg" viewBox="0 0 65 65"><defs><style>.cls-1{fill:#1ab4ff;}.cls-2{fill:#fff;}</style></defs><title>Icon_BlueFill_Manufacturing</title><g id="Layer_2" data-name="Layer 2"><g id="Layer_1-2" data-name="Layer 1"><circle class="cls-1" cx="32.5" cy="32.5" r="31.5"/><path class="cls-1" d="M32.5,2A30.5,30.5,0,1,1,2,32.5,30.53,30.53,0,0,1,32.5,2m0-2A32.5,32.5,0,1,0,65,32.5,32.5,32.5,0,0,0,32.5,0Z"/><path class="cls-2" d="M18.51,51.47a3.7,3.7,0,0,1-2.61-1.1l-1.24-1.24a3.56,3.56,0,0,1-.1-5L24.71,34l8-8c-.7-1.87-1.81-5.72.8-8.33l1.76-1.77c2.65-2.64,6.15-3,9.62-1.14a1,1,0,0,1,.51.74,1,1,0,0,1-.29.85l-4.57,4.58,3.55,3.55,4.58-4.58a1,1,0,0,1,1.58.22c1.92,3.47,1.51,7-1.14,9.62l-1.76,1.76c-2.64,2.64-6.42,1.57-8.26.89l-7.55,7.54-.37.37L20.94,50.48A3.42,3.42,0,0,1,18.51,51.47Zm22.1-35.95a5.46,5.46,0,0,0-3.93,1.76L34.92,19c-1.38,1.38-1.42,3.54-.13,6.8.25.6.25.6-2.67,3.53L16,45.51a1.58,1.58,0,0,0,.1,2.21L17.32,49a1.57,1.57,0,0,0,2.21.1L29.75,38.84h0l.36-.36c8.31-8.3,8.31-8.3,8.72-8.3a.94.94,0,0,1,.37.07c3.19,1.26,5.32,1.2,6.72-.2l1.77-1.76a5.41,5.41,0,0,0,1.37-6L45.37,26a1.85,1.85,0,0,1-2.63,0L39,22.2a1.88,1.88,0,0,1-.56-1.29A1.8,1.8,0,0,1,39,19.59l3.69-3.68A6,6,0,0,0,40.61,15.52Z"/></g></g></svg>