<svg xmlns="http://www.w3.org/2000/svg" viewBox="0 0 65 65"><defs><style>.cls-1{fill:#1ab4ff;}.cls-2{fill:#fff;}</style></defs><title>Icon_BlueFill_Spend_Analytics</title><g id="Layer_2" data-name="Layer 2"><g id="Layer_2-2" data-name="Layer 2"><path class="cls-1" d="M32.49,64A31.64,31.64,0,0,1,1,33,31.52,31.52,0,0,1,32,1h.52A31.64,31.64,0,0,1,64,32,31.52,31.52,0,0,1,33,64Z"/><path class="cls-1" d="M32.51,0V2A30.5,30.5,0,0,1,33,63h-.5A30.5,30.5,0,0,1,32,2h.5V0m0,0H32a32.5,32.5,0,0,0,.51,65H33a32.5,32.5,0,0,0-.51-65Z"/><path class="cls-2" d="M22.61,46.35l-8.88.14a1,1,0,0,1-1-1l-.2-12.44a1,1,0,0,1,1-1l8.89-.15a1,1,0,0,1,1,1l.2,12.43A1,1,0,0,1,22.61,46.35Zm-7.92-1.87,6.89-.12-.17-10.43L14.53,34Z"/><path class="cls-2" d="M37.16,46.11l-8.88.15a1,1,0,0,1-1-1L27,27.51a1,1,0,0,1,1-1l8.88-.15a1,1,0,0,1,1,1l.28,17.76A1,1,0,0,1,37.16,46.11Zm-7.91-1.87,6.88-.11-.25-15.76L29,28.48Z"/><path class="cls-2" d="M51.71,45.88,42.83,46a1,1,0,0,1-1-1l-.41-25.37a1,1,0,0,1,1-1l8.88-.14a1,1,0,0,1,1,1l.41,25.37A1,1,0,0,1,51.71,45.88ZM43.8,44l6.88-.11-.37-23.38-6.88.12Z"/></g></g></svg>