<svg xmlns="http://www.w3.org/2000/svg" viewBox="0 0 65 65"><defs><style>.cls-1{fill:#1ab4ff;}.cls-2{fill:#fff;}</style></defs><title>Icon_BlueFill_Search</title><g id="Layer_2" data-name="Layer 2"><g id="Layer_1-2" data-name="Layer 1"><circle class="cls-1" cx="32.5" cy="32.5" r="31.5"/><path class="cls-1" d="M32.5,2A30.5,30.5,0,1,1,2,32.5,30.53,30.53,0,0,1,32.5,2m0-2A32.5,32.5,0,1,0,65,32.5,32.5,32.5,0,0,0,32.5,0Z"/><path class="cls-2" d="M49,46.47l-1.86-1.86-7.56-7.55-.59-.6a13.93,13.93,0,0,0,1.2-1.91,13.23,13.23,0,0,0,1-2.64,12.51,12.51,0,0,0,.42-2.86,13.11,13.11,0,0,0-.23-3,12.86,12.86,0,0,0-.9-2.86,12.62,12.62,0,0,0-1.46-2.48A13.15,13.15,0,0,0,32.21,16a13.27,13.27,0,0,0-2.79-.49,12.14,12.14,0,0,0-2.89.13,12.66,12.66,0,0,0-2.89.8,12.46,12.46,0,0,0-2.34,1.24,12,12,0,0,0-2,1.63,12.55,12.55,0,0,0-1.61,1.95,13.06,13.06,0,0,0-1.19,2.21,13.55,13.55,0,0,0-.76,2.39,13.41,13.41,0,0,0-.28,2.52,13.86,13.86,0,0,0,.21,2.57,14.57,14.57,0,0,0,.75,2.55,13.16,13.16,0,0,0,8.26,7.58,13.29,13.29,0,0,0,3.87.58h0a12.91,12.91,0,0,0,3-.34A13,13,0,0,0,36.46,39l.6.59,7.55,7.56L46.47,49A1.8,1.8,0,0,0,49,46.47ZM32.52,18.82A10.59,10.59,0,0,1,38.3,24.6a11.15,11.15,0,0,1,.57,1.95,10.73,10.73,0,0,1,0,4,10.91,10.91,0,0,1-.57,2,10.52,10.52,0,0,1-19.48,0,10.91,10.91,0,0,1-.57-2,10.73,10.73,0,0,1,0-4,11.15,11.15,0,0,1,.57-1.95,10.49,10.49,0,0,1,2.31-3.47h0a10.49,10.49,0,0,1,3.47-2.31,11.15,11.15,0,0,1,1.95-.57,10.73,10.73,0,0,1,4,0A10.91,10.91,0,0,1,32.52,18.82Z"/></g></g></svg>