<svg xmlns="http://www.w3.org/2000/svg" viewBox="0 0 65 65"><defs><style>.cls-1{fill:#1ab4ff;}.cls-2{fill:#fff;}</style></defs><title>Icon_BlueFill_Integrate</title><g id="Layer_2" data-name="Layer 2"><g id="Layer_1-2" data-name="Layer 1"><circle class="cls-1" cx="32.5" cy="32.5" r="31.5"/><path class="cls-1" d="M32.5,2A30.5,30.5,0,1,1,2,32.5,30.53,30.53,0,0,1,32.5,2m0-2A32.5,32.5,0,1,0,65,32.5,32.5,32.5,0,0,0,32.5,0Z"/><path class="cls-2" d="M53.56,34.7a5.47,5.47,0,0,0-7.05-.56L41.26,28.9a10.3,10.3,0,1,0-17.52,0l-5.25,5.24a5.46,5.46,0,0,0-7,.56A5.47,5.47,0,0,0,15.31,44a5.45,5.45,0,0,0,4.42-8.65l5.06-5.06a10.28,10.28,0,0,0,6.84,3.45v7.17a5.47,5.47,0,1,0,1.75,0V33.77a10.28,10.28,0,0,0,6.83-3.45l5.06,5.06a5.38,5.38,0,0,0-1,3.18,5.46,5.46,0,0,0,1.6,3.87h0a5.47,5.47,0,0,0,7.73-7.73ZM17.94,41.19a3.82,3.82,0,0,1-5.26,0,3.72,3.72,0,1,1,5.26,0Zm18.28,5.14a3.72,3.72,0,1,1-3.72-3.71A3.73,3.73,0,0,1,36.22,46.33ZM32.5,32.06a8.56,8.56,0,1,1,8.55-8.55A8.56,8.56,0,0,1,32.5,32.06Zm19.82,9.13a3.81,3.81,0,0,1-5.25,0h0a3.72,3.72,0,0,1,2.62-6.34,3.71,3.71,0,0,1,2.63,6.34Z"/></g></g></svg>