<svg xmlns="http://www.w3.org/2000/svg" viewBox="0 0 65 65"><defs><style>.cls-1{fill:#1ab4ff;}.cls-2{fill:#fff;}</style></defs><title>Icon_BlueFill_WeDo</title><g id="Layer_2" data-name="Layer 2"><g id="Layer_1-2" data-name="Layer 1"><circle class="cls-1" cx="32.5" cy="32.5" r="31.5"/><path class="cls-1" d="M32.5,2A30.5,30.5,0,1,1,2,32.5,30.53,30.53,0,0,1,32.5,2m0-2A32.5,32.5,0,1,0,65,32.5,32.5,32.5,0,0,0,32.5,0Z"/><path class="cls-2" d="M27.41,46.68a1.46,1.46,0,0,1-1-.43L16.21,36.07A1.45,1.45,0,1,1,18.26,34l9,9L46.63,18.87a1.45,1.45,0,1,1,2.27,1.82L28.54,46.13a1.43,1.43,0,0,1-1.05.54Z"/></g></g></svg>