<svg xmlns="http://www.w3.org/2000/svg" viewBox="0 0 65 65"><defs><style>.cls-1{fill:#1ab4ff;}.cls-2{fill:#fff;}</style></defs><title>Icon_BlueFill_Supplier_Information_Management</title><g id="Layer_2" data-name="Layer 2"><g id="Layer_3" data-name="Layer 3"><circle class="cls-1" cx="32.5" cy="32.5" r="31.5"/><path class="cls-1" d="M32.5,2A30.5,30.5,0,1,1,2,32.5,30.53,30.53,0,0,1,32.5,2m0-2A32.5,32.5,0,1,0,65,32.5,32.5,32.5,0,0,0,32.5,0Z"/><path class="cls-2" d="M16.64,19.09A.89.89,0,0,0,15.8,19l-4.62,2.1a.86.86,0,0,0-.47.5.94.94,0,0,0,0,.68.9.9,0,0,0,1.18.44l1.91-.87A21.53,21.53,0,0,0,15,45.11a.91.91,0,0,0,.73.37.87.87,0,0,0,.51-.17.88.88,0,0,0,.36-.58.86.86,0,0,0-.15-.66,19.74,19.74,0,0,1-1.1-21.3l.05,2a.89.89,0,0,0,1.78-.05l-.13-4.9A.89.89,0,0,0,16.64,19.09Z"/><path class="cls-2" d="M16.17,19a1,1,0,0,0-.37.08l-4.62,2.1a.86.86,0,0,0-.47.5.94.94,0,0,0,0,.68.9.9,0,0,0,.81.52,1,1,0,0,0,.37-.08l1.91-.87A21.53,21.53,0,0,0,15,45.11a.91.91,0,0,0,.73.37.87.87,0,0,0,.51-.17.88.88,0,0,0,.36-.58.86.86,0,0,0-.15-.66,19.74,19.74,0,0,1-1.1-21.3l.05,2a.89.89,0,0,0,1.78-.05l-.13-4.9a.9.9,0,0,0-.89-.86Z"/><path class="cls-2" d="M20.44,15.68Z"/><path class="cls-2" d="M43.16,10.74a1,1,0,0,0-.37.08A.89.89,0,0,0,42.35,12l.87,1.92A21.49,21.49,0,0,0,20,15.05a.9.9,0,0,0-.21,1.24.92.92,0,0,0,.58.36h.15a.87.87,0,0,0,.51-.17,19.75,19.75,0,0,1,21.3-1l-2,.05a.9.9,0,0,0-.87.91.89.89,0,0,0,.91.87l4.89-.12a.9.9,0,0,0,.73-.42.89.89,0,0,0,.06-.84L44,11.26h0a.89.89,0,0,0-.81-.52Z"/><path class="cls-2" d="M54.27,42.79h0a.88.88,0,0,0-1.18-.44l-1.91.87A21.54,21.54,0,0,0,50,20a.91.91,0,0,0-1.25-.2.9.9,0,0,0-.2,1.24,19.68,19.68,0,0,1,1.12,21.29l0-2a.89.89,0,1,0-1.78,0L48,45.29a.89.89,0,0,0,.42.73,1,1,0,0,0,.47.13.94.94,0,0,0,.36-.08L53.83,44A.9.9,0,0,0,54.27,42.79Z"/><path class="cls-2" d="M49.24,19.63a.88.88,0,0,0-.72,1.4,19.68,19.68,0,0,1,1.12,21.29l0-2a.89.89,0,1,0-1.78,0L48,45.29a.89.89,0,0,0,.42.73,1,1,0,0,0,.47.13.94.94,0,0,0,.36-.08L53.83,44a.9.9,0,0,0,.44-1.18h0a.89.89,0,0,0-.81-.52,1,1,0,0,0-.37.08l-1.91.87A21.54,21.54,0,0,0,50,20a.93.93,0,0,0-.73-.36Z"/><path class="cls-2" d="M21.37,53.34h0Z"/><path class="cls-2" d="M24.35,47.71l-4.89,0A.88.88,0,0,0,18.65,49l2,4.67a.89.89,0,0,0,.82.53.84.84,0,0,0,.35-.07.87.87,0,0,0,.47-.49.85.85,0,0,0,0-.68L21.46,51a21.38,21.38,0,0,0,10.63,3h.41a21.36,21.36,0,0,0,12.21-3.8A.88.88,0,0,0,44.93,49a.85.85,0,0,0-.58-.37H44.2a.89.89,0,0,0-.5.15A19.59,19.59,0,0,1,32.52,52.3h-.4a19.5,19.5,0,0,1-9.73-2.79h2a.89.89,0,0,0,.63-.27.88.88,0,0,0,.26-.63.91.91,0,0,0-.9-.88Z"/><path class="cls-2" d="M41.85,28.54a1.12,1.12,0,0,0-.19-.29l-6.37-6.74a.86.86,0,0,0-.64-.28h-9a.9.9,0,0,0-.89.9V42a.91.91,0,0,0,.43.76.93.93,0,0,0,.46.15H41a1.16,1.16,0,0,0,.18,0,.8.8,0,0,0,.36-.17s.07,0,.09-.06a.91.91,0,0,0,.26-.64V28.88A1,1,0,0,0,41.85,28.54Zm-6.43-5.39L40,28H35.42Zm5.46,18.69H25.8V22.27h8.58v6.28a.71.71,0,0,0,0,.21.53.53,0,0,0,.48.31h6Z"/><path class="cls-2" d="M34.65,21.23h-9a.9.9,0,0,0-.89.9V42a.94.94,0,0,0,.89.91H41a1.16,1.16,0,0,0,.18,0,.8.8,0,0,0,.36-.17s.07,0,.09-.06a.91.91,0,0,0,.26-.64V28.88a1,1,0,0,0-.06-.34,1.12,1.12,0,0,0-.19-.29l-6.37-6.74a.86.86,0,0,0-.64-.28ZM25.8,41.84V22.27h8.58v6.28a.71.71,0,0,0,0,.21.53.53,0,0,0,.48.31h6V41.84ZM35.42,28V23.15L40,28Z"/></g></g></svg>