<svg xmlns="http://www.w3.org/2000/svg" viewBox="0 0 65 65"><defs><style>.cls-1{fill:#1ab4ff;}.cls-2{fill:#fff;}</style></defs><title>Icon_BlueFill_Collaboration</title><g id="Layer_2" data-name="Layer 2"><g id="Layer_2-2" data-name="Layer 2"><circle class="cls-1" cx="32.5" cy="32.5" r="31.5"/><path class="cls-1" d="M32.5,2A30.5,30.5,0,1,1,2,32.5,30.53,30.53,0,0,1,32.5,2m0-2A32.5,32.5,0,1,0,65,32.5,32.5,32.5,0,0,0,32.5,0Z"/><path class="cls-2" d="M43.91,36.57V24.39a4.23,4.23,0,0,0-4.38-4h-11a6.59,6.59,0,1,0-7.4,8.07V39.88a4.15,4.15,0,0,0,4.31,4h11a6.59,6.59,0,1,0,7.54-7.28ZM17.49,21.92a4.6,4.6,0,1,1,4.6,4.59A4.6,4.6,0,0,1,17.49,21.92Zm19,19.93h-11a2.16,2.16,0,0,1-2.31-2V28.43a6.59,6.59,0,0,0,5.57-6.07H39.53a2.23,2.23,0,0,1,2.38,2V36.57A6.59,6.59,0,0,0,36.44,41.85Zm6.47,5.82a4.59,4.59,0,1,1,4.6-4.59A4.6,4.6,0,0,1,42.91,47.67Z"/></g></g></svg>