<svg xmlns="http://www.w3.org/2000/svg" viewBox="0 0 65 65"><defs><style>.cls-1{fill:#1ab4ff;}.cls-2,.cls-3{fill:none;stroke:#fff;stroke-linejoin:round;stroke-width:2px;}.cls-3{stroke-linecap:round;}</style></defs><title>Icon_BlueFill_Reults</title><g id="Layer_2" data-name="Layer 2"><g id="Layer_1-2" data-name="Layer 1"><circle class="cls-1" cx="32.5" cy="32.5" r="31.5"/><path class="cls-1" d="M32.5,2A30.5,30.5,0,1,1,2,32.5,30.53,30.53,0,0,1,32.5,2m0-2A32.5,32.5,0,1,0,65,32.5,32.5,32.5,0,0,0,32.5,0Z"/></g><g id="Layer_3" data-name="Layer 3"><path class="cls-2" d="M47.27,44.26a17.2,17.2,0,1,0-29.14,0Z"/><circle class="cls-3" cx="32.7" cy="37.18" r="3.03"/><line class="cls-3" x1="34.84" y1="35.04" x2="42.94" y2="26.94"/><path class="cls-3" d="M40,24.2a13.14,13.14,0,0,0-20.4,11,13.26,13.26,0,0,0,.64,4.05"/></g></g></svg>