<?xml version="1.0" encoding="utf-8"?>
<!-- Generator: Adobe Illustrator 22.1.0, SVG Export Plug-In . SVG Version: 6.00 Build 0)  -->
<svg version="1.1" id="Layer_1" xmlns="http://www.w3.org/2000/svg" xmlns:xlink="http://www.w3.org/1999/xlink" x="0px" y="0px"
	 viewBox="0 0 15 15" style="enable-background:new 0 0 15 15;" xml:space="preserve">
<path d="M7.5,0C3.4,0,0,3.4,0,7.5S3.4,15,7.5,15S15,11.6,15,7.5S11.6,0,7.5,0z M11.7,10C11.9,9.4,12,8.7,12,8h2
	c-0.1,0.7-0.2,1.4-0.5,2H11.7z M3.3,5C3.1,5.6,3,6.3,3,7H1c0.1-0.7,0.2-1.4,0.5-2H3.3z M10.7,5C10.9,5.6,11,6.3,11,7H8V5H10.7z M8,4
	V1.1c0.2,0.1,0.5,0.2,0.7,0.3c0.4,0.3,0.8,0.7,1.1,1.3c0.2,0.4,0.4,0.8,0.6,1.3H8L8,4z M5.2,2.7c0.3-0.6,0.7-1,1.1-1.3
	C6.5,1.3,6.8,1.1,7,1.1V4H4.6C4.7,3.5,4.9,3.1,5.2,2.7L5.2,2.7z M7,5v2H4c0-0.7,0.1-1.4,0.3-2H7z M1.5,10C1.2,9.4,1.1,8.7,1,8h2
	c0,0.7,0.1,1.4,0.2,2C3.3,10,1.5,10,1.5,10z M4,8h3v2H4.3C4.1,9.4,4,8.7,4,8z M7,11v2.9c-0.2-0.1-0.5-0.2-0.7-0.3
	c-0.4-0.3-0.8-0.7-1.1-1.3c-0.2-0.4-0.4-0.8-0.6-1.3C4.6,11,7,11,7,11z M9.8,12.3c-0.3,0.6-0.7,1-1.1,1.3c-0.2,0.2-0.4,0.3-0.7,0.3
	V11h2.4C10.3,11.5,10.1,11.9,9.8,12.3z M8,10V8h3c0,0.7-0.1,1.4-0.3,2H8z M12,7c0-0.7-0.1-1.4-0.2-2h1.8c0.3,0.6,0.4,1.3,0.5,2H12z
	 M13,4h-1.5c-0.3-0.9-0.7-1.7-1.2-2.4C11,2,11.6,2.4,12.1,2.9C12.4,3.2,12.7,3.6,13,4z M2.9,2.9C3.4,2.4,4,2,4.7,1.6
	C4.2,2.3,3.8,3.1,3.5,4H2C2.3,3.6,2.6,3.2,2.9,2.9z M2,11h1.5c0.3,0.9,0.7,1.7,1.2,2.4C4,13,3.4,12.6,2.9,12.1
	C2.6,11.8,2.3,11.4,2,11z M12.1,12.1c-0.5,0.5-1.1,1-1.8,1.3c0.5-0.6,0.9-1.4,1.2-2.4H13C12.7,11.4,12.4,11.8,12.1,12.1z"/>
</svg>
