<svg id="Layer_1" data-name="Layer 1" xmlns="http://www.w3.org/2000/svg" viewBox="0 0 300 300"><defs><style>.cls-1{fill:#1ab4ff;}.cls-2{fill:#fff;}</style></defs><circle class="cls-1" cx="149.85" cy="149.93" r="143.81" transform="translate(-62.13 149.87) rotate(-45)"/><path class="cls-1" d="M149.85,7.12a142.81,142.81,0,0,1,101,243.79,142.81,142.81,0,1,1-202-202,141.83,141.83,0,0,1,101-41.83m0-2A144.81,144.81,0,1,0,294.66,149.93,144.81,144.81,0,0,0,149.85,5.12Z"/><path class="cls-2" d="M234.45,181.05l-7.9-76.8a16.78,16.78,0,1,0-21.91-21.9L128.8,69a16.78,16.78,0,1,0-28.26,15.18l-31,50.08a16,16,0,0,0-2.3-.21,16.79,16.79,0,0,0,0,33.58,16.37,16.37,0,0,0,3.22-.35l38.75,53.84a16.75,16.75,0,1,0,32.06,8.65l78.9-20.84a16.74,16.74,0,1,0,14.31-27.89Zm-47.06-14.44a28.06,28.06,0,0,0-4.73-28.19l30.24-34.61a16.86,16.86,0,0,0,7.06,1.7l7.82,76.1a16.89,16.89,0,0,0-7.11,4.12ZM176,132.55a29.35,29.35,0,0,0-25.15-2.47l-26.54-46a16.89,16.89,0,0,0,4.46-8.28l74.65,13.14a16.64,16.64,0,0,0,2.82,9Zm4.4,24A19.43,19.43,0,0,1,160.91,176a19.42,19.42,0,0,1-19.45-19.45c0-.4,0-.79,0-1.19a19.45,19.45,0,0,1,38.86,1.19Zm39.79-75.69a7.88,7.88,0,1,1-7.88,7.88A7.88,7.88,0,0,1,220.15,80.86ZM112.34,64.39a7.88,7.88,0,1,1-7.88,7.88A7.89,7.89,0,0,1,112.34,64.39Zm-6.19,23.45a16.77,16.77,0,0,0,6.19,1.21,17.05,17.05,0,0,0,4.21-.54l26.54,46a28.23,28.23,0,0,0-9.83,15.86l-49.62-3A16.82,16.82,0,0,0,76,136.57Zm-46.82,63a7.88,7.88,0,0,1,15.76,0l0,.5a7.88,7.88,0,0,1-15.74-.5ZM83,156.29l49.71,3a28.13,28.13,0,0,0,11.49,20.17L128,211.2a16.4,16.4,0,0,0-3.35-.4,16.67,16.67,0,0,0-11.41,4.55L76.73,164.62A16.91,16.91,0,0,0,83,156.29Zm41.64,79.18a7.88,7.88,0,1,1,0-15.76,7.88,7.88,0,0,1,7.88,7.88A7.89,7.89,0,0,1,124.67,235.47ZM140.75,223a16.68,16.68,0,0,0-4.76-7.8l16.19-31.7A28,28,0,0,0,183,174.33l33.28,19.13a15.88,15.88,0,0,0,.4,9.49Zm91.74-17.47a7.88,7.88,0,1,1,7.88-7.88A7.88,7.88,0,0,1,232.49,205.52Z"/></svg>