<svg xmlns="http://www.w3.org/2000/svg" viewBox="0 0 65 65"><defs><style>.cls-1{fill:#1ab4ff;}.cls-2{fill:#fff;}</style></defs><title>Icon_BlueFill_Cloud</title><g id="Layer_2" data-name="Layer 2"><g id="Layer_1-2" data-name="Layer 1"><circle class="cls-1" cx="32.5" cy="32.5" r="31.5"/><path class="cls-1" d="M32.5,2A30.5,30.5,0,1,1,2,32.5,30.53,30.53,0,0,1,32.5,2m0-2A32.5,32.5,0,1,0,65,32.5,32.5,32.5,0,0,0,32.5,0Z"/><path class="cls-2" d="M49.85,31.11c0-.35,0-.69,0-1A12,12,0,0,0,38.1,18a11.82,11.82,0,0,0-9.81,5.36,9.31,9.31,0,0,0-3.56-.71,9.63,9.63,0,0,0-9.51,9.17A7.58,7.58,0,0,0,15.46,47H49.18a8,8,0,0,0,.67-15.87ZM17.32,32.83c0-.14,0-.28,0-.43a7.53,7.53,0,0,1,7.43-7.61,7.31,7.31,0,0,1,3.47.89l.92.49.5-.92a9.68,9.68,0,0,1,8.48-5.11,9.83,9.83,0,0,1,9.7,9.94A9.59,9.59,0,0,1,47.61,32l-.26,1.36,1.37-.1.32,0,.14,0a5.83,5.83,0,0,1,0,11.66H15.46a5.46,5.46,0,0,1,0-10.91A4.77,4.77,0,0,1,16,34l1.39.07Z"/></g></g></svg>