<svg xmlns="http://www.w3.org/2000/svg" viewBox="0 0 178 178"><defs><style>.cls-1{fill:#ee7025;}.cls-2{fill:#fff;}</style></defs><title>icon-digitization</title><g id="Layer_2" data-name="Layer 2"><g id="Layer_1-2" data-name="Layer 1"><circle class="cls-1" cx="89" cy="89" r="89"/><path class="cls-2" d="M54.84,83.78h-.18l2.13.91V51.07l-.83.37h.19L54,50.53V84.16c0,.93,2.95,1.28,2.95.53V51.07c0-.8-1.6-.92-2.13-.92h-.18c-.19,0-.83.07-.83.38V84.16c0,.8,1.61.91,2.13.91h.19C58.07,85.07,55.75,83.78,54.84,83.78Z"/><path class="cls-2" d="M54.64,128.51h-.19l2.28,1.08V114.65l-.56.42h.19L54.08,114v14.94c0,.8,2.83,1.63,2.83.66V114.65c0-.75-1.77-1.09-2.27-1.09h-.19c-.3,0-.56.1-.56.43v14.94c0,.75,1.78,1.09,2.28,1.09h.19C57.88,130,55.4,128.51,54.64,128.51Z"/><path class="cls-2" d="M88.47,65.1h-.19l2.14.91V43.59l-.83.38h.19l-2.13-.91V65.48c0,.94,2.95,1.27,2.95.53V43.59c0-.8-1.61-.91-2.13-.91h-.19c-.18,0-.82.08-.82.38V65.48c0,.8,1.61.91,2.13.91h.19C91.7,66.39,89.37,65.1,88.47,65.1Z"/><path class="cls-2" d="M89.11,132.4h-.18l1.51.57V118l-1.49.62h.18l-1.51-.57v15c0,.83,3,.81,3-.06V118c0-.55-1.21-.58-1.51-.58h-.18c-.35,0-1.49.09-1.49.63v15c0,.54,1.21.57,1.51.57h.18C90.9,133.6,90.89,132.4,89.11,132.4Z"/><path class="cls-2" d="M123.07,57.65h-.18l1.16.43V46.87l-1.81.82h.19l-1.17-.44V58.46c0,.77,3,.54,3-.38V46.87c0-.41-.94-.43-1.17-.43h-.18c-.41,0-1.81.15-1.81.81V58.46c0,.42.93.44,1.16.44h.19C123.72,58.9,125.12,57.65,123.07,57.65Z"/><path class="cls-2" d="M122.11,124.87h-.19l2.12.95V95.93l-.83.36h.18l-2.11-1v29.9c0,.94,2.94,1.31,2.94.58V95.93c0-.8-1.58-1-2.11-1h-.19c-.18,0-.83.06-.83.36v29.9c0,.79,1.58.94,2.12.94h.18C125.32,126.18,123,124.87,122.11,124.87Z"/><path class="cls-2" d="M95.9,117.37c-4.59,0-9.42.47-14,0-1-.11-.78.23-.78-.84,0-.28,0-.56,0-.83,0-1.49,0-3,0-4.46V71a15.82,15.82,0,0,1,0-2.92c.47-2.31,3.08-1.61,4.9-1.61h8.64c.33,0,2-.24,2.29,0a7.13,7.13,0,0,0,0,1.14c-.09,1.24,0,2.51,0,3.75v42.13c0,1.21.42,3.65-1.34,3.93-1.53.25,1.08,1.47,1.85,1.35,3.61-.59,2.4-6.19,2.4-8.85V73c0-3.29.9-7.4-3.57-7.88a60.54,60.54,0,0,0-6.6,0c-2.75,0-5.53-.11-8.29,0-4,.15-3.13,3.92-3.13,6.86v36.86c0,2,0,4.07,0,6.11a3.38,3.38,0,0,0,3,3.73c2.43.5,5.22.12,7.68.12h8.22C99,118.74,96.82,117.37,95.9,117.37Z"/><path class="cls-2" d="M62.56,113.69H48.86c-1.22,0-1.26.2-1.31-1.23-.22-6.43,0-12.9,0-19.33a45.71,45.71,0,0,1,0-6.62c.25-1.66,1-1.46,2.25-1.46H61c1.4,0,2.24-.51,2.31,1.06.09,2.19,0,4.42,0,6.62v12.88c0,1.17.87,7.78-1.06,8.09s.43,1.38,1.36,1.23c3.39-.54,2.67-3.63,2.67-6.27V95.42a78.46,78.46,0,0,0,0-8.81c-.38-3.35-4.43-2.81-6.9-2.81-3.83,0-7.7-.17-11.53,0-3.25.14-3.22,2.21-3.22,4.76,0,7.69-.29,15.43,0,23.11.13,3.67,4,3.27,6.69,3.27H63.19C65.23,114.94,63.86,113.69,62.56,113.69Z"/><path class="cls-2" d="M130.45,95H119.83c-1,0-3.28.45-4.24,0s-.79-1.79-.79-2.66V67.93c0-2.63-.09-5.28,0-7.91,0-.71-.06-.89.4-1.12a5.83,5.83,0,0,1,1.91,0h6.72c1.68,0,3.82-.36,5.47,0,1.09.24,1.16,1.12,1.21,2.12.19,3.16,0,6.39,0,9.55V86.2c0,.61.64,8.66-.46,8.84-1.73.28-1.61,1.48.16,1.19,3.94-.64,3.28-3.66,3.28-6.76V61.7a5.59,5.59,0,0,0-.31-2.76c-.85-1.52-2.79-1.3-4.29-1.3-4.35,0-8.77-.22-13.12,0-1.83.1-3.69.65-3.94,2.71a21.36,21.36,0,0,0,0,2.53V91a20.89,20.89,0,0,0,0,3c.35,2.29,2.44,2.3,4.29,2.3h13.69C131.11,96.26,132.5,95,130.45,95Z"/></g></g></svg>