<?xml version="1.0" encoding="utf-8"?>
<!-- Generator: Adobe Illustrator 25.0.1, SVG Export Plug-In . SVG Version: 6.00 Build 0)  -->
<svg version="1.1" id="moderated" xmlns="http://www.w3.org/2000/svg" xmlns:xlink="http://www.w3.org/1999/xlink" x="0px" y="0px"
	 viewBox="0 0 122 87.9" style="enable-background:new 0 0 122 87.9;" xml:space="preserve">
<style type="text/css">
	.st0{opacity:0.5;fill:#49C0B6;enable-background:new    ;}
	.st1{fill:none;stroke:#091A34;stroke-width:2;stroke-linejoin:round;stroke-miterlimit:10;}
	.st2{fill:none;stroke:#091A34;stroke-width:2;stroke-miterlimit:10;}
</style>
<circle id="Ellipse_1_copy_5" class="st0" cx="89.9" cy="51.5" r="26.9"/>
<g>
	<path class="st1" d="M42.9,70.2H0c-0.1,2.8,0.2,4.2,1.3,7H42"/>
	<path class="st2" d="M4.9,70.2V34c0-0.7,0.6-1.2,1.2-1.2h36.7"/>
	<path class="st1" d="M103,82v-5.8c0-14.3-13.6-22.4-30.5-22.4C55.7,53.7,42,61.9,42,76.2V82"/>
	<path class="st2" d="M55.1,30.1c0,9.6,7.8,17.4,17.4,17.4c9.6,0,17.4-7.8,17.4-17.4c0-9.6-7.8-17.4-17.4-17.4
		C62.9,12.7,55.1,20.5,55.1,30.1z"/>
	<path class="st2" d="M94.5,38.8c-2,0-3.7-1.7-3.7-3.7V26c0-2,1.7-3.7,3.7-3.7c2,0,3.7,1.7,3.7,3.7v9.1
		C98.2,37.2,96.5,38.8,94.5,38.8z"/>
	<path class="st2" d="M50.5,38.8c-2,0-3.7-1.7-3.7-3.7V26c0-2,1.7-3.7,3.7-3.7c2,0,3.7,1.7,3.7,3.7v9.1
		C54.2,37.2,52.6,38.8,50.5,38.8z"/>
	<path class="st2" d="M95.3,22.4C92,12.8,83.2,5.9,72.4,5.9c-10.8,0-19.5,6.9-22.7,16.5"/>
	<path class="st1" d="M33.7,45.4c0,4.4-3.6,8-8,8c-4.4,0-8-3.6-8-8c0-4.4,3.6-8,8-8C30.1,37.3,33.7,40.9,33.7,45.4z"/>
	<path class="st1" d="M39.2,66.4c0-4.8-3.5-8.1-8.5-9.3l-5,4.4l-5-4.4c-5,1.3-8.5,4.5-8.5,9.3"/>
</g>
</svg>
