<?xml version="1.0" encoding="utf-8"?>
<!-- Generator: Adobe Illustrator 25.0.1, SVG Export Plug-In . SVG Version: 6.00 Build 0)  -->
<svg version="1.1" id="QA" xmlns="http://www.w3.org/2000/svg" xmlns:xlink="http://www.w3.org/1999/xlink" x="0px" y="0px"
	 viewBox="0 0 121 96.2" style="enable-background:new 0 0 121 96.2;" xml:space="preserve">
<style type="text/css">
	.st0{opacity:0.5;fill:#49C0B6;enable-background:new    ;}
	.st1{fill:none;stroke:#091A34;stroke-width:2;stroke-linejoin:round;stroke-miterlimit:10;}
	.st2{fill:none;stroke:#091A34;stroke-width:2;stroke-miterlimit:10;}
	.st3{fill:none;stroke:#091A34;stroke-width:2;stroke-linecap:round;stroke-linejoin:round;stroke-miterlimit:10;}
</style>
<circle id="Ellipse_1_copy_3" class="st0" cx="36.5" cy="67.1" r="24.6"/>
<g>
	<line class="st1" x1="4.7" y1="56.6" x2="42.5" y2="56.6"/>
	<path class="st1" d="M29.3,72.3v-6.8H8.2c-2,0-3.6-1.6-3.6-3.6V12.3c0,0-0.1-3.1,2.9-3.1h43.2"/>
	<path class="st2" d="M37.2,80.7V67.3c0-3,2.5-5.5,5.5-5.5h45.5c3,0,5.5,2.5,5.5,5.5v13.3"/>
	<line class="st3" x1="20.9" y1="72.3" x2="36.5" y2="72.3"/>
	<path class="st1" d="M42,61.9c0-14.8,12.3-18.5,27.7-19.4c18.4-1,24-14.5,27-22.4l-2.1-7.9c-0.2-0.7,0.1-1.6,0.6-2.1l5.7-5.1
		c0.4-0.4,0.9-0.5,1.5-0.5c0.2,0,0.5,0,0.6,0.1c0.1,0,3.6,1.1,6.8,3.7c3,2.4,4.7,5.3,4.7,5.5c0.4,0.7,0.4,1.6-0.1,2.2l-6.5,10
		c-4.3,15.2-13.3,25.2-20.9,31v4.4"/>
	<path class="st1" d="M69.1,36.1c8.6,0,15.6-6.9,15.6-15.6c0-8.6-7-15.6-15.6-15.6s-15.6,6.9-15.6,15.6
		C53.5,29.1,60.6,36.1,69.1,36.1z"/>
</g>
</svg>
