<svg xmlns="http://www.w3.org/2000/svg" version="1.1" xmlns:xlink="http://www.w3.org/1999/xlink" xmlns:svgjs="http://svgjs.dev/svgjs" width="1000" height="1000" viewBox="0 0 1000 1000"><rect width="1000" height="1000" fill="#ffffff"></rect><g transform="matrix(0.7,0,0,0.7,149.57575757575756,282.1265587044535)"><svg viewBox="0 0 396 247" data-background-color="#398378" preserveAspectRatio="xMidYMid meet" height="623" width="1000" xmlns="http://www.w3.org/2000/svg" xmlns:xlink="http://www.w3.org/1999/xlink"><defs></defs><g id="tight-bounds" transform="matrix(1,0,0,1,0.2400000000000091,-0.09999999999999432)"><svg viewBox="0 0 395.52 247.2" height="247.2" width="395.52"><g><svg></svg></g><g><svg viewBox="0 0 395.52 247.2" height="247.2" width="395.52"><g transform="matrix(1,0,0,1,75.54432,78.9834720886834)"><svg viewBox="0 0 244.43135999999998 89.23305582263319" height="89.23305582263319" width="244.43135999999998"><g><svg viewBox="0 0 244.43135999999998 89.23305582263319" height="89.23305582263319" width="244.43135999999998"><g><svg viewBox="0 0 244.43135999999998 89.23305582263319" height="89.23305582263319" width="244.43135999999998"><g><svg viewBox="0 0 244.43135999999998 89.23305582263319" height="89.23305582263319" width="244.43135999999998"><g><svg viewBox="0 0 244.43135999999998 89.23305582263319" height="89.23305582263319" width="244.43135999999998"><g><svg viewBox="0 0 244.43135999999998 48.12804643533123" height="48.12804643533123" width="244.43135999999998"><g transform="matrix(1,0,0,1,0,0)"><svg width="244.43135999999998" viewBox="3.75 -37 190.19000244140625 37.45000076293945" height="48.12804643533123" data-palette-color="#31c48d"><path d="M9.45-23.55Q10.7-25.65 12.78-26.83 14.85-28 17.7-28L17.7-28 17.7-22.1 16.25-22.1Q12.9-22.1 11.18-20.4 9.45-18.7 9.45-14.5L9.45-14.5 9.45 0 3.75 0 3.75-27.55 9.45-27.55 9.45-23.55ZM48.2-14.45Q48.2-12.9 48-11.65L48-11.65 26.95-11.65Q27.2-8.35 29.4-6.35 31.6-4.35 34.8-4.35L34.8-4.35Q39.4-4.35 41.3-8.2L41.3-8.2 47.45-8.2Q46.2-4.4 42.92-1.98 39.65 0.45 34.8 0.45L34.8 0.45Q30.85 0.45 27.72-1.33 24.6-3.1 22.82-6.33 21.05-9.55 21.05-13.8L21.05-13.8Q21.05-18.05 22.77-21.28 24.5-24.5 27.62-26.25 30.75-28 34.8-28L34.8-28Q38.7-28 41.75-26.3 44.8-24.6 46.5-21.53 48.2-18.45 48.2-14.45L48.2-14.45ZM27-16.25L42.25-16.25Q42.2-19.4 40-21.3 37.8-23.2 34.55-23.2L34.55-23.2Q31.6-23.2 29.5-21.33 27.4-19.45 27-16.25L27-16.25ZM51.9-13.8Q51.9-18.05 53.62-21.28 55.34-24.5 58.4-26.25 61.45-28 65.4-28L65.4-28Q70.4-28 73.67-25.63 76.95-23.25 78.09-18.85L78.09-18.85 71.95-18.85Q71.2-20.9 69.55-22.05 67.9-23.2 65.4-23.2L65.4-23.2Q61.9-23.2 59.82-20.73 57.75-18.25 57.75-13.8L57.75-13.8Q57.75-9.35 59.82-6.85 61.9-4.35 65.4-4.35L65.4-4.35Q70.34-4.35 71.95-8.7L71.95-8.7 78.09-8.7Q76.9-4.5 73.59-2.02 70.3 0.45 65.4 0.45L65.4 0.45Q61.45 0.45 58.4-1.33 55.34-3.1 53.62-6.33 51.9-9.55 51.9-13.8L51.9-13.8ZM95.74 0.45Q91.84 0.45 88.69-1.33 85.54-3.1 83.74-6.33 81.94-9.55 81.94-13.8L81.94-13.8Q81.94-18 83.79-21.25 85.64-24.5 88.84-26.25 92.04-28 95.99-28L95.99-28Q99.94-28 103.14-26.25 106.34-24.5 108.19-21.25 110.04-18 110.04-13.8L110.04-13.8Q110.04-9.6 108.14-6.35 106.24-3.1 102.97-1.33 99.69 0.45 95.74 0.45L95.74 0.45ZM95.74-4.5Q97.94-4.5 99.87-5.55 101.79-6.6 102.99-8.7 104.19-10.8 104.19-13.8L104.19-13.8Q104.19-16.8 103.04-18.88 101.89-20.95 99.99-22 98.09-23.05 95.89-23.05L95.89-23.05Q93.69-23.05 91.82-22 89.94-20.95 88.84-18.88 87.74-16.8 87.74-13.8L87.74-13.8Q87.74-9.35 90.02-6.93 92.29-4.5 95.74-4.5L95.74-4.5ZM129.94-28Q133.09-28 135.56-26.65 138.04-25.3 139.47-22.65 140.89-20 140.89-16.25L140.89-16.25 140.89 0 135.24 0 135.24-15.4Q135.24-19.1 133.39-21.08 131.54-23.05 128.34-23.05L128.34-23.05Q125.14-23.05 123.27-21.08 121.39-19.1 121.39-15.4L121.39-15.4 121.39 0 115.69 0 115.69-37 121.39-37 121.39-24.35Q122.84-26.1 125.07-27.05 127.29-28 129.94-28L129.94-28ZM167.39-27.55L173.09-27.55 173.09 0 167.39 0 167.39-3.25Q166.04-1.55 163.86-0.58 161.69 0.4 159.24 0.4L159.24 0.4Q155.99 0.4 153.41-0.95 150.84-2.3 149.36-4.95 147.89-7.6 147.89-11.35L147.89-11.35 147.89-27.55 153.54-27.55 153.54-12.2Q153.54-8.5 155.39-6.53 157.24-4.55 160.44-4.55L160.44-4.55Q163.64-4.55 165.51-6.53 167.39-8.5 167.39-12.2L167.39-12.2 167.39-27.55ZM193.94-22.9L187.24-22.9 187.24-7.65Q187.24-6.1 187.96-5.43 188.69-4.75 190.44-4.75L190.44-4.75 193.94-4.75 193.94 0 189.44 0Q185.59 0 183.54-1.8 181.49-3.6 181.49-7.65L181.49-7.65 181.49-22.9 178.24-22.9 178.24-27.55 181.49-27.55 181.49-34.4 187.24-34.4 187.24-27.55 193.94-27.55 193.94-22.9Z" opacity="1" transform="matrix(1,0,0,1,0,0)" fill="#000000" class="undefined-text-0" data-fill-palette-color="primary" id="text-0"></path></svg></g></svg></g><g transform="matrix(1,0,0,1,0,59.48992312559848)"><svg viewBox="0 0 244.43135999999998 29.7431326970347" height="29.7431326970347" width="244.43135999999998"><g transform="matrix(1,0,0,1,0,0)"><svg width="244.43135999999998" viewBox="1.399999976158142 -33.099998474121094 355.42999267578125 43.25" height="29.7431326970347" data-palette-color="#adbfb8"><path d="M17.6-33.1L17.6-33.1Q24.35-33.1 28.78-28.3 33.2-23.5 33.2-16.6L33.2-16.6Q33.2-9.25 28.68-4.67 24.15-0.1 16.6 0L16.6 0 1.7 0 1.4-1.6 5.65-3.4 5.65-29.85 2.1-30.2 2.15-32.7Q10.45-33.1 17.6-33.1ZM16-3.75L16-3.75Q20.75-3.75 23.65-7.33 26.55-10.9 26.55-16.45L26.55-16.45Q26.55-20.75 24.73-24.4 22.9-28.05 20-29.7L20-29.7 11.75-28.95 11.75-4.35Q13.8-3.75 16-3.75ZM60.1-4.2L60.7-2 55.15 0.8Q54.2 0.7 52.95-0.33 51.7-1.35 51.05-2.75L51.05-2.75 45.55 0.7 44.2 0.8Q41.15 0.8 39.17-1 37.2-2.8 37.2-5.35L37.2-5.35Q37.2-8.95 40.9-10.9L40.9-10.9 50.55-11.15 50.55-15.95Q50.55-19.95 48.15-21.2L48.15-21.2Q45.5-21.1 43.45-20.4L43.45-20.4 42.8-15.1 39.4-14.95Q38.05-17.75 38.15-21.45L38.15-21.45Q40.6-22.7 44.37-23.75 48.15-24.8 49.9-24.8L49.9-24.8Q51.6-24.8 53.27-23.73 54.95-22.65 55.85-21.25L55.85-21.25Q56.4-20.25 56.45-17.45L56.45-17.45 56.45-4.9Q56.45-3.85 57.7-3.85L57.7-3.85 60.1-4.2ZM44.35-3.3L44.35-3.3Q46.75-3.3 50.55-4.8L50.55-4.8 50.55-8.4 48.8-8.45Q43.2-8.45 43.2-5.55L43.2-5.55Q43.2-4.1 44.35-3.3ZM74.95-4.1L74.95-4.1Q76.3-4.1 79.35-5.05L79.35-5.05 80-2.65 72.95 0.8Q70.95 0.9 69.15-0.6 67.35-2.1 67.35-3.9L67.35-3.9 67.35-19.15 64.1-19.1 63.8-21.6Q65.85-22.75 67.6-23.35L67.6-23.35 69.8-29.75 72.7-29.75 73.1-23.5 80.1-23.5 80.25-21.7 77.85-19.05 73.2-19.05 73.2-6.65Q73.2-5.25 73.57-4.67 73.95-4.1 74.95-4.1ZM108.05-4.2L108.65-2 103.1 0.8Q102.15 0.7 100.9-0.33 99.65-1.35 99-2.75L99-2.75 93.5 0.7 92.15 0.8Q89.1 0.8 87.12-1 85.15-2.8 85.15-5.35L85.15-5.35Q85.15-8.95 88.85-10.9L88.85-10.9 98.5-11.15 98.5-15.95Q98.5-19.95 96.1-21.2L96.1-21.2Q93.45-21.1 91.4-20.4L91.4-20.4 90.75-15.1 87.35-14.95Q86-17.75 86.1-21.45L86.1-21.45Q88.55-22.7 92.32-23.75 96.1-24.8 97.85-24.8L97.85-24.8Q99.55-24.8 101.22-23.73 102.9-22.65 103.8-21.25L103.8-21.25Q104.35-20.25 104.4-17.45L104.4-17.45 104.4-4.9Q104.4-3.85 105.65-3.85L105.65-3.85 108.05-4.2ZM92.3-3.3L92.3-3.3Q94.7-3.3 98.5-4.8L98.5-4.8 98.5-8.4 96.75-8.45Q91.15-8.45 91.15-5.55L91.15-5.55Q91.15-4.1 92.3-3.3ZM148.14-17.4L148.14-17.4Q152.14-16.8 154.34-14.48 156.54-12.15 156.54-9.05L156.54-9.05Q156.54-5.05 153.02-2.58 149.49-0.1 143.54 0L143.54 0 127.74 0 127.44-1.6 131.69-3.4 131.69-29.85 128.14-30.2 128.19-32.7Q136.89-33.1 142.54-33.1 148.19-33.1 151.54-30.8 154.89-28.5 154.89-24.7L154.89-24.7Q154.89-22.1 153.17-20 151.44-17.9 148.14-17.4ZM143.99-29.7L137.79-28.95 137.79-18.6 140.24-18.6Q144.39-18.6 146.42-20.2 148.44-21.8 148.44-24.15L148.44-24.15Q148.44-26.05 147.19-27.68 145.94-29.3 143.99-29.7L143.99-29.7ZM137.79-3.85L142.29-3.45 143.29-3.4Q146.44-3.4 148.14-5.05 149.84-6.7 149.84-9.05L149.84-9.05Q149.84-11.75 147.72-13.68 145.59-15.6 142.34-15.6L142.34-15.6 137.79-15.6 137.79-3.85ZM160.84-11.9L160.84-11.9Q160.84-17.5 164.17-21.05 167.49-24.6 172.54-24.6 177.59-24.6 180.82-21.03 184.04-17.45 184.04-11.65L184.04-11.65Q184.04-5.9 180.87-2.45 177.69 1 172.69 1L172.69 1Q167.54 1 164.19-2.63 160.84-6.25 160.84-11.9ZM175.24-3L175.24-3Q177.99-4.85 177.99-11.1L177.99-11.1Q177.99-15.4 176.57-18.18 175.14-20.95 172.19-20.95L172.19-20.95Q170.29-20.95 168.99-20L168.99-20Q166.94-17.45 166.94-12.25L166.94-12.25Q166.94-8.15 168.49-5.4 170.04-2.65 173.14-2.65L173.14-2.65Q174.14-2.65 175.24-3ZM187.74-11.9L187.74-11.9Q187.74-17.5 191.06-21.05 194.39-24.6 199.44-24.6 204.49-24.6 207.71-21.03 210.94-17.45 210.94-11.65L210.94-11.65Q210.94-5.9 207.76-2.45 204.59 1 199.59 1L199.59 1Q194.44 1 191.09-2.63 187.74-6.25 187.74-11.9ZM202.14-3L202.14-3Q204.89-4.85 204.89-11.1L204.89-11.1Q204.89-15.4 203.46-18.18 202.04-20.95 199.09-20.95L199.09-20.95Q197.19-20.95 195.89-20L195.89-20Q193.84-17.45 193.84-12.25L193.84-12.25Q193.84-8.15 195.39-5.4 196.94-2.65 200.04-2.65L200.04-2.65Q201.04-2.65 202.14-3ZM225.64-4.1L225.64-4.1Q226.99-4.1 230.04-5.05L230.04-5.05 230.69-2.65 223.64 0.8Q221.64 0.9 219.84-0.6 218.04-2.1 218.04-3.9L218.04-3.9 218.04-19.15 214.79-19.1 214.49-21.6Q216.54-22.75 218.29-23.35L218.29-23.35 220.49-29.75 223.39-29.75 223.79-23.5 230.79-23.5 230.94-21.7 228.54-19.05 223.89-19.05 223.89-6.65Q223.89-5.25 224.26-4.67 224.64-4.1 225.64-4.1ZM254.34-2.5L247.39 0.7 246.44 0.75Q241.14 0.75 237.84-2.78 234.54-6.3 234.54-11.8L234.54-11.8Q234.54-17.35 237.89-20.98 241.24-24.6 246.34-24.6L246.34-24.6Q251.89-24.6 254.74-20.25L254.74-20.25 250.69-16.6Q247.19-20.3 243.29-21L243.29-21Q240.44-17.7 240.44-12.9L240.44-12.9Q240.44-8.75 242.46-6.15 244.49-3.55 248.09-3.55L248.09-3.55Q250.54-3.55 253.39-4.85L253.39-4.85 254.34-2.5ZM281.03-4.2L281.63-2 276.08 0.8Q275.13 0.7 273.88-0.33 272.63-1.35 271.98-2.75L271.98-2.75 266.48 0.7 265.13 0.8Q262.08 0.8 260.11-1 258.13-2.8 258.13-5.35L258.13-5.35Q258.13-8.95 261.83-10.9L261.83-10.9 271.48-11.15 271.48-15.95Q271.48-19.95 269.08-21.2L269.08-21.2Q266.43-21.1 264.38-20.4L264.38-20.4 263.73-15.1 260.33-14.95Q258.98-17.75 259.08-21.45L259.08-21.45Q261.53-22.7 265.31-23.75 269.08-24.8 270.83-24.8L270.83-24.8Q272.53-24.8 274.21-23.73 275.88-22.65 276.78-21.25L276.78-21.25Q277.33-20.25 277.38-17.45L277.38-17.45 277.38-4.9Q277.38-3.85 278.63-3.85L278.63-3.85 281.03-4.2ZM265.28-3.3L265.28-3.3Q267.68-3.3 271.48-4.8L271.48-4.8 271.48-8.4 269.73-8.45Q264.13-8.45 264.13-5.55L264.13-5.55Q264.13-4.1 265.28-3.3ZM323.53-16.4L323.53-3.6Q325.83-3.1 327.08-2.4L327.08-2.4 326.83 0 315.08 0 314.88-1.7 317.68-2.85 317.68-14.6Q317.68-19.75 314.53-19.75L314.53-19.75Q312.33-19.75 308.53-17.3L308.53-17.3 308.58-3.55Q310.58-3.15 311.93-2.4L311.93-2.4 311.68 0 300.13 0 299.93-1.7 302.73-2.85 302.73-14.6Q302.73-19.75 299.58-19.75L299.58-19.75Q297.43-19.75 293.73-17.4L293.73-17.4 293.73-3.55Q295.78-3 296.83-2.4L296.83-2.4 296.63 0 284.48 0 284.28-1.7Q285.48-2.35 287.88-3.1L287.88-3.1 287.88-20.35 284.13-20.4 283.63-22.8Q287.08-24.2 291.48-24.45L291.48-24.45 293.73-22.35 293.73-19.8Q299.68-24 302.58-24.4L302.58-24.4Q304.08-24.2 305.61-23.25 307.13-22.3 307.93-20.95L307.93-20.95Q308.23-20.4 308.38-19.6L308.38-19.6Q314.23-23.85 317.53-24.4L317.53-24.4Q319.03-24.2 320.56-23.25 322.08-22.3 322.88-20.95L322.88-20.95Q323.48-19.85 323.53-16.4L323.53-16.4ZM343.98 0.75L343.98 0.75Q342.13 0.75 340.18 0.3L340.18 0.3 340.18 6.4Q343.53 7.25 344.48 7.75L344.48 7.75 344.28 10.15 331.23 10.15 331.03 8.5 334.33 7.25 334.33-20.35 330.68-20.4 330.18-22.8Q333.68-24.25 338.03-24.45L338.03-24.45 338.03-24.4 340.18-22.45 340.18-20.45 345.73-24.2 347.63-24.4Q351.63-24.4 354.23-21.05 356.83-17.7 356.83-12.7L356.83-12.7Q356.83-6.9 353.21-3.08 349.58 0.75 343.98 0.75ZM344.93-19.65L344.93-19.65Q343.13-19.65 340.18-17.95L340.18-17.95 340.18-4Q342.68-2.85 345.38-2.85L345.38-2.85 346.83-2.95Q348.58-4.15 349.61-6.55 350.63-8.95 350.63-11.55L350.63-11.55Q350.63-14.85 349.06-17.25 347.48-19.65 344.93-19.65Z" opacity="1" transform="matrix(1,0,0,1,0,0)" fill="#000000" class="undefined-text-1" data-fill-palette-color="secondary" id="text-1"></path></svg></g></svg></g></svg></g></svg></g></svg></g></svg></g></svg></g><path d="M223.828 72.983L223.828 12.12 0.867 12.12 0.867 235.08 223.828 235.08 223.828 174.217 219.488 174.217 219.488 230.74 5.208 230.74 5.208 16.46 219.488 16.46 219.488 72.983Z" fill="#000000" stroke="transparent" data-fill-palette-color="primary"></path></svg></g></svg><rect width="395.52" height="247.2" fill="none" stroke="none" visibility="hidden"></rect></g></svg></g></svg>