<?xml version="1.0" encoding="UTF-8"?>
<svg xmlns="http://www.w3.org/2000/svg" style="vertical-align: middle;"  xmlns:xlink="http://www.w3.org/1999/xlink" width="32px" height="32px" viewBox="0 0 40 40" version="1.1">
<g id="surface1">
<path style=" stroke:none;fill-rule:evenodd;fill:rgb(21.176471%,77.254902%,94.117647%);fill-opacity:1;" d="M 11.734375 0 C 9.964844 0 8.53125 1.433594 8.535156 3.199219 C 8.53125 4.964844 9.964844 6.398438 11.734375 6.398438 L 14.933594 6.398438 L 14.933594 3.199219 C 14.9375 1.4375 13.503906 0.00390625 11.734375 0 M 11.734375 8.535156 L 3.199219 8.535156 C 1.429688 8.535156 0 9.96875 0 11.734375 C -0.00390625 13.5 1.429688 14.929688 3.199219 14.933594 L 11.734375 14.933594 C 13.5 14.933594 14.933594 13.5 14.933594 11.734375 C 14.933594 9.96875 13.5 8.535156 11.734375 8.535156 Z M 11.734375 8.535156 "/>
<path style=" stroke:none;fill-rule:evenodd;fill:rgb(18.039216%,71.372549%,49.019608%);fill-opacity:1;" d="M 32 11.734375 C 32 9.96875 30.570312 8.535156 28.800781 8.535156 C 27.03125 8.535156 25.597656 9.96875 25.597656 11.734375 L 25.597656 14.933594 L 28.800781 14.933594 C 30.570312 14.933594 32 13.5 32 11.734375 Z M 23.464844 11.734375 L 23.464844 3.199219 C 23.46875 1.4375 22.035156 0.00390625 20.265625 0 C 18.5 0 17.066406 1.433594 17.066406 3.199219 L 17.066406 11.734375 C 17.0625 13.5 18.496094 14.929688 20.265625 14.933594 C 22.035156 14.933594 23.46875 13.5 23.464844 11.734375 Z M 23.464844 11.734375 "/>
<path style=" stroke:none;fill-rule:evenodd;fill:rgb(92.54902%,69.803922%,18.039216%);fill-opacity:1;" d="M 20.265625 32 C 22.035156 32 23.46875 30.566406 23.464844 28.800781 C 23.46875 27.035156 22.035156 25.601562 20.265625 25.601562 L 17.066406 25.601562 L 17.066406 28.800781 C 17.0625 30.5625 18.496094 31.996094 20.265625 32 Z M 20.265625 23.464844 L 28.800781 23.464844 C 30.570312 23.464844 32 22.03125 32 20.265625 C 32.003906 18.5 30.570312 17.066406 28.800781 17.066406 L 20.265625 17.066406 C 18.5 17.066406 17.066406 18.5 17.066406 20.265625 C 17.066406 22.03125 18.496094 23.464844 20.265625 23.464844 Z M 20.265625 23.464844 "/>
<path style=" stroke:none;fill-rule:evenodd;fill:rgb(87.843137%,11.764706%,35.294118%);fill-opacity:1;" d="M 0 20.265625 C 0 22.03125 1.429688 23.464844 3.199219 23.464844 C 4.96875 23.464844 6.402344 22.03125 6.402344 20.265625 L 6.402344 17.066406 L 3.199219 17.066406 C 1.429688 17.066406 0 18.5 0 20.265625 Z M 8.535156 20.265625 L 8.535156 28.800781 C 8.53125 30.5625 9.964844 31.996094 11.734375 32 C 13.5 32 14.933594 30.566406 14.933594 28.800781 L 14.933594 20.269531 C 14.9375 18.503906 13.503906 17.070312 11.734375 17.066406 C 9.964844 17.066406 8.53125 18.5 8.535156 20.265625 "/>
</g>
</svg>
