<?xml version="1.0" encoding="UTF-8" standalone="no"?>
<!-- Created with Inkscape (http://www.inkscape.org/) -->

<svg
   xmlns:dc="http://purl.org/dc/elements/1.1/"
   xmlns:cc="http://creativecommons.org/ns#"
   xmlns:rdf="http://www.w3.org/1999/02/22-rdf-syntax-ns#"
   xmlns:svg="http://www.w3.org/2000/svg"
   xmlns="http://www.w3.org/2000/svg"
   xmlns:sodipodi="http://sodipodi.sourceforge.net/DTD/sodipodi-0.dtd"
   xmlns:inkscape="http://www.inkscape.org/namespaces/inkscape"
   version="1.1"
   id="svg88231"
   xml:space="preserve"
   width="800"
   height="800"
   viewBox="0 0 800 800"
   sodipodi:docname="skunk-publicdomainvectors.org.svg"
   inkscape:version="0.92.4 (5da689c313, 2019-01-14)"><metadata
     id="metadata88237"><rdf:RDF><cc:Work
         rdf:about=""><dc:format>image/svg+xml</dc:format><dc:type
           rdf:resource="http://purl.org/dc/dcmitype/StillImage" /><dc:title></dc:title></cc:Work></rdf:RDF></metadata><defs
     id="defs88235"><clipPath
       clipPathUnits="userSpaceOnUse"
       id="clipPath88247"><path
         d="M 0,600 H 600 V 0 H 0 Z"
         id="path88245"
         inkscape:connector-curvature="0" /></clipPath></defs><sodipodi:namedview
     pagecolor="#ffffff"
     bordercolor="#666666"
     borderopacity="1"
     objecttolerance="10"
     gridtolerance="10"
     guidetolerance="10"
     inkscape:pageopacity="0"
     inkscape:pageshadow="2"
     inkscape:window-width="797"
     inkscape:window-height="480"
     id="namedview88233"
     showgrid="false"
     inkscape:zoom="0.295"
     inkscape:cx="400"
     inkscape:cy="400"
     inkscape:window-x="0"
     inkscape:window-y="0"
     inkscape:window-maximized="0"
     inkscape:current-layer="g88239" /><g
     id="g88239"
     inkscape:groupmode="layer"
     inkscape:label="skunk-publicdomainvectors.org"
     transform="matrix(1.3333333,0,0,-1.3333333,0,800)"><g
       id="g88241"><g
         id="g88243"
         clip-path="url(#clipPath88247)"><path
           d="m 561.484,472.497 c 1.119,6.682 -0.619,21.272 -3.679,33.791 l -17.907,-3.001 z"
           style="fill:#af001f;fill-opacity:1;fill-rule:nonzero;stroke:none"
           id="path88249"
           inkscape:connector-curvature="0" /><path
           d="m 519.269,460.875 c 4.81,-5.525 9.075,-11.366 11.723,-16.487 3.529,-6.823 6.913,-12.41 7.523,-12.415 2.742,-0.014 9.249,9.699 14.159,21.15 2.954,6.874 6.516,14.34 7.92,16.592 0.396,0.631 0.688,1.58 0.89,2.782 l -21.586,30.79 z"
           style="fill:#b4281c;fill-opacity:1;fill-rule:nonzero;stroke:none"
           id="path88251"
           inkscape:connector-curvature="0" /><path
           d="m 515.9,248.745 c 0.912,2.143 1.679,4.166 2.342,6.204 l -10.012,-6.894 z"
           style="fill:#003ccc;fill-opacity:1;fill-rule:nonzero;stroke:none"
           id="path88253"
           inkscape:connector-curvature="0" /><path
           d="m 506.389,229.867 c 1.849,3.301 3.733,6.828 5.406,10.154 1.639,3.259 2.981,6.082 4.105,8.724 l -7.67,-0.69 z"
           style="fill:#006ad4;fill-opacity:1;fill-rule:nonzero;stroke:none"
           id="path88255"
           inkscape:connector-curvature="0" /><path
           d="m 518.242,254.949 c 1.844,5.666 2.89,11.457 3.996,20.289 2.497,19.944 1.055,37.686 -4.517,54.14 l -9.491,-81.323 z"
           style="fill:#5898c4;fill-opacity:1;fill-rule:nonzero;stroke:none"
           id="path88257"
           inkscape:connector-curvature="0" /><path
           d="m 557.805,506.288 c -1.45,5.931 -3.197,11.396 -5.08,15.334 l -12.827,-18.335 z"
           style="fill:#aa002b;fill-opacity:1;fill-rule:nonzero;stroke:none"
           id="path88259"
           inkscape:connector-curvature="0" /><path
           d="m 552.725,521.622 c -0.031,0.066 -0.065,0.135 -0.095,0.2 -5.999,12.357 -21.813,26.833 -39.063,35.781 -5.369,2.784 -11.01,5.259 -16.824,7.425 l 43.155,-61.741 z"
           style="fill:#ad0020;fill-opacity:1;fill-rule:nonzero;stroke:none"
           id="path88261"
           inkscape:connector-curvature="0" /><path
           d="m 404.543,90.049 c 11.705,-0.69 38.278,2.186 46.191,3.088 l -27.762,3.347 z"
           style="fill:#0066c9;fill-opacity:1;fill-rule:nonzero;stroke:none"
           id="path88263"
           inkscape:connector-curvature="0" /><path
           d="m 505.796,273.879 c -0.364,-1.753 -2.783,-6.556 -6.295,-12.656 l 8.729,-13.168 9.491,81.323 c -1.856,5.481 -4.17,10.823 -6.951,16.052 l -20.822,-10.364 c 16.078,-23.533 20.056,-40.924 15.848,-61.187"
           style="fill:#6dc9cd;fill-opacity:1;fill-rule:nonzero;stroke:none"
           id="path88265"
           inkscape:connector-curvature="0" /><path
           d="m 476.648,306.991 c -1.329,6.204 -3.179,10.079 -8.988,16.983 l -7.338,-3.653 18.25,-27.529 c 0.045,3.689 -0.621,8.111 -1.924,14.199"
           style="fill:#6dc9cd;fill-opacity:1;fill-rule:nonzero;stroke:none"
           id="path88267"
           inkscape:connector-curvature="0" /><path
           d="m 529.847,500.646 c 0.549,-1.721 0.836,-3.431 0.836,-5.119 0,-4.189 -6.41,-5.651 -8.677,-1.985 -0.735,1.19 -2.369,2.509 -4.593,3.835 l -77.391,-20.343 17.566,-15.31 c 2.437,6.234 7.641,10.381 16.891,14.575 6.875,3.118 14.834,5.67 17.693,5.67 5.352,0 17.349,-9.899 27.097,-21.094 l 20.629,42.412 z"
           style="fill:#c32500;fill-opacity:1;fill-rule:nonzero;stroke:none"
           id="path88269"
           inkscape:connector-curvature="0" /><path
           d="m 445.281,489.187 -5.259,-12.153 77.391,20.343 c -7.022,4.194 -19.939,8.474 -29.04,9.106 -18.073,1.254 -31.444,-4.108 -43.092,-17.296"
           style="fill:#c10600;fill-opacity:1;fill-rule:nonzero;stroke:none"
           id="path88271"
           inkscape:connector-curvature="0" /><path
           d="m 502.028,526.083 c 15.252,-7.676 25.019,-16.685 27.819,-25.437 l 10.051,2.641 -43.155,61.741 c -5.345,1.991 -10.836,3.718 -16.41,5.175 l -14.814,-34.24 c 12.057,-0.607 24.48,-3.825 36.509,-9.88"
           style="fill:#c10600;fill-opacity:1;fill-rule:nonzero;stroke:none"
           id="path88273"
           inkscape:connector-curvature="0" /><path
           d="m 429.434,141.42 c 8.638,-6.901 16.633,-14.218 16.633,-16.087 0,-1.381 -1.085,-3.351 -2.408,-4.378 -1.979,-1.539 -10.624,-5.125 -18.295,-7.836 l -2.392,-16.635 27.762,-3.347 c 1.444,0.165 2.267,0.264 2.267,0.264 l 7.735,7.264 c 6.594,6.188 11.116,12.977 14.082,21.587 l -39.937,57.055 z"
           style="fill:#0074ce;fill-opacity:1;fill-rule:nonzero;stroke:none"
           id="path88275"
           inkscape:connector-curvature="0" /><path
           d="m 474.818,122.252 c 2.162,6.27 3.501,13.504 4.212,22.186 0.873,10.631 3.685,25.061 7.117,38.398 l -51.266,-3.529 z"
           style="fill:#007fd1;fill-opacity:1;fill-rule:nonzero;stroke:none"
           id="path88277"
           inkscape:connector-curvature="0" /><path
           d="m 463.598,328.604 -3.276,-8.283 7.338,3.653 c -1.181,1.402 -2.525,2.932 -4.062,4.63"
           style="fill:#abc38b;fill-opacity:1;fill-rule:nonzero;stroke:none"
           id="path88279"
           inkscape:connector-curvature="0" /><path
           d="m 489.948,335.066 20.822,10.364 c -1.979,3.717 -4.188,7.379 -6.641,10.997 -7.163,10.566 -13.297,19.742 -18.547,27.794 l -11.321,-28.64 c 6.156,-7.4 11.36,-14.18 15.687,-20.515"
           style="fill:#abc38b;fill-opacity:1;fill-rule:nonzero;stroke:none"
           id="path88281"
           inkscape:connector-curvature="0" /><path
           d="m 444.74,488.575 c -1.455,-1.684 -3.215,-4.883 -4.969,-8.938 l 0.251,-2.603 5.259,12.153 c -0.18,-0.205 -0.362,-0.406 -0.541,-0.612"
           style="fill:#c60800;fill-opacity:1;fill-rule:nonzero;stroke:none"
           id="path88283"
           inkscape:connector-curvature="0" /><path
           d="m 465.519,535.963 14.814,34.24 c -16.555,4.331 -33.813,6.29 -49.953,5.747 l 4.333,-44.437 c 9.619,3.458 20.066,4.99 30.806,4.45"
           style="fill:#c60800;fill-opacity:1;fill-rule:nonzero;stroke:none"
           id="path88285"
           inkscape:connector-curvature="0" /><path
           d="m 432.616,420.46 c 2.073,-8.271 10.981,-23.106 10.981,-23.106 6.576,-11.107 16.675,-25.579 22.442,-32.159 2.911,-3.322 5.649,-6.522 8.222,-9.614 l 11.321,28.64 c -11.936,18.307 -19.287,30.784 -23.686,40.457 l -30.102,0.739 c 0.198,-1.834 0.466,-3.536 0.822,-4.957"
           style="fill:#c8c46c;fill-opacity:1;fill-rule:nonzero;stroke:none"
           id="path88287"
           inkscape:connector-curvature="0" /><path
           d="m 460.78,331.68 c -3.794,4.1 -7.513,8.26 -11.142,12.454 l 10.684,-23.813 3.276,8.283 c -0.875,0.969 -1.812,1.989 -2.818,3.076"
           style="fill:#c8c46c;fill-opacity:1;fill-rule:nonzero;stroke:none"
           id="path88289"
           inkscape:connector-curvature="0" /><path
           d="m 436.24,199.438 -1.359,-20.131 51.266,3.529 c 1.123,4.361 2.311,8.607 3.521,12.564 l -23.199,22.094 c -10.077,-7.317 -20.071,-13.296 -30.229,-18.056"
           style="fill:#0097de;fill-opacity:1;fill-rule:nonzero;stroke:none"
           id="path88291"
           inkscape:connector-curvature="0" /><path
           d="m 490.704,246.886 c -7.558,-11.65 -16.23,-23.447 -21.698,-27.526 -0.845,-0.632 -1.691,-1.254 -2.537,-1.866 L 489.668,195.4 c 3.127,10.227 6.388,18.528 8.985,21.936 1.747,2.289 4.694,7.102 7.736,12.531 l 1.841,18.188 z"
           style="fill:#008dde;fill-opacity:1;fill-rule:nonzero;stroke:none"
           id="path88293"
           inkscape:connector-curvature="0" /><path
           d="m 508.23,248.055 -8.729,13.168 c -2.495,-4.332 -5.544,-9.322 -8.797,-14.337 z"
           style="fill:#169ee2;fill-opacity:1;fill-rule:nonzero;stroke:none"
           id="path88295"
           inkscape:connector-curvature="0" /><path
           d="m 474.42,279.752 c 2.772,4.511 4.094,8.126 4.152,13.04 l -18.25,27.529 -18.63,-67.837 c 15.064,6.751 25.544,15.582 32.728,27.268"
           style="fill:#169ee2;fill-opacity:1;fill-rule:nonzero;stroke:none"
           id="path88297"
           inkscape:connector-curvature="0" /><path
           d="m 435.95,469.336 c -2.602,-8.204 -4.569,-17.402 -4.514,-24.648 0,0 -0.533,-10.984 0.358,-19.271 l 30.102,-0.739 c -3.809,8.383 -5.407,14.662 -5.85,20.809 -0.494,6.818 -0.111,12.007 1.542,16.237 l -17.566,15.31 z"
           style="fill:#ce620a;fill-opacity:1;fill-rule:nonzero;stroke:none"
           id="path88299"
           inkscape:connector-curvature="0" /><path
           d="m 183.098,86.692 c 0.086,-1.631 1.984,-2.249 6.116,-0.953 l -2.799,1.002 z"
           style="fill:#ac8c98;fill-opacity:1;fill-rule:nonzero;stroke:none"
           id="path88301"
           inkscape:connector-curvature="0" /><path
           d="m 397.462,418.424 -63.267,-30.437 5.337,-14.654 c 7.258,-7.628 15.626,-14.388 24.795,-19.845 6.327,-3.766 11.758,-7.22 16.295,-10.366 l 24.241,62.041 c -2.726,4.577 -5.203,9.012 -7.401,13.261"
           style="fill:#dae262;fill-opacity:1;fill-rule:nonzero;stroke:none"
           id="path88303"
           inkscape:connector-curvature="0" /><path
           d="m 367.105,308.527 6.536,16.724 c -5.352,0.66 -10.809,0.771 -16.695,0.27 l 6.234,-17.115 c 1.354,0.061 2.665,0.102 3.925,0.121"
           style="fill:#dae262;fill-opacity:1;fill-rule:nonzero;stroke:none"
           id="path88305"
           inkscape:connector-curvature="0" /><path
           d="m 425.364,113.119 c -4.155,-1.469 -8.026,-2.68 -10.4,-3.169 -0.69,-0.143 -1.512,-0.442 -2.403,-0.857 l 10.411,-12.609 z"
           style="fill:#008ad9;fill-opacity:1;fill-rule:nonzero;stroke:none"
           id="path88307"
           inkscape:connector-curvature="0" /><path
           d="m 378.042,150.887 1.908,-2.31 c 4.279,0.731 8.099,1.569 11.299,2.509 7.401,2.174 15.3,3.956 17.555,3.956 2.383,0 11.84,-6.597 20.63,-13.622 l 5.447,37.887 z"
           style="fill:#008ad9;fill-opacity:1;fill-rule:nonzero;stroke:none"
           id="path88309"
           inkscape:connector-curvature="0" /><path
           d="m 379.347,303.443 c -1.347,-0.721 -5.285,-2.084 -10.114,-3.547 l 63.307,-51.061 c 3.225,1.144 6.272,2.358 9.152,3.649 l 18.63,67.837 -78.509,-14.051 c 0.371,-0.755 -0.353,-1.696 -2.466,-2.827"
           style="fill:#74e0e0;fill-opacity:1;fill-rule:nonzero;stroke:none"
           id="path88311"
           inkscape:connector-curvature="0" /><path
           d="m 381.813,306.27 78.509,14.051 -10.684,23.813 c -17.836,20.613 -33.457,42.034 -44.775,61.029 l -24.241,-62.041 c 14.616,-10.133 19.962,-17.061 16.098,-20.849 -0.892,-0.872 -7.243,-0.262 -14.119,1.359 -2.991,0.706 -5.961,1.249 -8.96,1.619 l -6.536,-16.724 c 8.027,0.12 13.913,-0.631 14.708,-2.257"
           style="fill:#afdf7b;fill-opacity:1;fill-rule:nonzero;stroke:none"
           id="path88313"
           inkscape:connector-curvature="0" /><path
           d="m 420.089,575.244 c -12.092,-1.266 -23.272,-4.057 -32.68,-8.441 -19.905,-9.277 -45.556,-32.459 -59.821,-54.069 -1.161,-1.763 -2.738,-4.745 -4.371,-8.184 l 0.964,-32.117 z"
           style="fill:#df2200;fill-opacity:1;fill-rule:nonzero;stroke:none"
           id="path88315"
           inkscape:connector-curvature="0" /><path
           d="m 436.24,199.438 c -10.882,-5.096 -21.955,-8.791 -33.527,-11.218 l -24.671,-37.333 56.839,28.42 z"
           style="fill:#009be2;fill-opacity:1;fill-rule:nonzero;stroke:none"
           id="path88317"
           inkscape:connector-curvature="0" /><path
           d="m 332.095,244.741 c 26.778,-5.808 59.439,-6.562 81.681,-1.332 3.913,0.92 7.626,1.903 11.157,2.953 l -104.001,21.181 z"
           style="fill:#14b4ec;fill-opacity:1;fill-rule:nonzero;stroke:none"
           id="path88319"
           inkscape:connector-curvature="0" /><path
           d="m 394.308,186.688 c -9.954,-1.535 -18.177,-2.664 -18.273,-2.499 -0.085,0.162 -6.827,0.874 -15.074,1.59 l 17.081,-34.892 24.671,37.333 c -2.773,-0.582 -5.571,-1.094 -8.405,-1.532"
           style="fill:#14b4ec;fill-opacity:1;fill-rule:nonzero;stroke:none"
           id="path88321"
           inkscape:connector-curvature="0" /><path
           d="m 388.613,474.992 c 1.615,8.783 3.752,16.919 5.603,20.582 8.841,17.514 23.354,29.778 40.497,35.939 l -4.333,44.437 c -3.489,-0.117 -6.925,-0.353 -10.291,-0.706 L 324.181,472.433 Z"
           style="fill:#dc2b00;fill-opacity:1;fill-rule:nonzero;stroke:none"
           id="path88323"
           inkscape:connector-curvature="0" /><path
           d="m 438.669,476.979 1.353,0.055 -0.251,2.603 c -0.37,-0.849 -0.738,-1.738 -1.102,-2.658"
           style="fill:#dc2b00;fill-opacity:1;fill-rule:nonzero;stroke:none"
           id="path88325"
           inkscape:connector-curvature="0" /><path
           d="m 435.95,469.336 4.072,7.698 -1.353,-0.055 c -0.943,-2.372 -1.864,-4.954 -2.719,-7.643"
           style="fill:#df5e00;fill-opacity:1;fill-rule:nonzero;stroke:none"
           id="path88327"
           inkscape:connector-curvature="0" /><path
           d="m 386.512,446.876 c -1.064,5.697 0.128,17.389 2.101,28.116 l -64.432,-2.559 64.525,-33.836 c -0.977,2.961 -1.716,5.733 -2.194,8.279"
           style="fill:#df5e00;fill-opacity:1;fill-rule:nonzero;stroke:none"
           id="path88329"
           inkscape:connector-curvature="0" /><path
           d="m 360.289,297.362 c -1.292,-0.341 -2.581,-0.703 -3.867,-1.08 l -35.49,-28.739 104.001,-21.181 c 2.637,0.784 5.172,1.609 7.607,2.473 l -63.307,51.061 c -2.793,-0.847 -5.882,-1.726 -8.944,-2.534"
           style="fill:#67d7ef;fill-opacity:1;fill-rule:nonzero;stroke:none"
           id="path88331"
           inkscape:connector-curvature="0" /><path
           d="m 412.561,109.093 c -2.773,-1.289 -6.252,-3.718 -8.753,-6.222 -4.798,-4.793 -5.782,-7.083 -4.862,-11.276 L 398.94,91.6 c 0.195,-0.881 2.311,-1.357 5.603,-1.551 l 18.429,6.435 z"
           style="fill:#0074d4;fill-opacity:1;fill-rule:nonzero;stroke:none"
           id="path88333"
           inkscape:connector-curvature="0" /><path
           d="m 377.813,148.229 c 0.724,0.114 1.436,0.23 2.137,0.348 l -1.908,2.31 z"
           style="fill:#0074d4;fill-opacity:1;fill-rule:nonzero;stroke:none"
           id="path88335"
           inkscape:connector-curvature="0" /><path
           d="m 324.181,472.433 10.014,-84.446 63.267,30.437 c -3.807,7.362 -6.776,14.164 -8.756,20.173 z"
           style="fill:#e88200;fill-opacity:1;fill-rule:nonzero;stroke:none"
           id="path88337"
           inkscape:connector-curvature="0" /><path
           d="m 363.18,308.406 -6.234,17.115 c -10.117,-0.861 -21.5,-3.534 -35.776,-8.341 l 30.64,-9.713 c 3.937,0.463 7.797,0.775 11.37,0.939"
           style="fill:#dcf07c;fill-opacity:1;fill-rule:nonzero;stroke:none"
           id="path88339"
           inkscape:connector-curvature="0" /><path
           d="m 331.08,383.262 c 2.61,-3.439 5.437,-6.76 8.452,-9.929 l -5.337,14.654 z"
           style="fill:#dcf07c;fill-opacity:1;fill-rule:nonzero;stroke:none"
           id="path88341"
           inkscape:connector-curvature="0" /><path
           d="m 360.483,185.821 c -8.463,0.736 -29.229,4.861 -46.152,9.164 -17.619,4.488 -27.272,7.421 -37.328,11.878 l -25.63,-35.406 126.669,-20.57 -17.081,34.892 c -0.159,0.014 -0.318,0.028 -0.478,0.042"
           style="fill:#31bded;fill-opacity:1;fill-rule:nonzero;stroke:none"
           id="path88343"
           inkscape:connector-curvature="0" /><path
           d="m 309.277,251.442 c 1.946,-0.722 4.317,-1.533 7.213,-2.494 4.862,-1.61 10.109,-3.013 15.605,-4.207 l -11.163,22.802 z"
           style="fill:#31bded;fill-opacity:1;fill-rule:nonzero;stroke:none"
           id="path88345"
           inkscape:connector-curvature="0" /><path
           d="m 378.042,150.887 -3.729,-3.169 c 1.193,0.164 2.362,0.334 3.5,0.511 z"
           style="fill:#0069d5;fill-opacity:1;fill-rule:nonzero;stroke:none"
           id="path88347"
           inkscape:connector-curvature="0" /><path
           d="m 251.373,171.457 7.247,-49.212 c 2.798,5.197 8.022,12.749 11.907,17.187 8.281,9.441 5.874,9.053 40.724,6.585 21.199,-1.502 45.123,-0.749 63.062,1.701 l 3.729,3.169 z"
           style="fill:#0181dd;fill-opacity:1;fill-rule:nonzero;stroke:none"
           id="path88349"
           inkscape:connector-curvature="0" /><path
           d="m 262.408,214.092 c -3.733,1.99 -7.429,4.012 -11.035,6.034 l -8.662,-5.903 8.662,-42.766 25.63,35.406 c -4.528,2.006 -9.139,4.324 -14.595,7.229"
           style="fill:#8bebdb;fill-opacity:1;fill-rule:nonzero;stroke:none"
           id="path88351"
           inkscape:connector-curvature="0" /><path
           d="m 302.341,254.869 c 1.295,-1.097 3.416,-2.118 6.936,-3.427 l 11.655,16.101 z"
           style="fill:#8bebdb;fill-opacity:1;fill-rule:nonzero;stroke:none"
           id="path88353"
           inkscape:connector-curvature="0" /><path
           d="m 324.181,472.433 -12.867,-25.429 c -0.452,-7.985 -0.411,-15.426 0.48,-20.807 1.99,-12.034 6.839,-24.059 13.886,-35.166 l 8.515,-3.044 z"
           style="fill:#f38900;fill-opacity:1;fill-rule:nonzero;stroke:none"
           id="path88355"
           inkscape:connector-curvature="0" /><path
           d="m 330.531,303.385 c 6.481,1.867 14.013,3.228 21.279,4.082 l -30.64,9.713 c -6.145,-2.071 -12.827,-4.535 -20.173,-7.422 l 6.697,-14.18 c 8.264,3.096 17.473,6.259 22.837,7.807"
           style="fill:#b7f3bb;fill-opacity:1;fill-rule:nonzero;stroke:none"
           id="path88357"
           inkscape:connector-curvature="0" /><path
           d="m 356.422,296.282 c -15.286,-4.476 -29.903,-11.328 -40.392,-18.356 l 4.902,-10.383 z"
           style="fill:#b7f3bb;fill-opacity:1;fill-rule:nonzero;stroke:none"
           id="path88359"
           inkscape:connector-curvature="0" /><path
           d="m 183.124,87.204 c -0.026,-0.181 -0.034,-0.35 -0.026,-0.512 l 3.317,0.049 z"
           style="fill:#b16559;fill-opacity:1;fill-rule:nonzero;stroke:none"
           id="path88361"
           inkscape:connector-curvature="0" /><path
           d="m 323.217,504.55 c -1.797,-3.784 -3.663,-8.118 -5.119,-11.991 -1.177,-3.137 -3.026,-12.32 -4.536,-23.226 l 10.619,3.1 z"
           style="fill:#f43800;fill-opacity:1;fill-rule:nonzero;stroke:none"
           id="path88363"
           inkscape:connector-curvature="0" /><path
           d="m 313.562,469.333 c -0.986,-7.11 -1.828,-14.95 -2.248,-22.329 l 12.867,25.429 z"
           style="fill:#f77700;fill-opacity:1;fill-rule:nonzero;stroke:none"
           id="path88365"
           inkscape:connector-curvature="0" /><path
           d="m 325.68,391.031 c 1.678,-2.646 3.481,-5.24 5.4,-7.769 l 3.115,4.725 z"
           style="fill:#f2da4a;fill-opacity:1;fill-rule:nonzero;stroke:none"
           id="path88367"
           inkscape:connector-curvature="0" /><path
           d="m 300.726,292.888 c 2.157,0.861 4.521,1.772 6.968,2.69 l -6.697,14.18 c -3.714,-1.46 -7.597,-3.025 -11.669,-4.703 -14.806,-6.101 -31.68,-12.24 -37.495,-13.639 -3.082,-0.743 -6.458,-1.293 -10.105,-1.657 l 26.726,-7.497 c 11.252,3.083 22.755,6.824 32.272,10.626"
           style="fill:#d8f890;fill-opacity:1;fill-rule:nonzero;stroke:none"
           id="path88369"
           inkscape:connector-curvature="0" /><path
           d="m 316.03,277.926 c -3.297,-2.208 -6.182,-4.435 -8.556,-6.609 l 13.458,-3.774 z"
           style="fill:#d8f890;fill-opacity:1;fill-rule:nonzero;stroke:none"
           id="path88371"
           inkscape:connector-curvature="0" /><path
           d="m 307.474,271.317 c -4.882,-4.471 -7.591,-8.728 -7.188,-12.176 0.212,-1.818 0.653,-3.088 2.055,-4.272 l 18.591,12.674 z"
           style="fill:#c5f5c1;fill-opacity:1;fill-rule:nonzero;stroke:none"
           id="path88373"
           inkscape:connector-curvature="0" /><path
           d="m 235.265,275.292 c 8.785,0.996 20.835,3.586 33.189,6.97 l -26.726,7.497 c -8.166,-0.819 -17.708,-0.692 -28.456,0.376 l 5.636,-14.534 c 6.228,-0.932 10.811,-0.937 16.357,-0.309"
           style="fill:#c5f5c1;fill-opacity:1;fill-rule:nonzero;stroke:none"
           id="path88375"
           inkscape:connector-curvature="0" /><path
           d="m 242.711,214.223 8.662,5.903 c -4.922,2.759 -9.677,5.518 -14.125,8.187 z"
           style="fill:#c5f5c1;fill-opacity:1;fill-rule:nonzero;stroke:none"
           id="path88377"
           inkscape:connector-curvature="0" /><path
           d="m 213.277,121.774 c -0.079,-6.563 -1.194,-8.351 -4.778,-12.613 -2.875,-3.413 -8.366,-7.814 -12.196,-9.771 -0.106,-0.055 -0.21,-0.109 -0.316,-0.164 l -9.572,-12.485 2.799,-1.002 c 0.259,0.081 0.523,0.167 0.799,0.264 3.597,1.253 7.156,1.216 10.662,-0.117 7.078,-2.693 24.239,-2.416 29.259,0.474 5.892,3.39 22.64,24.201 28.32,35.192 0.116,0.224 0.239,0.457 0.366,0.693 l -7.247,49.212 z"
           style="fill:#6cb0c4;fill-opacity:1;fill-rule:nonzero;stroke:none"
           id="path88379"
           inkscape:connector-curvature="0" /><path
           d="m 237.248,228.313 c -16.026,9.609 -28.091,18.05 -29.766,21.183 -0.657,1.232 -1.586,2.322 -2.459,2.978 l -3.452,-32.297 41.14,-5.954 z"
           style="fill:#cbf387;fill-opacity:1;fill-rule:nonzero;stroke:none"
           id="path88381"
           inkscape:connector-curvature="0" /><path
           d="m 218.908,275.601 -5.636,14.534 c -1.372,0.135 -2.764,0.287 -4.174,0.453 l -1.368,-12.794 c 4.385,-0.997 7.999,-1.717 11.178,-2.193"
           style="fill:#cbf387;fill-opacity:1;fill-rule:nonzero;stroke:none"
           id="path88383"
           inkscape:connector-curvature="0" /><path
           d="m 205.275,164.261 c 5.876,-13.477 7.115,-18.72 7.718,-32.421 0.193,-4.33 0.315,-7.549 0.284,-10.066 l 38.096,49.683 z"
           style="fill:#8bcfa3;fill-opacity:1;fill-rule:nonzero;stroke:none"
           id="path88385"
           inkscape:connector-curvature="0" /><path
           d="m 195.987,99.226 c -4.026,-2.093 -7.279,-4.536 -9.511,-6.798 l -0.061,-5.687 z"
           style="fill:#8bcfa3;fill-opacity:1;fill-rule:nonzero;stroke:none"
           id="path88387"
           inkscape:connector-curvature="0" /><path
           d="m 201.571,220.177 49.802,-48.72 -8.662,42.766 z"
           style="fill:#96eaa2;fill-opacity:1;fill-rule:nonzero;stroke:none"
           id="path88389"
           inkscape:connector-curvature="0" /><path
           d="m 201.571,220.177 -8.274,-33.876 c 4.5,-6.783 8.461,-14.004 11.76,-21.537 0.074,-0.171 0.146,-0.334 0.218,-0.503 l 46.098,7.196 z"
           style="fill:#9ae292;fill-opacity:1;fill-rule:nonzero;stroke:none"
           id="path88391"
           inkscape:connector-curvature="0" /><path
           d="m 157.89,260.816 c -2.224,0 -7.011,9.339 -5.539,10.812 2.535,2.536 7.137,-1.299 7.137,-5.941 0,-2.677 -0.719,-4.871 -1.598,-4.871 m -35.301,4.304 c -0.84,-4.43 -9.795,-5.403 -13.1,-1.419 -2.148,2.586 -2.054,3.577 0.574,6.208 2.595,2.595 3.987,2.736 8.147,0.842 3.154,-1.438 4.778,-3.525 4.379,-5.631 m 15.861,34.214 c -8.945,-0.147 -15.974,-1.2 -19.887,-3.192 -1.978,-1.005 -5.391,-3.461 -9.058,-6.437 L 96.22,238.363 c 6.008,-2.212 10.637,-2.557 20.941,-2.57 13.228,-0.014 18.261,-0.9 26.017,-4.57 5.589,-2.645 11.039,-5.867 16.282,-9.583 l 42.111,-1.463 z"
           style="fill:#f0d03c;fill-opacity:1;fill-rule:nonzero;stroke:none"
           id="path88393"
           inkscape:connector-curvature="0" /><path
           d="m 205.023,252.474 c -0.541,0.408 -1.061,0.648 -1.482,0.648 -3.598,0 -27.809,15.276 -33.304,21.014 -10.62,11.082 0.051,12.65 32.665,4.793 1.714,-0.414 3.314,-0.789 4.828,-1.135 l 1.368,12.794 c -7.214,0.852 -14.927,2.1 -23.1,3.748 -17.445,3.515 -34.527,5.216 -47.548,4.998 l 63.121,-79.157 z"
           style="fill:#f6e63a;fill-opacity:1;fill-rule:nonzero;stroke:none"
           id="path88395"
           inkscape:connector-curvature="0" /><path
           d="m 159.46,221.64 c 12.892,-9.143 24.523,-21.3 33.837,-35.339 l 8.274,33.876 z"
           style="fill:#c7df6f;fill-opacity:1;fill-rule:nonzero;stroke:none"
           id="path88397"
           inkscape:connector-curvature="0" /><path
           d="m 186.476,92.428 c -1.978,-2.007 -3.153,-3.87 -3.352,-5.224 l 3.291,-0.463 z"
           style="fill:#b5b995;fill-opacity:1;fill-rule:nonzero;stroke:none"
           id="path88399"
           inkscape:connector-curvature="0" /><path
           d="m 101.716,282.895 c -8.863,-8.386 -12.568,-10.507 -21.64,-12.396 -9.634,-1.999 -14.255,-5.491 -14.029,-9.86 l 7.202,-9.987 c 3.468,-2.702 8.176,-5.522 14.106,-8.381 3.553,-1.711 6.331,-2.976 8.865,-3.908 l 13.285,51.342 c -2.608,-2.117 -5.345,-4.498 -7.789,-6.81"
           style="fill:#fb9b00;fill-opacity:1;fill-rule:nonzero;stroke:none"
           id="path88401"
           inkscape:connector-curvature="0" /><path
           d="m 73.249,250.652 -7.202,9.987 c 0.156,-2.986 2.572,-6.379 7.202,-9.987"
           style="fill:#f56500;fill-opacity:1;fill-rule:nonzero;stroke:none"
           id="path88403"
           inkscape:connector-curvature="0" /></g></g></g></svg>