<svg xmlns="http://www.w3.org/2000/svg" xmlns:svgjs="http://svgjs.com/svgjs" xmlns:xlink="http://www.w3.org/1999/xlink"><svg xmlns="http://www.w3.org/2000/svg" enable-background="new 0 0 490.2 490.2" viewBox="0 0 490.2 490.2"><path fill="#3f3d56" d="M158.1 180.6c-6.3 5.2-9.9 12.9-9.9 21v24.5c0 5.5 4.4 9.9 9.9 9.9s9.9-4.4 9.9-9.9v-24.5c0-2.2 1-4.3 2.7-5.7 21.4-17.5 44.5-29.2 49-31.4 3.9-1.9 6.5-6 6.5-10.3v-34.5c0-3.3-1.7-6.4-4.4-8.2-1.7-1.2-2.8-3.1-2.8-5.2V70.5c0-12.3 10-22.3 22.3-22.3h7.7c12.3 0 22.3 10 22.3 22.3v35.8c0 2.1-1 4-2.8 5.2-2.8 1.8-4.4 4.9-4.4 8.2v34.5c0 4.4 2.5 8.4 6.4 10.3 4.4 2.2 27.6 13.9 49 31.4 1.7 1.4 2.7 3.5 2.7 5.7v24.5c0 5.5 4.4 9.9 9.9 9.9s9.9-4.4 9.9-9.9v-24.5c0-8.2-3.6-15.9-9.9-21-18.8-15.4-38.8-26.6-48.2-31.5v-24.9c4.6-4.8 7.2-11.2 7.2-18V70.5c0-23.2-18.9-42.1-42.1-42.1h-7.7c-23.2 0-42.1 18.9-42.1 42.1v35.8c0 6.8 2.6 13.2 7.2 18v24.8C196.9 154 176.9 165.2 158.1 180.6zM480.3 461.8c5.5 0 9.9-4.4 9.9-9.9v-24.5c0-8.2-3.6-15.9-9.9-21-18.8-15.4-38.8-26.6-48.2-31.5V350c4.6-4.8 7.2-11.2 7.2-18v-35.8c0-23.2-18.9-42.1-42.1-42.1h-7.7c-23.2 0-42.1 18.9-42.1 42.1V332c0 6.8 2.6 13.2 7.2 18v24.9c-9.4 4.9-29.4 16.1-48.2 31.5-6.3 5.2-9.9 12.8-9.9 21v24.5c0 5.5 4.4 9.9 9.9 9.9s9.9-4.4 9.9-9.9v-24.5c0-2.2 1-4.3 2.7-5.7 21.4-17.6 44.5-29.3 49-31.4 3.9-1.9 6.4-6 6.4-10.3v-34.5c0-3.3-1.7-6.4-4.4-8.2-1.7-1.2-2.8-3.1-2.8-5.2v-35.8c0-12.3 10-22.3 22.3-22.3h7.7c12.3 0 22.3 10 22.3 22.3v35.8c0 2.1-1 4-2.8 5.2-2.8 1.8-4.4 4.9-4.4 8.2V380c0 4.4 2.5 8.4 6.4 10.3 4.4 2.2 27.6 13.9 49 31.4 1.7 1.4 2.7 3.5 2.7 5.7v24.5C470.4 457.4 474.9 461.8 480.3 461.8zM183.8 406.4C165 391 145 379.8 135.6 374.9V350c4.6-4.8 7.2-11.2 7.2-18v-35.8c0-23.2-18.9-42.1-42.1-42.1H93c-23.2 0-42.1 18.9-42.1 42.1V332c0 6.8 2.6 13.2 7.2 18v24.9c-9.4 4.9-29.4 16.1-48.2 31.5-6.3 5.2-9.9 12.8-9.9 21v24.5c0 5.5 4.4 9.9 9.9 9.9s9.9-4.4 9.9-9.9v-24.5c0-2.2 1-4.3 2.7-5.7 21.4-17.6 44.5-29.3 49-31.4 3.9-1.9 6.4-6 6.4-10.3v-34.5c0-3.3-1.7-6.4-4.4-8.2-1.7-1.2-2.8-3.1-2.8-5.2v-35.8c0-12.3 10-22.3 22.3-22.3h7.7c12.3 0 22.3 10 22.3 22.3v35.8c0 2.1-1 4-2.8 5.2-2.8 1.8-4.4 4.9-4.4 8.2V380c0 4.4 2.5 8.4 6.4 10.3 4.4 2.2 27.6 13.8 49 31.4 1.7 1.4 2.7 3.5 2.7 5.7v24.5c0 5.5 4.4 9.9 9.9 9.9s9.9-4.4 9.9-9.9v-24.5C193.7 419.2 190.1 411.5 183.8 406.4z" class="color2c2f33 svgShape"/><path fill="#fbd64a" d="M301.4,347.3c1.6,0.9,3.3,1.3,4.9,1.3c3.4,0,6.8-1.8,8.6-5c2.7-4.7,1.1-10.8-3.6-13.5l-55.5-32V234
			c0-5.5-4.4-9.9-9.9-9.9s-9.9,4.4-9.9,9.9v64.1l-55.5,32.1c-4.7,2.7-6.4,8.8-3.6,13.5c1.8,3.2,5.2,5,8.6,5c1.7,0,3.4-0.4,4.9-1.3
			l55.5-32.1L301.4,347.3z" class="color3c92ca svgShape"/></svg></svg>